<svg xmlns="http://www.w3.org/2000/svg" xmlns:xlink="http://www.w3.org/1999/xlink" width="1523.96" height="452.698" viewBox="0 0 1523.96 452.698">
  <defs>
    <clipPath id="clip-path">
      <path id="gradient" d="M0,400H1510V0H21.481Z" transform="matrix(-1, 0.017, -0.017, -1, 1516.813, 400.567)" fill="#12aa5d"/>
    </clipPath>
  </defs>
  <g id="gradient-bg" transform="matrix(1, 0.017, -0.017, 1, 7.389, -0.629)">
    <path id="gradient-2" data-name="gradient" d="M0,400H1510V0H21.481Z" transform="matrix(-1, 0.017, -0.017, -1, 1516.813, 400.567)" fill="#12aa5d"/>
    <g id="gradient-bg-2" data-name="gradient-bg" clip-path="url(#clip-path)">
      <g id="artwork" transform="translate(1427.189 105.625) rotate(180)">
        <g id="City_bg" data-name="City bg" transform="translate(0.878 -35.737)">
          <path id="Fill_1" data-name="Fill 1" d="M-5.915,0A5.915,5.915,0,0,1,0,5.915V169.566H-76.554V5.915A5.915,5.915,0,0,1-70.638,0Z" transform="translate(231.017 -106.289) rotate(180)" opacity="0.084"/>
          <path id="Fill_3" data-name="Fill 3" d="M-186.083,7.465A7.411,7.411,0,0,1-178.726,0h68.888a6.809,6.809,0,0,1,4.8,2.021,7.487,7.487,0,0,1,2.334,5.444v11.6h10.363a5.915,5.915,0,0,1,5.915,5.915V73.89H-5.915A5.915,5.915,0,0,1,0,79.805v196.05H-202.361V24.976a5.915,5.915,0,0,1,5.915-5.915h10.363Z" transform="translate(335.047 0) rotate(180)" opacity="0.084"/>
          <path id="Fill_1-2" data-name="Fill 1" d="M-15.875,18.291a16.8,16.8,0,0,0-14.648,8.56,7.818,7.818,0,0,0-6.452-3.4,7.8,7.8,0,0,0-5.438,2.2A16.809,16.809,0,0,0-59.045,11.282a16.835,16.835,0,0,0-3.9.455A20.082,20.082,0,0,0-81.216,0,20.081,20.081,0,0,0-101.3,20.081a20.1,20.1,0,0,0,.559,4.721,9.336,9.336,0,0,0-3.14-.54,9.354,9.354,0,0,0-7.153,3.313,3.739,3.739,0,0,0-.9-.109,3.791,3.791,0,0,0-1.628.365,4.816,4.816,0,0,0-4.81-4.56,4.815,4.815,0,0,0-4.816,4.816,4.826,4.826,0,0,0,.231,1.478H0A16.813,16.813,0,0,0-15.875,18.291" transform="translate(146.277 -42.893) rotate(180)" fill="#fff" opacity="0.2"/>
          <path id="Fill_1-3" data-name="Fill 1" d="M-6.786,11.175a6.8,6.8,0,0,0-1.907.272A11.736,11.736,0,0,0-19.215,4.922a11.728,11.728,0,0,0-3.968.687A11.731,11.731,0,0,0-33.2,0,11.734,11.734,0,0,0-44.82,10.077a6.786,6.786,0,0,0-1.6-.189,6.784,6.784,0,0,0-6.66,5.48,3.856,3.856,0,0,0-1.539-.318,3.872,3.872,0,0,0-1.418.268,5.815,5.815,0,0,0-5.075-2.971,5.812,5.812,0,0,0-5.816,5.809,5.885,5.885,0,0,0,.05.765H-.07A6.714,6.714,0,0,0,0,17.953a6.782,6.782,0,0,0-6.786-6.778" transform="translate(332.256 -23.988) rotate(180)" fill="#fff" opacity="0.581"/>
          <path id="Fill_6" data-name="Fill 6" d="M0,84.653C-5.5,37.432-82.395,0-176.459,0s-170.959,37.432-176.46,84.653Z" transform="translate(365.747 -190.881) rotate(180)" fill="#2cb789"/>
          <path id="Fill_9" data-name="Fill 9" d="M0,84.653C-5.028,37.432-75.311,0-161.289,0S-317.551,37.432-322.578,84.653Z" transform="translate(0 -214.533) rotate(180)" opacity="0.08"/>
          <path id="Fill_12" data-name="Fill 12" d="M0,132.057C-18.4,56.882-104.317,0-207.551,0S-396.706,56.882-415.1,132.057Z" transform="translate(185.815 -149.109) rotate(180)" fill="#8dd6b1"/>
          <path id="Fill_14" data-name="Fill 14" d="M-28.823,0s-2.052,17.117,7.06,33.373,17.6,10.621,17.6,10.621,9.263-4.254.15-20.509S-28.823,0-28.823,0" transform="translate(129.112 -174.177) rotate(180)" fill="#6fcfe0"/>
          <path id="Fill_18" data-name="Fill 18" d="M-14.672,0S-1.571,15.727-.121,37.782-10.746,59.689-10.746,59.689-22.7,61.414-24.15,39.36-14.672,0-14.672,0" transform="translate(117.859 -158.212) rotate(180)" fill="#a5e0d4"/>
          <path id="Fill_16" data-name="Fill 16" d="M-35.772,0s-4.82,20.841,5.9,37.917,23.113,8.3,23.113,8.3,13.3-7.329,2.581-24.4S-35.772,0-35.772,0" transform="translate(525.971 -144.999) rotate(180)" fill="#a7e1d8"/>
          <path id="Fill_20" data-name="Fill 20" d="M-9.243,0S.132,13,0,30.253-9.6,46.706-9.6,46.706s-9.48.661-9.347-16.6S-9.243,0-9.243,0" transform="translate(518.225 -146.977) rotate(180)" fill="#2cb789"/>
          <path id="Fill_22" data-name="Fill 22" d="M-45.906,25.386a7.715,7.715,0,0,1-3.852-7.208A7.392,7.392,0,0,1-44.6,12.084c1.568-.454,3.243-.366,4.845-.68s3.276-1.211,3.734-2.777c.59-2.023-1.082-4.2-.486-6.219s3.244-2.778,5.3-2.236,3.745,1.953,5.611,2.965a15.512,15.512,0,0,0,7.31,1.869c2.076.008,4.156-.4,6.216-.155s4.218,1.38,4.82,3.365c.5,1.647-.146,3.6.8,5.041.966,1.468,3.051,1.607,4.521,2.573A4.6,4.6,0,0,1-.747,22.074Z" transform="translate(129.704 -197.829) rotate(180)" fill="#109c55"/>
          <path id="Fill_24" data-name="Fill 24" d="M-55.819,29.416a9.319,9.319,0,0,1-4-9.021,8.93,8.93,0,0,1,6.754-6.884c1.929-.409,3.938-.155,5.9-.392s4.053-1.169,4.743-3.015c.891-2.384-.932-5.152-.035-7.534.9-2.4,4.154-3.059,6.579-2.226s4.338,2.684,6.5,4.069a18.732,18.732,0,0,0,8.641,2.9c2.5.193,5.041-.118,7.5.363s4.959,2.034,5.508,4.478c.456,2.028-.493,4.327.518,6.142C-6.188,20.146-3.688,20.5-2,21.791a5.55,5.55,0,0,1,.871,7.625Z" transform="translate(366.651 -121.69) rotate(180)" fill="#2cb789"/>
          <path id="Fill_26" data-name="Fill 26" d="M0,74.225H-6.3V6.3C-6.3,3.284-3.02,0,0,0H0Z" transform="translate(453.108 -201.308) rotate(180)" fill="rgba(0,0,0,0.2)"/>
          <path id="Fill_28" data-name="Fill 28" d="M0,74.225H-6.3V6.3C-6.3,3.306-3,0,0,0H0Z" transform="translate(304.016 -201.308) rotate(180)" fill="rgba(0,0,0,0.2)"/>
          <path id="Fill_30" data-name="Fill 30" d="M-181.532,12.513H-5.659A5.657,5.657,0,0,0,0,6.858v-1.2A5.657,5.657,0,0,0-5.659,0H-181.532a5.657,5.657,0,0,0-5.659,5.655v1.2a5.657,5.657,0,0,0,5.659,5.655" transform="translate(288.119 -237.001) rotate(180)" fill="#a6e0d7"/>
          <path id="Fill_31" data-name="Fill 31" d="M-181.532,12.513H-5.659A5.657,5.657,0,0,0,0,6.858v-1.2A5.657,5.657,0,0,0-5.659,0H-181.532a5.657,5.657,0,0,0-5.659,5.655v1.2a5.657,5.657,0,0,0,5.659,5.655" transform="translate(288.119 -220.935) rotate(180)" fill="#a6e0d7"/>
          <path id="Fill_32" data-name="Fill 32" d="M-181.532,12.513H-5.659A5.657,5.657,0,0,0,0,6.858v-1.2A5.657,5.657,0,0,0-5.659,0H-181.532a5.657,5.657,0,0,0-5.659,5.655v1.2a5.657,5.657,0,0,0,5.659,5.655" transform="translate(288.119 -204.869) rotate(180)" fill="#a6e0d7"/>
          <path id="Combined_Shape" data-name="Combined Shape" d="M-172.767,34.083a1.952,1.952,0,0,0-1.953-1.951,1.952,1.952,0,0,0-1.953,1.951,1.952,1.952,0,0,0,1.953,1.951A1.952,1.952,0,0,0-172.767,34.083ZM0,34.083a1.952,1.952,0,0,0-1.953-1.951,1.952,1.952,0,0,0-1.953,1.951,1.952,1.952,0,0,0,1.953,1.951A1.952,1.952,0,0,0,0,34.083ZM-172.767,18.017a1.952,1.952,0,0,0-1.953-1.951,1.952,1.952,0,0,0-1.953,1.951,1.953,1.953,0,0,0,1.953,1.952A1.953,1.953,0,0,0-172.767,18.017ZM0,18.017a1.952,1.952,0,0,0-1.953-1.951,1.952,1.952,0,0,0-1.953,1.951,1.953,1.953,0,0,0,1.953,1.952A1.953,1.953,0,0,0,0,18.017ZM-172.767,1.951A1.952,1.952,0,0,0-174.72,0a1.952,1.952,0,0,0-1.953,1.951A1.953,1.953,0,0,0-174.72,3.9,1.953,1.953,0,0,0-172.767,1.951ZM0,1.951A1.952,1.952,0,0,0-1.953,0,1.952,1.952,0,0,0-3.906,1.951,1.953,1.953,0,0,0-1.953,3.9,1.953,1.953,0,0,0,0,1.951Z" transform="translate(293.378 -209.174) rotate(180)" fill="rgba(255,255,255,0.6)"/>
          <path id="Fill_44" data-name="Fill 44" d="M-18.089,24.415H-2.472L0,0H-20.561Z" transform="matrix(-1, -0.017, 0.017, -1, 251.039, -95.306)" fill="#fff"/>
        </g>
        <g id="tingling-things" transform="translate(205.329 -0.351)">
          <ellipse id="Oval_Copy_5" data-name="Oval Copy 5" cx="3.554" cy="3.548" rx="3.554" ry="3.548" transform="translate(68.702 -71.297) rotate(180)" fill="#fff"/>
          <ellipse id="Oval_Copy_6" data-name="Oval Copy 6" cx="3.554" cy="3.548" rx="3.554" ry="3.548" transform="translate(7.107 -226.216) rotate(180)" fill="#fff"/>
          <path id="Triangle_Copy" data-name="Triangle Copy" d="M-9.3,5.983a3.549,3.549,0,0,0-6.284,0L-22.13,18.466a3.549,3.549,0,0,0,3.141,5.2l13.111.008a3.549,3.549,0,0,0,3.144-5.2Z" transform="matrix(0.719, -0.695, 0.695, 0.719, 176.853, -32.799)" fill="rgba(255,255,255,0.53)"/>
          <path id="Stroke_1_Copy_3" data-name="Stroke 1 Copy 3" d="M0,0C-1.373,2-2.67,4.721-5.33,4.726S-7.982.016-10.643.021s-2.67,4.721-5.331,4.726" transform="matrix(0.469, 0.883, -0.883, 0.469, 255.482, -171.201)" fill="none" stroke="#fff" stroke-linecap="round" stroke-miterlimit="10" stroke-width="6.066"/>
          <ellipse id="Oval_Copy" data-name="Oval Copy" cx="8.588" cy="8.574" rx="8.588" ry="8.574" transform="translate(94.761 -28.133) rotate(180)" fill="rgba(0,0,0,0.12)"/>
        </g>
      </g>
    </g>
  </g>
</svg>
