<svg viewBox="0 0 161 20" width="161px" height="20px" xmlns="http://www.w3.org/2000/svg"><g fill="none" fill-rule="evenodd" opacity=".445"><g transform="translate(-701 -657)" fill="#000"><g transform="translate(0 -20)"><g transform="translate(149 675)"><g transform="translate(166 2)"><g transform="translate(386)"><path d="M32.736 1.01c1.905 0 3.76-.007 5.615.002 1.728.008 3.457-.08 5.178.15.92.125 1.822.33 2.655.75 1.196.603 1.716 1.624 1.84 2.924.23 2.405-1.324 3.825-3.226 4.64-.418.18-.498.314-.262.704 1.266 2.088 2.51 4.19 3.814 6.257.557.887 1.222 1.718 2.318 2.023.038.01.065.057.1.087-.11.208-.295.174-.466.174-1.504.002-3.01.01-4.513 0-1.287-.01-2.19-.575-2.725-1.786-.566-1.28-1.233-2.513-1.846-3.772-.44-.897-.863-1.8-1.28-2.706-.154-.334-.073-.53.327-.665 1.61-.535 2.634-1.573 2.866-3.333.136-1.03-.007-1.965-.57-2.826-.503-.77-1.292-1.112-2.156-1.272-1.255-.23-1.262-.214-1.263 1.058-.002 4.027-.01 8.053.01 12.08.003.86.088 1.723.776 2.384.198.19.424.332.645.486.103.072.27.11.226.26-.044.16-.218.093-.334.094-2.113.003-4.226.002-6.34 0-.383 0-.767.007-1.15 0-.1 0-.245.046-.273-.113-.02-.114.078-.175.166-.21 1.154-.454 1.438-1.406 1.496-2.524.195-3.8.036-7.602.077-11.403.007-.537-.103-1.078-.19-1.612-.1-.628-.508-1.047-1.028-1.368-.2-.125-.42-.222-.49-.48M6.39 9.805c0 2.412.004 4.823-.008 7.234 0 .29.08.393.375.398.526.01 1.044-.027 1.564-.11 1.364-.22 2.74-1.473 3-2.822.365-1.898-.574-4.024-2.86-4.717-.134-.04-.382.045-.376-.192.004-.185.23-.19.365-.257.91-.46 1.732-1.034 2.205-1.966.802-1.583.567-3.244-.617-4.283-.978-.856-2.172-.998-3.415-.897-.242.02-.24.182-.24.378.008 2.412.005 4.824.006 7.235zM.107 1.012c3.168 0 6.305-.047 9.44.02 1.62.033 3.26.16 4.683 1.11.853.572 1.243 1.382 1.4 2.387.403 2.597-1.928 4.333-4.04 4.748l.736.157c1.507.315 2.743 1.022 3.634 2.327.74 1.085.553 3.69-.773 4.906-1.065.975-2.346 1.44-3.72 1.7-3.505.662-7.05.24-10.575.35-.19.007-.383.006-.576.004-.11 0-.253.018-.294-.104-.047-.137.09-.188.192-.23.75-.302 1.115-.925 1.317-1.65.107-.38.164-.783.166-1.175.012-3.772.02-7.544 0-11.316C1.687 3.234 1.56 2.225.63 1.557c-.2-.144-.462-.23-.522-.545zM73.87 1.012c2.03 0 4.045.002 6.06-.002.364 0 .618.097.892.405 1.59 1.78 3.232 3.51 4.845 5.268 1.32 1.44 2.623 2.9 3.938 4.347.186.205.38.586.618.51.303-.1.06-.48.06-.73.022-1.71.01-3.42.006-5.13 0-.833-.157-1.648-.34-2.452-.168-.74-.62-1.317-1.27-1.73-.185-.12-.38-.233-.446-.488h5.354c.16 0 .32-.016.478-.01.112.007.277-.118.326.067.035.13-.085.247-.197.304-1.486.77-1.712 2.17-1.78 3.618-.214 4.47-.06 8.943-.077 13.415 0 .467-.13.62-.59.567-.364-.04-.74-.058-1.102-.007-.48.07-.77-.155-1.058-.483-1.284-1.458-2.588-2.897-3.873-4.353-1.39-1.574-2.765-3.16-4.15-4.74-.88-1-1.77-1.994-2.656-2.993-.086-.096-.168-.193-.247-.292-.076-.094-.077-.293-.23-.268-.178.03-.148.22-.148.355-.005 2.38-.046 4.763.01 7.143.02.943.085 1.895.326 2.832.25.973.762 1.697 1.62 2.19.122.07.317.09.277.264-.032.136-.213.102-.338.102-1.92.002-3.84.003-5.762 0-.123 0-.304.043-.337-.1-.04-.177.146-.202.28-.264.767-.357 1.253-.962 1.502-1.76.273-.874.33-1.772.39-2.682.153-2.377.076-4.755.054-7.13-.012-1.34-.07-2.71-.68-3.964-.29-.59-.706-1.054-1.302-1.352-.197-.1-.406-.2-.453-.458M112.845 10.106c-.04.164-.156.23-.263.294-.806.48-1.056 1.23-1.056 2.11 0 1.68-.015 3.357.007 5.036.006.414-.13.578-.53.675-1.63.397-3.27.692-4.945.84-2.344.207-4.54-.246-6.6-1.34-1.935-1.03-3.383-2.54-4.13-4.627-.62-1.72-.706-3.492-.222-5.264.63-2.3 2.024-4.037 4.018-5.312 1.665-1.064 3.47-1.686 5.456-1.858 1.892-.165 3.71.09 5.488.683 1.036.344 1.024.376 1.03 1.467.005.96.015 1.917.01 2.876 0 .13.093.325-.07.39-.2.077-.26-.13-.34-.26-.652-1.03-1.435-1.946-2.406-2.684-.95-.723-1.966-1.29-3.226-1.276-1.28.014-2.26.583-3.06 1.522-1.07 1.262-1.524 2.782-1.73 4.378-.264 2.057-.228 4.11.457 6.097.854 2.483 2.52 3.825 5.15 3.84.38.003.76-.07 1.14-.093.227-.013.32-.14.32-.337-.012-1.63.06-3.26-.037-4.888-.052-.862-.567-1.455-1.244-1.935-.118-.084-.353-.13-.283-.326.052-.153.254-.074.39-.075 2.112-.005 4.224-.004 6.337 0 .104 0 .222-.05.338.066M24.245 18.722c-2.193 0-4.385 0-6.578-.002-.145 0-.366.077-.404-.13-.032-.173.188-.177.308-.238 1.023-.513 1.405-1.412 1.41-2.476.018-4.043.018-8.086-.002-12.13-.004-.99-.35-1.84-1.315-2.32-.155-.075-.346-.203-.274-.392.054-.147.252-.025.386-.025.528-.003 1.055 0 1.583 0 3.6.003 7.202.012 10.803 0 .392-.002.476.12.47.486-.018 1.31 0 2.62-.004 3.928-.002.145.125.363-.075.43-.214.07-.35-.138-.44-.298-.37-.654-.828-1.24-1.296-1.826-.77-.957-1.788-1.405-2.99-1.47-.525-.028-1.056.024-1.582-.016-.404-.03-.532.108-.53.5.013 1.724-.003 3.45.01 5.176.008 1.152.024 1.122 1.182 1.16 1.6.05 2.782-.676 3.737-1.878.107-.135.192-.342.402-.27.22.078.065.28.067.42.013 1.614.017 3.227.018 4.84 0 .128.103.315-.107.362-.162.037-.252-.11-.34-.225-.536-.71-1.18-1.278-2.02-1.628-.867-.365-1.775-.362-2.685-.345-.393.007-.26.36-.262.555-.01 1.758-.01 3.515.013 5.273.005.402-.21.914.11 1.183.285.24.773.03 1.17.068.672.062 1.338-.05 1.995-.136 1.016-.133 1.695-.83 2.29-1.59.54-.69 1.04-1.406 1.56-2.11.102-.136.205-.343.403-.265.187.074.076.29.07.435-.037 1.53-.047 3.062.004 4.593.015.42-.26.36-.51.36-2.193.002-4.386.002-6.58.002v-.003M146.04 1.062c.39-.1.788-.05 1.182-.05 3.857-.007 7.714.003 11.572-.004.408 0 .592.075.58.544-.034 1.325-.01 2.652-.02 3.977 0 .126.092.318-.102.37-.172.05-.24-.123-.316-.24-.553-.874-1.13-1.726-1.9-2.435-.704-.65-1.552-.922-2.48-.967-.575-.03-1.153.01-1.728-.006-.268-.007-.37.067-.368.35.003 2.06-.007 4.12-.017 6.18 0 .2.065.28.272.294 1.856.142 3.495-.246 4.645-1.857.056-.08.128-.145.195-.212.064-.065.124-.173.233-.113.093.05.08.157.074.257-.09 1.612-.027 3.225-.042 4.837-.002.192.19.477-.03.56-.218.08-.363-.23-.484-.388-1.144-1.498-2.717-1.892-4.495-1.815-.3.013-.362.142-.36.417.008 2.092.01 4.185 0 6.277-.002.284.07.402.368.402.992.002 1.982.004 2.965-.134.553-.077 1.017-.357 1.424-.74.936-.878 1.656-1.928 2.395-2.964.09-.126.153-.334.342-.277.21.062.09.275.092.416.013 1.502.015 3.003.02 4.506 0 .26.02.484-.387.482-4.514-.017-9.028-.015-13.542-.018l-.044-.256c.98-.47 1.528-1.214 1.592-2.33.22-3.795.044-7.594.096-11.392.008-.62-.076-1.233-.202-1.838-.127-.607-.456-1.076-1.003-1.38-.21-.116-.408-.243-.527-.46v.004M125.242 3.9c0 .622.002 1.245-.003 1.868-.002.1.074.248-.076.29-.15.045-.22-.085-.282-.2-.577-1.054-1.295-2.01-2.17-2.828-.67-.626-1.416-1.158-2.396-1.165-1.016-.01-1.896.597-2.26 1.54-.325.838-.027 1.9.738 2.55.976.832 2.113 1.42 3.21 2.07 1.39.82 2.735 1.688 3.66 3.07.62.92.676 1.948.59 2.987-.196 2.377-1.92 4.02-4.058 4.66-1.914.57-3.816.407-5.73.04-.8-.155-1.573-.395-2.32-.724-.218-.097-.35-.212-.346-.493.015-1.47.004-2.942.01-4.413 0-.114-.08-.283.083-.336.19-.06.23.137.3.247.7 1.085 1.413 2.157 2.323 3.083.687.7 1.417 1.335 2.387 1.627 1.356.41 3.314-.362 3.485-2.19.085-.907-.484-1.51-1.11-2.06-1.06-.935-2.303-1.597-3.48-2.356-1.117-.72-2.167-1.526-2.976-2.578-1.588-2.065-1.222-4.763.81-6.413 1.098-.89 2.36-1.34 3.753-1.514 1.942-.242 3.767.212 5.576.834.272.093.277.277.28.484.004.64 0 1.28.002 1.92M57.314 18.724h-5.81c-.095 0-.192.003-.287-.01-.086-.012-.217.013-.223-.115-.003-.063.064-.153.124-.186 1.153-.638 1.235-1.772 1.245-2.87.036-3.738.02-7.477.01-11.217-.002-.46-.056-.926-.14-1.378-.122-.646-.505-1.125-1.062-1.47-.107-.065-.213-.138-.306-.223-.057-.052-.092-.136-.053-.22.047-.098.136-.05.21-.05l7.2.04c.11 0 .22-.03.33-.036.12-.007.282-.108.342.05.06.16-.085.283-.214.33-1.402.502-1.594 1.698-1.603 2.922-.03 4.106-.015 8.213-.01 12.32 0 .833.014.842.88.82 1.106-.03 2.21-.088 3.07-.926.653-.635 1.19-1.366 1.736-2.093.238-.317.394-.69.696-.96.068-.06.122-.167.235-.12.115.05.075.166.074.254-.013 1.468-.03 2.937-.046 4.406 0 .064-.034.135-.015.19.175.52-.132.545-.52.544-1.953-.008-3.906-.004-5.86-.003M127.455.998h7.973c.033.213-.117.31-.286.405-.914.51-1.292 1.316-1.295 2.334-.006 2.38-.02 4.76-.023 7.137-.002 1.71-.01 3.418.026 5.127.022 1.045.382 1.93 1.43 2.388.092.04.25.076.226.21-.032.162-.2.122-.32.122-2.462.002-4.926.003-7.39 0-.134 0-.335.057-.37-.115-.037-.172.17-.188.29-.257.952-.543 1.35-1.4 1.35-2.46.003-3.946.002-7.89-.003-11.837-.002-.897-.134-1.75-.874-2.383-.243-.208-.63-.254-.735-.67M64.607 18.58c.337-.27.692-.447.984-.72.697-.65.722-1.517.73-2.346.03-3.69.014-7.38.004-11.07-.002-.634-.017-1.275-.263-1.878-.19-.473-.492-.85-.95-1.098-.158-.086-.433-.15-.376-.373.073-.287.32-.05.482-.053 2.03-.023 4.063-.027 6.094-.034.462-.002.922 0 1.387 0 .036.168-.067.28-.197.34-1.175.554-1.437 1.59-1.44 2.745-.008 3.866-.015 7.73.006 11.597.005.937.165 1.847 1.027 2.45.146.1.297.178.456.25.092.044.242.08.217.217-.026.138-.17.114-.277.114-.4.004-.8.002-1.2.002-2.048 0-4.096.003-6.143 0-.17 0-.354.047-.54-.143" /><path d="M145.638 18.676c-.764.1-1.532.03-2.297.043-.895.013-1.793-.026-2.688.01-1.067.042-1.803-.487-2.345-1.312-1.085-1.65-1.937-3.43-2.826-5.188-.293-.58-.602-1.156-.92-1.722-.196-.345-.178-.608.084-.938 1.294-1.63 2.62-3.24 3.837-4.93.333-.463.53-.98.655-1.524.128-.562-.403-1.33-1.096-1.634-.287-.125-.582-.234-.797-.493h7.953c-.105.218-.245.365-.444.43-1.294.432-2.32 1.276-3.24 2.22-1.2 1.23-2.31 2.546-3.46 3.823-.138.154-.126.305-.018.476 1.137 1.794 2.25 3.605 3.41 5.384.885 1.36 1.657 2.793 2.695 4.052.404.49.91.834 1.477 1.102l.02.198" /></g></g></g></g></g></g></svg>