<svg xmlns="http://www.w3.org/2000/svg" xmlns:xlink="http://www.w3.org/1999/xlink" width="240.989" height="495.096" viewBox="0 0 240.989 495.096">
  <defs>
    <linearGradient id="linear-gradient" x1="0.5" y1="-0.004" x2="0.5" y2="0.988" gradientUnits="objectBoundingBox">
      <stop offset="0" stop-color="#fefefe"/>
      <stop offset="1" stop-color="#fbfbfb"/>
    </linearGradient>
  </defs>
  <g id="Dude" transform="translate(0 -0.164)">
    <g id="guy" transform="translate(1.101)">
      <path id="Fill_1" data-name="Fill 1" d="M.037,10.544A11.45,11.45,0,1,0,12.361.036,11.43,11.43,0,0,0,.037,10.544" transform="translate(152.118 204.684)" fill="#ffd7b5"/>
      <path id="Fill_4" data-name="Fill 4" d="M33.285,28.728,1.189,12.521C-.335,11.752-.4,9.2,1.037,6.831L3.495,2.78C4.776.669,6.913-.488,8.269.2L32.856,12.612C37.171,14.791,43.482,25.1,39.4,31.817Z" transform="translate(8.206 408.432)" fill="#3f3f3f"/>
      <path id="Fill_6" data-name="Fill 6" d="M25.878,120.476h31.15V0H15.951A15.894,15.894,0,0,0,0,15.837V94.783a25.786,25.786,0,0,0,25.878,25.693" transform="translate(0 67.215)" fill="#fbc234"/>
      <path id="Fill_8" data-name="Fill 8" d="M65.13,50.213s-36.369-40.036-42-44.59S7.832-3.363,1.149,3.682c-9.752,10.28,45.77,49.828,45.77,49.828Z" transform="translate(105.783 158.714)" fill="#ffd7b5"/>
      <path id="Fill_10" data-name="Fill 10" d="M38.408,91.52C19.583,105.486,6.06,41.425,6.06,41.425S-3.262,1.1,1.217,0C35.86,1.76,46.76,85.323,38.408,91.52" transform="translate(81.525 78.038)" fill="#ffd7b5"/>
      <path id="Fill_12" data-name="Fill 12" d="M1.217,0C-3.262,1.1,6.06,41.425,6.06,41.425a217.079,217.079,0,0,0,7.817,26.92,8.173,8.173,0,0,0,5.324,1.78c10.919-.434,17.272-3.53,20.776-6.215C36.378,37.3,23.879,1.152,1.217,0" transform="translate(81.525 78.038)" fill="#3c3c3b"/>
      <path id="Fill_14" data-name="Fill 14" d="M41.309,13.63H3.989c-1.772,0-3.383-2.155-3.6-4.813L.021,4.281C-.171,1.917.952,0,2.528,0H31.117c5.018,0,16.695,6.1,17.306,13.63Z" transform="translate(66.614 442.359)" fill="#3f3f3f"/>
      <path id="Fill_16" data-name="Fill 16" d="M90.777,18.306C89.54,58.329,12.694,221.972,12.694,221.972L0,217.278c13.558-42.149,8.647-85.584,37.04-103.045,8.106-4.985,2.4-71.128,6.18-82.423S57.248,0,57.248,0s34,3.074,33.529,18.306L81.629,303.442" transform="translate(13.382 191.818)" fill="#f2ccac"/>
      <path id="Fill_18" data-name="Fill 18" d="M33.273,113.265c15.435-37.5,28.071-73.975,27-90.738C59.26,6.747,15.328,0,15.328,0S4.367,20.249.709,31.591c-2.671,8.284,3.042,46.328,3.359,68.787Z" transform="translate(46.945 188.625)" fill="#1e88e5"/>
      <path id="Fill_20" data-name="Fill 20" d="M1.705,11.6,30.7,19.769a2.347,2.347,0,0,0,2.9-1.6L35.6,11.13a2.325,2.325,0,0,0-1.616-2.874L5,.089a2.347,2.347,0,0,0-2.9,1.6L.09,8.728A2.325,2.325,0,0,0,1.705,11.6" transform="translate(45.676 282.601)" fill="#1e88e5"/>
      <path id="Fill_22" data-name="Fill 22" d="M42.712,6.64l-3.251,104.22-.138,5.056-3.34,122.357H22.129c-3.4-45.242-25.441-76.255-7.2-108.767C20.174,120.167.074,52.385,0,39S3.23,0,3.23,0Z" transform="translate(49.437 205.34)" fill="#ffd7b5"/>
      <path id="Fill_24" data-name="Fill 24" d="M49.063,99.623,53.176,4.118,4.575,0S-.944,16.459.141,32.886s13.62,45.8,17.832,66.737Z" transform="translate(40 207.125)" fill="#42a5f5"/>
      <path id="Fill_26" data-name="Fill 26" d="M2.344,11.968H32.479A2.336,2.336,0,0,0,34.824,9.64V2.328A2.336,2.336,0,0,0,32.479,0H2.344A2.336,2.336,0,0,0,0,2.328V9.64a2.336,2.336,0,0,0,2.344,2.328" transform="translate(55.82 300.104)" fill="#1e88e5"/>
      <path id="Fill_29" data-name="Fill 29" d="M1.484,0,0,132.529s22.739,5.66,34.738,5.66h0c12,0,28.8-4.765,28.8-4.765h0s-1.847-109.5-2.4-113.683h0C60.583,15.554,55.308,0,34.738,0H1.484Z" transform="translate(43.68 77.727)" fill="url(#linear-gradient)"/>
      <path id="Fill_32" data-name="Fill 32" d="M0,132.529s22.739,5.66,34.738,5.66,28.8-4.765,28.8-4.765-1.847-109.5-2.4-113.683S55.308,0,34.738,0H1.484Z" transform="translate(43.68 77.727)" fill="#3c3c3b"/>
      <path id="Fill_34" data-name="Fill 34" d="M32.7,17.729A57.136,57.136,0,0,0,19.684,1.65,6.837,6.837,0,0,0,15.231,0H0C8.92,3.947,18.4,10.639,24.64,22.069c9.684,17.726,13.4,31.447,11.52,45.11.139,7.058.278,14.334.409,21.385l.116,5.524C47.764,70.578,48.091,45.9,32.7,17.729" transform="translate(69.828 76.529)" fill="#fbc234"/>
      <path id="Fill_36" data-name="Fill 36" d="M12.856,6.382A6.428,6.428,0,1,1,6.428,0a6.405,6.405,0,0,1,6.428,6.382" transform="translate(44.791 37.256)" fill="#ffd7b5"/>
      <path id="Fill_38" data-name="Fill 38" d="M0,25.1s5.085,12.48,16.741,12.48,12.8-12.472,12.8-12.472V17.274L6.135,0Z" transform="translate(49.45 52.625)" fill="#ffd7b5"/>
      <path id="Fill_40" data-name="Fill 40" d="M8.385,1.708,3.164,0,0,12.948c5.188,9.357,23.13,9.63,27.016,9.576V18.79l-.8-3.922Z" transform="translate(51.976 54.442)" fill="rgba(0,0,0,0.11)"/>
      <path id="Fill_42" data-name="Fill 42" d="M21.269,50.865h0A21.194,21.194,0,0,1,0,29.748V0H38.968V33.293a17.635,17.635,0,0,1-17.7,17.572" transform="translate(52.593 22.628)" fill="#ffd7b5"/>
      <path id="Fill_44" data-name="Fill 44" d="M2.45,1.914c3.057.476,8.353.891,12.236-1h0a1.112,1.112,0,0,1,1.412.842l-.076,1.517c-.466,2.551-1.936,5.666-6.338,5.666A9.721,9.721,0,0,1,1.244,4.046l-.17-.358c-.322-.676.642-1.918,1.376-1.775" transform="translate(69.235 57.148)" fill="#fefefe"/>
      <path id="Fill_46" data-name="Fill 46" d="M14.727,29.452a11.558,11.558,0,0,1,7.964-4.4c3.142-.3,6.24.7,9.335,1.314a39.376,39.376,0,0,0,14.514.161A21.3,21.3,0,0,0,56.653,22.3c2.825-2.374,4.706-6.071,4.184-9.708a12.4,12.4,0,0,0-4.1-7.043A20.82,20.82,0,0,0,43.622.023C34.447-.4,25.776,5.243,16.61,4.664a39.156,39.156,0,0,0-6.321-.389A11.118,11.118,0,0,0,2.679,8.7,14.06,14.06,0,0,0,0,17.151c0,4.134,1.573,8.09,3.117,11.93a36.243,36.243,0,0,0,2.059,4.48Q6.453,35.809,7.65,38.1c1.6,3.055,3.643,6.638,5.021,9.8.657-1.187.269-3.059.227-4.414s-.283-2.695-.391-4.045c-.273-3.426.067-7.182,2.22-9.986" transform="translate(40.357 0.164)" fill="#393939"/>
      <path id="Fill_49" data-name="Fill 49" d="M7.013.052A6.138,6.138,0,0,0,.047,5.206a6.111,6.111,0,0,0,5.442,6.723,6.138,6.138,0,0,0,6.966-5.153A6.111,6.111,0,0,0,7.013.052" transform="translate(149.999 208.574)" fill="#ffd7b5"/>
      <path id="Fill_51" data-name="Fill 51" d="M0,9.839C.131,4.405,3.483,0,7.49,0s7.152,4.405,7.025,9.839-3.479,9.84-7.486,9.84S-.124,15.274,0,9.839" transform="translate(97.715 89.081)" fill="#ffd7b5"/>
      <path id="Fill_53" data-name="Fill 53" d="M.169,16.7A88.889,88.889,0,0,0,3.155,29.047c1.215,3.9,2.614,7.61,4.131,11.2A200.684,200.684,0,0,0,17.422,60.76c3.67,6.55,7.583,12.865,11.663,19.041q3.062,4.63,6.267,9.152L38.6,93.46c1.117,1.518,2.176,2.942,3.419,4.552l.264.342c3.765,4.88,11.077,5.526,16.331,1.444a13.146,13.146,0,0,0,2.945-3.218c3.218-5.013,6.244-9.9,9.28-14.893,3.019-4.983,5.987-10,8.883-15.094s5.723-10.256,8.419-15.617c1.349-2.68,2.661-5.415,3.915-8.293a72.5,72.5,0,0,0,3.487-9.525,9.5,9.5,0,0,0-7.258-12.13,11.356,11.356,0,0,0-12.755,7.588L75.4,29a54.762,54.762,0,0,1-2.667,6.3c-1.111,2.293-2.359,4.654-3.674,7.02-2.625,4.735-5.488,9.5-8.437,14.241L53.163,66.927a1.881,1.881,0,0,1-3.205-.25L40.383,47.733a178.3,178.3,0,0,1-8.155-18.54A81.773,81.773,0,0,1,27.52,11.029l0-.023C26.631,3.639,19.774-1.177,12.2.251S-.791,8.807.095,16.174c.019.158.05.369.074.525L60.624,72.434" transform="translate(17.501 84.932)" fill="#ffd7b5"/>
      <path id="Rectangle" d="M1.07,7.737A3.385,3.385,0,0,1,3.587,4.591L16.674,1.126A3.385,3.385,0,0,1,20.926,4.4l-.021,31.89L0,36.3Z" transform="matrix(0.978, 0.208, -0.208, 0.978, 107.336, 68.336)" fill="#3c3c3b"/>
      <path id="Fill_55" data-name="Fill 55" d="M26.985,13.377A13.535,13.535,0,0,0,13.41,0,13.336,13.336,0,0,0,0,13.377,13.535,13.535,0,0,0,13.575,26.754a13.336,13.336,0,0,0,13.41-13.377" transform="translate(95.011 93.479)" fill="#ffd7b5"/>
      <path id="Fill_57" data-name="Fill 57" d="M6.651,0A23.471,23.471,0,0,1,0,6.3q1.224,1.53,2.4,3.21a51.706,51.706,0,0,1,7.875,17.038,47.872,47.872,0,0,1,1.422,11.631q0,2.743-.083,5.333C13.972,49.431,16.7,55.959,19,61.3a126.856,126.856,0,0,0,1.868-23.115C20.863,21.816,14.106,9.09,6.651,0" transform="translate(39.966 68.773)" fill="#fbc234"/>
      <path id="Fill_59" data-name="Fill 59" d="M42.133,51.785C39.842,46.444,37.11,39.916,34.75,34c-2.895-7.255-5.229-13.586-5.5-15.667l4.161-1.3A51.709,51.709,0,0,0,25.536,0C21.7,1.3,15.242,4.109,14.639,4.406,9.578,6.9,4.362,10.46,1.582,15.57c-8.109,14.9,17.518,57.823,19.15,60.515.268-.01.535-.023.8-.039a36.491,36.491,0,0,0,13.429-3.487c5.753-2.733,10.072-6.6,11.993-9.947-.471-.86-2.4-5.179-4.822-10.826" transform="translate(16.828 78.288)" fill="#3c3c3b"/>
      <path id="Path_6" data-name="Path 6" d="M1.275,0l.952,1.692A4.105,4.105,0,0,1,0,7.32H0" transform="translate(78.318 47.046)" fill="none" stroke="#e2bc9c" stroke-linecap="round" stroke-linejoin="round" stroke-miterlimit="10" stroke-width="2.351"/>
      <path id="Oval" d="M9.164,4.575A4.582,4.582,0,0,0,0,4.575c0,1.373,2.11.12,4.582,0C6.658,4.474,9.164,5.728,9.164,4.575Z" transform="translate(65.797 41.173)" fill="#e2bc9c"/>
      <path id="Oval_Copy_2" data-name="Oval Copy 2" d="M7.331,3.66A3.666,3.666,0,0,0,0,3.66c0,1.1,1.688.1,3.666,0C5.326,3.579,7.331,4.582,7.331,3.66Z" transform="translate(81.376 41.173)" fill="#e2bc9c"/>
    </g>
    <g id="scooter" transform="translate(0 204.066)">
      <path id="Combined_Shape" data-name="Combined Shape" d="M21.955,14.55H5.257a5.226,5.226,0,1,1,0-10.453H21.875c.851-2.47,2.3-4.1,3.948-4.1,2.622,0,4.746,4.125,4.746,9.212s-2.124,9.212-4.746,9.212C24.227,18.424,22.815,16.895,21.955,14.55Z" transform="translate(116.523 0)" fill="#3c3c3b"/>
      <path id="Fill_7" data-name="Fill 7" d="M48.018,187.945l8.532-2.2L8.532,0,0,2.2Z" transform="translate(164.458 13.082)" fill="#3c3c3b"/>
      <path id="Fill_9" data-name="Fill 9" d="M4.4.188h0a5.879,5.879,0,0,1,7.161,4.191l2.606,10.005L2.8,17.313.189,7.308A5.839,5.839,0,0,1,4.4.188" transform="translate(211.422 196.002)" fill="#08aa59"/>
      <path id="Fill_11" data-name="Fill 11" d="M0,3.585A3.916,3.916,0,0,1,2.53,1.544L8.04.125a3.941,3.941,0,0,1,3.376.684l1.491,5.723L1.53,9.461Z" transform="translate(212.686 203.854)" fill="rgba(0,0,0,0.14)"/>
      <path id="Fill_13" data-name="Fill 13" d="M1.636,22.69a15.861,15.861,0,0,0,21.185,7.146A15.686,15.686,0,0,0,30.009,8.773,15.861,15.861,0,0,0,8.824,1.627,15.686,15.686,0,0,0,1.636,22.69" transform="translate(0 216.373)" fill="#3c3c3b"/>
      <path id="Fill_16-2" data-name="Fill 16" d="M3.84,26a15.882,15.882,0,0,0,22.31,1.638A15.665,15.665,0,0,0,27.8,5.456,15.883,15.883,0,0,0,5.488,3.818,15.665,15.665,0,0,0,3.84,26" transform="translate(209.35 216.336)" fill="#3c3c3b"/>
      <path id="Fill_19" data-name="Fill 19" d="M14.081.182A22,22,0,0,1,38.367,16.748l-6.373.809a1.729,1.729,0,0,0-1.187.64A22.13,22.13,0,0,0,8.578,7,22.384,22.384,0,0,0,1.558,9.087,1.077,1.077,0,0,1,.281,7.405,22.192,22.192,0,0,1,14.081.182" transform="translate(3.225 208.248)" fill="#08aa59"/>
      <path id="Fill_21" data-name="Fill 21" d="M34.37.026V0L4.757,3.461a5.351,5.351,0,0,0,0,10.637l29.387,3.435v.025h.211l.015,0v0H172.575A17.582,17.582,0,0,0,190.208.026Z" transform="translate(10.341 223.325)" fill="#08aa59"/>
      <path id="Fill_23" data-name="Fill 23" d="M160.962,0a16.957,16.957,0,0,1-.607,4.5H4.525A4.512,4.512,0,0,1,0,0Z" transform="translate(39.586 223.352)" fill="rgba(0,0,0,0.29)"/>
      <path id="Fill_25" data-name="Fill 25" d="M3.955,7.864H161.468a3.932,3.932,0,1,0,0-7.864H3.955a3.932,3.932,0,1,0,0,7.864" transform="translate(39.062 217.515)" fill="#08aa59"/>
      <path id="Fill_27" data-name="Fill 27" d="M0,45.2,44.017,1.436a4.952,4.952,0,0,1,6.974,0,4.883,4.883,0,0,1,0,6.934L13.949,45.2Z" transform="translate(171.24 172.99)" fill="#3c3c3b"/>
      <path id="Fill_29-2" data-name="Fill 29" d="M13.748,31.721h0a6.737,6.737,0,0,0,4.863-8.215L13.253,2.932A3.935,3.935,0,0,0,8.459.126L2.948,1.544A3.909,3.909,0,0,0,.127,6.311L5.485,26.886a6.783,6.783,0,0,0,8.263,4.835" transform="translate(213.125 206.883)" fill="#08aa59"/>
      <path id="Fill_33" data-name="Fill 33" d="M5.936,10.132l3.282-.845A4.72,4.72,0,1,0,6.839.152L3.557,1a4.716,4.716,0,0,0-3.4,5.75h0a4.748,4.748,0,0,0,5.784,3.385" transform="translate(162.473 11.372)" fill="#08aa59"/>
      <path id="Fill_35" data-name="Fill 35" d="M4.138,8.228H56.915a4.114,4.114,0,1,0,0-8.228H4.138a4.114,4.114,0,1,0,0,8.228" transform="translate(140.551 5.21)" fill="#08aa59"/>
      <path id="Fill_37" data-name="Fill 37" d="M4.138,2.7H56.915A4.134,4.134,0,0,0,60.8,0a4.078,4.078,0,0,1,.256,1.413,4.126,4.126,0,0,1-4.138,4.114H4.138A4.126,4.126,0,0,1,0,1.413,4.074,4.074,0,0,1,.256,0,4.134,4.134,0,0,0,4.138,2.7" transform="translate(140.551 7.912)" fill="#1d1d1b" opacity="0.159"/>
      <path id="Fill_39" data-name="Fill 39" d="M5.989,11.908H21.161A5.954,5.954,0,1,0,21.161,0H5.989a5.954,5.954,0,1,0,0,11.908" transform="translate(153.491 3.37)" fill="#08aa59"/>
      <path id="Fill_41" data-name="Fill 41" d="M4.138,8.228H21.571a4.114,4.114,0,1,0,0-8.228H4.138a4.114,4.114,0,1,0,0,8.228" transform="translate(175.895 5.21)" fill="#08aa59"/>
      <path id="Fill_43" data-name="Fill 43" d="M4.138,2.69H21.571A4.134,4.134,0,0,0,25.449,0a4.071,4.071,0,0,1,.26,1.424,4.126,4.126,0,0,1-4.138,4.114H4.138A4.126,4.126,0,0,1,0,1.424,4.074,4.074,0,0,1,.26,0,4.135,4.135,0,0,0,4.138,2.69" transform="translate(175.895 7.901)" fill="#1d1d1b" opacity="0.159"/>
      <path id="Fill_47" data-name="Fill 47" d="M0,1.8a1.808,1.808,0,1,1,1.808,1.8A1.8,1.8,0,0,1,0,1.8" transform="translate(210.876 181.741)" fill="#fefefe" opacity="0.235"/>
      <path id="Fill_49-2" data-name="Fill 49" d="M1.923,3.825H17.661a1.912,1.912,0,1,0,0-3.825H1.923a1.912,1.912,0,1,0,0,3.825" transform="translate(42.81 230.406)" fill="rgba(254,254,254,0.22)"/>
      <path id="Combined_Shape-2" data-name="Combined Shape" d="M26.978,28.076a14.813,14.813,0,0,0-2.034-2.7c-1.129-1.123-19.435-2.7-21.242-4.494-.92-.915-1.665-4.1-2.174-7.006A8.449,8.449,0,0,1,0,9.212C0,4.125,2.125,0,4.746,0c1.646,0,3.1,1.627,3.948,4.1H25.312a5.226,5.226,0,1,1,0,10.453H9.748c.1,2.21-.044,3.695-1.4,3.859.285.284.616.586,1,.905,2.712,2.246,12.429,2.92,15.367,3.37s5.876,4.27,4.973,5.168a1.862,1.862,0,0,1-1.346.468A4.419,4.419,0,0,1,26.978,28.076Z" transform="translate(193.629 0)" fill="#3c3c3b"/>
      <path id="Fill_51-2" data-name="Fill 51" d="M1.924,3.825H2.6A1.912,1.912,0,1,0,2.6,0H1.924a1.912,1.912,0,1,0,0,3.825" transform="translate(64.372 230.406)" fill="rgba(9,15,23,0.18)"/>
    </g>
  </g>
</svg>
