<svg xmlns="http://www.w3.org/2000/svg" width="1389.33" height="520.421" viewBox="0 0 1389.33 520.421">
  <g id="City_bg" data-name="City bg" transform="translate(-347.949 -0.976)">
    <g id="Group_18" data-name="Group 18" transform="translate(793.552 0)">
      <path id="Fill_1" data-name="Fill 1" d="M11.754,0A11.754,11.754,0,0,0,0,11.754V292H132V11.754A11.754,11.754,0,0,0,120.246,0Z" transform="translate(0.459 183.975)" opacity="0.084"/>
      <path id="Fill_2" data-name="Fill 2" d="M12,0A12,12,0,0,0,0,12V319H261V61.631H109.053V12a12,12,0,0,0-12-12Z" transform="translate(550.459 156.975)" opacity="0.084"/>
      <path id="Fill_3" data-name="Fill 3" d="M320.927,12.854A12.771,12.771,0,0,0,308.239,0H189.432a11.751,11.751,0,0,0-8.277,3.48,12.882,12.882,0,0,0-4.025,9.374V32.822H160.811a11.754,11.754,0,0,0-11.754,11.754v82.657H11.754A11.754,11.754,0,0,0,0,138.987V475H349V44.576a11.754,11.754,0,0,0-11.754-11.754H320.927Z" transform="translate(180.459 0.975)" opacity="0.084"/>
    </g>
    <path id="Fill_1-2" data-name="Fill 1" d="M13.119,21.6a13.143,13.143,0,0,1,3.687.525A22.732,22.732,0,0,1,44.819,10.845a22.7,22.7,0,0,1,41.829,8.636,13.134,13.134,0,0,1,15.962,10.23,7.521,7.521,0,0,1,5.717-.1A11.246,11.246,0,0,1,129.38,35.1a11.38,11.38,0,0,1-.1,1.478H.135A12.98,12.98,0,0,1,0,34.708,13.112,13.112,0,0,1,13.119,21.6" transform="translate(1380.01 38.975)" fill="#fff" opacity="0.129"/>
    <path id="Fill_16" data-name="Fill 16" d="M69.155,0s9.317,40.29-11.408,73.3S13.065,89.343,13.065,89.343s-25.715-14.168-4.99-47.179S69.155,0,69.155,0" transform="translate(1364.76 228.319)" fill="#fbc234"/>
    <path id="Fill_20" data-name="Fill 20" d="M17.869,0S-.255,25.123,0,58.486,18.566,90.295,18.566,90.295s18.328,1.277,18.07-32.086S17.869,0,17.869,0" transform="translate(1349.784 232.142)" fill="#2cb789"/>
    <path id="Fill_24" data-name="Fill 24" d="M107.909,56.868c5.486-3.647,8.973-10.974,7.737-17.44A17.263,17.263,0,0,0,102.59,26.119c-3.73-.79-7.613-.3-11.4-.757s-7.836-2.259-9.168-5.829c-1.722-4.609,1.8-9.96.067-14.565C80.344.331,74.06-.947,69.373.664S60.987,5.854,56.816,8.53a36.213,36.213,0,0,1-16.7,5.6c-4.83.373-9.745-.229-14.5.7s-9.587,3.933-10.648,8.658c-.881,3.92.953,8.365-1,11.874-2,3.585-6.832,4.265-10.088,6.765a10.729,10.729,0,0,0-1.683,14.74Z" transform="matrix(0.985, 0.174, -0.174, 0.985, 1188.828, 211.345)" fill="#2cb789"/>
    <path id="Fill_6" data-name="Fill 6" d="M0,163.654C10.634,72.364,159.286,0,341.132,0s330.5,72.364,341.133,163.654Z" transform="translate(1055.014 312.019)" fill="#2cb789"/>
    <path id="Fill_9" data-name="Fill 9" d="M0,163.654C9.72,72.364,145.592,0,311.8,0s302.086,72.364,311.8,163.654Z" transform="translate(347.948 357.743)" opacity="0.08"/>
    <path id="Fill_12" data-name="Fill 12" d="M0,255.3C35.563,109.966,201.666,0,401.24,0S766.914,109.966,802.478,255.3Z" transform="translate(707.168 231.263)" fill="#8dd6b1"/>
    <g id="Bench" transform="translate(1030 342)">
      <path id="Fill_26" data-name="Fill 26" d="M0,138.738H11.783V11.783C11.783,6.143,5.64,0,0,0H0Z" transform="translate(308.386 0)" fill="rgba(0,0,0,0.2)"/>
      <path id="Fill_28" data-name="Fill 28" d="M0,138.738H11.783V11.783C11.783,6.181,5.6,0,0,0H0Z" transform="translate(29.715 0)" fill="rgba(0,0,0,0.2)"/>
      <path id="Fill_30" data-name="Fill 30" d="M339.305,23.388H10.577A10.573,10.573,0,0,1,0,12.819V10.569A10.573,10.573,0,0,1,10.577,0H339.305a10.573,10.573,0,0,1,10.577,10.569v2.249a10.573,10.573,0,0,1-10.577,10.569" transform="translate(0.001 66.715)" fill="#a6e0d7"/>
      <path id="Fill_31" data-name="Fill 31" d="M339.305,23.388H10.577A10.573,10.573,0,0,1,0,12.819V10.569A10.573,10.573,0,0,1,10.577,0H339.305a10.573,10.573,0,0,1,10.577,10.569v2.249a10.573,10.573,0,0,1-10.577,10.569" transform="translate(0.001 36.686)" fill="#a6e0d7"/>
      <path id="Fill_32" data-name="Fill 32" d="M339.305,23.388H10.577A10.573,10.573,0,0,1,0,12.819V10.569A10.573,10.573,0,0,1,10.577,0H339.305a10.573,10.573,0,0,1,10.577,10.569v2.249a10.573,10.573,0,0,1-10.577,10.569" transform="translate(0.001 6.656)" fill="#a6e0d7"/>
      <path id="Combined_Shape" data-name="Combined Shape" d="M322.923,63.707a3.65,3.65,0,1,1,3.65,3.648A3.649,3.649,0,0,1,322.923,63.707ZM0,63.707a3.65,3.65,0,1,1,3.65,3.648A3.649,3.649,0,0,1,0,63.707ZM322.923,33.678a3.65,3.65,0,1,1,3.65,3.647A3.648,3.648,0,0,1,322.923,33.678ZM0,33.678a3.65,3.65,0,1,1,3.65,3.647A3.648,3.648,0,0,1,0,33.678ZM322.923,3.648a3.65,3.65,0,1,1,3.65,3.648A3.649,3.649,0,0,1,322.923,3.648ZM0,3.648A3.65,3.65,0,1,1,3.65,7.3,3.649,3.649,0,0,1,0,3.648Z" transform="translate(9.83 14.703)" fill="rgba(255,255,255,0.6)"/>
    </g>
    <path id="Fill_44" data-name="Fill 44" d="M34.969,47.2H4.779L0,0H39.749Z" transform="matrix(1, -0.017, 0.017, 1, 833.259, 127.249)" fill="#fff"/>
  </g>
</svg>
