<svg viewBox="0 0 139 20" width="139px" height="20px" xmlns="http://www.w3.org/2000/svg" xmlns:xlink="http://www.w3.org/1999/xlink"><defs><path id="a" d="M0 19.887h138.232V0H0z" /></defs><g fill="none" fill-rule="evenodd" opacity=".445"><g transform="translate(-912 -657)"><g transform="translate(0 -20)"><g transform="translate(149 675)"><g transform="translate(166 2)"><g transform="translate(597.29)"><path d="M32.487 15.173c-1.393 0-2.494-.468-3.192-1.14 0 0 7.184-6.576 7.336-6.72.075.16.387.908.387 2.45 0 1.54-.482 5.41-4.53 5.41zM44.042.53h-3.218S29.187 11.207 28.246 12.04c-.154-.56-.29-.993-.29-2.273 0-3.69 2.324-5.08 4.556-5.08.338 0 1.35.015 2.258.518l3.573-3.97C37.477.81 35.625 0 32.51 0 26 0 21.37 3.995 21.37 9.61c0 6.1 3.746 10.276 11.145 10.276 6.923 0 11.145-4.003 11.145-10.235 0-3.8-2.123-5.99-2.53-6.447L44.043.53zM55.798 8.872h-2.695V4.497h2.695c2.053 0 3.19.556 3.19 2.187 0 1.6-1.06 2.188-3.19 2.188zm6.29 3.7l-3.098-.545c2.623-.03 6.532-.928 6.532-5.96 0-5.03-5.034-5.5-8.97-5.5H46.48V19.33h6.623v-6.612h1.863l4.24 6.612h7.916l-5.034-6.76zM67.543 17.45s2.744-3.694 2.84-3.832c.87.665 2.927 1.87 6.136 1.87 3.173 0 3.585-.876 3.585-1.5 0-1.05-1.468-1.37-3.654-1.65-1.342-.172-8.875-.434-8.875-5.725 0-5.327 5.512-6.61 9.188-6.61 4.146 0 7.09.718 9.17 1.85 0 0-2.622 3.642-2.788 3.87-.683-.486-2.813-1.213-5.17-1.213-2.357 0-3.655.504-3.655 1.46 0 1.006.836 1.245 5.067 1.646 4.42.42 7.313 1.836 7.313 5.767 0 3.835-3.16 6.504-9.945 6.504-5.903 0-8.647-2.01-9.212-2.437M89.17 19.33V.565h17.273v4.07H95.755v3.277h8.618v4.04h-8.618l-.003 3.31h10.76l.002 4.066" fill="#000" /><mask id="b" fill="#fff"><use xlink:href="#a" /></mask><g /><path fill="#000" mask="url(#b)" d="M132.044 19.33h6.188v-6.16h-6.188M109.23 19.33V.565h6.99s4.64 7.035 4.693 7.123c1.91 3.06 2.92 5.143 2.92 5.143l-.692-4.945V.566h6.176V19.33h-7.105l-5.416-8.38s-.543-.806-1.088-1.772c-.57-1.01-1.043-1.893-1.043-1.893l.735 4.58v7.464h-6.167zM10.417 15.29H6.52v-3.64h3.897c1.872 0 2.612.658 2.6 1.763-.015 1.15-.595 1.876-2.6 1.876zM6.52 4.523h3.904c1.557 0 2.086.71 2.086 1.485 0 .776-.125 1.757-2.093 1.757H6.52V4.524zm10.824 5.582c-.84-.142-2.945-.467-2.945-.467l2.763-.49c.772-.383 2.02-1.61 2.02-3.972 0-3.786-3.41-4.61-7.59-4.61H0V19.33h11.818c5.17 0 7.933-1.44 7.92-5.376-.01-2.16-1.354-3.405-2.394-3.848z" /></g></g></g></g></g></g></svg>