<svg xmlns="http://www.w3.org/2000/svg" xmlns:xlink="http://www.w3.org/1999/xlink" width="1523.96" height="452.698" viewBox="0 0 1523.96 452.698">
  <defs>
    <clipPath id="clip-path">
      <path id="gradient" d="M0,400H1510V0H21.481Z" transform="matrix(-1, 0.017, -0.017, -1, 1516.813, 400.567)" fill="#12aa5d"/>
    </clipPath>
    <linearGradient id="linear-gradient" x1="0.5" y1="-0.004" x2="0.5" y2="0.988" gradientUnits="objectBoundingBox">
      <stop offset="0" stop-color="#fefefe"/>
      <stop offset="1" stop-color="#fbfbfb"/>
    </linearGradient>
  </defs>
  <g id="gradient-bg" transform="matrix(1, 0.017, -0.017, 1, 7.389, -0.629)" clip-path="url(#clip-path)">
    <g id="artwork" transform="translate(1427.189 105.625) rotate(180)">
      <g id="person" transform="translate(293.575 -12.519)">
        <g id="guy" transform="translate(0.711)">
          <path id="Fill_1" data-name="Fill 1" d="M-.024,6.814a7.387,7.387,0,0,1-6.789,7.951,7.407,7.407,0,0,1-7.965-6.791A7.387,7.387,0,0,1-7.989.023,7.407,7.407,0,0,1-.024,6.814" transform="translate(98.311 -132.279) rotate(180)" fill="#ffd7b5"/>
          <path id="Fill_4" data-name="Fill 4" d="M-21.512,18.565-.768,8.092c.985-.5,1.029-2.144.1-3.677L-2.258,1.8C-3.086.433-4.468-.315-5.344.127L-21.234,8.15c-2.789,1.408-6.867,8.068-4.232,12.411Z" transform="translate(5.303 -263.953) rotate(180)" fill="#3f3f3f"/>
          <path id="Fill_6" data-name="Fill 6" d="M-16.725,77.859H-36.856V0h26.547A10.272,10.272,0,0,1,0,10.235v51.02a16.665,16.665,0,0,1-16.725,16.6" transform="translate(0 -43.439) rotate(180)" fill="#ffcc80"/>
          <path id="Fill_8" data-name="Fill 8" d="M-42.092,32.451s23.5-25.874,27.141-28.816S-5.062-2.173-.743,2.379c6.3,6.643-29.58,32.2-29.58,32.2Z" transform="translate(68.365 -102.571) rotate(180)" fill="#ffd7b5"/>
          <path id="Fill_10" data-name="Fill 10" d="M-24.822,59.146C-12.656,68.172-3.917,26.771-3.917,26.771S2.108.708-.787,0C-23.176,1.138-30.22,55.141-24.822,59.146" transform="translate(52.688 -50.433) rotate(180)" fill="#ffd7b5"/>
          <path id="Fill_12" data-name="Fill 12" d="M-.787,0c2.895.708-3.13,26.771-3.13,26.771a140.286,140.286,0,0,1-5.052,17.4,5.282,5.282,0,0,1-3.441,1.15c-7.057-.28-11.162-2.281-13.427-4.017C-23.511,24.108-15.432.744-.787,0" transform="translate(52.688 -50.433) rotate(180)" fill="#3c3c3b"/>
          <path id="Fill_14" data-name="Fill 14" d="M-26.7,8.808h24.12c1.145,0,2.187-1.393,2.326-3.11l.238-2.931C.11,1.239-.615,0-1.634,0H-20.11C-23.353,0-30.9,3.944-31.295,8.808Z" transform="translate(43.051 -285.879) rotate(180)" fill="#3f3f3f"/>
          <path id="Fill_16" data-name="Fill 16" d="M-58.667,11.831C-57.868,37.7-8.2,143.452-8.2,143.452L0,140.418c-8.762-27.239-5.588-55.309-23.938-66.594-5.239-3.222-1.548-45.967-3.994-53.267S-37,0-37,0-58.972,1.986-58.667,11.831L-52.755,196.1" transform="translate(8.648 -123.964) rotate(180)" fill="#f2ccac"/>
          <path id="Fill_18" data-name="Fill 18" d="M-21.5,73.2c-9.975-24.236-18.142-47.807-17.448-58.64C-38.3,4.36-9.906,0-9.906,0S-2.822,13.086-.458,20.416c1.726,5.354-1.966,29.94-2.171,44.454Z" transform="translate(30.34 -121.901) rotate(180)" fill="#1e88e5"/>
          <path id="Fill_20" data-name="Fill 20" d="M-1.1,7.5l-18.736,5.278a1.517,1.517,0,0,1-1.871-1.037l-1.3-4.546a1.5,1.5,0,0,1,1.044-1.858L-3.228.058A1.517,1.517,0,0,1-1.357,1.094l1.3,4.546A1.5,1.5,0,0,1-1.1,7.5" transform="translate(29.52 -182.633) rotate(180)" fill="#1e88e5"/>
          <path id="Fill_22" data-name="Fill 22" d="M-27.6,4.291l2.1,67.353.089,3.267,2.159,79.074H-14.3c2.2-29.238,16.442-49.281,4.65-70.292-3.387-6.035,9.6-49.84,9.65-58.489S-2.088,0-2.088,0Z" transform="translate(31.95 -132.703) rotate(180)" fill="#ffd7b5"/>
          <path id="Fill_24" data-name="Fill 24" d="M-31.708,64.382-34.367,2.661-2.957,0S.61,10.637-.091,21.253s-8.8,29.6-11.524,43.129Z" transform="translate(25.851 -133.856) rotate(180)" fill="#42a5f5"/>
          <path id="Fill_26" data-name="Fill 26" d="M-1.515,7.734H-20.991a1.51,1.51,0,0,1-1.515-1.5V1.5A1.51,1.51,0,0,1-20.991,0H-1.515A1.51,1.51,0,0,1,0,1.5V6.23a1.51,1.51,0,0,1-1.515,1.5" transform="translate(36.075 -193.945) rotate(180)" fill="#1e88e5"/>
          <path id="Fill_29" data-name="Fill 29" d="M-.959,0,0,85.648s-14.7,3.658-22.451,3.658h0c-7.755,0-18.611-3.08-18.611-3.08h0s1.194-70.762,1.551-73.469h0C-39.153,10.052-35.744,0-22.451,0H-.959Z" transform="translate(28.23 -50.232) rotate(180)" fill="url(#linear-gradient)"/>
          <path id="Fill_32" data-name="Fill 32" d="M0,85.648s-14.7,3.658-22.451,3.658-18.611-3.08-18.611-3.08,1.194-70.762,1.551-73.469S-35.744,0-22.451,0H-.959Z" transform="translate(28.23 -50.232) rotate(180)" fill="#3c3c3b"/>
          <path id="Fill_34" data-name="Fill 34" d="M-21.133,11.457A36.925,36.925,0,0,1-12.722,1.066,4.419,4.419,0,0,1-9.844,0H0A32.779,32.779,0,0,0-15.924,14.262c-6.258,11.456-8.659,20.323-7.445,29.153-.09,4.561-.18,9.264-.264,13.82l-.075,3.57c-7.16-15.193-7.372-31.139,2.576-49.348" transform="translate(45.128 -49.458) rotate(180)" fill="#ffcc80"/>
          <path id="Fill_36" data-name="Fill 36" d="M-8.309,4.124A4.139,4.139,0,0,0-4.154,8.249,4.139,4.139,0,0,0,0,4.124,4.139,4.139,0,0,0-4.154,0,4.139,4.139,0,0,0-8.309,4.124" transform="translate(28.947 -24.077) rotate(180)" fill="#ffd7b5"/>
          <path id="Fill_38" data-name="Fill 38" d="M0,16.222s-3.286,8.065-10.819,8.065-8.273-8.06-8.273-8.06V11.163L-3.965,0Z" transform="translate(31.958 -34.01) rotate(180)" fill="#ffd7b5"/>
          <path id="Fill_40" data-name="Fill 40" d="M-5.419,1.1-2.045,0,0,8.368c-3.353,6.047-14.949,6.223-17.46,6.189V12.144l.515-2.534Z" transform="translate(33.591 -35.184) rotate(180)" fill="rgba(0,0,0,0.11)"/>
          <path id="Fill_42" data-name="Fill 42" d="M-13.746,32.872h0A13.7,13.7,0,0,0,0,19.225V0H-25.184V21.516A11.4,11.4,0,0,0-13.746,32.872" transform="translate(33.989 -14.623) rotate(180)" fill="#ffd7b5"/>
          <path id="Fill_44" data-name="Fill 44" d="M-1.583,1.237c-1.975.308-5.4.576-7.908-.649h0a.719.719,0,0,0-.913.544l.049.981c.3,1.649,1.251,3.662,4.1,3.662A6.283,6.283,0,0,0-.8,2.615l.11-.231c.208-.437-.415-1.24-.89-1.147" transform="translate(44.745 -36.933) rotate(180)" fill="#fefefe"/>
          <path id="Fill_46" data-name="Fill 46" d="M-9.518,19.033a7.47,7.47,0,0,0-5.147-2.843C-16.7,16-18.7,16.64-20.7,17.04a25.449,25.449,0,0,1-9.38.1,13.763,13.763,0,0,1-6.536-2.734,7.168,7.168,0,0,1-2.7-6.274,8.013,8.013,0,0,1,2.647-4.552A13.456,13.456,0,0,1-28.192.015c5.93-.275,11.533,3.373,17.457,3a25.307,25.307,0,0,1,4.085-.251A7.185,7.185,0,0,1-1.731,5.624,9.086,9.086,0,0,1,0,11.084c0,2.672-1.016,5.228-2.015,7.71a23.422,23.422,0,0,1-1.33,2.9q-.825,1.453-1.6,2.934C-5.976,26.6-7.3,28.913-8.189,30.953c-.425-.767-.174-1.977-.146-2.852s.183-1.742.252-2.614a9.31,9.31,0,0,0-1.435-6.453" transform="translate(26.082 -0.106) rotate(180)" fill="#393939"/>
          <path id="Fill_49" data-name="Fill 49" d="M-4.532.034a3.967,3.967,0,0,1,4.5,3.331A3.949,3.949,0,0,1-3.547,7.709a3.967,3.967,0,0,1-4.5-3.33A3.949,3.949,0,0,1-4.532.034" transform="translate(96.941 -134.793) rotate(180)" fill="#ffd7b5"/>
          <path id="Fill_51" data-name="Fill 51" d="M0,6.359C-.085,2.847-2.251,0-4.841,0s-4.622,2.847-4.54,6.359,2.249,6.359,4.838,6.359S.08,9.871,0,6.359" transform="translate(63.151 -57.57) rotate(180)" fill="#ffd7b5"/>
          <path id="Fill_53" data-name="Fill 53" d="M-.109,10.792a57.444,57.444,0,0,1-1.93,7.981c-.785,2.52-1.689,4.918-2.67,7.24a129.692,129.692,0,0,1-6.551,13.255c-2.372,4.233-4.9,8.314-7.537,12.305q-1.979,2.992-4.05,5.915l-2.1,2.913c-.722.981-1.406,1.9-2.21,2.942l-.171.221A7.485,7.485,0,0,1-37.88,64.5a8.5,8.5,0,0,1-1.9-2.079c-2.08-3.24-4.036-6.4-6-9.625s-3.87-6.463-5.741-9.755-3.7-6.628-5.441-10.093c-.872-1.732-1.72-3.5-2.53-5.359a46.856,46.856,0,0,1-2.254-6.155,6.14,6.14,0,0,1,4.691-7.839,7.339,7.339,0,0,1,8.243,4.9l.081.248a35.389,35.389,0,0,0,1.723,4.07c.718,1.482,1.525,3.008,2.374,4.537,1.7,3.06,3.547,6.14,5.453,9.2l4.854,6.744a1.183,1.183,0,0,0,2.016-.157L-26.1,30.848a115.226,115.226,0,0,0,5.27-11.982A52.845,52.845,0,0,0-17.786,7.128l0-.015A8.172,8.172,0,0,1-7.885.162,9.6,9.6,0,0,1-.061,10.453c-.012.1-.032.238-.048.339L-39.18,46.811" transform="translate(11.311 -54.888) rotate(180)" fill="#ffd7b5"/>
          <path id="Rectangle" d="M-.7,5.042A2.129,2.129,0,0,0-2.264,3.065L-10.837.732a2.129,2.129,0,0,0-2.689,2.056l.014,21.322L0,24.119Z" transform="matrix(-0.978, 0.208, -0.208, -0.978, 69.506, -43.52)" fill="#08aa59"/>
          <path id="Fill_55" data-name="Fill 55" d="M-17.44,8.645A8.747,8.747,0,0,1-8.667,0,8.619,8.619,0,0,1,0,8.645,8.747,8.747,0,0,1-8.773,17.29,8.618,8.618,0,0,1-17.44,8.645" transform="translate(61.404 -60.412) rotate(180)" fill="#ffd7b5"/>
          <path id="Fill_57" data-name="Fill 57" d="M-4.3,0A15.168,15.168,0,0,0,0,4.074q-.791.989-1.55,2.075A33.415,33.415,0,0,0-6.639,17.16a30.937,30.937,0,0,0-.919,7.517q0,1.773.054,3.446c-1.525,3.822-3.291,8.041-4.772,11.492a81.979,81.979,0,0,1-1.207-14.939A38.484,38.484,0,0,1-4.3,0" transform="translate(25.829 -44.445) rotate(180)" fill="#ffcc80"/>
          <path id="Fill_59" data-name="Fill 59" d="M-27.23,33.466c1.481-3.451,3.247-7.67,4.772-11.492,1.871-4.688,3.379-8.78,3.554-10.125l-2.689-.838A33.417,33.417,0,0,1-16.5,0c2.477.839,6.653,2.655,7.042,2.847C-6.19,4.46-2.819,6.76-1.022,10.062,4.218,19.693-12.344,47.431-13.4,49.17c-.173-.006-.346-.015-.518-.025A23.584,23.584,0,0,1-22.6,46.891c-3.718-1.766-6.51-4.263-7.751-6.428.3-.556,1.551-3.347,3.116-7" transform="translate(10.875 -50.594) rotate(180)" fill="#3c3c3b"/>
          <path id="Path_6" data-name="Path 6" d="M-.824,0l-.615,1.093A2.638,2.638,0,0,0,0,4.73H0" transform="translate(50.615 -30.404) rotate(180)" fill="none" stroke="#e2bc9c" stroke-linecap="round" stroke-linejoin="round" stroke-miterlimit="10" stroke-width="1.479"/>
          <path id="Oval" d="M-5.923,2.956A2.959,2.959,0,0,1-2.961,0,2.959,2.959,0,0,1,0,2.956c0,.887-1.364.077-2.961,0C-4.3,2.892-5.923,3.7-5.923,2.956Z" transform="translate(42.524 -26.608) rotate(180)" fill="#e2bc9c"/>
          <path id="Oval_Copy_2" data-name="Oval Copy 2" d="M-4.738,2.365A2.367,2.367,0,0,1-2.369,0,2.367,2.367,0,0,1,0,2.365c0,.71-1.091.062-2.369,0C-3.442,2.313-4.738,2.961-4.738,2.365Z" transform="translate(52.592 -26.608) rotate(180)" fill="#e2bc9c"/>
        </g>
        <g id="scooter" transform="translate(0 -131.879)">
          <path id="Combined_Shape" data-name="Combined Shape" d="M-14.189,9.4H-3.4A3.387,3.387,0,0,0,0,6.026,3.387,3.387,0,0,0-3.4,2.649h-10.74C-14.687,1.052-15.625,0-16.689,0c-1.694,0-3.067,2.666-3.067,5.954s1.373,5.954,3.067,5.954C-15.657,11.907-14.745,10.918-14.189,9.4Z" transform="translate(75.306 0) rotate(180)" fill="#3c3c3b"/>
          <path id="Fill_7" data-name="Fill 7" d="M-31.033,121.461l-5.514-1.419L-5.514,0,0,1.419Z" transform="translate(106.286 -8.454) rotate(180)" fill="#3c3c3b"/>
          <path id="Fill_9" data-name="Fill 9" d="M-2.846.121h0A3.8,3.8,0,0,0-7.474,2.83L-9.158,9.3l7.352,1.893L-.122,4.723A3.773,3.773,0,0,0-2.846.121" transform="translate(136.637 -126.668) rotate(180)" fill="#08aa59"/>
          <path id="Fill_11" data-name="Fill 11" d="M0,2.317A2.531,2.531,0,0,0-1.635,1L-5.2.081A2.547,2.547,0,0,0-7.378.523l-.963,3.7L-.989,6.114Z" transform="translate(137.455 -131.743) rotate(180)" fill="rgba(0,0,0,0.14)"/>
          <path id="Fill_13" data-name="Fill 13" d="M-1.057,14.663a10.251,10.251,0,0,1-13.692,4.618A10.137,10.137,0,0,1-19.394,5.67,10.251,10.251,0,0,1-5.7,1.051,10.137,10.137,0,0,1-1.057,14.663" transform="translate(0 -139.833) rotate(180)" fill="#3c3c3b"/>
          <path id="Fill_16-2" data-name="Fill 16" d="M-2.482,16.8A10.265,10.265,0,0,1-16.9,17.861,10.123,10.123,0,0,1-17.965,3.526,10.265,10.265,0,0,1-3.547,2.467,10.123,10.123,0,0,1-2.482,16.8" transform="translate(135.299 -139.809) rotate(180)" fill="#3c3c3b"/>
          <path id="Fill_19" data-name="Fill 19" d="M-9.1.117A14.215,14.215,0,0,0-24.8,10.824l4.119.523a1.117,1.117,0,0,1,.767.414A14.3,14.3,0,0,1-5.544,4.521,14.466,14.466,0,0,1-1.007,5.873.7.7,0,0,0-.181,4.786,14.343,14.343,0,0,0-9.1.117" transform="translate(2.084 -134.582) rotate(180)" fill="#08aa59"/>
          <path id="Fill_21" data-name="Fill 21" d="M-22.213.017V0L-3.074,2.237A3.468,3.468,0,0,1,0,5.674,3.468,3.468,0,0,1-3.074,9.111l-18.992,2.22v.016h-89.465A11.362,11.362,0,0,1-122.927.017Z" transform="translate(6.683 -144.326) rotate(180)" fill="#08aa59"/>
          <path id="Fill_23" data-name="Fill 23" d="M-104.027,0a10.958,10.958,0,0,0,.392,2.908H-2.924A2.916,2.916,0,0,0,0,0Z" transform="translate(25.584 -144.343) rotate(180)" fill="rgba(0,0,0,0.29)"/>
          <path id="Fill_25" data-name="Fill 25" d="M-2.556,5.082h-101.8a2.548,2.548,0,0,1-2.556-2.541A2.548,2.548,0,0,1-104.353,0h101.8A2.549,2.549,0,0,1,0,2.541,2.549,2.549,0,0,1-2.556,5.082" transform="translate(25.245 -140.571) rotate(180)" fill="#08aa59"/>
          <path id="Fill_27" data-name="Fill 27" d="M0,29.21-28.447.928a3.2,3.2,0,0,0-4.507,0,3.156,3.156,0,0,0,0,4.481l23.94,23.8Z" transform="translate(110.669 -111.797) rotate(180)" fill="#3c3c3b"/>
          <path id="Fill_29-2" data-name="Fill 29" d="M-8.885,20.5h0a4.354,4.354,0,0,1-3.143-5.309l3.463-13.3A2.543,2.543,0,0,1-5.467.081L-1.905,1A2.526,2.526,0,0,1-.082,4.078l-3.463,13.3A4.384,4.384,0,0,1-8.885,20.5" transform="translate(137.738 -133.7) rotate(180)" fill="#08aa59"/>
          <path id="Fill_33" data-name="Fill 33" d="M-3.837,6.548-5.957,6a3.048,3.048,0,0,1-2.2-3.716A3.069,3.069,0,0,1-4.42.1L-2.3.644A3.048,3.048,0,0,1-.1,4.36h0A3.069,3.069,0,0,1-3.837,6.548" transform="translate(105.003 -7.35) rotate(180)" fill="#08aa59"/>
          <path id="Fill_35" data-name="Fill 35" d="M-2.674,5.317H-36.783a2.667,2.667,0,0,1-2.674-2.659A2.667,2.667,0,0,1-36.783,0H-2.674A2.667,2.667,0,0,1,0,2.659,2.667,2.667,0,0,1-2.674,5.317" transform="translate(90.835 -3.367) rotate(180)" fill="#08aa59"/>
          <path id="Fill_37" data-name="Fill 37" d="M-2.674,1.746H-36.783A2.672,2.672,0,0,1-39.292,0a2.635,2.635,0,0,0-.165.913,2.667,2.667,0,0,0,2.674,2.659H-2.674A2.667,2.667,0,0,0,0,.913,2.633,2.633,0,0,0-.165,0,2.672,2.672,0,0,1-2.674,1.746" transform="translate(90.835 -5.113) rotate(180)" fill="#1d1d1b" opacity="0.159"/>
          <path id="Fill_39" data-name="Fill 39" d="M-3.87,7.7h-9.805a3.859,3.859,0,0,1-3.87-3.848A3.859,3.859,0,0,1-13.676,0H-3.87A3.859,3.859,0,0,1,0,3.848,3.859,3.859,0,0,1-3.87,7.7" transform="translate(99.198 -2.178) rotate(180)" fill="#08aa59"/>
          <path id="Fill_41" data-name="Fill 41" d="M-2.674,5.317H-13.941a2.667,2.667,0,0,1-2.674-2.659A2.667,2.667,0,0,1-13.941,0H-2.674A2.666,2.666,0,0,1,0,2.659,2.666,2.666,0,0,1-2.674,5.317" transform="translate(113.677 -3.367) rotate(180)" fill="#08aa59"/>
          <path id="Fill_43" data-name="Fill 43" d="M-2.674,1.738H-13.941A2.672,2.672,0,0,1-16.447,0a2.631,2.631,0,0,0-.168.92,2.667,2.667,0,0,0,2.674,2.659H-2.674A2.666,2.666,0,0,0,0,.92,2.633,2.633,0,0,0-.168,0,2.672,2.672,0,0,1-2.674,1.738" transform="translate(113.677 -5.106) rotate(180)" fill="#1d1d1b" opacity="0.159"/>
          <path id="Fill_47" data-name="Fill 47" d="M0,1.161A1.165,1.165,0,0,0-1.168,0,1.165,1.165,0,0,0-2.337,1.161,1.165,1.165,0,0,0-1.168,2.323,1.165,1.165,0,0,0,0,1.161" transform="translate(136.285 -117.452) rotate(180)" fill="#fefefe" opacity="0.235"/>
          <path id="Fill_49-2" data-name="Fill 49" d="M-1.243,2.472H-11.414a1.24,1.24,0,0,1-1.243-1.236A1.24,1.24,0,0,1-11.414,0H-1.243A1.24,1.24,0,0,1,0,1.236,1.239,1.239,0,0,1-1.243,2.472" transform="translate(27.667 -148.902) rotate(180)" fill="rgba(254,254,254,0.22)"/>
          <path id="Combined_Shape-2" data-name="Combined Shape" d="M-17.435,18.145A9.576,9.576,0,0,1-16.121,16.4c.731-.726,12.56-1.742,13.729-2.9.594-.591,1.076-2.649,1.4-4.527A5.46,5.46,0,0,0,0,5.954C0,2.666-1.373,0-3.067,0c-1.064,0-2,1.052-2.552,2.649h-10.74a3.387,3.387,0,0,0-3.4,3.377,3.387,3.387,0,0,0,3.4,3.378H-6.3c-.066,1.428.029,2.388.9,2.494-.184.184-.4.378-.647.584-1.752,1.453-8.033,1.888-9.932,2.179s-3.8,2.759-3.213,3.339a1.2,1.2,0,0,0,.87.3A2.858,2.858,0,0,0-17.435,18.145Z" transform="translate(125.138 0) rotate(180)" fill="#3c3c3b"/>
          <path id="Fill_51-2" data-name="Fill 51" d="M-1.243,2.472h-.435A1.239,1.239,0,0,1-2.921,1.236,1.24,1.24,0,0,1-1.678,0h.435A1.24,1.24,0,0,1,0,1.236,1.239,1.239,0,0,1-1.243,2.472" transform="translate(41.602 -148.902) rotate(180)" fill="rgba(9,15,23,0.18)"/>
        </g>
      </g>
    </g>
  </g>
</svg>
