<svg xmlns="http://www.w3.org/2000/svg" width="119.168" height="125.665" viewBox="0 0 119.168 125.665">
  <g id="Group_15" data-name="Group 15" transform="translate(-87.176 -385.803)">
    <path id="Fill_14" data-name="Fill 14" d="M55.72,0s3.968,33.092-13.648,64.517S8.046,85.051,8.046,85.051-9.861,76.827,7.755,45.4,55.72,0,55.72,0" transform="translate(108.93 416.667)" fill="#fbc234"/>
    <path id="Fill_18" data-name="Fill 18" d="M28.364,0S3.038,30.4.234,73.042s20.541,42.351,20.541,42.351,23.108,3.336,25.912-39.3S28.364,0,28.364,0" transform="translate(87.176 385.803)" fill="#2cb789"/>
    <path id="Fill_22" data-name="Fill 22" d="M88.746,49.077c4.751-2.678,8.076-8.519,7.446-13.934a14.291,14.291,0,0,0-9.974-11.781c-3.032-.879-6.269-.707-9.366-1.315s-6.333-2.341-7.218-5.369c-1.141-3.91,2.092-8.116.94-12.023C69.413.72,64.3-.717,60.333.332s-7.24,3.776-10.848,5.733A29.988,29.988,0,0,1,35.353,9.677c-4.013.015-8.034-.779-12.017-.3s-8.155,2.668-9.319,6.5c-.964,3.184.282,6.966-1.547,9.746-1.868,2.838-5.9,3.107-8.741,4.975A8.884,8.884,0,0,0,1.445,42.673Z" transform="translate(110.075 462.391)" fill="#0a8f4b"/>
  </g>
</svg>
