<?xml version="1.0" encoding="UTF-8"?>
<svg width="1440px" height="400px" viewBox="0 0 1440 400" version="1.1" xmlns="http://www.w3.org/2000/svg" xmlns:xlink="http://www.w3.org/1999/xlink">
    <!-- Generator: Sketch 58 (84663) - https://sketch.com -->
    <title>gradient-bg2x</title>
    <desc>Created with Sketch.</desc>
    <defs>
        <polygon id="path-1" points="0.437496443 400.774193 1510.4375 400.774193 1510.4375 0.774192803 0.437496443 0.774192803"></polygon>
        <path d="M126,0.159079036 C131.522847,0.159079036 136,4.63623154 136,10.159079 L136,19.160079 L138.361148,19.1601344 C147.276335,19.1601344 150.509198,20.0883905 153.768457,21.8314614 C157.027716,23.5745323 159.585602,26.1324181 161.328673,29.3916773 C163.071744,32.6509366 164,35.883799 164,44.7989864 L164,278.521282 C164,287.43647 163.071744,290.669332 161.328673,293.928591 C159.585602,297.187851 157.027716,299.745736 153.768457,301.488807 C150.509198,303.231878 147.276335,304.160134 138.361148,304.160134 L25.638852,304.160134 C16.7236646,304.160134 13.4908022,303.231878 10.231543,301.488807 C6.97228371,299.745736 4.41439796,297.187851 2.67132704,293.928591 C0.960535203,290.729689 0.0346592849,287.556214 0.000954275573,279.010761 L6.90560205e-16,44.7989864 C-4.01235366e-16,35.883799 0.928256111,32.6509366 2.67132704,29.3916773 C4.41439796,26.1324181 6.97228371,23.5745323 10.231543,21.8314614 C13.4908022,20.0883905 16.7236646,19.1601344 25.638852,19.1601344 L27,19.160079 L27,10.159079 C27,4.63623154 31.4771525,0.159079036 37,0.159079036 L126,0.159079036 Z" id="path-3"></path>
        <rect id="path-5" x="0" y="0" width="41" height="39" rx="6"></rect>
        <polygon id="path-7" points="1.17752864e-05 -5e-05 20.961 -5e-05 20.961 45.66445 1.17752864e-05 45.66445"></polygon>
        <rect id="path-9" x="0" y="0" width="41" height="39" rx="6"></rect>
        <rect id="path-11" x="0" y="0" width="41" height="39" rx="6"></rect>
        <rect id="path-13" x="-0.000118346383" y="2.69220059e-05" width="41" height="39" rx="6"></rect>
    </defs>
    <g id="Design" stroke="none" stroke-width="1" fill="none" fill-rule="evenodd">
        <g id="Company">
            <g id="gradient-bg" transform="translate(-0.340398, -0.994244)">
                <mask id="mask-2" fill="white">
                    <use xlink:href="#path-1"></use>
                </mask>
                <use id="gradient" fill="#12AA5D" xlink:href="#path-1"></use>
                <circle id="Oval" fill="#2CB789" fill-rule="nonzero" mask="url(#mask-2)" cx="1357.8404" cy="680.494244" r="371.5"></circle>
                <circle id="Oval-Copy-2" fill="#2CB789" fill-rule="nonzero" mask="url(#mask-2)" cx="628.840398" cy="660.494244" r="371.5"></circle>
                <path d="M646.515057,296.994244 C648.455902,295.711736 649.689563,293.134637 649.252279,290.860761 C648.814416,288.586884 646.912956,286.659958 644.633289,286.180096 C643.313909,285.902191 641.940085,286.074803 640.601012,285.913698 C639.26194,285.752593 637.829039,285.119107 637.357584,283.863642 C636.748282,282.242814 637.994686,280.360767 637.38133,278.74109 C636.763341,277.110481 634.540434,276.661115 632.882231,277.227858 C631.224028,277.795176 629.915652,279.052943 628.439892,279.994254 C626.673382,281.120836 624.623071,281.803804 622.530481,281.963183 C620.821889,282.094368 619.083179,281.88263 617.40123,282.210018 C615.71928,282.537406 614.00953,283.593216 613.634219,285.254895 C613.322618,286.633491 613.971304,288.196781 613.279759,289.430957 C612.572575,290.691601 610.862825,290.930956 609.710829,291.810127 C608.161512,292.991945 607.873658,295.495971 609.115428,296.994244 L646.515057,296.994244 Z" id="Fill-24" fill="#2CB789" mask="url(#mask-2)"></path>
                <g id="Path-6" mask="url(#mask-2)">
                    <g transform="translate(975.340398, 127.834109)">
                        <mask id="mask-4" fill="white">
                            <use xlink:href="#path-3"></use>
                        </mask>
                        <use id="Mask" stroke="none" fill="#109C55" fill-rule="nonzero" xlink:href="#path-3"></use>
                        <path d="M98.5,-5.83986562 C98.5,3.82680105 98.5,13.4934677 98.5,23.1601344 C98.5,25.9215581 100.738576,28.1601344 103.5,28.1601344 L121.450311,28.1601344 C124.211734,28.1601344 126.450311,30.3987106 126.450311,33.1601344 L126.450311,288.074197 L126.450311,288.074197 L173.5,288.074197 L173.5,-10.8633031 C123.5,-11.5143448 98.5,-9.83986562 98.5,-5.83986562 Z" id="Path-6" stroke="none" fill="#0F9350" fill-rule="nonzero" mask="url(#mask-4)"></path>
                    </g>
                </g>
                <g id="Group-3" mask="url(#mask-2)">
                    <g transform="translate(991.340398, 171.994244)">
                        <mask id="mask-6" fill="white">
                            <use xlink:href="#path-5"></use>
                        </mask>
                        <use id="Mask" stroke="none" fill="#077D40" fill-rule="nonzero" opacity="0.551525298" xlink:href="#path-5"></use>
                        <g id="Group-3" stroke="none" stroke-width="1" fill="none" fill-rule="evenodd" mask="url(#mask-6)">
                            <g transform="translate(10.000000, 12.000000)">
                                <mask id="mask-8" fill="white">
                                    <use xlink:href="#path-7"></use>
                                </mask>
                                <g id="Clip-2" stroke="none" fill="none"></g>
                                <path d="M17.05955,41.3671 C17.48555,38.3106 17.70205,35.0316 17.35305,31.9491 C17.33205,31.7636 17.29605,31.5926 17.25355,31.4286 C17.26255,31.3251 17.26805,31.2216 17.26905,31.1171 L17.97505,31.1171 C17.96155,29.5016 17.57555,27.0031 17.40705,24.6911 C18.03955,24.7966 18.56555,24.8596 18.88105,24.8546 C19.34055,24.8466 19.86755,24.8031 20.13755,24.4321 C20.20055,24.3461 20.24105,24.2511 20.26655,24.1511 C20.42755,23.8616 20.47355,23.4346 20.53355,23.1651 C20.80855,21.9361 20.89505,20.6656 20.79205,19.4106 C20.73355,18.6981 20.61355,17.9906 20.43255,17.2986 C20.41805,17.2451 20.39905,17.1931 20.38405,17.1396 L20.96105,17.1076 C20.60205,15.2801 19.94805,13.5791 18.92855,12.1066 C18.92755,12.0996 18.92705,12.0926 18.92555,12.0856 C18.89205,12.0441 18.85305,11.9961 18.81705,11.9511 C18.45555,11.4491 18.04955,10.9751 17.59505,10.5341 C16.65155,9.5576 15.33505,8.5146 13.51005,8.0296 C12.97705,7.2406 12.64155,6.5006 12.37805,5.4641 C12.44955,5.5126 12.52905,5.5481 12.61505,5.5571 C12.77705,5.5751 12.95655,5.4816 12.99905,5.3246 C13.05655,5.1126 12.86505,4.9226 12.78955,4.7166 C12.70555,4.4866 12.76955,4.2321 12.76905,3.9871 C12.76855,3.6096 12.61105,3.2451 12.39205,2.9381 C12.31105,2.8241 12.21555,2.7221 12.12105,2.6196 C12.38955,1.6711 12.30805,0.5601 10.87305,0.0546 C10.47955,-0.0839 9.92405,0.0696 9.52605,0.1951 C9.12805,0.3201 8.75205,0.5186 8.34105,0.5926 C8.01605,0.6511 7.68155,0.6286 7.35255,0.6611 C6.43205,0.7526 5.54955,1.5961 5.52555,2.5426 C5.78155,2.4391 6.03805,2.3356 6.29405,2.2316 C6.17605,2.3771 6.05555,2.5291 6.00905,2.7106 C5.96305,2.8921 6.01355,3.1126 6.17505,3.2071 C6.30105,3.2806 6.46405,3.2616 6.59355,3.1946 C6.72305,3.1281 6.82605,3.0211 6.92655,2.9156 C6.87405,3.0131 6.82005,3.1161 6.81955,3.2271 C6.81855,3.3376 6.89105,3.4581 7.00155,3.4701 C7.01005,3.4711 7.01805,3.4646 7.02705,3.4646 C7.08005,4.8681 8.27855,6.8556 8.87905,7.2061 C9.23405,7.4131 9.62605,7.4031 10.00105,7.2691 C10.00105,7.5361 10.00355,7.7736 10.00655,7.9536 C8.44355,8.4096 7.17005,9.5671 6.35805,10.4936 C6.05105,10.8256 5.77705,11.1766 5.53455,11.5456 C5.52255,11.5631 5.50655,11.5851 5.49605,11.6011 C5.48805,11.6126 5.48355,11.6261 5.47605,11.6376 C5.37905,11.7901 5.28655,11.9451 5.19855,12.1026 L0.59855,12.1026 C0.16305,12.1026 -0.09145,12.4561 0.03055,12.8916 L1.66405,18.7266 C1.59955,18.7796 1.55555,20.0431 1.52855,20.1221 C1.29705,20.7971 1.16805,21.3756 1.42655,22.0776 C1.57755,22.4871 2.33855,23.1531 2.89405,23.1186 L3.27005,24.4621 C3.39255,24.8976 3.84455,25.2511 4.28005,25.2511 L6.02155,25.2511 C6.03305,27.2781 5.95005,29.3196 5.70205,31.1171 L6.19155,31.1171 C6.34305,34.8086 7.05305,42.2671 7.48955,45.6646" id="Fill-1" stroke="none" fill-opacity="0.116204108" fill="#000000" fill-rule="evenodd" mask="url(#mask-8)"></path>
                            </g>
                        </g>
                    </g>
                </g>
                <rect id="Rectangle-Copy-15" fill="#077D40" fill-rule="nonzero" opacity="0.551525298" mask="url(#mask-2)" x="1044.3404" y="171.994244" width="41" height="39" rx="6"></rect>
                <rect id="Rectangle-Copy-11" fill="#077D40" fill-rule="nonzero" opacity="0.551525298" mask="url(#mask-2)" x="991.340398" y="220.994244" width="41" height="39" rx="6"></rect>
                <g id="Group-6" mask="url(#mask-2)">
                    <g transform="translate(1044.340398, 220.994244)">
                        <mask id="mask-10" fill="white">
                            <use xlink:href="#path-9"></use>
                        </mask>
                        <use id="Mask" stroke="none" fill="#077D40" fill-rule="nonzero" opacity="0.551525298" xlink:href="#path-9"></use>
                        <g id="Group-3" stroke="none" stroke-width="1" fill="none" fill-rule="evenodd" mask="url(#mask-10)">
                            <g transform="translate(3.000000, 16.000000)" fill="#09793F" id="Combined-Shape">
                                <path d="M8.79664737,0.704598529 C9.93017368,-0.189798529 11.1698053,0.852613235 11.6723842,1.52328971 C11.9513842,1.36217206 12.2981211,1.358775 12.6074368,1.44758382 C13.1829632,1.61258382 13.6661211,2.08331912 13.8565421,2.66421618 C14.0469632,3.24511324 13.9389632,3.91870147 13.5775421,4.40642206 C13.4112789,4.63014265 13.1990684,4.81358382 13.0242789,5.030025 C12.8490158,5.24598088 12.7078579,5.51337794 12.7268053,5.79339265 C12.6855947,5.75020147 12.6571737,5.698275 12.6301737,5.64634853 C12.3038053,6.70331912 11.7278053,7.71224559 11.3564368,7.97478971 C10.9798579,8.24121618 10.5350684,8.22520147 10.1106474,8.06408382 C10.1106474,8.31643676 10.1092263,8.54112794 10.1063842,8.71680441 C11.1617526,8.98953971 12.0394895,9.55878971 12.7125947,10.1552162 L12.7125947,10.1552162 L12.8059105,9.47823088 C12.8788579,8.94828971 13.3587,8.51783382 13.8754895,8.51783382 L13.8754895,8.51783382 L26.1074368,8.51783382 C26.6242263,8.51783382 26.9856474,8.94828971 26.9122263,9.47823088 L26.9122263,9.47823088 L25.6981737,18.2761279 C25.6247526,18.8055838 25.1453842,19.236525 24.6285947,19.236525 L24.6285947,19.236525 L21.9993316,19.2361159 L22,25 L19,25 L18.9993316,19.2361159 L14.2279105,19.236525 C14.2238842,19.2501132 14.2200947,19.2634588 14.2163645,19.2767438 L14.2051737,19.3165985 C14.2146474,20.350275 14.2388053,21.488775 14.2700684,22.6122309 C15.5040158,23.7385985 17.7781737,25.6040691 18.5199632,26.2320397 C18.7771737,26.0301574 19.0803316,25.8821426 19.4000684,25.9044662 C19.7363842,25.9277603 20.0404895,26.1359515 20.2531737,26.4033485 C20.4653842,26.6712309 20.5975421,26.9954074 20.7126474,27.3195838 C20.7945947,27.5496132 20.8699105,27.7980838 20.8092789,28.0353926 C20.7491211,28.2722162 20.4980684,28.4731279 20.2749632,28.3852897 C20.0115947,28.2819221 19.9613842,27.8737897 19.6965947,27.7738191 C19.4299105,27.6733632 19.1859632,27.9451279 18.9372789,28.0858632 C18.5616474,28.2984221 17.8904368,28.1814662 17.7137526,27.7364515 C17.6948053,27.6869515 17.6877,27.6364809 17.6815421,27.5860103 C16.7839105,27.2749368 15.5513842,26.5799956 14.3761737,25.8311868 C14.4135947,26.8153632 14.4491211,27.6500691 14.4742263,28.2086426 C15.1643842,30.7637162 11.5189105,32.9999515 5.37475263,32.9999515 C4.61496316,32.9999515 3.80448947,32.9324956 3.19154211,32.4903926 C2.22427895,31.793025 2.54827895,30.7802162 2.94712105,29.8387456 L2.94712105,29.8387456 L2.90780526,29.8387456 C2.71264737,29.8372897 2.5047,29.8324368 2.34506842,29.7300397 C1.99264737,29.5048632 2.11438421,29.0152015 2.24085789,28.641525 C2.62312105,27.511275 2.91585789,26.3747162 3.05417368,25.2362162 C1.60091053,24.2564074 0.421910526,23.3362897 0.390647368,23.2120544 C0.244752632,22.6379515 0.0514894737,19.9887309 0.296384211,17.7325985 L0.296384211,17.7325985 L0.000331578948,17.7282309 C0.271752632,15.2323632 1.10875263,12.5826574 1.98554211,11.7139809 C2.03812105,11.6615691 2.13996316,11.5907162 2.27022632,11.5213191 C3.08448947,10.3236132 4.6197,9.21034853 6.74985789,8.75951029 C7.19512105,8.07281912 7.49638421,7.41621618 7.73038421,6.55821618 C7.17759474,6.66255441 6.58122632,6.49076029 6.16248947,6.10737794 C6.81664737,6.03555441 7.37512105,3.32178971 7.60106842,2.51717206 C7.77064737,1.91055441 8.30922632,1.08992206 8.79664737,0.704598529 Z"></path>
                            </g>
                        </g>
                    </g>
                </g>
                <g id="Group-18" mask="url(#mask-2)">
                    <g transform="translate(991.340398, 269.994244)">
                        <mask id="mask-12" fill="white">
                            <use xlink:href="#path-11"></use>
                        </mask>
                        <use id="Mask" stroke="none" fill="#077D40" fill-rule="nonzero" opacity="0.551525298" xlink:href="#path-11"></use>
                        <path d="M17.0652885,41.5276463 L16.432478,41.5276463 L16.4196516,41.4898056 L17.056145,41.4898056 C17.0593198,41.5025896 17.0622407,41.5149901 17.0652885,41.5276463 M18.2159802,37.6387389 C18.3761195,37.6829717 18.4731428,37.7013807 18.4731428,37.7013807 C18.4731428,37.7013807 18.4725078,37.7009972 18.4725078,37.7009972 C18.4839373,37.7047046 18.4954937,37.7085398 18.5069232,37.7122472 L18.2067096,37.7122472 C18.2097575,37.6877018 18.2129323,37.6632843 18.2159802,37.6387389 M35.9195634,32.2087144 C35.8272388,32.0650217 35.6705283,31.9793686 35.5006105,31.9793686 L28.2816429,31.9793686 C28.1984619,31.9793686 28.1190907,32.0012293 28.0482281,32.0390701 L27.7786201,32.0390701 C27.6054004,32.0390701 27.448309,32.1414704 27.3774464,32.3005039 L25.0928263,37.426268 L21.6523078,37.426268 C21.5830962,36.8226053 21.0202592,36.4231038 20.442691,36.5432738 L18.3511017,35.1866306 C18.3133845,33.5758406 17.9821844,32.0002066 17.0609708,30.9344005 C16.9290241,30.7816311 16.784632,30.6385777 16.6298265,30.5042173 C16.5678535,29.922671 16.4865774,29.3417638 16.3804105,28.8188962 C16.9117529,27.5771816 16.8453351,23.9306598 16.3336767,21.6735082 C16.4762909,21.1152288 16.2541786,20.3011406 15.2463551,19.3070531 C14.7211083,18.7890434 14.6764065,18.1555938 14.0494377,18.2937894 C14.0315315,18.2977525 14.0126094,18.3035053 13.9931794,18.3111757 C13.3184608,17.7463765 11.7616427,17.9876115 10.6410487,18.7349669 C10.1412007,19.068247 9.80326996,19.4515128 9.55525089,19.9863974 C9.5551239,19.9863974 9.55398096,19.9866531 9.55398096,19.9866531 C9.55398096,19.9866531 9.553092,19.9893377 9.55169507,19.9935564 C9.50826316,20.0877749 9.46673615,20.1851893 9.42851099,20.2893793 C9.34837785,20.5079865 9.27992814,20.7778578 9.23205145,21.0577006 C8.65219735,23.0810319 7.56678057,27.3689295 8.40621018,28.5398205 C8.34817397,28.7961406 8.29509053,29.095543 8.24924573,29.4435248 C7.03632709,29.8786938 6.13162263,30.5714614 5.88855632,31.4738874 C5.24203043,33.8746038 5.37131021,36.0242415 5.73946549,37.7122472 L-3,37.7122472 L-3,38.6000993 L-2.90157974,38.6000993 L-2.70981896,39.3267446 L-1.9900176,39.3267446 L-1.98735072,39.3267446 L-2.12539308,40.2971817 C-2.14482315,40.4334597 -2.05059368,40.5441695 -1.9150912,40.5441695 L-1.09191681,40.5441695 C-0.956414329,40.5441695 -0.830817372,40.4334597 -0.811387307,40.2971817 L-0.673344949,39.3267446 L5.39302616,39.3267446 L5.25498381,40.2971817 C5.23568073,40.4334597 5.32965621,40.5441695 5.46528569,40.5441695 L6.28846008,40.5441695 C6.42396256,40.5441695 6.54955952,40.4334597 6.56898958,40.2971817 L6.5727994,40.2695682 C6.8968878,40.9974919 7.17475043,41.4304876 7.21716639,41.4898056 L8.54349058,41.4898056 C8.54272861,41.5024618 8.54234763,41.5149901 8.54158567,41.5276463 L7.09918907,41.5276463 C6.80926202,41.5276463 6.57216443,41.7664524 6.57216443,42.0583122 L6.57216443,42.708381 C6.57216443,43.0002408 6.80926202,43.2390469 7.09918907,43.2390469 L9.45378278,43.2390469 C10.2166351,44.0053227 11.1516911,44.4751365 11.0008223,43.2390469 L18.5508631,43.2390469 C18.8406631,43.2390469 19.0778877,43.0002408 19.0778877,42.708381 L19.0778877,42.0583122 C19.0778877,41.7664524 18.8406631,41.5276463 18.5508631,41.5276463 L17.3145775,41.5276463 C17.3122917,41.5148623 17.3102598,41.5028453 17.3077199,41.4898056 L17.4168076,41.4898056 C17.4168076,41.4898056 17.6923844,40.6089846 17.9449752,39.3267446 L23.9459445,39.3267446 L24.0839868,40.2971817 C24.1032899,40.4334597 24.2290139,40.5441695 24.3645163,40.5441695 L25.1876907,40.5441695 C25.3231932,40.5441695 25.4172957,40.4334597 25.3978656,40.2971817 L25.2598233,39.3267446 L31.3263214,39.3267446 L31.4643637,40.2971817 C31.4837938,40.4334597 31.6092637,40.5441695 31.7447662,40.5441695 L32.5680676,40.5441695 C32.7035701,40.5441695 32.7976726,40.4334597 32.7782425,40.2971817 L32.6402001,39.3267446 L33.661231,39.3267446 L34.4129079,38.6000993 L34.6712134,38.6000993 L34.6712134,37.7122472 L33.7164734,37.7122472 L35.9560106,32.687477 C36.0256033,32.531256 36.0120149,32.3524071 35.9195634,32.2087144" id="Fill-1" stroke="none" fill="#000000" fill-rule="evenodd" opacity="0.181640625" mask="url(#mask-12)"></path>
                    </g>
                </g>
                <rect id="Rectangle-Copy-17" fill="#077D40" fill-rule="nonzero" opacity="0.551525298" mask="url(#mask-2)" x="1044.3404" y="269.994244" width="41" height="39" rx="6"></rect>
                <rect id="Rectangle-Copy-13" fill="#077D40" fill-rule="nonzero" opacity="0.551525298" mask="url(#mask-2)" x="991.340398" y="318.994244" width="41" height="39" rx="6"></rect>
                <path d="M1004.04116,307.624131 C1004.04116,307.481688 1004.15294,307.366259 1004.29071,307.366259 C1004.42848,307.366259 1004.54026,307.481688 1004.54026,307.624131 C1004.54026,307.766721 1004.42848,307.882151 1004.29071,307.882151 C1004.15294,307.882151 1004.04116,307.766721 1004.04116,307.624131 Z M1006.31953,307.309429 C1006.3114,307.292602 1006.29998,307.277546 1006.2827,307.260718 C1006.26314,307.241234 1006.23587,307.227654 1006.20147,307.220421 C1006.19247,307.21806 1006.18319,307.216879 1006.17149,307.216436 C1006.14194,307.215403 1006.11281,307.221159 1006.08826,307.227064 C1006.049,307.235477 1006.01088,307.251862 1005.97419,307.267804 C1005.95334,307.276217 1005.94321,307.282122 1005.93421,307.28965 C1005.9265,307.294226 1005.92094,307.299835 1005.91708,307.307363 C1005.91608,307.308248 1005.91594,307.309872 1005.91508,307.310758 C1005.9058,307.325076 1005.90223,307.332899 1005.89866,307.341165 C1005.89096,307.344708 1005.88439,307.346036 1005.87711,307.346331 C1005.83256,307.348103 1005.77831,307.347807 1005.72349,307.345889 C1005.67324,307.34397 1005.62284,307.340575 1005.57259,307.335851 C1005.47894,307.328028 1005.384,307.311791 1005.27521,307.284779 C1005.19184,307.26677 1005.1009,307.240348 1004.98169,307.20197 C1004.89332,307.171268 1004.80709,307.138351 1004.68388,307.088016 C1004.5838,307.046243 1004.48444,307.001075 1004.38565,306.955464 L1004.32255,306.926237 L1004.30441,306.917824 L1004.28143,306.858633 L1004.2653,306.82424 C1004.27215,306.811398 1004.27829,306.797966 1004.28371,306.784681 C1004.30427,306.733018 1004.31155,306.670727 1004.30584,306.599875 C1004.30356,306.580833 1004.29528,306.566515 1004.28214,306.558249 C1004.27643,306.554707 1004.27001,306.552788 1004.26316,306.552492 C1004.25345,306.55323 1004.24631,306.555445 1004.23931,306.560168 L1004.22804,306.567991 C1004.21576,306.571829 1004.20262,306.577438 1004.1892,306.581276 C1004.18178,306.563563 1004.17793,306.544522 1004.1745,306.52607 C1004.1715,306.512343 1004.16865,306.49832 1004.16536,306.485035 C1004.16151,306.469979 1004.15622,306.455366 1004.15094,306.4409 L1004.14209,306.416988 C1004.13267,306.38968 1004.12496,306.36193 1004.11825,306.334327 C1004.1094,306.299344 1004.10297,306.263327 1004.09698,306.227458 C1004.09141,306.191294 1004.08741,306.168562 1004.08042,306.147454 C1004.07285,306.12487 1004.06214,306.108633 1004.04772,306.09771 C1004.0373,306.08974 1004.0246,306.085606 1004.00932,306.085164 C1004.00347,306.084868 1003.99719,306.085164 1003.99133,306.086197 C1003.96578,306.09033 1003.94165,306.102581 1003.92038,306.113504 C1003.88711,306.130922 1003.85785,306.149078 1003.82944,306.166791 C1003.83058,306.147307 1003.83044,306.125904 1003.83029,306.104353 L1003.83001,306.074536 C1003.83058,306.044719 1003.83115,306.01505 1003.83215,305.985971 L1003.83343,305.918956 C1003.83472,305.866703 1003.835,305.813859 1003.83258,305.762048 C1003.83015,305.705219 1003.82344,305.659018 1003.81102,305.616654 C1003.80131,305.580933 1003.78375,305.549049 1003.7602,305.524546 C1003.73878,305.501667 1003.70866,305.488382 1003.67554,305.487054 C1003.67068,305.486906 1003.66583,305.487201 1003.66055,305.487496 C1003.62343,305.491925 1003.59316,305.516723 1003.56575,305.542997 C1003.54791,305.559972 1003.53234,305.579309 1003.51693,305.598498 C1003.50393,305.614587 1003.49051,305.63112 1003.4761,305.646028 C1003.46896,305.65267 1003.4611,305.658575 1003.45282,305.663594 L1003.43826,305.66625 L1003.42184,305.661232 L1003.41271,305.649718 C1003.40514,305.639386 1003.39986,305.630086 1003.39486,305.61813 C1003.38187,305.581966 1003.37402,305.544326 1003.36617,305.506686 L1003.35889,305.47126 C1003.35189,305.435243 1003.34489,305.399817 1003.33561,305.364686 C1003.32448,305.32188 1003.3092,305.285568 1003.29022,305.256489 C1003.28136,305.242023 1003.26994,305.228443 1003.25652,305.216044 C1003.24139,305.203055 1003.22412,305.19287 1003.20213,305.184161 C1003.18514,305.17678 1003.16544,305.176042 1003.14817,305.175452 C1003.13289,305.175009 1003.11562,305.178847 1003.09563,305.187408 C1003.06236,305.202317 1003.03196,305.233905 1003.00283,305.283649 C1002.97356,305.333836 1002.95301,305.387861 1002.93288,305.443214 L1002.91632,305.493253 L1002.90832,305.518199 C1002.89719,305.498715 1002.88248,305.479378 1002.86778,305.460189 L1002.85678,305.446609 L1002.78726,305.35273 L1002.71916,305.261803 C1002.68047,305.211616 1002.63478,305.153753 1002.58353,305.098843 C1002.56354,305.078178 1002.54313,305.059284 1002.52114,305.041423 C1002.50301,305.026662 1002.48103,305.010426 1002.45562,305.001569 C1002.44377,304.997141 1002.43277,304.994631 1002.42306,304.994336 C1002.41778,304.994041 1002.4115,304.994484 1002.40608,304.995222 C1002.38323,305.000241 1002.36482,305.010426 1002.3514,305.025629 C1002.31471,305.068731 1002.30643,305.130284 1002.30314,305.185047 C1002.29857,305.258998 1002.30343,305.332065 1002.30914,305.406607 L1002.31157,305.445133 C1002.31456,305.483216 1002.31756,305.521742 1002.31828,305.559825 C1002.28287,305.530155 1002.24504,305.501372 1002.20792,305.471407 L1002.16238,305.432881 C1002.11569,305.394355 1002.07857,305.3638 1002.04017,305.33605 C1002.00234,305.308447 1001.95166,305.276564 1001.89641,305.274054 C1001.87257,305.273169 1001.85144,305.277007 1001.82945,305.286011 C1001.80475,305.296934 1001.78462,305.314942 1001.76635,305.33295 C1001.74208,305.357453 1001.72409,305.389189 1001.70767,305.419744 C1001.68954,305.452366 1001.67241,305.491187 1001.65542,305.538717 C1001.63972,305.520856 1001.62059,305.503143 1001.60174,305.48543 L1001.57933,305.464912 C1001.53678,305.42373 1001.4941,305.38358 1001.44941,305.345645 C1001.40672,305.309185 1001.36804,305.280402 1001.33135,305.25767 C1001.28766,305.23051 1001.24683,305.215454 1001.20985,305.212945 C1001.19015,305.212354 1001.17673,305.214568 1001.16074,305.217373 C1001.14161,305.222391 1001.12434,305.234791 1001.10949,305.246009 C1001.0945,305.257227 1001.07994,305.274202 1001.06737,305.294867 C1001.05924,305.308004 1001.0531,305.320404 1001.04724,305.335164 C1001.0441,305.342692 1001.04168,305.350516 1001.03939,305.358487 C1001.02897,305.395389 1001.02526,305.420335 1001.02412,305.45207 C1001.02269,305.480559 1001.02369,305.508162 1001.02611,305.535912 C1001.0284,305.554806 1001.03111,305.573109 1001.03525,305.59097 L1001.01412,305.575766 L1000.99,305.563958 L1000.96316,305.550968 C1000.9219,305.530893 1000.88078,305.510966 1000.83895,305.491334 C1000.78627,305.466831 1000.73245,305.444542 1000.67848,305.424468 C1000.61767,305.401884 1000.5627,305.38727 1000.51016,305.37989 C1000.49817,305.377823 1000.48618,305.37679 1000.47333,305.376347 C1000.40966,305.373985 1000.328,305.388746 1000.30059,305.471702 C1000.28288,305.52558 1000.2933,305.585951 1000.30258,305.639386 C1000.30858,305.673188 1000.31629,305.702562 1000.32386,305.732084 L1000.33571,305.779319 C1000.32143,305.771643 1000.30458,305.766181 1000.28802,305.76072 C1000.25633,305.75024 1000.2322,305.741531 1000.20807,305.732822 L1000.17181,305.719832 L1000.11742,305.700348 C1000.0646,305.680716 1000.01163,305.662855 999.958094,305.646176 C999.896991,305.627282 999.847737,305.616064 999.803195,305.61075 C999.793629,305.609864 999.784064,305.608978 999.774499,305.608683 C999.745946,305.60765 999.721819,305.610897 999.70069,305.618721 C999.666426,305.630234 999.637588,305.665512 999.623597,305.71319 C999.606751,305.769429 999.607607,305.830982 999.610605,305.883826 C999.614032,305.937998 999.621313,305.990989 999.629593,306.044276 L999.586478,306.031582 L999.524233,306.017854 L999.46213,306.003979 C999.40274,305.991285 999.339496,305.978738 999.27725,305.976524 C999.259119,305.975786 999.241417,305.976229 999.223143,305.977262 C999.188451,305.979919 999.158185,305.988332 999.132916,306.002208 C999.104648,306.018297 999.083234,306.042062 999.069243,306.073207 C999.056679,306.101253 999.052682,306.135351 999.056965,306.180371 C999.060106,306.210483 999.067529,306.242367 999.079522,306.277793 C999.070528,306.276907 999.061533,306.276464 999.052825,306.276169 C999.022559,306.274988 998.993863,306.276464 998.96531,306.278826 C998.935044,306.281631 998.905206,306.286059 998.875226,306.292111 C998.850385,306.297425 998.827114,306.306134 998.802273,306.319861 C998.785141,306.329013 998.769723,306.345102 998.756731,306.367686 C998.744739,306.390418 998.747594,306.418316 998.750878,306.437358 C998.752448,306.448871 998.758159,306.46068 998.76287,306.470127 C998.771436,306.487692 998.780002,306.498911 998.788853,306.509834 C998.798133,306.521199 998.804129,306.52858 998.810554,306.53537 L998.762727,306.531827 C998.722896,306.532565 998.683208,306.533894 998.642948,306.535665 C998.581988,306.538617 998.528165,306.544374 998.478769,306.553526 C998.444506,306.559282 998.393539,306.569763 998.347854,306.595742 C998.309879,306.617145 998.284038,306.64401 998.268477,306.678255 C998.258198,306.699511 998.256342,306.723128 998.254629,306.74586 C998.253915,306.755307 998.2552,306.767853 998.258341,306.782319 C998.262053,306.795899 998.264908,306.806379 998.269619,306.815974 C998.291177,306.863061 998.325868,306.89524 998.371553,306.929042 C998.39154,306.944246 998.413097,306.958121 998.434226,306.971553 C998.450644,306.982033 998.467348,306.993104 998.483766,307.004175 C998.390969,307.042405 998.292747,307.065137 998.191955,307.086688 C998.13799,307.098054 998.084025,307.109862 998.03106,307.123295 C997.968672,307.139237 997.910709,307.160197 997.858458,307.185438 C997.851319,307.188981 997.843039,307.193704 997.837614,307.205218 C997.833902,307.213484 997.831475,307.225883 997.835187,307.236068 L997.844895,307.261604 C997.852461,307.277546 997.860742,307.291126 997.870307,307.305296 C997.887296,307.329652 997.907997,307.34766 997.927984,307.363749 C997.955395,307.385743 997.987088,307.400209 998.012643,307.412017 C998.032487,307.421021 998.05276,307.429435 998.073032,307.437258 L997.995797,307.479327 C997.943831,307.505453 997.891864,307.53158 997.840041,307.560069 C997.762234,307.602875 997.673007,307.656605 997.600768,307.730999 C997.553084,307.778972 997.511825,307.854991 997.538522,307.924662 C997.545946,307.943556 997.558652,307.95684 997.567646,307.965254 C997.587062,307.98341 997.610333,307.996695 997.632319,308.008946 C997.648879,308.017803 997.665297,308.026217 997.681858,308.034483 L997.712838,308.050424 L997.726829,308.05751 L997.714551,308.063857 C997.687711,308.08895 997.659587,308.113748 997.631177,308.138547 C997.575784,308.18711 997.528529,308.228588 997.485414,308.274789 C997.454149,308.307854 997.425167,308.347413 997.3969,308.395681 C997.370346,308.44262 997.351644,308.498564 997.340936,308.562036 C997.33908,308.575173 997.342079,308.589343 997.349074,308.599676 C997.354785,308.608385 997.362066,308.613403 997.370917,308.614289 C997.384765,308.616356 997.398185,308.617979 997.412033,308.618422 C997.421598,308.618865 997.431735,308.61857 997.441728,308.617832 C997.462429,308.616946 997.483701,308.611632 997.504116,308.606318 C997.535096,308.598347 997.557225,308.589196 997.578639,308.580192 L997.566933,308.608237 C997.524674,308.692965 997.472137,308.798357 997.428737,308.912016 C997.366777,309.076304 997.558224,309.764603 997.55594,309.805048 C997.553941,309.837964 997.561079,309.872357 997.576212,309.902322 C997.583493,309.915754 997.593344,309.928153 997.60762,309.941881 C997.624324,309.956051 997.643169,309.96786 997.665583,309.978192 C997.719405,310.0024 997.777082,310.013028 997.831332,310.021589 C997.853604,310.02528 997.876303,310.027051 997.898717,310.030298 C997.890865,310.071481 997.884441,310.120782 997.879158,310.18514 C997.871735,310.276805 997.872306,310.355923 997.880158,310.426332 C997.889295,310.510912 997.908282,310.573203 997.938691,310.623685 C997.950969,310.646564 997.969814,310.666934 997.994655,310.685238 C998.013642,310.699851 998.035628,310.709593 998.066751,310.717416 C998.073318,310.718302 998.079885,310.718597 998.085738,310.718745 C998.106439,310.719483 998.12814,310.715793 998.156121,310.707822 C998.170826,310.706641 998.188957,310.699408 998.21494,310.686418 C998.237497,310.675938 998.258055,310.663834 998.279042,310.65055 C998.296744,310.639922 998.314019,310.626489 998.329723,310.612614 C998.351566,310.59313 998.371838,310.572022 998.390398,310.548995 C998.424947,310.506484 998.4525,310.46043 998.476342,310.416442 C998.509321,310.354742 998.534162,310.292894 998.546154,310.261896 C998.560859,310.224256 998.574707,310.186025 998.587841,310.148385 L998.6291,310.163884 L998.68178,310.177464 C998.765297,310.19562 998.849528,310.212152 998.933616,310.227503 C999.019846,310.243593 999.107789,310.25673 999.194875,310.268834 C999.279106,310.28079 999.361196,310.291713 999.441144,310.301308 C999.442572,310.356956 999.453707,310.428546 999.474265,310.52582 C999.502675,310.664868 999.534655,310.765832 999.57777,310.853216 C999.607607,310.91595 999.66043,310.991378 999.739093,310.994215 C999.751514,310.994625 999.764648,310.99064 999.783493,310.98016 C999.79777,310.972189 999.811189,310.962594 999.821183,310.954033 C999.830748,310.945914 999.8386,310.936025 999.846595,310.926282 C999.871008,310.893513 999.884713,310.8727 999.897419,310.852921 C999.930683,310.798601 999.955524,310.750776 999.97908,310.697046 C1000.00835,310.635346 1000.03547,310.571284 1000.06031,310.507664 C1000.08116,310.453935 1000.10086,310.400205 1000.11999,310.346476 L1000.13669,310.352085 C1000.23206,310.355628 1000.32371,310.356661 1000.41537,310.35607 C1000.66578,310.350461 1000.91719,310.328615 1001.1626,310.292599 C1001.19443,310.346476 1001.2394,310.41039 1001.29094,310.477257 C1001.33877,310.537334 1001.39373,310.598739 1001.45455,310.659849 C1001.51394,310.718597 1001.58318,310.774541 1001.65999,310.826647 C1001.66641,310.831222 1001.67227,310.834322 1001.67769,310.83447 C1001.69282,310.83506 1001.71053,310.82458 1001.71867,310.809081 C1001.80232,310.647155 1001.83745,310.473419 1001.86086,310.323892 C1001.87128,310.256287 1001.87956,310.188682 1001.88727,310.120635 L1001.90412,310.119454 C1001.98963,310.094508 1002.07358,310.066167 1002.15709,310.037826 L1002.18279,310.029708 L1002.21406,310.01908 L1002.25746,310.00491 C1002.37966,309.999743 1002.50787,309.980259 1002.64849,309.945571 C1002.66334,309.942028 1002.67904,309.938191 1002.69389,309.934205 C1002.71002,309.970222 1002.76613,310.059082 1002.83408,310.153551 C1002.89076,310.228537 1002.94772,310.291123 1003.00883,310.345 C1003.03852,310.370684 1003.07079,310.393268 1003.10691,310.41349 C1003.13674,310.431941 1003.17201,310.44685 1003.21498,310.458954 C1003.21555,310.459544 1003.21612,310.459544 1003.21669,310.459544 C1003.25196,310.460873 1003.26066,310.443307 1003.26295,310.437698 C1003.29036,310.367436 1003.3092,310.291861 1003.32305,310.199162 C1003.33604,310.105431 1003.34261,310.004024 1003.34261,309.890218 C1003.34275,309.824532 1003.33947,309.759437 1003.33362,309.694046 C1003.37759,309.676628 1003.42784,309.651535 1003.47966,309.624227 C1003.7355,309.489756 1003.99733,309.31853 1004.25802,309.115273 C1004.35738,309.036893 1004.45503,308.955265 1004.54897,308.872161 C1004.59137,308.837178 1004.63491,308.801309 1004.67732,308.765145 C1004.69744,308.764702 1004.72643,308.759093 1004.75655,308.750679 C1004.81394,308.739756 1004.8759,308.721748 1004.95157,308.694145 C1005.0712,308.653701 1005.19484,308.594657 1005.32932,308.513768 C1005.57288,308.369849 1005.79459,308.18711 1005.98675,307.970716 C1006.07041,307.876246 1006.13937,307.780596 1006.19504,307.685684 C1006.1959,307.685388 1006.19676,307.685536 1006.19747,307.685241 C1006.20589,307.682289 1006.21203,307.679041 1006.21774,307.674613 C1006.22317,307.670923 1006.22888,307.666642 1006.23445,307.661623 C1006.2443,307.654538 1006.25229,307.644353 1006.25886,307.635349 C1006.27142,307.618964 1006.2817,307.601842 1006.2917,307.583686 C1006.30983,307.548998 1006.32325,307.509586 1006.33281,307.462942 C1006.33667,307.444491 1006.33895,307.42604 1006.34009,307.406999 C1006.34123,307.389581 1006.33895,307.372015 1006.33695,307.356516 C1006.33424,307.339984 1006.32639,307.323747 1006.31953,307.309429 Z" id="Fill-1" fill="#109C55" mask="url(#mask-2)" transform="translate(1001.840398, 307.994244) rotate(-12.000000) translate(-1001.840398, -307.994244) "></path>
                <g id="Fill-1" mask="url(#mask-2)">
                    <g transform="translate(1044.340516, 318.994217)">
                        <mask id="mask-14" fill="white">
                            <use xlink:href="#path-13"></use>
                        </mask>
                        <use id="Mask" stroke="none" fill="#077D40" fill-rule="nonzero" opacity="0.551525298" xlink:href="#path-13"></use>
                        <path d="M25.5801196,35.3070872 C25.7815954,34.3885835 26.0554677,33.4756397 26.3355135,32.5838237 C26.704231,31.4117862 27.1105499,30.1124259 27.3990138,28.7919377 C27.7553847,29.2345097 28.1128779,29.6759698 28.4709324,30.1157618 C28.8463845,30.5761257 29.2285712,31.0370456 29.6573386,31.4468139 C28.6045013,32.6260793 26.9438694,34.1150339 25.5801196,35.3070872 M33.7575674,30.655633 C33.4068087,29.433 32.8674822,28.2637425 32.1654036,27.200124 C31.7669417,26.5963134 31.3162869,26.0258626 30.817929,25.4993353 C30.7298184,25.4064841 30.6338508,25.3203049 30.5429342,25.2296777 L31.0373636,24.8955247 C29.1163284,22.8005355 26.7726991,21.2815572 23.9509156,20.8289772 C23.9430586,20.8278652 23.933518,20.8278652 23.9262222,20.8267532 C23.395875,20.5437518 22.8110901,20.30245 22.160082,20.1312035 C21.4624931,19.1087287 21.0971429,18.1679851 20.7929649,16.5672755 C20.9315848,16.5644955 21.0808677,16.4888802 21.2307118,16.3065138 C21.4434118,16.0479762 21.5483588,15.7049272 21.5169309,15.3724422 C21.5096351,15.3001629 21.4866253,15.2467874 21.467544,15.1884079 C21.4956047,14.0013585 21.5298388,13.6521937 21.4406058,13.4976271 C22.0927363,13.2496533 22.4283422,12.8471129 21.698203,12.3394895 C20.0038982,11.16078 17.2242057,10.7148721 16.4199861,11.1830198 C15.7420397,11.5783323 15.7302542,12.387861 15.9294852,13.0367072 C15.5141869,13.4231237 15.3250578,14.2943679 16.0641765,15.5192249 C16.1158082,15.6048481 16.1696847,15.6398758 16.2207552,15.6532197 C16.3262634,16.7841135 16.7062052,17.9289073 17.0339542,18.2730682 C17.4335385,18.6928444 18.0239355,18.7273161 18.591884,18.5733055 C18.5823433,19.1432004 18.5851494,19.7058673 18.5907615,20.0544762 C16.9351805,20.5331879 15.5972465,21.7780607 14.7761906,22.7293682 C14.6925697,22.8222193 14.6151222,22.9195185 14.535991,23.0157056 C14.3861469,23.2008519 14.260435,23.3659824 14.1599777,23.5038692 C14.1257437,23.5533528 14.0881423,23.6011683 14.0550307,23.6512079 C14.0353882,23.6790076 14.0123785,23.7118113 13.995542,23.7357191 C13.9624304,23.7840907 13.9405431,23.8380222 13.9119212,23.8891737 C12.9297968,25.4643076 12.4505202,27.3280029 12.1861884,29.2934452 L12.5055191,29.312349 C12.4280716,29.6776378 12.3640932,30.0429265 12.3124615,30.4093272 C11.1608506,29.1633424 9.88352773,27.9401534 9.11298103,27.2824113 C9.46430094,26.9499263 9.7370509,26.5229221 9.81113114,26.0786821 C9.87510952,25.7028295 10.1630123,24.863833 9.85378339,24.9388923 C9.52210597,25.0183996 9.32568111,25.3859123 9.07425727,25.6138703 C8.99568733,25.6844816 8.88456697,25.6911536 8.80824188,25.7639889 C8.79533396,25.3336488 8.72854951,24.9172085 8.64100014,24.5886155 C8.47319718,23.9558931 8.16677438,23.3587545 7.7318336,22.8650309 C7.61005018,22.7271442 7.45908364,22.5870334 7.27332184,22.5842535 C7.10888616,22.5814735 6.9652154,22.6887805 6.84062592,22.7955316 C6.33721704,23.2275397 6.13518003,23.5861565 6.0128354,24.2350026 C5.91686782,24.7437381 6.37874687,25.4259439 6.58751844,25.9002077 C6.97194997,26.7753438 6.93098135,27.4403139 7.20429253,27.7344352 C7.97596165,29.1794662 11.3555918,34.4258351 12.8865834,35.0346497 C12.9948976,35.0780173 13.0998446,35.108041 13.2019856,35.1263888 C13.2917798,35.1669765 13.3855025,35.1981122 13.4853986,35.2086761 C14.0651326,35.2692795 14.541042,34.772776 14.8687909,34.2940643 C15.0326654,34.0544305 15.1802646,33.8059007 15.3216905,33.5545909 C15.7201524,35.6340123 15.7942326,37.8190727 14.905831,39.7722831 C14.761599,40.0908683 14.5898676,40.4077854 14.559562,40.7497223 C14.543848,40.9365367 14.5865003,41.1322469 14.6807842,41.2990454 C14.6796618,41.3012694 14.6779782,41.3023814 14.6774169,41.3040494 C14.0814078,42.349876 13.2558621,59.5256737 13.5224387,59.8815105 C13.7878929,60.2379033 15.1185311,61.1252714 15.5921956,60.9851606 C16.2751929,60.7833344 16.7460514,59.9693577 17.0917592,59.2482322 C17.9487328,57.4584843 18.6990758,55.6287047 19.3360536,53.7772413 C19.455031,53.4325244 19.570641,53.0844716 19.6840062,52.7347507 C20.3361368,56.3314824 21.0427051,59.7113761 21.2048959,59.8815105 C21.5438691,60.2379033 23.054657,61.1252714 23.4996996,60.9851606 C24.1417283,60.7833344 24.4464675,59.9693577 24.6456984,59.2482322 C25.1384442,57.4584843 25.5161412,55.6287047 25.7765444,53.7772413 C26.2098016,50.692581 26.4309199,47.3827428 26.0751102,44.2725067 C26.0537841,44.0851364 26.0173052,43.9127779 25.9740917,43.7465354 C26.0436823,42.9403427 25.8629714,42.0852223 25.6182821,41.4880837 C25.7546571,41.3663208 25.7978706,41.1972983 25.7888911,41.012708 C25.853992,40.9971401 25.9190928,40.9815723 25.9836324,40.9648924 C26.09812,40.9359807 26.2176586,40.9042889 26.308014,40.8286736 C26.3983694,40.7525023 26.4505623,40.6185075 26.3950022,40.5145364 C26.3074528,40.3510739 26.0616411,40.3877696 25.8927157,40.3088183 C25.7047091,40.2204151 25.6300676,39.9891212 25.6384858,39.783403 C25.6463428,39.5776849 25.717617,39.3786386 25.7327697,39.1734765 C25.7653202,38.7548122 25.5604771,38.3544958 25.2596664,38.0520346 C25.2591052,38.0236788 25.2591052,37.9958791 25.2591052,37.9675233 C27.4433497,37.0846032 31.6513316,34.9417985 33.4472161,32.8445853 C33.6745078,32.5788197 33.8125664,32.3069382 33.8804733,32.0400605 C33.9057279,32.0022529 33.9309825,31.9650012 33.9489414,31.9238576 C34.1066425,31.5646848 33.8569023,30.9997939 33.7575674,30.655633" id="Fill-1" stroke="none" fill-opacity="0.1171875" fill="#000000" fill-rule="evenodd" mask="url(#mask-14)"></path>
                    </g>
                </g>
                <rect id="Rectangle-Copy-14" fill="#077D40" fill-rule="nonzero" opacity="0.551525298" mask="url(#mask-2)" x="1003.3404" y="370.994244" width="72" height="39" rx="6"></rect>
                <path d="M1148.51506,408.862136 C1150.4559,407.579628 1151.68956,405.002529 1151.25228,402.728653 C1150.81442,400.454776 1148.91296,398.52785 1146.63329,398.047988 C1145.31391,397.770083 1143.94009,397.942695 1142.60101,397.78159 C1141.26194,397.620486 1139.82904,396.986999 1139.35758,395.731534 C1138.74828,394.110706 1139.99469,392.228659 1139.38133,390.608982 C1138.76334,388.978373 1136.54043,388.529007 1134.88223,389.09575 C1133.22403,389.663068 1131.91565,390.920835 1130.43989,391.862146 C1128.67338,392.988728 1126.62307,393.671696 1124.53048,393.831075 C1122.82189,393.96226 1121.08318,393.750522 1119.40123,394.07791 C1117.71928,394.405298 1116.00953,395.461108 1115.63422,397.122787 C1115.32262,398.501383 1115.9713,400.064673 1115.27976,401.298849 C1114.57258,402.559493 1112.86283,402.798848 1111.71083,403.678019 C1110.16151,404.859837 1109.87366,407.363863 1111.11543,408.862136 L1148.51506,408.862136 Z" id="Fill-24" fill="#2CB789" mask="url(#mask-2)" transform="translate(1130.840398, 398.862136) scale(-1, 1) translate(-1130.840398, -398.862136) "></path>
                <g id="Group-10-Copy-5" mask="url(#mask-2)">
                    <g transform="translate(1211.356700, 334.877701) rotate(-8.000000) translate(-1211.356700, -334.877701) translate(1199.856700, 322.377701)">
                        <path d="M21.896071,0.821899174 C21.896071,0.821899174 24.3809118,11.141151 18.8536583,19.5965935 C13.3264048,28.051617 6.93725078,23.704684 6.93725078,23.704684 C6.93725078,23.704684 0.0791600383,20.0759545 5.60641354,11.620931 C11.1332304,3.16590757 21.896071,0.821899174 21.896071,0.821899174" id="Fill-16" fill="#FBC234"></path>
                        <path d="M5.26382565,0.768368986 C5.26382565,0.768368986 0.317238285,7.44519695 0.387599479,16.311786 C0.457960672,25.1785637 5.45419177,24.7653657 5.45419177,24.7653657 C5.45419177,24.7653657 10.4564817,25.1047918 10.3861205,16.2380141 C10.3157594,7.37123638 5.26382565,0.768368986 5.26382565,0.768368986" id="Fill-20" fill="#2CB789"></path>
                    </g>
                </g>
                <g id="Bench" mask="url(#mask-2)">
                    <g transform="translate(684.340398, 359.994244)">
                        <path d="M92.5158149,41.6214261 L96.0507917,41.6214261 L96.0507917,1.76748843 C96.0507917,0.791331523 95.2594602,7.08749565e-14 94.2833033,7.10542736e-14 C93.3071464,7.12335907e-14 92.5158149,0.791331523 92.5158149,1.76748843 L92.5158149,41.6214261 L92.5158149,41.6214261 Z" id="Fill-26" fill-opacity="0.199300699" fill="#000000"></path>
                        <path d="M8.91437205,41.6214261 L12.4493489,41.6214261 L12.4493489,1.76748843 C12.4493489,0.791331523 11.6580174,-2.86010265e-14 10.6818605,-2.84217094e-14 C9.70570357,-2.82423923e-14 8.91437205,0.791331523 8.91437205,1.76748843 L8.91437205,41.6214261 L8.91437205,41.6214261 Z" id="Fill-28" fill-opacity="0.199300699" fill="#000000"></path>
                        <path d="M1.99660415,34.0957825 L102.96856,34.0957825 C104.071254,34.0957825 104.965164,33.2018724 104.965164,32.0991784 C104.965164,30.9964843 104.071254,30.1025742 102.96856,30.1025742 L1.99660415,30.1025742 C0.893910127,30.1025742 -1.13821879e-13,30.9964843 -1.13686838e-13,32.0991784 C-1.13551797e-13,33.2018724 0.893910127,34.0957825 1.99660415,34.0957825 Z" id="Fill-29" fill="#A6E0D7"></path>
                        <path d="M101.791852,27.0310069 L3.17340628,27.0310069 C1.42063901,27.0310069 0.000284925591,25.6111995 0.000284925591,23.860167 L0.000284925591,23.1853789 C0.000284925591,21.4343464 1.42063901,20.014539 3.17340628,20.014539 L101.791852,20.014539 C103.54462,20.014539 104.964974,21.4343464 104.964974,23.1853789 L104.964974,23.860167 C104.964974,25.6111995 103.54462,27.0310069 101.791852,27.0310069" id="Fill-30" fill="#A6E0D7"></path>
                        <path d="M101.791852,18.0223005 L3.17340628,18.0223005 C1.42063901,18.0223005 0.00028492559,16.6024931 0.00028492559,14.8514606 L0.00028492559,14.1766725 C0.00028492559,12.4256399 1.42063901,11.0058325 3.17340628,11.0058325 L101.791852,11.0058325 C103.54462,11.0058325 104.964974,12.4256399 104.964974,14.1766725 L104.964974,14.8514606 C104.964974,16.6024931 103.54462,18.0223005 101.791852,18.0223005" id="Fill-31" fill="#A6E0D7"></path>
                        <path d="M101.791852,9.01330939 L3.17340628,9.01330939 C1.42063901,9.01330939 0.000284925586,7.59350199 0.000284925586,5.84246948 L0.000284925586,5.16768134 C0.000284925586,3.41664882 1.42063901,1.99684142 3.17340628,1.99684142 L101.791852,1.99684142 C103.54462,1.99684142 104.964974,3.41664882 104.964974,5.16768134 L104.964974,5.84246948 C104.964974,7.59350199 103.54462,9.01330939 101.791852,9.01330939" id="Fill-32" fill="#A6E0D7"></path>
                        <path d="M4.04413889,22.4284962 C4.6491309,22.4284962 5.13920292,22.9186904 5.13920292,23.5227729 C5.13920292,24.1268554 4.6491309,24.6170496 4.04413889,24.6170496 C3.43914688,24.6170496 2.94907486,24.1268554 2.94907486,23.5227729 C2.94907486,22.9186904 3.43914688,22.4284962 4.04413889,22.4284962 Z M100.92093,22.4284962 C101.525922,22.4284962 102.015994,22.9186904 102.015994,23.5227729 C102.015994,24.1268554 101.525922,24.6170496 100.92093,24.6170496 C100.315938,24.6170496 99.8258659,24.1268554 99.8258659,23.5227729 C99.8258659,22.9186904 100.315938,22.4284962 100.92093,22.4284962 Z M4.04413889,13.4197424 C4.6491309,13.4197424 5.13920292,13.9094621 5.13920292,14.5140191 C5.13920292,15.1181016 4.6491309,15.6082958 4.04413889,15.6082958 C3.43914688,15.6082958 2.94907486,15.1181016 2.94907486,14.5140191 C2.94907486,13.9094621 3.43914688,13.4197424 4.04413889,13.4197424 Z M100.92093,13.4197424 C101.525922,13.4197424 102.015994,13.9094621 102.015994,14.5140191 C102.015994,15.1181016 101.525922,15.6082958 100.92093,15.6082958 C100.315938,15.6082958 99.8258659,15.1181016 99.8258659,14.5140191 C99.8258659,13.9094621 100.315938,13.4197424 100.92093,13.4197424 Z M4.04413889,4.41075126 C4.6491309,4.41075126 5.13920292,4.90094546 5.13920292,5.50502795 C5.13920292,6.10911044 4.6491309,6.59930464 4.04413889,6.59930464 C3.43914688,6.59930464 2.94907486,6.10911044 2.94907486,5.50502795 C2.94907486,4.90094546 3.43914688,4.41075126 4.04413889,4.41075126 Z M100.92093,4.41075126 C101.525922,4.41075126 102.015994,4.90094546 102.015994,5.50502795 C102.015994,6.10911044 101.525922,6.59930464 100.92093,6.59930464 C100.315938,6.59930464 99.8258659,6.10911044 99.8258659,5.50502795 C99.8258659,4.90094546 100.315938,4.41075126 100.92093,4.41075126 Z" id="Combined-Shape" fill-opacity="0.601753715" fill="#FFFFFF"></path>
                    </g>
                </g>
                <g id="Bench-Copy" mask="url(#mask-2)">
                    <g transform="translate(1360.340398, 359.994244)">
                        <path d="M8.91437205,41.6214261 L12.4493489,41.6214261 L12.4493489,1.76748843 C12.4493489,0.791331523 11.6580174,-2.86010265e-14 10.6818605,-2.84217094e-14 C9.70570357,-2.82423923e-14 8.91437205,0.791331523 8.91437205,1.76748843 L8.91437205,41.6214261 L8.91437205,41.6214261 Z" id="Fill-28" fill-opacity="0.199300699" fill="#000000"></path>
                        <path d="M1.99660415,34.0957825 L102.96856,34.0957825 C104.071254,34.0957825 104.965164,33.2018724 104.965164,32.0991784 C104.965164,30.9964843 104.071254,30.1025742 102.96856,30.1025742 L1.99660415,30.1025742 C0.893910127,30.1025742 -1.13821879e-13,30.9964843 -1.13686838e-13,32.0991784 C-1.13551797e-13,33.2018724 0.893910127,34.0957825 1.99660415,34.0957825 Z" id="Fill-29" fill="#A6E0D7"></path>
                        <path d="M101.791852,27.0310069 L3.17340628,27.0310069 C1.42063901,27.0310069 0.000284925591,25.6111995 0.000284925591,23.860167 L0.000284925591,23.1853789 C0.000284925591,21.4343464 1.42063901,20.014539 3.17340628,20.014539 L101.791852,20.014539 C103.54462,20.014539 104.964974,21.4343464 104.964974,23.1853789 L104.964974,23.860167 C104.964974,25.6111995 103.54462,27.0310069 101.791852,27.0310069" id="Fill-30" fill="#A6E0D7"></path>
                        <path d="M101.791852,18.0223005 L3.17340628,18.0223005 C1.42063901,18.0223005 0.00028492559,16.6024931 0.00028492559,14.8514606 L0.00028492559,14.1766725 C0.00028492559,12.4256399 1.42063901,11.0058325 3.17340628,11.0058325 L101.791852,11.0058325 C103.54462,11.0058325 104.964974,12.4256399 104.964974,14.1766725 L104.964974,14.8514606 C104.964974,16.6024931 103.54462,18.0223005 101.791852,18.0223005" id="Fill-31" fill="#A6E0D7"></path>
                        <path d="M101.791852,9.01330939 L3.17340628,9.01330939 C1.42063901,9.01330939 0.000284925586,7.59350199 0.000284925586,5.84246948 L0.000284925586,5.16768134 C0.000284925586,3.41664882 1.42063901,1.99684142 3.17340628,1.99684142 L101.791852,1.99684142 C103.54462,1.99684142 104.964974,3.41664882 104.964974,5.16768134 L104.964974,5.84246948 C104.964974,7.59350199 103.54462,9.01330939 101.791852,9.01330939" id="Fill-32" fill="#A6E0D7"></path>
                        <path d="M4.04413889,22.4284962 C4.6491309,22.4284962 5.13920292,22.9186904 5.13920292,23.5227729 C5.13920292,24.1268554 4.6491309,24.6170496 4.04413889,24.6170496 C3.43914688,24.6170496 2.94907486,24.1268554 2.94907486,23.5227729 C2.94907486,22.9186904 3.43914688,22.4284962 4.04413889,22.4284962 Z M100.92093,22.4284962 C101.525922,22.4284962 102.015994,22.9186904 102.015994,23.5227729 C102.015994,24.1268554 101.525922,24.6170496 100.92093,24.6170496 C100.315938,24.6170496 99.8258659,24.1268554 99.8258659,23.5227729 C99.8258659,22.9186904 100.315938,22.4284962 100.92093,22.4284962 Z M4.04413889,13.4197424 C4.6491309,13.4197424 5.13920292,13.9094621 5.13920292,14.5140191 C5.13920292,15.1181016 4.6491309,15.6082958 4.04413889,15.6082958 C3.43914688,15.6082958 2.94907486,15.1181016 2.94907486,14.5140191 C2.94907486,13.9094621 3.43914688,13.4197424 4.04413889,13.4197424 Z M100.92093,13.4197424 C101.525922,13.4197424 102.015994,13.9094621 102.015994,14.5140191 C102.015994,15.1181016 101.525922,15.6082958 100.92093,15.6082958 C100.315938,15.6082958 99.8258659,15.1181016 99.8258659,14.5140191 C99.8258659,13.9094621 100.315938,13.4197424 100.92093,13.4197424 Z M4.04413889,4.41075126 C4.6491309,4.41075126 5.13920292,4.90094546 5.13920292,5.50502795 C5.13920292,6.10911044 4.6491309,6.59930464 4.04413889,6.59930464 C3.43914688,6.59930464 2.94907486,6.10911044 2.94907486,5.50502795 C2.94907486,4.90094546 3.43914688,4.41075126 4.04413889,4.41075126 Z M100.92093,4.41075126 C101.525922,4.41075126 102.015994,4.90094546 102.015994,5.50502795 C102.015994,6.10911044 101.525922,6.59930464 100.92093,6.59930464 C100.315938,6.59930464 99.8258659,6.10911044 99.8258659,5.50502795 C99.8258659,4.90094546 100.315938,4.41075126 100.92093,4.41075126 Z" id="Combined-Shape" fill-opacity="0.601753715" fill="#FFFFFF"></path>
                    </g>
                </g>
                <path d="M1199.21528,193.285155 C1205.5005,193.285155 1210.98094,196.735338 1213.86287,201.844792 C1215.27474,199.793663 1217.63793,198.449714 1220.31473,198.449714 C1222.42861,198.449714 1224.34523,199.286348 1225.75317,200.648227 C1226.93105,192.519808 1233.92834,186.275891 1242.38517,186.275891 C1243.72794,186.275891 1245.03398,186.433334 1246.28577,186.731163 C1249.45244,179.805432 1256.44229,174.994244 1264.55665,174.994244 C1275.64742,174.994244 1284.63918,183.983787 1284.63918,195.074754 C1284.63918,196.701225 1284.44585,198.281775 1284.08064,199.795413 C1285.06257,199.44554 1286.11929,199.255734 1287.22062,199.255734 C1290.08768,199.255734 1292.65382,200.541516 1294.37362,202.569029 C1294.66229,202.497305 1294.96496,202.460131 1295.2755,202.460131 C1295.8581,202.460131 1296.40964,202.591333 1296.90345,202.825311 C1297.03685,200.284797 1299.13805,198.265157 1301.71337,198.265157 C1304.37398,198.265157 1306.52985,200.420373 1306.52985,203.081155 C1306.52985,203.595906 1306.44806,204.0936 1306.29848,204.55893 L1298.68273,204.55893 L1297.12827,204.55893 L1295.66959,204.55893 L1291.86784,204.55893 L1282.26068,204.55893 L1278.7721,204.55893 L1259.12739,204.55893 L1246.85175,204.55893 L1227.95235,204.55893 L1225.6412,204.55893 L1215.09017,204.55893 L1212.67755,204.55893 L1183.3404,204.55893 C1185.62705,197.995754 1191.87028,193.285155 1199.21528,193.285155" id="Fill-1" fill="#FFFFFF" opacity="0.200000003" mask="url(#mask-2)" transform="translate(1244.935126, 189.776587) scale(-1, 1) translate(-1244.935126, -189.776587) "></path>
                <path d="M823.215283,155.285155 C829.500504,155.285155 834.980937,158.735338 837.862866,163.844792 C839.274744,161.793663 841.637935,160.449714 844.31473,160.449714 C846.428612,160.449714 848.345232,161.286348 849.753174,162.648227 C850.931052,154.519808 857.928335,148.275891 866.385172,148.275891 C867.727944,148.275891 869.033975,148.433334 870.285771,148.731163 C873.452437,141.805432 880.442286,136.994244 888.55665,136.994244 C899.647419,136.994244 908.639178,145.983787 908.639178,157.074754 C908.639178,158.701225 908.445854,160.281775 908.080637,161.795413 C909.062566,161.44554 910.119288,161.255734 911.220623,161.255734 C914.087681,161.255734 916.653819,162.541516 918.373616,164.569029 C918.66229,164.497305 918.96496,164.460131 919.275504,164.460131 C919.8581,164.460131 920.409643,164.591333 920.90345,164.825311 C921.036853,162.284797 923.13805,160.265157 925.713372,160.265157 C928.373984,160.265157 930.529854,162.420373 930.529854,165.081155 C930.529854,165.595906 930.448063,166.0936 930.298478,166.55893 L922.682732,166.55893 L921.128266,166.55893 L919.669587,166.55893 L915.867838,166.55893 L906.260679,166.55893 L902.772097,166.55893 L883.127391,166.55893 L870.851747,166.55893 L851.952345,166.55893 L849.641204,166.55893 L839.090168,166.55893 L836.677553,166.55893 L807.340398,166.55893 C809.627046,159.995754 815.870278,155.285155 823.215283,155.285155" id="Fill-1-Copy-2" fill="#FFFFFF" opacity="0.200000003" mask="url(#mask-2)" transform="translate(868.935126, 151.776587) scale(-1, 1) translate(-868.935126, -151.776587) "></path>
                <g id="Group-12" mask="url(#mask-2)">
                    <g transform="translate(842.840398, 330.994244) rotate(1.000000) translate(-842.840398, -330.994244) translate(831.340398, 259.994244)">
                        <polygon id="Fill-44" fill="#FFFFFF" opacity="0.536528088" transform="translate(10.696477, 20.645424) rotate(-1.000000) translate(-10.696477, -20.645424) " points="16.1621094 29.1908491 5.23060156 29.1907374 3.49999994 12.0999998 17.8929544 12.1001469"></polygon>
                        <path d="M17.203264,28.6346498 C18.0219416,28.6346498 18.6853017,29.2975215 18.6853017,30.1155965 L18.6853017,30.4307419 C18.6853017,31.2488169 18.0219416,31.9116886 17.203264,31.9116886 L12.796,31.9116498 L12.796,104.34665 L15.0377699,104.3471 C15.5493693,104.3471 15.963747,104.761765 15.963747,105.272988 L15.963747,112.365538 C15.963747,112.701177 15.784716,112.995354 15.5167221,113.157564 C15.8225383,113.35836 16.0373936,113.68722 16.0838971,114.068827 L16.09304,114.197054 L16.591,137.38965 L17.9958578,137.390101 C19.9740816,137.390101 21.5776464,138.993077 21.5776464,140.969252 L21.5776464,141.350152 L1.39999998,141.350152 L1.39999998,140.969252 C1.39999998,138.993077 3.00356473,137.390101 4.98178861,137.390101 L6.26899998,137.38965 L7.2689877,114.169805 C7.28451121,113.805112 7.45240879,113.4817 7.70961725,113.259601 C7.309894,113.159981 7.01401794,112.79702 7.01401794,112.365538 L7.01401794,105.272988 C7.01401794,104.761765 7.42839567,104.3471 7.93999507,104.3471 L10.181,104.34665 L10.181,31.9116498 L5.70620862,31.9116886 C4.88753101,31.9116886 4.22417095,31.2488169 4.22417095,30.4307419 L4.22417095,30.1155965 C4.22417095,29.2975215 4.88753101,28.6346498 5.70620862,28.6346498 L17.203264,28.6346498 Z M11.649891,0.199999988 C12.4851675,0.199999988 13.1627551,0.877088802 13.1627551,1.71175034 L13.1619345,2.75899999 L15.1592377,2.75996439 C18.0373548,2.75996439 20.3706749,5.09156681 20.3706749,7.96756523 L20.3711179,9.23313932 C20.8937354,9.46198035 21.2587119,9.98339592 21.2587119,10.5902033 L21.2587119,10.9053487 C21.2587119,11.7234237 20.5953518,12.3862954 19.7766742,12.3862954 L3.20097215,12.3862954 C2.38229454,12.3862954 1.71893448,11.7234237 1.71893448,10.9053487 L1.71893448,10.5902033 C1.71893448,9.93178913 2.14863064,9.37390894 2.7431618,9.18122892 L2.74391173,7.96756523 C2.74391173,5.09156681 5.07723183,2.75996439 7.95475617,2.75996439 L9.81493448,2.75899999 L9.81512841,1.71175034 C9.81512841,0.877088802 10.4921232,0.199999988 11.3279925,0.199999988 L11.649891,0.199999988 Z" id="Combined-Shape" fill="#A3DFD2" transform="translate(11.488823, 70.775076) rotate(-1.000000) translate(-11.488823, -70.775076) "></path>
                    </g>
                </g>
                <g id="Group-12-Copy-5" mask="url(#mask-2)">
                    <g transform="translate(1257.840398, 330.994244) rotate(1.000000) translate(-1257.840398, -330.994244) translate(1246.340398, 259.994244)">
                        <polygon id="Fill-44" fill="#FFFFFF" opacity="0.536528088" transform="translate(10.696477, 20.645424) rotate(-1.000000) translate(-10.696477, -20.645424) " points="16.1621094 29.1908491 5.23060156 29.1907374 3.49999994 12.0999998 17.8929544 12.1001469"></polygon>
                        <path d="M17.203264,28.6346498 C18.0219416,28.6346498 18.6853017,29.2975215 18.6853017,30.1155965 L18.6853017,30.4307419 C18.6853017,31.2488169 18.0219416,31.9116886 17.203264,31.9116886 L12.796,31.9116498 L12.796,104.34665 L15.0377699,104.3471 C15.5493693,104.3471 15.963747,104.761765 15.963747,105.272988 L15.963747,112.365538 C15.963747,112.701177 15.784716,112.995354 15.5167221,113.157564 C15.8225383,113.35836 16.0373936,113.68722 16.0838971,114.068827 L16.09304,114.197054 L16.591,137.38965 L17.9958578,137.390101 C19.9740816,137.390101 21.5776464,138.993077 21.5776464,140.969252 L21.5776464,141.350152 L1.39999998,141.350152 L1.39999998,140.969252 C1.39999998,138.993077 3.00356473,137.390101 4.98178861,137.390101 L6.26899998,137.38965 L7.2689877,114.169805 C7.28451121,113.805112 7.45240879,113.4817 7.70961725,113.259601 C7.309894,113.159981 7.01401794,112.79702 7.01401794,112.365538 L7.01401794,105.272988 C7.01401794,104.761765 7.42839567,104.3471 7.93999507,104.3471 L10.181,104.34665 L10.181,31.9116498 L5.70620862,31.9116886 C4.88753101,31.9116886 4.22417095,31.2488169 4.22417095,30.4307419 L4.22417095,30.1155965 C4.22417095,29.2975215 4.88753101,28.6346498 5.70620862,28.6346498 L17.203264,28.6346498 Z M11.649891,0.199999988 C12.4851675,0.199999988 13.1627551,0.877088802 13.1627551,1.71175034 L13.1619345,2.75899999 L15.1592377,2.75996439 C18.0373548,2.75996439 20.3706749,5.09156681 20.3706749,7.96756523 L20.3711179,9.23313932 C20.8937354,9.46198035 21.2587119,9.98339592 21.2587119,10.5902033 L21.2587119,10.9053487 C21.2587119,11.7234237 20.5953518,12.3862954 19.7766742,12.3862954 L3.20097215,12.3862954 C2.38229454,12.3862954 1.71893448,11.7234237 1.71893448,10.9053487 L1.71893448,10.5902033 C1.71893448,9.93178913 2.14863064,9.37390894 2.7431618,9.18122892 L2.74391173,7.96756523 C2.74391173,5.09156681 5.07723183,2.75996439 7.95475617,2.75996439 L9.81493448,2.75899999 L9.81512841,1.71175034 C9.81512841,0.877088802 10.4921232,0.199999988 11.3279925,0.199999988 L11.649891,0.199999988 Z" id="Combined-Shape" fill="#A3DFD2" transform="translate(11.488823, 70.775076) rotate(-1.000000) translate(-11.488823, -70.775076) "></path>
                    </g>
                </g>
                <ellipse id="Oval-Copy-5" fill="#FFFFFF" fill-rule="nonzero" opacity="0.609561012" mask="url(#mask-2)" cx="885.207" cy="105.860322" rx="6.86660215" ry="6.86607849"></ellipse>
                <path d="M951.941682,211.924753 L958.251781,224.056225 C959.287122,226.046719 958.512817,228.499643 956.522324,229.534984 C955.943173,229.836224 955.299957,229.993461 954.647146,229.993376 L942.030415,229.99174 C939.786758,229.991449 937.968151,228.17237 937.968441,225.928714 C937.968526,225.276493 938.125645,224.63388 938.426516,224.055201 L944.733149,211.925364 C945.768153,209.934695 948.220945,209.159975 950.211614,210.194978 C950.952343,210.580103 951.556432,211.184089 951.941682,211.924753 Z" id="Triangle-Copy" fill-opacity="0.531386582" fill="#FFFFFF" fill-rule="nonzero" opacity="0.507277716" mask="url(#mask-2)" transform="translate(948.340398, 217.494244) rotate(-234.000000) translate(-948.340398, -217.494244) "></path>
                <path d="M1149.3404,118.994244 C1150.80035,121.101074 1152.17938,123.975789 1155.01116,123.979479 C1157.84329,123.98317 1157.83644,119.005316 1160.66893,119.009007 C1163.50106,119.012698 1163.50791,123.990552 1166.3404,123.994244" id="Stroke-1-Copy-3" stroke="#FFFFFF" stroke-width="6" opacity="0.6929641" stroke-linecap="round" mask="url(#mask-2)" transform="translate(1157.840398, 121.494244) rotate(118.000000) translate(-1157.840398, -121.494244) "></path>
                <circle id="Oval-Copy" fill-opacity="0.122596154" fill="#000000" fill-rule="nonzero" mask="url(#mask-2)" cx="1174.8404" cy="294.494244" r="8.5"></circle>
            </g>
        </g>
    </g>
</svg>