<svg xmlns="http://www.w3.org/2000/svg" xmlns:xlink="http://www.w3.org/1999/xlink" width="1442" height="718" viewBox="0 0 1442 718">
  <defs>
    <clipPath id="clip-path">
      <rect id="Mask" width="1440" height="716" fill="#eef5f0" stroke="#e4ebe6" stroke-miterlimit="10" stroke-width="1"/>
    </clipPath>
  </defs>
  <g id="artwork_copy" data-name="artwork copy" transform="translate(1 1)">
    <g id="Mask-2" data-name="Mask" fill="#eef5f0" stroke="#e4ebe6" stroke-miterlimit="10" stroke-width="1">
      <rect width="1440" height="716" stroke="none"/>
      <rect x="-0.5" y="-0.5" width="1441" height="717" fill="none"/>
    </g>
    <g id="artwork_copy-2" data-name="artwork copy" clip-path="url(#clip-path)">
      <g id="artwork_copy-3" data-name="artwork copy" transform="translate(1760 358) rotate(180)">
        <g id="City_bg" data-name="City bg" transform="translate(0 -0.057)">
          <path id="Fill_1" data-name="Fill 1" d="M-8.47,0A8.47,8.47,0,0,1,0,8.47V242.8H-109.666V8.47A8.47,8.47,0,0,1-101.2,0Z" transform="translate(330.942 -118.194) rotate(180)" opacity="0.084"/>
          <path id="Fill_1-2" data-name="Fill 1" d="M-22.741,26.191A24.069,24.069,0,0,0-43.725,38.447a11.2,11.2,0,0,0-9.243-4.861,11.169,11.169,0,0,0-7.791,3.148,24.075,24.075,0,0,0-23.826-20.58,24.127,24.127,0,0,0-5.588.652A28.768,28.768,0,0,0-116.346,0a28.761,28.761,0,0,0-28.769,28.753,28.773,28.773,0,0,0,.8,6.759,13.379,13.379,0,0,0-4.5-.773,13.4,13.4,0,0,0-10.247,4.744,5.359,5.359,0,0,0-1.292-.156,5.433,5.433,0,0,0-2.332.523,6.9,6.9,0,0,0-6.89-6.53,6.9,6.9,0,0,0-6.9,6.9,6.908,6.908,0,0,0,.331,2.116H0A24.084,24.084,0,0,0-22.741,26.191" transform="translate(209.549 -27.419) rotate(180)" fill="#fff" opacity="0.2"/>
          <path id="Fill_1-3" data-name="Fill 1" d="M-9.721,16a9.743,9.743,0,0,0-2.732.389A16.813,16.813,0,0,0-27.527,7.048a16.808,16.808,0,0,0-5.685.984A16.806,16.806,0,0,0-47.559,0,16.807,16.807,0,0,0-64.207,14.429a9.725,9.725,0,0,0-2.286-.27,9.718,9.718,0,0,0-9.541,7.847,5.526,5.526,0,0,0-2.205-.455,5.549,5.549,0,0,0-2.031.383,8.33,8.33,0,0,0-7.27-4.254A8.325,8.325,0,0,0-95.873,26a8.424,8.424,0,0,0,.071,1.095H-.1A9.609,9.609,0,0,0,0,25.707,9.714,9.714,0,0,0-9.721,16" transform="translate(475.972 -0.349) rotate(180)" opacity="0.047"/>
          <path id="Fill_6" data-name="Fill 6" d="M0,121.214C-7.88,53.6-118.034,0-252.786,0S-497.691,53.6-505.572,121.214Z" transform="translate(523.95 -239.321) rotate(180)" fill="#2cb789"/>
          <path id="Fill_9" data-name="Fill 9" d="M0,121.214C-7.2,53.6-107.887,0-231.054,0S-454.906,53.6-462.107,121.214Z" transform="translate(0 -273.188) rotate(180)" opacity="0.08"/>
          <path id="Fill_12" data-name="Fill 12" d="M0,189.092C-26.353,81.449-149.439,0-297.327,0S-568.3,81.449-594.652,189.092Z" transform="translate(266.189 -179.508) rotate(180)" fill="#8dd6b1"/>
          <path id="Fill_14" data-name="Fill 14" d="M-41.29,0s-2.94,24.51,10.114,47.786S-5.962,62.995-5.962,62.995,7.308,56.9-5.746,33.628-41.29,0-41.29,0" transform="translate(184.959 -215.403) rotate(180)" fill="#6fcfe0"/>
          <path id="Fill_18" data-name="Fill 18" d="M-21.018,0S-2.251,22.52-.173,54.1-15.395,85.468-15.395,85.468s-17.123,2.471-19.2-29.11S-21.018,0-21.018,0" transform="translate(168.839 -192.543) rotate(180)" fill="#a5e0d4"/>
          <path id="Fill_16" data-name="Fill 16" d="M-51.245,0s-6.9,29.842,8.454,54.294,33.11,11.88,33.11,11.88S9.375,55.68-5.983,31.229-51.245,0-51.245,0" transform="translate(753.478 -173.624) rotate(180)" fill="#a7e1d8"/>
          <path id="Fill_20" data-name="Fill 20" d="M-13.241,0S.189,18.608,0,43.319s-13.756,23.56-13.756,23.56-13.581.946-13.39-23.765S-13.241,0-13.241,0" transform="translate(742.381 -176.456) rotate(180)" fill="#2cb789"/>
          <path id="Fill_22" data-name="Fill 22" d="M-65.763,36.35a11.045,11.045,0,0,1-5.518-10.32A10.586,10.586,0,0,1-63.89,17.3c2.247-.651,4.645-.523,6.941-.974s4.693-1.734,5.349-3.977c.846-2.9-1.55-6.011-.7-8.905.86-2.914,4.648-3.978,7.589-3.2s5.365,2.8,8.039,4.246A22.23,22.23,0,0,0-26.2,7.167c2.974.011,5.953-.577,8.9-.222s6.043,1.976,6.905,4.818c.715,2.358-.209,5.16,1.146,7.218,1.384,2.1,4.371,2.3,6.477,3.685a6.578,6.578,0,0,1,1.692,8.94Z" transform="translate(185.807 -249.27) rotate(180)" fill="#109c55"/>
          <path id="Fill_24" data-name="Fill 24" d="M-79.963,42.12c-4.065-2.7-6.65-8.128-5.734-12.917a12.789,12.789,0,0,1,9.675-9.858c2.764-.585,5.641-.222,8.446-.561s5.806-1.673,6.794-4.317c1.276-3.413-1.335-7.377-.05-10.788C-59.536.245-54.88-.7-51.407.492s6.214,3.844,9.305,5.826a26.843,26.843,0,0,0,12.378,4.147c3.579.276,7.221-.17,10.744.52s7.1,2.913,7.891,6.413c.653,2.9-.706,6.2.742,8.795,1.481,2.655,5.063,3.159,7.476,5.011A7.944,7.944,0,0,1-1.623,42.12Z" transform="translate(525.244 -140.247) rotate(180)" fill="#2cb789"/>
          <path id="Fill_44" data-name="Fill 44" d="M-25.913,34.961H-3.542L0,0H-29.455Z" transform="matrix(-1, -0.017, 0.017, -1, 359.625, -102.468)" fill="#fbc234"/>
        </g>
      </g>
    </g>
  </g>
</svg>
