<svg viewBox="0 0 154 20" width="154px" height="20px" xmlns="http://www.w3.org/2000/svg"><g fill="none" fill-rule="evenodd" opacity=".445"><g transform="translate(-315 -657)" fill="#221F20"><g transform="translate(0 -20)"><g transform="translate(149 675)"><g transform="translate(166 2)"><g><path d="M83.64 10.873h5.196v-2.76H83.64" /><g transform="translate(0 .228)"><path d="M11.954.704v1.832H10.69c-.51 0-.796.166-.796.522v7.1c0 2.97-1.393 4.736-4.758 4.736-2.794 0-5.136-1.14-5.136-3.822C0 9.7.713 8.477 2.18 8.477c1.102 0 2 .642 2 1.828 0 1.182-.815 1.7-1.53 1.7-.326 0-.63-.057-.837-.227h-.038c.324.933 1.24 1.18 2.14 1.18 1.59 0 2.14-1.157 2.14-2.8V3.114c0-.39-.284-.58-.79-.58H4V.706h7.956" /><path d="M22.094 4.757V6.42H21.7c-.794 0-.976.476-1.2 1.035l-2.71 6.732c-1.06 2.62-2.125 4.697-4.304 4.697-1.713 0-3.063-.772-3.063-2.68 0-1.102.696-1.764 1.757-1.764.794 0 1.528.497 1.528 1.366 0 .877-.365 1.334-1.078 1.334-.185 0-.407-.023-.57-.085.06.498.776.538 1.157.538 1.248 0 1.76-1.328 2.207-2.49l-3.22-7.4c-.308-.76-.513-1.282-1.044-1.282h-.653V4.758h6.182V6.42h-.676c-.45 0-.674.062-.674.395 0 .128.046.248.123.434l1.67 3.844h.044l1.448-3.783c.084-.204.123-.414.123-.562 0-.18-.164-.327-.614-.327h-.586V4.758h4.546" /><path d="M26.264 11.924c0 .583.145.894.734.894h.838v1.66H21.27v-1.66h.875c.59 0 .734-.31.734-.894v-8.66c0-.58-.146-.896-.735-.896h-.936V.704h5.054v11.22M33.26 11.924c0 .583.144.894.732.894h.84v1.66h-6.57v-1.66h.88c.586 0 .73-.31.73-.894v-8.66c0-.58-.144-.896-.73-.896H28.2V.704h5.06v11.22M41.332 11.094c0 .872-.31 1.744-1.47 1.744-.636 0-1.165-.31-1.165-1.16 0-1.29 1.653-1.417 2.635-1.995v1.41zm4.446-.165v.48c0 1.16-.23 1.428-.675 1.428-.327 0-.388-.228-.388-.832V8.144c0-3.03-1.51-3.695-4.305-3.695-1.652 0-4.732.328-4.732 2.63 0 .98.818 1.542 1.778 1.542.81 0 1.608-.395 1.608-1.31 0-.728-.672-1.056-1.285-1.146V6.13c.487-.313 1.062-.392 1.61-.392 1.122 0 1.98.453 1.98 1.826 0 2.717-6.06.414-6.06 4.337 0 2.124 1.203 2.89 3.144 2.89 1.324 0 2.303-.455 3.14-1.476.324.998 1.287 1.475 2.265 1.475 2.263 0 3.033-.643 3.033-2.723V10.93h-1.115zM51.897 4.757v1.6h.043c.89-1.33 1.85-1.908 3.505-1.908 2.322 0 3.096 1.367 3.096 3.528v3.946c0 .583.142.894.74.894h.772v1.66h-6.057v-1.66h.43c.588 0 .73-.31.73-.894V8.35c0-1.2-.18-2.036-1.564-2.036-.94 0-1.528.897-1.528 1.77v3.84c0 .583.138.894.727.894h.49v1.66h-6.16v-1.66h.82c.59 0 .73-.31.73-.894V7.31c0-.578-.14-.89-.73-.89h-.842V4.758h4.8M65.3 12.858c-1.148 0-1.616-1.286-1.616-3.32 0-2.036.468-3.305 1.616-3.305 1.14 0 1.61 1.27 1.61 3.304 0 2.035-.47 3.32-1.61 3.32m1.85 1.62h4.752v-1.66h-.793c-.594 0-.735-.31-.735-.893V.354h-4.96v1.66h.834c.594 0 .735.317.735.894v2.894l-.04.036c-.43-.915-1.57-1.39-2.793-1.39-3.083 0-4.003 2.633-4.003 5.17 0 2.533.92 5.17 4.002 5.17 1.302 0 2.363-.556 2.958-1.83h.04v1.52M74.087 10.99c.157 1.225 1.626 2.137 2.767 2.137.595 0 1.736 0 1.736-.912 0-1.746-6.323-.685-6.323-4.488 0-2.49 2.532-3.278 4.57-3.278 1.077 0 2.22.328 3.162.87l.24-.625h1.41V7.81h-1.552c-.205-.6-.572-.995-1.04-1.29-.468-.287-1.02-.412-1.61-.412-.47 0-1.57.106-1.57.813 0 1.788 6.32.436 6.32 4.49 0 2.51-2.264 3.38-4.365 3.38-1.26 0-2.53-.19-3.59-.932l-.304.7h-1.532V10.99h1.68M94.395 2.536h2.083c1.138 0 2.063.807 2.063 2.098 0 1.29-.958 2.074-2.39 2.074h-1.755V2.536zm-3.833 9.282c0 .52-.286.83-.795.83H88.52v1.83h8.038v-1.83h-1.366c-.51 0-.797-.31-.797-.83v-3.28h2.25c3.747 0 5.726-1.083 5.726-3.924 0-2.85-1.978-3.91-5.322-3.91h-8.546v1.832h1.265c.51 0 .795.31.795.83v8.452z" /><path d="M106.736 6.108c1.222 0 1.656 1.055 1.656 3.51 0 2.45-.434 3.51-1.656 3.51-1.225 0-1.652-1.06-1.652-3.51 0-2.455.427-3.51 1.652-3.51m0-1.66c-3.038 0-5.264 1.848-5.264 5.17 0 3.323 2.226 5.17 5.264 5.17 3.04 0 5.26-1.847 5.26-5.17 0-3.322-2.22-5.17-5.26-5.17M114.303 10.99c.168 1.225 1.633 2.137 2.773 2.137.6 0 1.737 0 1.737-.912 0-1.746-6.32-.685-6.32-4.488 0-2.49 2.526-3.278 4.566-3.278 1.077 0 2.22.328 3.16.87l.246-.625h1.405V7.81h-1.55c-.208-.6-.57-.995-1.04-1.29-.467-.287-1.02-.412-1.605-.412-.475 0-1.578.106-1.578.813 0 1.788 6.326.436 6.326 4.49 0 2.51-2.26 3.38-4.364 3.38-1.267 0-2.532-.19-3.59-.932l-.308.7h-1.53V10.99h1.67M127.025.893v3.864h2.507V6.42h-2.507v5.71c0 .44.222.79.693.79.777 0 .983-.56.983-1.51V9.78h1.633v1.855c0 2.033-.985 3.154-3.426 3.154-2.104 0-3.262-1.037-3.262-3.155V6.42h-1.37V4.758c2.04 0 2.566-2.135 2.73-3.864h2.02M134.22 8.437v-.54c0-1.06.55-1.79 1.545-1.79.98 0 1.532.73 1.532 1.79v.54h-3.076zm6.684 1.66c0-3.24-1.854-5.648-5.18-5.648-2.91 0-5.156 1.946-5.156 5.168 0 3.2 1.667 5.17 5.157 5.17 2.2 0 4.59-1.077 4.914-3.567h-2.364c-.182 1.222-1.343 1.784-2.056 1.784-1.717 0-2.043-1.456-2.043-2.908h6.727z" /><path d="M145.36 4.757v1.6h.047c.896-1.33 1.85-1.908 3.502-1.908 2.328 0 3.098 1.367 3.098 3.528v3.946c0 .583.145.894.74.894h.775v1.66h-6.06v-1.66h.426c.59 0 .738-.31.738-.894V8.35c0-1.2-.184-2.036-1.572-2.036-.94 0-1.53.897-1.53 1.77v3.84c0 .583.144.894.734.894h.494v1.66h-6.16v-1.66h.816c.588 0 .73-.31.73-.894V7.31c0-.578-.142-.89-.73-.89h-.838V4.758h4.79" /></g></g></g></g></g></g></g></svg>