<svg xmlns="http://www.w3.org/2000/svg" xmlns:xlink="http://www.w3.org/1999/xlink" width="104.384" height="294.392" viewBox="0 0 104.384 294.392">
  <defs>
    <linearGradient id="linear-gradient" x1="0.68" y1="-0.228" x2="0.506" y2="0.454" gradientUnits="objectBoundingBox">
      <stop offset="0" stop-color="#e68356"/>
      <stop offset="1" stop-color="#f9a883"/>
    </linearGradient>
  </defs>
  <g id="girl" transform="translate(0 0)">
    <path id="Fill_1" data-name="Fill 1" d="M46.757,46.757C37.585,55.93,21,54.219,9.72,42.937S-3.272,15.072,5.9,5.9,31.653-1.562,42.935,9.72,55.93,37.585,46.757,46.757" transform="translate(32.99)" fill="#3c3c3b"/>
    <path id="Clip_5" data-name="Clip 5" d="M.468,13.825C-.906,20.332.835,26.542,4.5,30.014h0c-.946,7.4,2.416,15.8,9.451,21.714h0c10.148,8.533,24.091,8.646,31.142.26h0c5.389-6.409,5.187-15.93.265-23.871h0c-.081-.15-.182-.306-.289-.465h0c-.029-.043-.057-.087-.086-.13h0c-.015-.02-.024-.04-.04-.06h0c-.064-.092-.124-.185-.188-.275h0c-.142-.207-.282-.415-.428-.621h0A43.9,43.9,0,0,1,38.654,13.4h0C37.724,5.612,31.293-.234,23.825.165h0A13.325,13.325,0,0,0,19.09,1.328h0A9.77,9.77,0,0,0,16.227.21h0A9.783,9.783,0,0,0,14.214,0h0C8.074,0,2.171,5.75.468,13.825" transform="translate(35.848 7.194)" fill="none"/>
    <path id="Fill_4" data-name="Fill 4" d="M.468,13.825C-.906,20.332.835,26.542,4.5,30.014h0c-.946,7.4,2.416,15.8,9.451,21.714h0c10.148,8.533,24.091,8.646,31.142.26h0c5.389-6.409,5.187-15.93.265-23.871h0c-.081-.15-.182-.306-.289-.465h0c-.029-.043-.057-.087-.086-.13h0c-.015-.02-.024-.04-.04-.06h0c-.064-.092-.124-.185-.188-.275h0c-.142-.207-.282-.415-.428-.621h0A43.9,43.9,0,0,1,38.654,13.4h0C37.724,5.612,31.293-.234,23.825.165h0A13.325,13.325,0,0,0,19.09,1.328h0A9.77,9.77,0,0,0,16.227.21h0A9.783,9.783,0,0,0,14.214,0h0C8.074,0,2.171,5.75.468,13.825" transform="translate(35.848 7.194)" fill="#fbc234"/>
    <path id="Fill_7" data-name="Fill 7" d="M0,.373c.015,2.033.552,23.054,24.723,44.5h0l7.719-7.22S16.06,25.626,5.543,2.243h0A5.154,5.154,0,0,0,1.672,0h0A4.12,4.12,0,0,0,0,.373" transform="translate(3.173 43.893)" fill="#ffd7b5"/>
    <path id="Fill_10" data-name="Fill 10" d="M0,.912c1.483,8.023,6.576,23.36,24.116,38.925h0c4.89,3.891,18.268,1.946,20.56-3.866h0L52.8,13.007l-15.219.112L33.192,25.843a4.006,4.006,0,0,1-6.7,2.111h0A100.346,100.346,0,0,1,6.25,0h0Z" transform="translate(3.781 48.933)" fill="#3c3c3b"/>
    <path id="Fill_13" data-name="Fill 13" d="M0,1.64,8.389,0l.946,4.63L.944,6.27Z" transform="translate(3.131 48.271)" fill="#5b5b5b"/>
    <path id="Fill_15" data-name="Fill 15" d="M2.7.132C1.016.638.009,2.494,0,4.728H0v.066A8.29,8.29,0,0,0,.387,7.225h0c1.01,3.23,3.687,5.291,5.976,4.605h0c2.29-.687,3.326-3.863,2.316-7.093h0C7.8,1.925,5.659,0,3.609,0h0A3.149,3.149,0,0,0,2.7.132" transform="translate(0 36.798)" fill="#ffd7b5"/>
    <path id="Fill_18" data-name="Fill 18" d="M0,8.932l5.89-.542L7.814,1.114,1.651,0Z" transform="translate(37.092 256.604)" fill="url(#linear-gradient)"/>
    <path id="Fill_21" data-name="Fill 21" d="M2.411,3.086,15.06,3.08a1.087,1.087,0,0,0,1.086-1.088V.967A.969.969,0,0,0,15.178,0L5.49,0C3.788.006,0,1.388,0,3.088Z" transform="translate(28.289 264.971)" fill="#3c3c3b"/>
    <path id="Fill_23" data-name="Fill 23" d="M8.736,2.83,0,144.017s4.948.975,6.994,1.382h0c.635-2.733,9.547-16.607,13.231-30.161h0c3.684-13.554-1.008-29.732-2.407-38.753h0C27.04,65.813,33.362,41.83,38.14,28.784h0c4.78-13.048-6.5-24.11-6.5-24.11h0S18.6.139,17.916,0h0a.291.291,0,0,0-.057,0h0c-1,0-9.123,2.83-9.123,2.83" transform="translate(37.621 114.146)" fill="#1e88e5"/>
    <path id="Fill_26" data-name="Fill 26" d="M18.616,4.556H4.165A4.165,4.165,0,0,1,0,.392V0H22.78V.392a4.165,4.165,0,0,1-4.165,4.165" transform="translate(26.664 268.058)" fill="#27e685"/>
    <path id="Fill_28" data-name="Fill 28" d="M0,36.146a36.464,36.464,0,0,0,.381,5.217H71.915a36.464,36.464,0,0,0,.381-5.217h0A36.147,36.147,0,0,0,36.148,0h0A36.147,36.147,0,0,0,0,36.146" transform="translate(27.246 222.1)" fill="#26b56c"/>
    <path id="Fill_31" data-name="Fill 31" d="M0,36.146A36.147,36.147,0,0,0,36.146,72.292h0A36.146,36.146,0,0,0,72.292,36.146h0A36.145,36.145,0,0,0,36.146,0h0A36.146,36.146,0,0,0,0,36.146" transform="translate(32.092 222.1)" fill="#3c3c3b"/>
    <path id="Fill_34" data-name="Fill 34" d="M29.439,58.879A29.439,29.439,0,1,0,0,29.44,29.439,29.439,0,0,0,29.439,58.879Z" transform="translate(38.799 228.806)" fill="#aef9d3"/>
    <path id="Fill_37" data-name="Fill 37" d="M18.616,4.556H4.165A4.165,4.165,0,0,1,0,.392V0H22.78V.392a4.165,4.165,0,0,1-4.165,4.165" transform="translate(56.849 268.058)" fill="#27e685"/>
    <path id="Fill_39" data-name="Fill 39" d="M1.62,9.523l5.889-.542.185-7.961L0,0Z" transform="translate(69.246 256.014)" fill="#ffd7b5"/>
    <path id="Fill_42" data-name="Fill 42" d="M2.411,3.086,15.06,3.08a1.087,1.087,0,0,0,1.086-1.088V.967A.969.969,0,0,0,15.178,0L5.49,0C3.788.006,0,1.388,0,3.088Z" transform="translate(62.063 264.971)" fill="#3c3c3b"/>
    <path id="Fill_44" data-name="Fill 44" d="M22.407,1.912S35.9,10.52,34.2,24.148s-2.433,38.207-9,50.374C28.6,83.039,36.839,97.9,36.318,111.811s-5.739,32.692-5.739,35.475H23.45L0,2.612S7.278,0,7.973,0,22.407,1.912,22.407,1.912" transform="translate(46.375 114.351)" fill="#42a5f5"/>
    <path id="Fill_47" data-name="Fill 47" d="M2.873,10.144A24.005,24.005,0,0,0,.034,22.352h0c.057.5.869,1.935,2.84,5.086h0c1.971,3.15,2.136,4.605,3.141,14.648h0c1,10.044,1.464,22.953,1.464,22.953h0a31.332,31.332,0,0,0,22.405-.7h0c-7.768-13.911-.638-27.822,2.551-34.546h0c3.187-6.724,2.956-20-.638-24.866h0C28.2.058,20.553,0,15.335,0h0C10.118,0,6.06,4.232,2.873,10.144" transform="translate(38.897 51.924)" fill="#fff"/>
    <path id="Fill_50" data-name="Fill 50" d="M0,3.343c.07.17,3.683,9.67,1.85,18.508h0c-3.337,6.506.8,5.057,2.041,8.478h0c2.492-1.437,10.468-3.807,9.947-10.145h0C10.567,11.926,13.4,1.92,13.4,1.92h0S7.771.084,6.853,0h0L6.817,0h0C5.787,0-.068,3.175,0,3.343" transform="translate(50.082 32.493)" fill="#ffd7b5"/>
    <path id="Fill_53" data-name="Fill 53" d="M1.021,10.044A38.888,38.888,0,0,0,0,1.473L6.9,0l4.07,2.811c-.043.877-.054,1.8-.023,2.746a17.254,17.254,0,0,1-9.922,4.487" transform="translate(51.423 38.964)" opacity="0.11"/>
    <path id="Fill_55" data-name="Fill 55" d="M6.43.877c-6.682,5.191-10.5,31.818.545,35.462h0c11.042,3.644,16.343-10.658,16.343-10.658h0l-.275-10.436S15.3,0,8.89,0h0A3.926,3.926,0,0,0,6.43.877" transform="translate(43.584 10.115)" fill="#ffd7b5"/>
    <path id="Fill_58" data-name="Fill 58" d="M.008,1.127c-.129-1.484,1.357,0,3.02-.147S5.9-.883,6.027.6A2.875,2.875,0,0,1,3.251,3.549,2.87,2.87,0,0,1,.008,1.127" transform="translate(47.581 38.964)" fill="#fff"/>
    <path id="Fill_60" data-name="Fill 60" d="M12.7.088a18.1,18.1,0,0,1,10.843,2.1q.186.61.356,1.222a9.186,9.186,0,0,0-.395,1.184,7.2,7.2,0,0,0-1.27-1.062c-.961-.63-1.853.913-.9,1.539.106.069.205.145.3.22a.863.863,0,0,0,0,.464c1.487,5.782,3.918,11.458,3.823,17.523a.863.863,0,0,0,.118.451c-.028.109-.054.219-.086.327a.955.955,0,0,0-.037.226c-.822-.263-1.385-1.123-1.406-2.979-.058-5.459-3.5-6.487-5.142-6.666a22.2,22.2,0,0,1-4.853.968C6.679,16.249.392,13.3.017,9.014S5.323.733,12.7.088" transform="translate(39.561 10.855)" fill="#e0ad2e"/>
    <path id="Fill_63" data-name="Fill 63" d="M12.7.089C5.322.734-.357,4.729.018,9.015h0C.391,13.3,6.678,16.249,14.06,15.6h0c7.379-.644,13.06-4.64,12.685-8.924h0C26.405,2.789,21.194,0,14.716,0h0Q13.727,0,12.7.089" transform="translate(39.562 9.636)" fill="#fbc234"/>
    <path id="Fill_66" data-name="Fill 66" d="M2.111,3.072,0,5.6s5.915-.467,5.993,6.7h0c.034,3.1,1.576,3.433,3.314,2.82h0a17.357,17.357,0,0,1,2.157-4.861h0a17.332,17.332,0,0,1,.277-3.66h0L8.85.465,5.277,0Z" transform="translate(57.624 18.645)" fill="#fbc234"/>
    <path id="Fill_69" data-name="Fill 69" d="M0,3.9a3.729,3.729,0,0,0,3.524,3.9h0A3.728,3.728,0,0,0,7.044,3.9h0A3.728,3.728,0,0,0,3.524,0h0A3.728,3.728,0,0,0,0,3.9" transform="translate(62.055 29.369)" fill="#ffd7b5"/>
    <path id="Fill_72" data-name="Fill 72" d="M0,2.532C0,1.833.568,0,1.267,0S2.534,1.833,2.534,2.532A1.267,1.267,0,1,1,0,2.532" transform="translate(64.929 35.558)" fill="#fff"/>
    <path id="Fill_74" data-name="Fill 74" d="M0,14.57c.037,1.44,3.533,16.836,3.866,17.246h0C8.579,63.4,25.773,75.5,27.459,76.645h0c1.8-1.131,2.249-3,1.455-5.552h0C15.175,49.552,14.067,29.537,14.067,29.537h0C12.32,3.159,5.449.692,4.763.023h0A.074.074,0,0,0,4.71,0h0C3.886,0-.036,13.166,0,14.57" transform="translate(64.427 55.33)" fill="#ffd7b5"/>
    <path id="Fill_77" data-name="Fill 77" d="M0,14.57c.037,1.44,3.533,16.836,3.866,17.246h0c3.42,22.919,13.412,35.579,19.281,41.237h0L27.3,68.472C15.089,47.955,14.067,29.537,14.067,29.537h0C12.32,3.159,5.449.692,4.763.023h0A.074.074,0,0,0,4.71,0h0C3.886,0-.036,13.166,0,14.57" transform="translate(64.427 55.33)" fill="#3c3c3b"/>
    <path id="Fill_80" data-name="Fill 80" d="M3.338,9.26,9.26,3.34,5.921,0,0,5.921Z" transform="translate(83.827 119.616)" fill="#5b5b5b"/>
    <path id="Fill_82" data-name="Fill 82" d="M1.207.71C-.609,2.194-.345,5.516,1.79,8.13h0c2.139,2.618,5.343,3.534,7.159,2.053h0C10.764,8.7,10.5,5.376,8.365,2.76h0A6.908,6.908,0,0,0,3.328,0h0A3.293,3.293,0,0,0,1.207.71" transform="translate(88.783 126.247)" fill="#ffd7b5"/>
    <path id="Fill_85" data-name="Fill 85" d="M0,38.547C0,54.929,1.06,60.753,1.467,69.54h0C10.012,70.891,16.792,64.3,16.792,64.3h0s-2.416-23.287-1.354-28.951h0C16.5,29.68,28.21,4.475,10.926,0h0A72.394,72.394,0,0,0,0,38.547" transform="translate(52.995 52.677)" fill="#3c3c3b"/>
    <path id="Fill_88" data-name="Fill 88" d="M.045,17.713C-.16,22.17.3,24.07,2.207,30.69h0c1.9,6.619,3.453,30.331,2.837,36.959h0c.871,2.027,4.882,2.275,4.882,2.275h0C1.536,18.992,13.737,0,13.737,0h0C3.955,2.979.247,13.256.045,17.713" transform="translate(38.542 52.13)" fill="#3c3c3b"/>
    <path id="Fill_91" data-name="Fill 91" d="M10.083,0s4.367,3.695,5.09,13.773L9.4,13.189l1.965,9.37A31.776,31.776,0,0,0,0,37.794,72.517,72.517,0,0,1,7.777,7.5S10.6,2.83,10.083,0" transform="translate(53.108 50.455)" fill="#5b5b5b"/>
    <path id="Fill_93" data-name="Fill 93" d="M11.666,0S4.2,3.565,1.492,11.278l2.57,1.117L0,17.586A55.631,55.631,0,0,1,4.775,38.178c.006-1.128.177-13.389,2.42-23.15C9.119,6.662,10.136,3.911,11.532,1.675Z" transform="translate(40.748 50.455)" fill="#5b5b5b"/>
    <path id="Fill_95" data-name="Fill 95" d="M0,1.507.779,0,10.32,4.927q.055.982.118,1.971Z" transform="translate(58.09 95.027)"/>
    <path id="Fill_107" data-name="Fill 107" d="M.584,19.371S9.112,3.81,27.806,14.489C41.084,22.075,43.34,26.377,44.717,31.761s2.446-10.254,2.446-10.254L35.46,5.9S15.991,0,15.566,0s-11.6,7.133-11.6,7.133S-1.818,13.417.584,19.371" transform="translate(35.264 0.958)" fill="#3c3c3b"/>
    <g id="Group_8" data-name="Group 8" transform="translate(1 21)">
      <path id="Path_2" data-name="Path 2" d="M.3,0,.111,15.573a2.2,2.2,0,0,0,4.137,1.07l6.943-12.9Z" transform="translate(1.1 9.9)" fill="#d09c6f"/>
      <path id="Oval" d="M7.478,17.586c1.179,0,3.768-2.375,4.977-2.725,3.77-1.094,6.968-3.762,5.145-7.16C15.193,3.212,13.66,0,8.8,0S0,3.447,0,7.7c0,2.652,1.167,5.934,3.863,6.375C8.658,14.86,5.649,17.586,7.478,17.586Z" transform="translate(0 0)" fill="#fce4ec"/>
    </g>
    <ellipse id="Oval-2" data-name="Oval" cx="1.5" cy="3.5" rx="1.5" ry="3.5" transform="translate(1 37.47)" fill="#ffd7b5"/>
  </g>
</svg>
