<svg xmlns="http://www.w3.org/2000/svg" width="202.496" height="203.047" viewBox="0 0 202.496 203.047">
  <g id="icecream-cart" transform="translate(0 0)">
    <path id="Combined_Shape" data-name="Combined Shape" d="M14.724,6.734l-3.2,13.51a2.189,2.189,0,0,1-4.26,0l-3.2-13.51A5.473,5.473,0,1,1,14.724,4.214a5.544,5.544,0,0,1,0,2.519" transform="translate(39.602 173.364)" fill="#fff" opacity="0.452"/>
    <path id="Fill_7" data-name="Fill 7" d="M0,5.038A5.037,5.037,0,1,0,5.038,0,5.038,5.038,0,0,0,0,5.038" transform="translate(0 96.883)" fill="#70cc9d"/>
    <path id="Fill_10" data-name="Fill 10" d="M3.409.034,31.74,4.367a5.344,5.344,0,0,1-1.616,10.566,5.664,5.664,0,0,1-.862-.206L2.037,5.774A2.961,2.961,0,0,1,3.409.034" transform="translate(2.314 99.017)" fill="#a6e0d7"/>
    <path id="Fill_14" data-name="Fill 14" d="M0,63.4H4.768V0H0Z" transform="translate(175.728 38.571)" fill="rgba(255,255,255,0.4)"/>
    <path id="Fill_16" data-name="Fill 16" d="M0,69.11H4.768V0H0Z" transform="translate(159.881 32.858)" fill="rgba(255,255,255,0.4)"/>
    <path id="Fill_17" data-name="Fill 17" d="M0,63.4H4.767V0H0Z" transform="translate(25.043 38.571)" fill="rgba(255,255,255,0.4)"/>
    <path id="Fill_18" data-name="Fill 18" d="M0,69.11H4.767V0H0Z" transform="translate(40.89 32.858)" fill="rgba(255,255,255,0.4)"/>
    <path id="Fill_19" data-name="Fill 19" d="M0,68.417A10.965,10.965,0,0,0,10.965,79.382H144.972A10.487,10.487,0,0,0,155.459,68.9V0H0Z" transform="translate(24.64 102.08)" fill="#a6e0d7"/>
    <circle id="Oval" cx="26.4" cy="26.4" r="26.4" transform="translate(76.56 118.8)" fill="rgba(255,255,255,0.35)"/>
    <path id="Fill_1" data-name="Fill 1" d="M9.944,31.689A.289.289,0,0,1,9.68,31.5L2.323,16.016a.259.259,0,0,1,.141-.353,3.039,3.039,0,0,0,.809-.562.379.379,0,0,1,.225-.08.278.278,0,0,1,.2.08,2.938,2.938,0,0,0,1.971.809A2.8,2.8,0,0,0,7.638,15.1a.379.379,0,0,1,.225-.08.275.275,0,0,1,.2.08,2.943,2.943,0,0,0,1.972.809A2.807,2.807,0,0,0,12,15.1a.377.377,0,0,1,.224-.08.276.276,0,0,1,.2.08,2.942,2.942,0,0,0,1.971.809,2.8,2.8,0,0,0,1.972-.809.377.377,0,0,1,.224-.08.276.276,0,0,1,.2.08,4.2,4.2,0,0,0,.669.516l.07.046a.222.222,0,0,1,.145.125.266.266,0,0,1,0,.228L10.208,31.5A.289.289,0,0,1,9.944,31.689ZM1.479,14.045a1.55,1.55,0,0,1-.95-.317A1.463,1.463,0,0,1,0,12.567V10.1a10.12,10.12,0,0,1,20.24-.035v2.393a1.529,1.529,0,0,1-1.232,1.549,1.966,1.966,0,0,1-.634-.07,1.545,1.545,0,0,1-1.056-1.021.046.046,0,0,0-.018-.035.045.045,0,0,1-.018-.035.573.573,0,0,0-.563-.388h-.176a.573.573,0,0,0-.563.388c-.035.035-.035.035-.035.07a1.547,1.547,0,0,1-2.957,0,.046.046,0,0,0-.018-.035.045.045,0,0,1-.018-.035.572.572,0,0,0-.563-.388h-.175a.572.572,0,0,0-.563.388c-.035.035-.035.035-.035.07a1.548,1.548,0,0,1-2.957,0,.046.046,0,0,0-.018-.035.045.045,0,0,1-.018-.035.572.572,0,0,0-.563-.388H7.885a.572.572,0,0,0-.563.388c-.035.035-.035.035-.035.07a1.547,1.547,0,0,1-2.957,0,.046.046,0,0,0-.018-.035.045.045,0,0,1-.018-.035.573.573,0,0,0-.563-.388H3.555a.573.573,0,0,0-.563.388c-.035.035-.035.035-.035.07a1.624,1.624,0,0,1-1.091,1.056A1.276,1.276,0,0,1,1.479,14.045Z" transform="translate(92.4 129.36)" fill="#fff"/>
    <path id="Fill_20" data-name="Fill 20" d="M0,10.193H155.459V0H0Z" transform="translate(25.038 101.968)" fill="rgba(0,0,0,0.14)"/>
    <path id="Fill_21" data-name="Fill 21" d="M2.484,4.967H158.221a2.484,2.484,0,0,0,0-4.967H2.484a2.484,2.484,0,0,0,0,4.967" transform="translate(22.415 101.968)" fill="#a6e0d7"/>
    <path id="Fill_22" data-name="Fill 22" d="M9.14,34.019H25.227L13.8,0H0Z" transform="translate(166.134)" fill="#89d5ae"/>
    <path id="Fill_23" data-name="Fill 23" d="M6.855,34.019H22.941L13.8,0H0Z" transform="translate(152.332)" fill="#fff" opacity="0.774"/>
    <path id="Fill_24" data-name="Fill 24" d="M4.57,34.019H20.657L13.8,0H0Z" transform="translate(138.53)" fill="#89d5ae"/>
    <path id="Fill_25" data-name="Fill 25" d="M2.284,34.019H18.372L13.8,0H0Z" transform="translate(124.728)" fill="#fff" opacity="0.774"/>
    <path id="Fill_26" data-name="Fill 26" d="M0,34.019H16.087L13.8,0H0Z" transform="translate(110.926)" fill="#89d5ae"/>
    <path id="Fill_27" data-name="Fill 27" d="M0,34.019H16.087V0H2.284Z" transform="translate(94.839)" fill="#fff" opacity="0.774"/>
    <path id="Fill_28" data-name="Fill 28" d="M0,34.019H16.088L18.372,0H4.57Z" transform="translate(78.751)" fill="#89d5ae"/>
    <path id="Fill_29" data-name="Fill 29" d="M0,34.019H16.087L20.657,0H6.855Z" transform="translate(62.665)" fill="#fff" opacity="0.774"/>
    <path id="Fill_30" data-name="Fill 30" d="M0,34.019H16.087L22.941,0H9.14Z" transform="translate(46.578)" fill="#89d5ae"/>
    <path id="Fill_31" data-name="Fill 31" d="M0,34.019H16.088L27.512,0H13.71Z" transform="translate(14.404)" fill="#89d5ae"/>
    <path id="Fill_32" data-name="Fill 32" d="M0,34.019H16.087L25.227,0h-13.8Z" transform="translate(30.491)" fill="#fff" opacity="0.774"/>
    <path id="Fill_33" data-name="Fill 33" d="M0,0H16.088V7.054a5.773,5.773,0,0,1-5.773,5.772H5.773A5.773,5.773,0,0,1,0,7.054Z" transform="translate(175.273 34.019)" fill="#7dc29e"/>
    <path id="Fill_34" data-name="Fill 34" d="M0,0H16.087V7.054a5.773,5.773,0,0,1-5.772,5.772H5.773A5.773,5.773,0,0,1,0,7.054Z" transform="translate(159.187 34.019)" fill="rgba(201,235,218,0.88)"/>
    <path id="Fill_35" data-name="Fill 35" d="M0,0H16.087V7.054a5.773,5.773,0,0,1-5.773,5.772H5.772A5.773,5.773,0,0,1,0,7.054Z" transform="translate(143.1 34.019)" fill="#7dc29e"/>
    <path id="Fill_36" data-name="Fill 36" d="M0,0H16.088V7.054a5.773,5.773,0,0,1-5.773,5.772H5.773A5.773,5.773,0,0,1,0,7.054Z" transform="translate(127.012 34.019)" fill="rgba(201,235,218,0.88)"/>
    <path id="Fill_37" data-name="Fill 37" d="M0,0H16.087V7.054a5.773,5.773,0,0,1-5.772,5.772H5.773A5.773,5.773,0,0,1,0,7.054Z" transform="translate(110.926 34.019)" fill="#7dc29e"/>
    <path id="Fill_38" data-name="Fill 38" d="M0,0H16.087V7.054a5.773,5.773,0,0,1-5.773,5.772H5.772A5.773,5.773,0,0,1,0,7.054Z" transform="translate(94.839 34.019)" fill="rgba(201,235,218,0.88)"/>
    <path id="Fill_39" data-name="Fill 39" d="M0,0H16.088V7.054a5.773,5.773,0,0,1-5.773,5.772H5.773A5.773,5.773,0,0,1,0,7.054Z" transform="translate(78.751 34.019)" fill="#7dc29e"/>
    <path id="Fill_40" data-name="Fill 40" d="M0,0H16.087V7.054a5.773,5.773,0,0,1-5.772,5.772H5.773A5.773,5.773,0,0,1,0,7.054Z" transform="translate(62.665 34.019)" fill="rgba(201,235,218,0.88)"/>
    <path id="Fill_41" data-name="Fill 41" d="M0,0H16.087V7.054a5.773,5.773,0,0,1-5.773,5.772H5.773A5.773,5.773,0,0,1,0,7.054Z" transform="translate(46.578 34.019)" fill="#7dc29e"/>
    <path id="Fill_42" data-name="Fill 42" d="M0,0H16.088V7.054a5.773,5.773,0,0,1-5.773,5.772H5.773A5.773,5.773,0,0,1,0,7.054Z" transform="translate(14.404 34.019)" fill="#7dc29e"/>
    <path id="Fill_43" data-name="Fill 43" d="M0,0H16.088V7.054a5.773,5.773,0,0,1-5.773,5.772H5.773A5.773,5.773,0,0,1,0,7.054Z" transform="translate(30.49 34.019)" fill="rgba(201,235,218,0.88)"/>
    <path id="Combined_Shape-2" data-name="Combined Shape" d="M31.033,62.066A31.041,31.041,0,0,1,18.954,2.439,31.041,31.041,0,0,1,43.112,59.627,30.837,30.837,0,0,1,31.033,62.066Zm0-55.487A24.376,24.376,0,1,0,40.551,8.5,24.3,24.3,0,0,0,31.033,6.579Z" transform="translate(140.432 140.981)" fill="rgba(255,255,255,0.57)"/>
    <path id="Fill_46" data-name="Fill 46" d="M0,9.416A9.417,9.417,0,1,0,9.417,0,9.416,9.416,0,0,0,0,9.416" transform="translate(162.048 162.598)" fill="#a6e0d7"/>
    <path id="Fill_47" data-name="Fill 47" d="M0,4.655A4.655,4.655,0,1,0,4.655,0,4.655,4.655,0,0,0,0,4.655" transform="translate(166.809 167.359)" fill="#fff"/>
  </g>
</svg>
