<?xml version="1.0" encoding="UTF-8"?>
<svg width="379px" height="223px" viewBox="0 0 379 223" version="1.1" xmlns="http://www.w3.org/2000/svg" xmlns:xlink="http://www.w3.org/1999/xlink">
    <!-- Generator: Sketch 58 (84663) - https://sketch.com -->
    <title>Group 8</title>
    <desc>Created with Sketch.</desc>
    <g id="Design" stroke="none" stroke-width="1" fill="none" fill-rule="evenodd">
        <g id="Help" transform="translate(-732.000000, -179.000000)">
            <g id="gradient-bg" transform="translate(719.659602, 178.005756)">
                <g id="Group-8" transform="translate(0.603473, 0.994244)">
                    <g id="Group-9" transform="translate(115.000000, 171.695827) rotate(17.000000) translate(-115.000000, -171.695827) translate(16.000000, 104.695827)">
                        <path d="M43.7430976,100.034634 C45.4828206,100.268564 47.3027657,100.102295 49.070269,99.4728579 C54.9904689,97.3637579 58.0839688,90.852458 55.9748688,84.9299582 C53.8634689,79.0074583 47.354469,75.9185583 41.4296691,78.0276583 C35.5094693,80.1367583 32.4182693,86.6480581 34.5273693,92.568258 C36.0070322,96.7232546 39.653406,99.4847187 43.7430976,100.034634 Z" id="Fill-1" fill="#3C3C3B"></path>
                        <path d="M90.9988081,62.9017086 L102.813908,74.7191084 L100.700208,76.8305083 L88.8851082,65.0154086 C88.3032082,64.4312086 88.3032082,63.4859086 88.8851082,62.9017086 C89.4693081,62.3175086 90.4169081,62.3175086 90.9988081,62.9017086" id="Fill-3" fill="#A88325"></path>
                        <path d="M85.1947582,62.0819886 L92.8905581,62.0819886 C93.5276581,62.0819886 94.0451581,62.5994886 94.0451581,63.2365886 C94.0451581,63.8713886 93.5276581,64.3888886 92.8905581,64.3888886 L85.1947582,64.3888886 C84.5576582,64.3888886 84.0424583,63.8713886 84.0424583,63.2365886 C84.0424583,62.5994886 84.5576582,62.0819886 85.1947582,62.0819886" id="Fill-5" fill="#A88325"></path>
                        <g id="Group-10" transform="translate(165.424986, 18.151165) rotate(72.000000) translate(-165.424986, -18.151165) translate(155.424986, 7.151165)">
                            <path d="M6.93251459,21.0507558 C6.90031459,20.9679558 6.88881459,20.8989558 6.88191459,20.8483558 L10.7689145,20.1399558 C10.6861145,19.6822558 10.4607145,19.2337558 9.97081452,18.2539559 C9.64191453,17.5961559 8.86221455,16.0390559 8.57931455,15.1535559 C9.56601453,14.4382559 11.7395145,13.101956 13.2690145,12.165856 C17.9081144,9.32075604 18.6050143,8.81245605 18.9914143,7.98445607 C19.4399143,7.02075609 19.1961143,5.86155611 18.3198144,4.79895614 C16.8639144,3.03255617 13.6232144,1.35585621 9.29461454,2.43915618 L10.2537145,6.2732561 C12.2846145,5.76495612 13.7152144,6.22725611 14.5340144,6.7171561 C13.5933144,7.33125608 12.2731145,8.13855607 11.2036145,8.79635605 C6.60591459,11.613856 5.38231462,12.439556 4.88091463,13.306656 C3.97931465,14.8614559 4.91081463,16.9751559 6.4357146,20.0226558 C6.63351459,20.4159558 6.87731459,20.9058558 6.93251459,21.0507558" id="Fill-22" fill="#3C3C3B"></path>
                            <path d="M14.5344744,6.7173861 C13.8444744,6.3033861 12.7197745,5.91928611 11.1718745,6.10788611 C10.9970745,5.81118611 10.7302745,5.28448613 10.6152745,4.67728614 L10.4450745,3.75038616 L12.1102745,2.10358619 C12.2528745,2.10588619 12.3931745,2.11048619 12.5288745,2.11738619 C13.2648745,2.99598617 15.4958744,6.20678611 15.4406744,6.22748611 C15.3923744,6.24128611 14.7759744,6.5885861 14.4447744,6.77488609 C14.4746744,6.75648609 14.5068744,6.7357861 14.5344744,6.7173861" id="Fill-24" fill="#3C3C3B"></path>
                            <path d="M11.1451945,6.77235609 L2.86059467,8.15695607 C1.5219947,8.38005606 0.256994725,7.47845608 0.0338947293,6.13985611 C-0.189205266,4.80355614 0.712394715,3.53855616 2.05099469,3.31545617 L10.3355945,1.93085619 C11.6718945,1.7054562 12.9391945,2.60935618 13.1622945,3.94565615 C13.3853945,5.28425613 12.4814945,6.5492561 11.1451945,6.77235609" id="Fill-28" fill="#3C373B"></path>
                            <path d="M13.3922945,3.45253616 C13.7349944,5.49953612 13.3048945,7.27743608 12.4331945,7.42463608 C11.5591945,7.56953608 10.5724945,6.02853611 10.2320945,3.98153615 C9.88939452,1.93453619 10.3194945,0.156636232 11.1911945,0.00943623477 C12.0651945,-0.135463762 13.0518945,1.40553621 13.3922945,3.45253616" id="Fill-30" fill="#3C373B"></path>
                        </g>
                        <path d="M154.854857,17.1565496 C156.924857,16.4182496 159.201857,17.5015496 159.940157,19.5715495 L159.940157,19.5715495 L163.468357,29.4753493 C163.875172,30.6159536 163.729613,31.819407 163.170203,32.7936554 C163.20307,32.842345 163.234944,32.8927626 163.265267,32.9444392 C163.294406,32.9784346 163.330583,33.0188619 163.373366,33.0651 C163.49148,33.1923292 163.659899,33.3643275 163.87003,33.5682102 C164.051867,33.744463 164.264744,33.9441725 164.502667,34.1588392 L164.528915,34.18362 C164.8139,34.4406826 165.134822,34.7193779 165.482697,35.0061592 C167.934497,37.0278591 169.802096,39.7004591 170.885396,42.738759 C175.19852,54.8479637 178.433363,63.9298673 180.589925,69.9844696 C182.087296,74.1883782 187.567672,79.6878347 197.031053,86.4828391 C197.539353,87.9111391 196.794153,89.4820391 195.365853,89.992639 C195.059953,90.100739 194.749453,90.151339 194.443553,90.151339 C193.314253,90.151339 192.256253,89.4498391 191.856053,88.3274391 C182.462848,81.7294539 177.035103,76.3777618 175.572819,72.2723629 C173.38117,66.1192509 170.093696,56.8895829 165.710397,44.583359 C164.960597,42.478859 163.674897,40.6319591 161.988997,39.2450591 C159.210657,36.9540776 158.574495,35.8894277 158.376857,35.4289969 L158.365269,35.4027259 C158.341362,35.3454236 158.324579,35.2984892 158.311067,35.2605392 C158.218503,35.0000218 158.167508,34.734928 158.154637,34.4724805 C157.168391,34.0516614 156.354155,33.235827 155.965757,32.1456493 L155.965757,32.1456493 L152.437557,22.2441495 C151.701557,20.1718495 152.782557,17.8948495 154.854857,17.1565496 Z" id="Combined-Shape" fill="#FBC234"></path>
                        <path d="M144.638717,34.2349692 C143.189717,34.1728692 132.664917,34.8030692 130.965217,35.5574692 C129.263217,36.3141692 116.408518,57.2970687 115.902518,58.1181687 C115.401118,58.9346687 115.336718,61.6463686 115.401118,62.5295686 C115.463218,63.4104686 123.402817,68.7027685 123.402817,68.7027685 L132.099117,55.0292688 L140.353817,41.985969 L144.638717,34.2349692 Z" id="Fill-33" fill="#D09F26"></path>
                        <path d="M45.2501991,129.545587 C22.7193995,129.545587 4.45509991,111.281288 4.45509991,88.7504881 C4.45509991,66.2173885 22.7193995,47.9530889 45.2501991,47.9530889 C67.7809986,47.9530889 86.0475982,66.2173885 86.0475982,88.7504881 C86.0475982,111.281288 67.7809986,129.545587 45.2501991,129.545587 M7.27595761e-12,88.7504881 C7.27595761e-12,113.739988 20.2583996,134.000687 45.2501991,134.000687 C70.2419985,134.000687 90.5003981,113.739988 90.5003981,88.7504881 C90.5003981,63.7563886 70.2419985,43.497989 45.2501991,43.497989 C20.2583996,43.497989 7.27595761e-12,63.7563886 7.27595761e-12,88.7504881 Z" id="Fill-37" fill="#3C3C3B"></path>
                        <polygon id="Fill-40" fill="#3C3C3B" points="99.9561579 91.027488 104.050158 89.7762881 79.7989583 10.5274897 75.7049584 11.7786897"></polygon>
                        <path d="M80.2725283,12.0760797 L82.3517283,18.8725795 C81.2661283,19.9305795 80.0195283,21.1725795 78.9201284,22.2811795 L76.0520284,12.9086796 L80.2725283,12.0760797 Z" id="Fill-42" fill-opacity="0.435068837" fill="#000000"></path>
                        <path d="M87.6969282,36.3350992 L104.049928,89.7755981 L99.9559279,91.026798 L83.5799283,37.5172991 C85.0013282,37.1055991 86.4135282,36.7007992 87.6969282,36.3350992" id="Fill-44" fill="#FBC234"></path>
                        <path d="M46.454249,93.269068 C44.4256491,93.634768 42.4913491,92.227168 42.2429491,90.180168 C42.1233491,89.1750681 42.1187491,88.3378681 42.4269491,88.2757681 C43.2342491,88.1124681 83.1645483,81.5321682 86.0625482,80.9939682 C88.9605482,80.4557682 92.4013481,77.6198683 92.6750481,76.6584683 C92.9510481,75.6947683 91.9804481,73.3211684 92.7003481,72.5690684 C93.4202481,71.8192684 102.086648,63.5346686 108.409348,62.8883686 C114.729748,62.2397686 122.501447,74.6735684 121.280147,76.0972683 C120.762647,76.7021683 119.587348,77.4496683 118.402848,78.1143683 C117.064248,78.8641683 116.160348,80.2027683 115.976348,81.7276682 C115.479548,85.8446681 112.724148,89.5338681 108.554248,91.019668 C102.838748,93.059768 96.571248,90.214668 94.303448,84.6509682 L46.454249,93.269068 Z" id="Fill-50" fill="#FBC234"></path>
                        <path d="M99.0948079,77.3643383 C99.0948079,73.1967384 102.473508,69.8203385 106.638808,69.8203385 C110.804108,69.8203385 114.182808,73.1967384 114.182808,77.3643383 C114.182808,81.5296382 110.804108,84.9060382 106.638808,84.9060382 C102.473508,84.9060382 99.0948079,81.5296382 99.0948079,77.3643383" id="Fill-54" fill="#3C3C3B"></path>
                        <path d="M83.6260531,38.4855047 L88.4673033,36.8333736 C88.8927058,36.6882002 89.1198763,36.2256571 88.974703,35.8002546 C88.9746614,35.8001328 88.9746198,35.800011 88.9745782,35.7998892 C88.8291138,35.3742947 88.3662668,35.1471111 87.9406033,35.2923736 L83.0993531,36.9445047 C82.6739507,37.0896781 82.4467801,37.5522212 82.5919535,37.9776237 C82.5919951,37.9777455 82.5920367,37.9778673 82.5920783,37.9779891 C82.7375427,38.4035836 83.2003896,38.6307672 83.6260531,38.4855047 Z" id="Fill-56" fill="#3C3C3B"></path>
                        <path d="M152.773127,20.1718495 C155.132927,20.8250495 160.066447,35.0980151 160.066447,35.0980151 C160.066447,35.0980151 151.857727,36.8077492 150.546727,38.9053491 C149.238027,41.0006491 120.688127,76.7771483 120.688127,76.7771483 L116.104228,70.2290485 L148.320327,27.6376493 C148.320327,27.6376493 120.941127,32.7459492 89.5001281,44.929049 C88.4536282,42.440449 87.7981282,41.2628491 87.7981282,41.2628491 C87.7981282,41.2628491 135.612827,23.0537494 152.773127,20.1718495 Z" id="Fill-58" fill="#FBC234"></path>
                        <path d="M46.803389,90.122208 C46.996589,88.4087081 49.344889,82.5184082 66.9421886,64.9027086 C77.4462884,54.3894088 87.4420882,45.635609 88.2976882,45.026109 C88.2654882,45.046809 88.2378882,45.062909 88.2194882,45.074409 L86.0160882,41.4036091 C84.8890882,42.079809 74.1503885,51.6570088 64.2764887,61.5148086 C43.3648891,82.3896082 42.5161891,87.6796081 42.3137891,89.4759081 L46.803389,90.122208 Z" id="Fill-60" fill="#FBC234"></path>
                        <path d="M114.650168,93.064598 L103.890768,82.3051982 C103.306568,81.7209982 103.306568,80.7756982 103.890768,80.1914983 C104.474968,79.6072983 105.420268,79.6072983 106.004468,80.1914983 L116.763868,90.950898 C117.348068,91.535098 117.348068,92.480398 116.763868,93.064598 C116.179668,93.648798 115.232068,93.648798 114.650168,93.064598" id="Fill-64" fill="#3C3C3B"></path>
                        <path d="M118.650328,91.990958 L110.954528,91.990958 C110.317428,91.990958 109.799928,91.473458 109.799928,90.836358 C109.799928,90.199258 110.317428,89.6817581 110.954528,89.6817581 L118.650328,89.6817581 C119.287428,89.6817581 119.804928,90.199258 119.804928,90.836358 C119.804928,91.473458 119.287428,91.990958 118.650328,91.990958" id="Fill-66" fill="#3C3C3B"></path>
                        <g id="Group-12" transform="translate(82.001130, 13.609770) rotate(-31.000000) translate(-82.001130, -13.609770) translate(64.501130, 9.109770)" fill="#3C3C3B">
                            <path d="M34.704768,1.55019997 C34.704768,1.55019997 32.206968,-2.34035014e-13 22.6044682,-2.34035014e-13 C13.0019684,-2.34035014e-13 0.687768701,-2.34035014e-13 0.0851687135,0.213899996 C-0.517431274,0.430099991 2.20576867,3.95369992 4.21826863,5.33829989 C7.90056855,7.87289984 33.327068,4.9955999 34.704768,1.55019997" id="Fill-68"></path>
                            <path d="M8.38287854,5.33024989 C8.38287854,3.51554993 11.0301785,2.04354996 14.2984784,2.04354996 C17.5644784,2.04354996 20.2140783,3.51554993 20.2140783,5.33024989 C20.2140783,7.14724985 17.5644784,8.61694982 14.2984784,8.61694982 C11.0301785,8.61694982 8.38287854,7.14724985 8.38287854,5.33024989" id="Fill-70"></path>
                        </g>
                    </g>
                    <path d="M229.745252,218.49133 L319.743926,218.002818" id="Line-2" stroke="#3C3C3B" stroke-width="6" stroke-linecap="round" fill-rule="nonzero"></path>
                    <g id="Group-47" transform="translate(352.500000, 111.500000) scale(-1, 1) translate(-352.500000, -111.500000) translate(314.000000, 0.000000)">
                        <path d="M54.4308424,99.59511 C66.6647027,132.649481 58.1897894,185.608873 56.6538059,197.545887 C56.2303843,200.850896 55.7486342,204.143053 55.2258381,207.424501 L46.470084,207.424501 C44.8800926,188.898888 41.3868643,167.515931 44.2557617,157.553782 C42.2077837,151.305752 40.1598057,145.05558 38.1096674,138.805408 C35.9126276,132.096861 33.6875038,125.270508 33.1560665,118.298504 C32.8315782,114.041493 32.4466849,108.988331 33.1442498,104.704155 L25.8389995,104.704998 L25.8389995,95.308998 L39.1883152,95.3093474 C44.5413791,91.8976866 51.5551218,91.8258764 54.4308424,99.59511 Z" id="Combined-Shape" fill="#1E88E5"></path>
                        <path d="M47.0951918,207.424914 L55.4732285,207.424914 C54.8861665,211.133327 54.239158,214.82727 53.5218674,218.496408 C53.2717459,219.782157 52.8624562,221.251879 51.6738622,221.634296 C50.152462,222.124203 47.789744,220.646213 47.7566701,218.934638 C47.6905223,215.34405 47.4383337,211.453731 47.0951918,207.424914" id="Fill-3" fill="#855C39"></path>
                        <path d="M45.2419818,95.9087588 C41.3886361,118.334631 38.7756731,134.065094 37.4030927,143.100147 C36.1921276,151.06502 34.193001,158.877336 31.4195001,166.323058 C30.5004733,168.79116 29.1494795,171.495425 27.1804461,172.667219 C24.5709983,181.104653 21.2803168,189.428589 17.9783616,197.505633 C16.7939019,200.397533 15.5639656,203.266696 14.2968211,206.121388 L5.72240791,203.355582 C8.65978523,185.472928 10.553267,165.058052 16.1489605,157.045896 C16.2658724,156.878469 16.3849951,156.716866 16.5061588,156.561007 L18.4596453,164.367133 C16.2560104,155.559777 14.0523755,146.752422 11.8464427,137.947343 C10.0633137,130.815845 8.26409984,123.559112 8.36980079,116.147545 C8.47320389,108.735978 10.7618591,101.010188 15.8584829,96.369704 C20.1998811,92.4138322 29.9943807,92.2601838 45.2419818,95.9087588 Z" id="Combined-Shape" fill="#42A5F5"></path>
                        <path d="M14.2968211,206.120975 C12.6844676,209.761173 11.0142347,213.372431 9.26545135,216.948549 C8.67838931,218.155747 7.8763468,219.50971 6.54305449,219.677147 C4.83974773,219.892127 2.76849363,218.050324 3.17571624,216.382158 C4.14519545,212.37608 4.96997628,207.948309 5.72240791,203.355169 L14.2968211,206.120975 Z" id="Fill-9" fill="#855C39"></path>
                        <path d="M49.837487,221.998018 L64.7216905,221.990089 C65.4274614,221.990089 66,221.359762 66,220.580773 L66,219.252725 C66,218.562934 65.4886762,218 64.8603241,218 L53.459964,218.005946 C51.4578793,218.007929 47,219.79782 47,222 L49.837487,221.998018 Z" id="Fill-42" fill="#3C3C3B" transform="translate(56.500000, 220.000000) scale(-1, 1) translate(-56.500000, -220.000000) "></path>
                        <path d="M4.13616981,220.998018 L20.5871316,220.990089 C21.3671942,220.990089 22,220.359762 22,219.580773 L22,218.252725 C22,217.562934 21.4348526,217 20.7403582,217 L8.1399602,217.005946 C5.92712973,217.007929 1,218.79782 1,221 L4.13616981,220.998018 Z" id="Fill-42-Copy" fill="#3C3C3B" transform="translate(11.500000, 219.000000) scale(-1, 1) rotate(-9.000000) translate(-11.500000, -219.000000) "></path>
                        <path d="M41.0753253,57.726161 C39.7151604,52.9676511 38.6691978,47.5414615 40.2443431,42.6981997 C40.7342505,41.1850679 40.829338,40.9432149 42.1812344,41.6956465 C43.2478683,42.2868428 44.2214817,43.3720807 45.0627995,44.2423382 C46.778509,46.0200613 48.2337614,48.0417045 49.4823018,50.1687708 C50.7887215,52.3929918 51.8739595,54.7350386 52.8723783,57.1163607 L42.5781214,62.416456 C42.0324018,60.8681832 41.5280246,59.3054406 41.0753253,57.726161" id="Fill-16" fill="#3C3C3B"></path>
                        <path d="M52.7210652,57.1155338 C53.3804764,58.6927463 54.0047466,60.2864957 54.6248826,61.878178 C58.0356303,70.6324306 61.4463781,79.3866832 64.8550587,88.1409358 C65.1754623,88.9677837 65.5041344,89.8711151 65.2540129,90.7227685 C64.859193,92.0746649 63.1207452,92.6410557 61.7688488,92.2421016 C60.4190195,91.8410803 59.3895938,90.766178 58.4552557,89.7098798 C51.4229139,81.7556025 45.957449,72.4266906 42.4268083,62.4156291 L52.7210652,57.1155338 Z" id="Fill-18" fill="#795434"></path>
                        <path d="M70.4714234,60.1577141 C70.2771141,59.2233759 69.8533546,58.102997 68.9045465,57.9975739 C68.0053494,57.896285 67.3459382,58.7975493 66.911843,59.5954575 C63.2468395,66.3177313 58.5441418,88.1134431 60.5203084,90.9329946 C62.3600451,93.5623711 64.6028701,93.6905325 66.3289152,91.009478 C69.8368176,85.5543487 71.2465933,63.8992011 70.4714234,60.1577141" id="Fill-20" fill="#855C39"></path>
                        <path d="M63.3716678,44.2441678 L69.3916785,42.5904203 C70.2930959,42.3427934 71.2245804,42.8727953 71.4722073,43.7742127 C71.5161086,43.9340234 71.5363012,44.0994153 71.5321386,44.2650941 L71.1597305,59.0875216 C71.1392536,59.9025375 70.6261221,60.6235467 69.8627851,60.9098803 L64.6168637,62.8776655 C63.5826597,63.2656033 62.4297859,62.741701 62.041848,61.707497 C61.9542727,61.4740299 61.911128,61.2262449 61.9146383,60.9769178 L62.127578,45.8524999 C62.1381827,45.0992803 62.6452832,44.4437118 63.3716678,44.2441678 Z" id="Rectangle" fill="#3C3C3B" fill-rule="nonzero" transform="translate(66.731385, 52.946728) rotate(12.000000) translate(-66.731385, -52.946728) "></path>
                        <path d="M71.2495046,51.8555746 C70.0898504,50.7000546 68.4340874,50.1564021 66.8031298,50.0137708 C66.0961748,49.9517572 65.1969777,50.0819858 64.9819972,50.7600011 C64.7876879,51.361533 65.2796625,51.9403266 65.5339182,52.5211872 C66.1106447,53.8420768 65.4346965,55.3366045 65.271394,56.7711857 C65.0915546,58.3566666 65.5897304,60.0103625 66.6191561,61.2320303 C67.4356685,62.2035767 69.7343058,63.9378902 71.0737994,63.071767 C72.3140714,62.2655902 72.8143144,58.8713794 72.9528114,57.5215502 C73.1615905,55.4937056 72.6923543,53.2963572 71.2495046,51.8555746 Z" id="Fill-22" fill="#855C39" transform="translate(68.968823, 56.653449) rotate(44.000000) translate(-68.968823, -56.653449) "></path>
                        <path d="M23.2606796,81.7717261 C24.4513407,70.5017886 12.3483539,61.0488495 13.4852698,49.7727107 C14.2604398,42.0809577 21.8633066,36.0077595 29.5922678,36.1111155 C37.3253632,36.2103373 44.427987,41.8308362 47.1896591,49.0512858 C48.5002131,52.4765034 48.9425768,56.2303931 48.4712734,59.8664569 C48.1446685,62.4048801 47.3839684,64.868887 46.9519404,67.3928403 C46.0651459,72.5627071 46.5984629,77.837997 47.8201307,82.9065749 C48.8846974,87.3281443 51.1771333,91.5430017 52.3243849,95.9087588 L16.3296268,95.9087588 C17.3735223,94.0876262 22.9175377,85.0253727 23.2606796,81.7717261" id="Fill-24" fill="#3C3C3B"></path>
                        <path d="M10.5935759,55.5571322 C10.6369854,51.6730139 11.5940619,47.6814055 13.9919209,44.6241352 C14.5789829,43.8717036 15.3996295,43.1234062 16.3484375,43.2370978 C17.2414333,43.3404538 17.8553679,44.1590333 18.3122014,44.9321361 C21.3136594,50.0048482 22.2355949,55.9726233 22.9260129,61.8535793 L11.4100882,63.3956507 C10.9263822,60.8034824 10.5646362,58.1906429 10.5935759,55.5571322" id="Fill-28" fill="#3C3C3B"></path>
                        <path d="M12.0045919,67.1261819 C11.748269,65.9003798 11.4940133,64.6725106 11.2666301,63.4405072 L22.7804877,61.8984358 C22.8466355,62.4606924 22.9107163,63.022949 22.974797,63.5831384 C23.6404096,69.4702958 24.3060222,75.3595203 24.9695676,81.2466776 C25.2217563,83.4543617 26.0196645,85.9638452 24.5375396,87.8883337 C23.47504,89.2691698 21.5526185,90.0898164 19.8410433,89.5730364 C18.3568512,89.1265385 17.2075326,87.9007365 16.4964433,86.5219675 C15.7874212,85.1411315 15.4628834,83.6031943 15.1445469,82.0838612 C14.0985843,77.0979681 13.0526216,72.112075 12.0045919,67.1261819" id="Fill-30" fill="#855C39"></path>
                        <path d="M50.3916278,87.8075094 C51.7373228,87.9770132 54.9082847,88.4483165 54.8007945,89.8002129 C54.7181097,90.8503098 51.9667731,91.5221237 50.9166762,91.5944729 C43.6383472,92.0926488 19.7217704,90.7572894 18.1507594,90.1082138 C15.558591,89.0374457 14.5043599,82.162205 18.3099276,81.0666315 C22.1754417,79.954521 38.1584125,86.2592366 50.3916278,87.8075094" id="Fill-32" fill="#855C39"></path>
                        <path d="M54.2957971,86.5600025 C56.4228634,86.4318411 58.5519969,86.3016125 60.6790632,86.171384 C61.0780173,86.4091028 60.8671711,87.0767825 60.4537471,87.291763 C60.0423903,87.5067434 59.5462815,87.4612668 59.0956494,87.5728913 C58.6450173,87.6845157 58.1840495,88.1062082 58.330815,88.5444376 C58.4796477,88.9868012 59.0749782,89.0426135 59.538013,89.0157409 C61.6836835,88.8937808 63.831421,88.7738879 65.9770914,88.6519278 C66.7088518,90.1795294 65.97089,92.1081522 64.6541347,93.1706518 C63.3353122,94.2310843 61.5823946,94.5866289 59.8935577,94.6920521 C57.5411753,94.8388176 55.1639874,94.5659577 52.9066925,93.8900095 C51.604407,93.4993239 50.2545778,92.9019263 49.5579584,91.7340035 C47.7823024,88.7594181 52.0405693,86.6964324 54.2957971,86.5600025" id="Fill-34" fill="#855C39"></path>
                        <path d="M39.6281347,4.633221 C38.6731253,2.2601674 36.3662196,0.488645681 33.8257292,0.176510583 C31.2893732,-0.133557396 28.6227886,1.03023108 27.1220595,3.10148518 C26.3613594,4.15778343 25.8590493,5.4455991 24.8151538,6.22283617 C23.4425862,7.2460605 21.5553058,7.09309363 19.8954085,7.51478608 C17.3755894,8.151459 15.3002011,10.2950623 14.7482801,12.8355526 C13.625834,17.9806139 18.3492029,23.0202521 17.3673209,28.192186 C16.9228902,30.5487027 15.3456777,32.5186679 13.7105859,34.2695184 C12.073427,36.0245032 10.2936368,37.7154072 9.25800971,39.8796817 C8.22444978,42.0418891 8.11282531,44.8552392 9.7045076,46.6474321 C10.8434906,47.9290465 12.5964083,48.4458264 14.2687083,48.8158409 C16.1353175,49.2271977 18.041202,49.2871442 19.9491536,49.2871442 C24.3665888,49.2871442 24.3665888,40.1897497 24.593972,33.1553408 C24.7242005,29.0851818 34.1461328,28.6428182 35.2954515,24.7380288 C35.9279901,22.5944255 35.2106996,20.2916539 35.4277471,18.0695001 C35.6385934,15.9010914 36.7507038,14.3693555 38.1315399,12.7859417 C39.1609656,11.6035492 39.8555179,9.79068505 40.0622299,8.25894923 C40.2234652,7.03934852 40.0870353,5.77633828 39.6281347,4.633221" id="Fill-36" fill="#FBC234"></path>
                        <path d="M33.715345,27.2896815 C33.2461088,30.1423069 33.4259483,33.0982883 34.2383264,35.8723632 C34.490515,36.732285 34.7819789,37.7286368 34.2651989,38.4603972 C33.7711573,39.1590837 32.7913425,39.250037 31.937622,39.2789767 C30.507175,39.3244533 29.0477884,39.3657957 27.6752208,38.9585731 C26.3026532,38.5513505 25.0086362,37.6087438 24.5580041,36.2506461 C24.1879896,35.1282 24.4298426,33.9065322 24.6758299,32.7510122 C25.1450661,30.5329926 25.6184366,28.3170401 26.0897399,26.0990205 C26.2261698,25.4499448 26.3812038,24.7677953 26.8256346,24.2737536 C27.5718648,23.4448386 28.9278954,23.4386372 29.9139116,23.9533501 C30.904062,24.4680629 31.611017,25.383797 32.2890323,26.2705914 L33.715345,27.2896815 Z" id="Fill-39" fill="#66452A"></path>
                        <path d="M37.9262749,26.3288842 C38.6394313,24.8963701 38.8192707,23.2654126 38.980506,21.6737303 C39.203755,19.4825832 39.4146012,17.2583623 39.0363183,15.0899535 C38.6580353,12.9194777 37.6203412,10.7758744 35.8054099,9.5294011 C33.6101286,8.02660496 30.6541472,8.08035008 28.1384624,8.93200346 C25.9493824,9.67203237 23.8450544,11.0921437 22.9851326,13.2336799 C22.5200306,14.3995355 22.4538828,15.6790827 22.3918692,16.9317573 C22.3133186,18.5585806 22.2389023,20.2288135 22.7370782,21.7812205 C23.2869321,23.4989971 24.5085999,24.945981 25.9493824,26.0332861 C27.3880979,27.1205911 29.0438609,27.8833583 30.7120266,28.5717092 C31.6773716,28.9706634 32.667522,29.3530806 33.7072833,29.4192284 C35.7806045,29.5473898 37.0642859,28.0549293 37.9262749,26.3288842" id="Fill-41" fill="#855C39"></path>
                        <path d="M28.9876352,12.8279043 C28.0615655,14.9177624 28.4212444,17.5512731 26.9639249,19.3145264 C25.7794652,20.7470404 23.4952977,21.1087864 21.9263538,20.1124346 C20.7315585,19.3558688 20.0266706,17.9481602 19.9481201,16.5342502 C19.8675024,15.1203402 20.361544,13.7146987 21.1470496,12.5364404 C21.9325551,11.358182 22.9971219,10.3887028 24.1278364,9.53911656 C25.8704185,8.23062969 27.8341823,7.16192872 29.96745,6.71129659 C31.3193464,6.42396693 32.7353235,6.3991615 34.089287,6.69889388 C35.1104442,6.92627706 37.0845437,7.4823323 37.3594706,8.6895303 C37.6302633,9.88225846 36.5780993,10.1013732 35.7305802,9.8657215 C34.4406974,9.50810976 33.2851774,9.40682089 31.9994288,9.92153374 C30.6723379,10.4548507 29.5684959,11.5214845 28.9876352,12.8279043" id="Fill-43" fill="#FBC234"></path>
                        <path d="M23.9066546,18.8516982 C23.5014991,18.7069999 23.0777395,18.5933083 22.6498457,18.6098452 C22.2198848,18.6263822 21.7816554,18.7896846 21.5087956,19.1183567 C21.1387811,19.5648546 21.1346469,20.2139302 21.2814124,20.7720526 C21.6514268,22.1818283 22.895833,23.2009184 24.3862264,22.9053203 C25.516941,22.6800042 25.9551704,21.658847 25.7463913,20.5736091 C25.568619,19.6454723 24.7314354,19.1472964 23.9066546,18.8516982" id="Fill-45" fill="#855C39"></path>
                    </g>
                </g>
            </g>
        </g>
    </g>
</svg>