<svg viewBox="0 0 132 20" width="132px" height="20px" xmlns="http://www.w3.org/2000/svg"><g fill="none" fill-rule="evenodd" opacity=".445"><g transform="translate(-519 -657)"><g transform="translate(0 -20)"><g transform="translate(149 675)"><g transform="translate(166 2)"><g transform="translate(204)"><path d="M9.684.816c3.007 0 5.085 1.77 5.085 4.344 0 2.693-1.917 4.243-5.268 4.243H6.395v1.748c0 .32.06.4.383.4H9.46l.042 2.677H.06L.04 11.55h1.573c.324 0 .525-.22.525-.54l-.02-7.157c0-.442-.06-.46-.647-.46H0V.816h9.684zm-3.29 5.912h2.423c1.13 0 1.875-.664 1.875-1.687 0-.985-.745-1.69-1.814-1.69H6.395v3.378zM28.537 1.872c1.11 1.144 1.755 3.074 1.755 5.227 0 4.642-2.743 7.377-7.402 7.377-1.96 0-3.474-.384-4.704-1.188-1.794-1.167-2.62-3.116-2.62-6.252 0-.564.04-1.045.1-1.427.18-1.207.746-2.474 1.512-3.36.343-.4.747-.76 1.21-1.063C19.617.344 20.87 0 22.767 0c2.662 0 4.58.624 5.77 1.872zM20.85 3.48c-.222.3-.362.664-.423 1.044-.1.603-.162 1.53-.162 2.874 0 1.61.1 2.456.363 3.076.324.765 1.19 1.268 2.262 1.268.563 0 1.067-.14 1.51-.4.848-.524 1.11-1.41 1.11-3.923 0-1.366-.06-2.333-.16-2.896-.222-1.286-1.07-1.968-2.46-1.968-1.01 0-1.575.26-2.04.924zM40.087.816V3.43H37.89c-.263 0-.404.162-.404.423v6.998c0 .62.24.765 1.29.765 1.01 0 1.29-.064 1.674-.264.626-.34.908-.943.93-2.03l.04-.944h3.087v5.85H31.13v-2.675h1.494c.503 0 .744-.24.744-.74V3.912c0-.34-.16-.483-.564-.483H31.13V.815h8.957M54.328.816v2.577h-1.733c-.344 0-.444.078-.444.32v7.196c0 .42.2.64.605.64h1.553v2.677h-8.432V11.55h1.41c.466 0 .747-.26.747-.663V3.713c0-.262-.1-.32-.504-.32h-1.654V.816h8.452M70.255 6.968h-3.21V4.216c0-.503-.302-.745-.907-.745H65.03v7.38c0 .52.18.7.664.7h1.615v2.677h-8.656V11.55h1.612c.486 0 .65-.18.65-.7V3.47h-1.092c-.626 0-.908.243-.908.746v2.752h-3.21V.816h14.55v6.152M79.724.816v2.577H77.99c-.342 0-.444.078-.444.32v7.196c0 .42.203.64.605.64h1.554v2.677h-8.432V11.55h1.412c.464 0 .747-.26.747-.663V3.713c0-.262-.1-.32-.506-.32h-1.652V.816h8.452M88.872.816V3.09l-1.01-.02c-.383 0-.465.08-.465.542v2.874L91.03 3.47c.08-.077.143-.16.143-.24 0-.102-.124-.14-.305-.14h-.788V.815h7.103V3.09h-1.29c-.487 0-.95.18-1.413.563l-2.5 2.03 4.538 5.548c.222.26.364.32.808.32h.846l-.02 2.677h-7.97v-2.532h.89c.2 0 .32-.103.32-.264 0-.1-.04-.22-.14-.32l-2.4-2.955-1.455 1.184v1.95c0 .302.103.384.446.384l1.047.02v2.533h-7.787V11.55h1.513c.465 0 .685-.18.685-.54V3.954c0-.28-.22-.56-.48-.56h-1.697V.816h7.75M113.168.816v5.108l-2.825-.02-.12-1.77c-.02-.42-.465-.765-1.01-.765H105.3v2.793h1.05c.3 0 .503-.24.563-.663l.082-.683h1.957l-.022 4.807-1.916-.022-.1-.902c-.02-.264-.222-.425-.565-.425h-1.03l-.02 2.474c0 .54.202.762.704.762l2.785.02c.968 0 1.514-.5 1.553-1.468l.08-1.608 3.19.02v5.75H99.306v-2.755l1.25.02c.344 0 .607-.218.607-.5V3.833c0-.302-.202-.484-.564-.484l-1.475-.022V.816h14.043M120.602.816l5.69 7.14V3.73c0-.242-.103-.34-.423-.34h-1.334V.817h7.082v2.577h-1.714c-.344 0-.424.078-.424.42v10.414h-3.33l-6.274-7.68v4.362c0 .362.24.64.546.64h1.49v2.677h-7.22V11.55h1.35c.463 0 .665-.2.665-.62V3.79c0-.24-.18-.4-.444-.4h-1.572V.817h5.912" fill="#1A1918" /><path fill="#000" d="M0 17.96h131.486V20H0z" /></g></g></g></g></g></g></svg>