<svg xmlns="http://www.w3.org/2000/svg" xmlns:xlink="http://www.w3.org/1999/xlink" width="1111" height="361.718" viewBox="0 0 1111 361.718">
  <defs>
    <clipPath id="clip-path">
      <path id="Clip_31" data-name="Clip 31" d="M0,0H-3.4V7.433H0Z" transform="translate(0.585 -0.167) rotate(180)" fill="none"/>
    </clipPath>
  </defs>
  <g id="City_bg" data-name="City bg" transform="translate(1111 10.057) rotate(180)">
    <g id="Group_7" data-name="Group 7" transform="translate(0 10.057)">
      <path id="Combined_Shape" data-name="Combined Shape" d="M-34.166,267.052H0V32.721a8.47,8.47,0,0,0-8.47-8.47H-101.2a8.471,8.471,0,0,0-8.47,8.47v25.4h-36.311V23.464a8.47,8.47,0,0,0-8.469-8.47H-169.3V5.872c0-1.691-1.29-3.211-3.343-4.283A14.625,14.625,0,0,0-179.515,0H-278.2c-5.821,0-10.539,2.629-10.539,5.872v9.122h-14.849a8.471,8.471,0,0,0-8.47,8.47V217h202.391v50.052Z" transform="translate(330.942 -82) rotate(180)" opacity="0.057"/>
      <path id="Combined_Shape-2" data-name="Combined Shape" d="M-149,327H0V92.669A8.47,8.47,0,0,0-8.47,84.2H-37V8.47A8.47,8.47,0,0,0-45.47,0h-95.061A8.47,8.47,0,0,0-149,8.47V84.2h-60.53a8.47,8.47,0,0,0-8.47,8.47V327Z" transform="translate(719 -22.052) rotate(180)" opacity="0.054"/>
      <path id="Fill_1" data-name="Fill 1" d="M-22.741,26.191A24.069,24.069,0,0,0-43.725,38.447a11.2,11.2,0,0,0-9.243-4.861,11.169,11.169,0,0,0-7.791,3.148,24.075,24.075,0,0,0-23.826-20.58,24.127,24.127,0,0,0-5.588.652A28.768,28.768,0,0,0-116.346,0a28.761,28.761,0,0,0-28.769,28.753,28.773,28.773,0,0,0,.8,6.759,13.379,13.379,0,0,0-4.5-.773,13.4,13.4,0,0,0-10.247,4.744,5.359,5.359,0,0,0-1.292-.156,5.433,5.433,0,0,0-2.332.523,6.9,6.9,0,0,0-6.89-6.53,6.9,6.9,0,0,0-6.9,6.9,6.908,6.908,0,0,0,.331,2.116H0A24.084,24.084,0,0,0-22.741,26.191" transform="translate(209.549 -15.476) rotate(180)" fill="#fff" opacity="0.2"/>
      <path id="Fill_1-2" data-name="Fill 1" d="M-13.283,21.852a13.32,13.32,0,0,0-3.734.531,22.974,22.974,0,0,0-20.6-12.758,22.977,22.977,0,0,0-7.768,1.344A22.967,22.967,0,0,0-64.984,0,22.961,22.961,0,0,0-87.732,19.7a13.3,13.3,0,0,0-3.124-.369,13.276,13.276,0,0,0-13.037,10.717,7.555,7.555,0,0,0-3.013-.621,7.585,7.585,0,0,0-2.776.523,11.383,11.383,0,0,0-9.933-5.809A11.372,11.372,0,0,0-131,35.5a11.5,11.5,0,0,0,.1,1.5H-.136A13.116,13.116,0,0,0,0,35.107,13.269,13.269,0,0,0-13.283,21.852" transform="translate(393) rotate(180)" opacity="0.047"/>
      <path id="Fill_1_Copy_4" data-name="Fill 1 Copy 4" d="M-7.909,12.993a7.941,7.941,0,0,0-2.223.316A13.681,13.681,0,0,0-22.4,5.723a13.7,13.7,0,0,0-4.625.8A13.679,13.679,0,0,0-38.693,0,13.665,13.665,0,0,0-52.237,11.716a7.927,7.927,0,0,0-1.86-.22,7.9,7.9,0,0,0-7.763,6.372,4.5,4.5,0,0,0-1.794-.369,4.522,4.522,0,0,0-1.653.311,6.779,6.779,0,0,0-5.915-3.454A6.766,6.766,0,0,0-78,21.111a6.827,6.827,0,0,0,.058.889H-.081A7.788,7.788,0,0,0,0,20.874a7.9,7.9,0,0,0-7.909-7.881" transform="translate(1033 -181) rotate(180)" opacity="0.047"/>
      <path id="Fill_6" data-name="Fill 6" d="M0,121.214C-7.88,53.6-118.034,0-252.786,0S-497.691,53.6-505.572,121.214Z" transform="translate(523.95 -235.379) rotate(180)" fill="#2cb789"/>
      <path id="Fill_24" data-name="Fill 24" d="M102.42,54c5.207-3.463,8.517-10.421,7.344-16.56A16.389,16.389,0,0,0,97.371,24.8c-3.54-.75-7.226-.284-10.818-.719s-7.437-2.145-8.7-5.535c-1.635-4.376,1.709-9.458.064-13.831C76.257.314,70.293-.9,65.844.631S57.885,5.558,53.925,8.1a34.36,34.36,0,0,1-15.855,5.316c-4.584.354-9.249-.217-13.761.666S15.21,17.817,14.2,22.3c-.836,3.722.9,7.943-.951,11.275-1.9,3.4-6.484,4.05-9.575,6.424a10.191,10.191,0,0,0-1.6,14Z" transform="translate(574.06 -137.06) rotate(180)" fill="#2cb789"/>
      <path id="Fill_9" data-name="Fill 9" d="M0,121.214C-7.2,53.6-107.887,0-231.054,0S-454.906,53.6-462.107,121.214Z" transform="translate(0 -235.245) rotate(180)" opacity="0.08"/>
      <path id="Fill_12" data-name="Fill 12" d="M0,189.092C-26.353,81.449-149.439,0-297.327,0S-568.3,81.449-594.652,189.092Z" transform="translate(266.189 -167.565) rotate(180)" fill="#8dd6b1"/>
    </g>
    <path id="Combined_Shape-3" data-name="Combined Shape" d="M-15.727,68.487H-3.949a1.013,1.013,0,0,0,1.014-1.013V66.52a.9.9,0,0,0-.9-.9h-.643C-15.666,47.447-22.339,36-33.516,37.53c6.389-1.721,14.813-6.873,18.792-9.909C-10.255,24.209,5.636,18.752-2.084,0L-25.044,8.92S-50.529,27.9-52.944,37.7c-2.406,9.754,40.037,27.776,40.379,27.921h-.294c-1.585,0-5.113,1.284-5.113,2.868Z" transform="translate(748.576 -207.393) rotate(180)" fill="#1e88e5"/>
    <g id="ciclist" transform="translate(671 -117.943)">
      <g id="bike" transform="translate(0 -93)">
        <path id="Fill_1-3" data-name="Fill 1" d="M-9.879,22.67a11.335,11.335,0,0,1-5.327-.562,11.386,11.386,0,0,1-6.9-14.543A11.385,11.385,0,0,1-7.565.663,11.383,11.383,0,0,1-.663,15.2,11.383,11.383,0,0,1-9.879,22.67Z" transform="translate(33.865 -79.498) rotate(180)" fill="#3c3c3b"/>
        <path id="Fill_3" data-name="Fill 3" d="M-2.55.438-14.365,12.256l2.114,2.111L-.436,2.552a1.5,1.5,0,0,0,0-2.114,1.494,1.494,0,0,0-2.114,0" transform="translate(88.449 -64.597) rotate(180)" fill="#a88325"/>
        <path id="Fill_5" data-name="Fill 5" d="M-1.152,0h-7.7A1.155,1.155,0,0,0-10,1.155,1.155,1.155,0,0,0-8.848,2.307h7.7A1.153,1.153,0,0,0,0,1.155,1.153,1.153,0,0,0-1.152,0" transform="translate(84.042 -64.215) rotate(180)" fill="#a88325"/>
        <path id="Fill_9-2" data-name="Fill 9" d="M-45.25,90.5a44.966,44.966,0,0,0,17.614-3.556,45.1,45.1,0,0,0,14.383-9.7,45.1,45.1,0,0,0,9.7-14.383A44.966,44.966,0,0,0,0,45.253,44.976,44.976,0,0,0-3.556,27.637a45.1,45.1,0,0,0-9.7-14.384,45.1,45.1,0,0,0-14.383-9.7A44.969,44.969,0,0,0-45.25,0,44.969,44.969,0,0,0-62.864,3.556a45.1,45.1,0,0,0-14.383,9.7,45.1,45.1,0,0,0-9.7,14.384A44.977,44.977,0,0,0-90.5,45.253a44.966,44.966,0,0,0,3.556,17.613,45.1,45.1,0,0,0,9.7,14.383,45.1,45.1,0,0,0,14.383,9.7A44.966,44.966,0,0,0-45.25,90.5Zm0-86.048A40.539,40.539,0,0,1-29.371,7.661,40.657,40.657,0,0,1-16.4,16.4,40.66,40.66,0,0,1-7.661,29.372,40.546,40.546,0,0,1-4.455,45.253,40.539,40.539,0,0,1-7.661,61.132,40.657,40.657,0,0,1-16.4,74.1a40.659,40.659,0,0,1-12.967,8.742A40.541,40.541,0,0,1-45.25,86.047a40.543,40.543,0,0,1-15.88-3.206A40.662,40.662,0,0,1-74.1,74.1a40.658,40.658,0,0,1-8.743-12.967,40.536,40.536,0,0,1-3.206-15.879,40.544,40.544,0,0,1,3.206-15.881A40.661,40.661,0,0,1-74.1,16.4,40.661,40.661,0,0,1-61.13,7.661,40.541,40.541,0,0,1-45.25,4.455Z" transform="translate(140.184 -45.631) rotate(180)" fill="#3c3c3b"/>
        <path id="Fill_14" data-name="Fill 14" d="M-11.387,22.771h0a11.351,11.351,0,0,0,6.495-2.036A11.3,11.3,0,0,0-.662,15.2,11.306,11.306,0,0,0-1.1,6.5,11.307,11.307,0,0,0-7.565.663,11.365,11.365,0,0,0-11.387,0a11.349,11.349,0,0,0-6.493,2.035,11.307,11.307,0,0,0-4.23,5.53,11.309,11.309,0,0,0,.442,8.7,11.312,11.312,0,0,0,6.463,5.842A11.354,11.354,0,0,0-11.387,22.771Zm0-19.951a8.546,8.546,0,0,1,2.874.5A8.5,8.5,0,0,1-3.65,7.713a8.508,8.508,0,0,1,.331,6.546,8.583,8.583,0,0,1-8.068,5.691,8.529,8.529,0,0,1-2.87-.5,8.508,8.508,0,0,1-4.863-4.395,8.5,8.5,0,0,1-.331-6.544A8.579,8.579,0,0,1-11.387,2.82Z" transform="translate(174.049 -79.498) rotate(180)" fill="#3c3c3b"/>
        <path id="Fill_22" data-name="Fill 22" d="M-2.405,18.954a.855.855,0,0,0,.051-.2l-3.887-.708a7.743,7.743,0,0,1,.8-1.886,28.449,28.449,0,0,0,1.391-3.1c-.987-.715-3.16-2.052-4.69-2.988-4.639-2.845-5.336-3.353-5.722-4.181A2.991,2.991,0,0,1-13.793,2.7C-12.337.936-9.1-.741-4.767.343l-.959,3.834a5.543,5.543,0,0,0-4.28.444c.941.614,2.261,1.421,3.33,2.079,4.6,2.818,5.821,3.643,6.323,4.51.9,1.555-.03,3.668-1.555,6.716-.2.393-.442.883-.5,1.028" transform="translate(151.397 -2.396) rotate(180)" fill="#3c3c3b"/>
        <path id="Combined_Shape-4" data-name="Combined Shape" d="M-29.947,73.822-13.5,27.659A12.2,12.2,0,0,1-9.782,22.32c2.65-2.185,3.351-3.255,3.582-3.748a2.415,2.415,0,0,0,.1-.236,2.751,2.751,0,0,0,.156-.788,3.972,3.972,0,0,0,2.189-2.327l3.528-9.9A3.984,3.984,0,0,0-2.649.232,3.981,3.981,0,0,0-7.734,2.647l-3.528,9.9a3.969,3.969,0,0,0,.3,3.319l-.032.048q-.033.051-.065.1c-.092.106-.251.274-.465.486h0l-.015.015c-.206.2-.462.446-.756.712h0c-.292.264-.622.551-.981.847a17.717,17.717,0,0,0-5.4,7.732L-35.122,71.978a2.749,2.749,0,0,0,1.665,3.51,2.763,2.763,0,0,0,.923.158A2.748,2.748,0,0,0-29.947,73.822Z" transform="translate(152.207 -19.058) rotate(180)" fill="#fbc234"/>
        <path id="Fill_24-2" data-name="Fill 24" d="M-4.089,4.614A5.229,5.229,0,0,1-.727,4,4.62,4.62,0,0,0-.17,2.574L0,1.647-1.665,0c-.143,0-.283.007-.419.014C-2.82.892-5.051,4.1-5,4.124s.665.361,1,.547l-.09-.057" transform="translate(157.315 -2.403) rotate(180)" fill="#3c3c3b"/>
        <path id="Fill_28" data-name="Fill 28" d="M-11.145,4.876l8.285,1.385A2.454,2.454,0,0,0-.034,4.243,2.453,2.453,0,0,0-2.051,1.419L-10.336.034a2.454,2.454,0,0,0-2.827,2.015,2.456,2.456,0,0,0,2.017,2.827" transform="translate(146.87 -2.195) rotate(180)" fill="#3c373b"/>
        <g id="Group_32" data-name="Group 32" transform="translate(156.4 -0.133)">
          <path id="Clip_31-2" data-name="Clip 31" d="M0,0H-3.4V7.433H0Z" transform="translate(0.585 -0.167) rotate(180)" fill="none"/>
          <g id="Group_32-2" data-name="Group 32" clip-path="url(#clip-path)">
            <path id="Fill_30" data-name="Fill 30" d="M-3.278,3.453c-.343,2.047.087,3.825.959,3.972s1.861-1.4,2.2-3.443S-.205.157-1.077.009s-1.861,1.4-2.2,3.443" transform="translate(0.585 -0.166) rotate(180)" fill="#3c373b"/>
          </g>
        </g>
        <path id="Fill_33" data-name="Fill 33" d="M-29.258,0c1.449-.062,11.974.568,13.674,1.322S-1.028,23.066-.522,23.887s.566,3.528.5,4.411-8,6.173-8,6.173l-8.7-13.674L-24.973,7.755Z" transform="translate(115.38 -36.364) rotate(180)" fill="#d09f26"/>
        <path id="Fill_37" data-name="Fill 37" d="M-45.25,90.5a44.966,44.966,0,0,0,17.614-3.556,45.1,45.1,0,0,0,14.383-9.7,45.1,45.1,0,0,0,9.7-14.383A44.966,44.966,0,0,0,0,45.253,44.976,44.976,0,0,0-3.556,27.637a45.1,45.1,0,0,0-9.7-14.384,45.1,45.1,0,0,0-14.383-9.7A44.969,44.969,0,0,0-45.25,0,44.969,44.969,0,0,0-62.864,3.556a45.1,45.1,0,0,0-14.383,9.7,45.1,45.1,0,0,0-9.7,14.384A44.977,44.977,0,0,0-90.5,45.253a44.966,44.966,0,0,0,3.556,17.613,45.1,45.1,0,0,0,9.7,14.383,45.1,45.1,0,0,0,14.383,9.7A44.966,44.966,0,0,0-45.25,90.5Zm0-86.048A40.539,40.539,0,0,1-29.371,7.661,40.657,40.657,0,0,1-16.4,16.4,40.66,40.66,0,0,1-7.661,29.372,40.546,40.546,0,0,1-4.455,45.253,40.539,40.539,0,0,1-7.661,61.132,40.657,40.657,0,0,1-16.4,74.1a40.659,40.659,0,0,1-12.967,8.742A40.541,40.541,0,0,1-45.25,86.047a40.543,40.543,0,0,1-15.88-3.206A40.662,40.662,0,0,1-74.1,74.1a40.658,40.658,0,0,1-8.743-12.967,40.536,40.536,0,0,1-3.206-15.879,40.544,40.544,0,0,1,3.206-15.881A40.661,40.661,0,0,1-74.1,16.4,40.661,40.661,0,0,1-61.13,7.661,40.541,40.541,0,0,1-45.25,4.455Z" transform="translate(0 -45.631) rotate(180)" fill="#3c3c3b"/>
        <path id="Fill_40" data-name="Fill 40" d="M-24.251,80.5l-4.094-1.251L-4.094,0,0,1.251Z" transform="translate(75.705 -12.661) rotate(180)" fill="#3c3c3b"/>
        <path id="Fill_42" data-name="Fill 42" d="M-4.22,0-6.3,6.8c1.086,1.058,2.332,2.3,3.432,3.409L0,.833Z" transform="translate(76.052 -14.209) rotate(180)" fill="rgba(0,0,0,0.44)"/>
        <path id="Fill_44" data-name="Fill 44" d="M-4.117,0-20.47,53.44l4.094,1.251L0,1.182C-1.421.771-2.834.366-4.117,0" transform="translate(83.58 -38.468) rotate(180)" fill="#fbc234"/>
        <path id="Fill_50" data-name="Fill 50" d="M-4.287,30.405A3.6,3.6,0,0,0-.076,27.316c.12-1.005.124-1.842-.184-1.9C-1.067,25.249-41,18.668-43.9,18.13s-6.339-3.374-6.612-4.335.695-3.337-.025-4.089S-59.919.671-66.242.024-80.334,11.81-79.113,13.233a12.2,12.2,0,0,0,2.877,2.017,4.8,4.8,0,0,1,2.427,3.613,11.292,11.292,0,0,0,7.422,9.292,11.293,11.293,0,0,0,14.251-6.369Z" transform="translate(42.167 -64.997) rotate(180)" fill="#fbc234"/>
        <path id="Fill_54" data-name="Fill 54" d="M0,7.544A7.544,7.544,0,0,0-7.544,0a7.544,7.544,0,0,0-7.544,7.544,7.543,7.543,0,0,0,7.544,7.542A7.543,7.543,0,0,0,0,7.544" transform="translate(99.095 -71.954) rotate(180)" fill="#3c3c3b"/>
        <path id="Fill_58" data-name="Fill 58" d="M-64.975,0c-2.36.653-7.293,14.926-7.293,14.926s8.209,1.71,9.52,3.807S-32.89,56.605-32.89,56.605l4.584-6.548L-60.522,7.466A369.848,369.848,0,0,1-1.7,24.757C-.655,22.269,0,21.091,0,21.091S-47.815,2.882-64.975,0Z" transform="translate(87.798 -22.305) rotate(180)" fill="#fbc234"/>
        <path id="Fill_60" data-name="Fill 60" d="M-4.49,48.719c-.193-1.713-2.542-7.6-20.139-25.219-10.5-10.513-20.5-19.267-21.355-19.877l.078.048L-43.7,0c1.127.676,11.866,10.253,21.74,20.111C-1.051,40.986-.2,46.276,0,48.072Z" transform="translate(42.314 -43.537) rotate(180)" fill="#fbc234"/>
        <path id="Fill_64" data-name="Fill 64" d="M-11.2,13.311-.438,2.552a1.494,1.494,0,0,0,0-2.114,1.494,1.494,0,0,0-2.114,0L-13.311,11.2a1.494,1.494,0,0,0,0,2.114,1.494,1.494,0,0,0,2.114,0" transform="translate(103.453 -81.887) rotate(180)" fill="#3c3c3b"/>
        <path id="Fill_66" data-name="Fill 66" d="M-8.85,2.309h7.7A1.155,1.155,0,0,0,0,1.155,1.155,1.155,0,0,0-1.155,0h-7.7a1.155,1.155,0,0,0-1.155,1.155A1.155,1.155,0,0,0-8.85,2.309" transform="translate(109.8 -91.815) rotate(180)" fill="#3c3c3b"/>
        <path id="Fill_68" data-name="Fill 68" d="M-34.7,1.55S-32.207,0-22.6,0-.688,0-.085.214s-2.121,3.74-4.133,5.124C-7.9,7.873-33.327,5-34.7,1.55" transform="translate(64.501 -11.243) rotate(180)" fill="#3c3c3b"/>
        <path id="Fill_70" data-name="Fill 70" d="M0,3.287C0,1.472-2.647,0-5.916,0s-5.916,1.472-5.916,3.287,2.65,3.287,5.916,3.287S0,5.1,0,3.287" transform="translate(72.884 -13.287) rotate(180)" fill="#3c3c3b"/>
      </g>
      <g id="guy" transform="translate(77)">
        <path id="Fill_5-2" data-name="Fill 5" d="M-3.76.171C-9.032-.991-13.373,3.4-17.1,24.429c-.51,2.93-1.053,5.489-1.537,7.731a5.67,5.67,0,0,0-.243.884C-20.31,40.467-47,50.2-47,50.2l7.078,5.365s23.65-4.424,29.575-9.77c5.358-4.238,8.036-18.728,9.117-25.262C.1,12.433,1.512,1.334-3.76.171" transform="translate(30.628 -39.867) rotate(180)" fill="#e5c2a4"/>
        <path id="Fill_7" data-name="Fill 7" d="M-17.1,24.428c-2.585,14.847-6.061,20.236,2.425,22.408,8.312,2.13,12.1-18.2,13.444-26.3S1.512,1.334-3.76.171-13.373,3.4-17.1,24.428" transform="translate(30.628 -39.867) rotate(180)" fill="#e5c2a4"/>
        <path id="Fill_11" data-name="Fill 11" d="M-4.34.151a5.466,5.466,0,0,1,4.2,6.482A5.467,5.467,0,0,1-6.77,10.6a5.467,5.467,0,0,1-4.2-6.482A5.466,5.466,0,0,1-4.34.151" transform="translate(69.8 -87.994) rotate(180)" fill="#ffd7b5"/>
        <path id="Fill_14-2" data-name="Fill 14" d="M-2.482,27.218h0c.565-2.648.983-5.082,1.248-6.682A69.131,69.131,0,0,0-.018,7.751,14.031,14.031,0,0,0-.953,2.7,4.018,4.018,0,0,0-3.759.171,6.941,6.941,0,0,0-5.244,0,5.344,5.344,0,0,0-8.567,1.142a11.561,11.561,0,0,0-3.069,3.939c-2.062,3.91-3.85,10.239-5.466,19.347-.006.036-.012.071-.018.106l-.015.087c.019,0,10.208,1.809,13.556,2.4l1.1.194ZM-5.245.934a5.991,5.991,0,0,1,1.283.15C.858,2.146-1.331,15.4-2.156,20.383c-.188,1.129-.482,2.859-.872,4.843l-12.853-2.28C-13.608,10.784-10.943,3.833-7.733,1.7A4.369,4.369,0,0,1-5.245.934Z" transform="translate(30.629 -39.868) rotate(180)" fill="#12aa5d"/>
        <path id="Fill_16" data-name="Fill 16" d="M-3.76.171C-8.97-.977-13.27,3.306-16.97,23.7l14.678,2.6c.453-2.208.8-4.214,1.058-5.768C.1,12.433,1.512,1.334-3.76.171" transform="translate(30.628 -39.868) rotate(180)" fill="#12aa5d"/>
        <path id="Fill_22-2" data-name="Fill 22" d="M-7.061,6.915c1.656,2.623,4.293,3.926,5.892,2.918s1.553-3.955-.1-6.575S-5.567-.668-7.166.342s-1.551,3.952.1,6.573" transform="translate(51.196 -12.097) rotate(180)" fill="#3c3c3b"/>
        <path id="Fill_24-3" data-name="Fill 24" d="M-9.577,10.6s1.048,1.072,5.029.886A4.535,4.535,0,0,0,0,7.978L-1.551,0l-9.942,2.954Z" transform="translate(33.438 -34.79) rotate(180)" fill="#ffd7b5"/>
        <path id="Fill_26" data-name="Fill 26" d="M-9.784,5.5l-.584-2.549L-.426,0,0,2.2C-1.72,3.4-6.409,6.342-9.784,5.5" transform="translate(34.563 -34.79) rotate(180)" opacity="0.092"/>
        <path id="Fill_28-2" data-name="Fill 28" d="M-11.907,29.947A9.955,9.955,0,0,1-23.014,21.3L-25.182,3.834a1.061,1.061,0,0,1,.924-1.186L-3.014.008A1.063,1.063,0,0,1-1.827.932L-.1,14.8a13.578,13.578,0,0,1-11.8,15.149" transform="translate(31.239 -10.111) rotate(180)" fill="#ffd7b5"/>
        <path id="Fill_30-2" data-name="Fill 30" d="M0,0S-4,1.584-6.368.219c0,0,.064,3.55,2.964,3.188S0,0,0,0" transform="translate(44.484 -32.517) rotate(180)" fill="#fff"/>
        <path id="Fill_32" data-name="Fill 32" d="M-13.556,7.643a6.805,6.805,0,0,0,7.593,5.913A6.8,6.8,0,0,0-.053,5.966,6.8,6.8,0,0,0-7.643.053a6.8,6.8,0,0,0-5.913,7.59" transform="translate(46.047 -6.122) rotate(180)" fill="#3c3c3b"/>
        <path id="Fill_34" data-name="Fill 34" d="M-13.247,7.458a6.645,6.645,0,0,0,7.416,5.77A6.645,6.645,0,0,0-.051,5.822,6.645,6.645,0,0,0-7.467.051a6.644,6.644,0,0,0-5.78,7.407" transform="translate(42.064 -0.896) rotate(180)" fill="#3c3c3b"/>
        <path id="Fill_36" data-name="Fill 36" d="M-13.245,7.458a6.642,6.642,0,0,0,7.416,5.768A6.642,6.642,0,0,0-.051,5.819,6.641,6.641,0,0,0-7.465.051a6.644,6.644,0,0,0-5.78,7.407" transform="translate(34.848 0) rotate(180)" fill="#3c3c3b"/>
        <path id="Fill_38" data-name="Fill 38" d="M-8.837,8.746c2.47,2.864,5.944,3.914,7.759,2.347S.206,5.937-2.265,3.074-8.209-.84-10.024.727s-1.284,5.155,1.186,8.019" transform="translate(27.923 -4.486) rotate(180)" fill="#3c3c3b"/>
        <path id="Fill_40-2" data-name="Fill 40" d="M-6.725,4.323a3.423,3.423,0,0,0,4.2,2.4,3.423,3.423,0,0,0,2.4-4.2,3.422,3.422,0,0,0-4.2-2.4,3.424,3.424,0,0,0-2.4,4.2" transform="translate(27.102 -15.247) rotate(180)" fill="#3c3c3b"/>
        <path id="Fill_42-2" data-name="Fill 42" d="M0,13.925c-1.553,1.444-3.44,3.1-4.155,5.127-.288.071-.536-.2-.7-.45a8.783,8.783,0,0,1-1.012-2.156c-.214-.679-.219-1.367-.493-2.025a7.621,7.621,0,0,0-2.823-3.164,39.483,39.483,0,0,1-4.505-3.045,2.573,2.573,0,0,1-1.22,1.279,21.605,21.605,0,0,1-6.642,2.73c-1.9.431-3.857.76-5.594-.326a6.908,6.908,0,0,1-2.88-4.529l9.358-5.892L-16.331,0-5.348,2.332l3.28,9.291Z" transform="translate(27.933 -6.982) rotate(180)" fill="#3c3c3b"/>
        <path id="Fill_44-2" data-name="Fill 44" d="M-.089,1.941a2.612,2.612,0,0,1-1.851,3.2,2.613,2.613,0,0,1-3.2-1.851A2.613,2.613,0,0,1-3.286.09a2.611,2.611,0,0,1,3.2,1.851" transform="translate(29.128 -19.65) rotate(180)" fill="#3c3c3b"/>
        <path id="Fill_46" data-name="Fill 46" d="M0,49.366-25.251,60.558-43.49,19.41A13.813,13.813,0,0,1-36.46,1.188a13.809,13.809,0,0,1,18.22,7.03Z" transform="translate(2.558 -40.122) rotate(180)" fill="#12aa5d"/>
        <path id="Fill_48" data-name="Fill 48" d="M-28.281,10.161l-7.5,35.161.079,48.886H-29.8c3.928-14.034,18.559-30.37,10.137-49.679,2.437-11.381,27.795-26.7,17-44.529Z" transform="translate(0 -89.452) rotate(180)" fill="#42a5f5"/>
        <path id="Fill_50-2" data-name="Fill 50" d="M-12.793,2.868H-1.015A1.014,1.014,0,0,0,0,1.856V.9A.9.9,0,0,0-.9,0H-9.925c-1.584,0-5.113,1.284-5.113,2.868Z" transform="translate(28.678 -183.659) rotate(180)" fill="#3c3c3b"/>
        <path id="Fill_53" data-name="Fill 53" d="M-17.993,23.738c-3.409,14.68-7.18,19.866,1.172,22.511,8.181,2.59,13.1-17.5,14.887-25.513S1.881,1.718-3.318.263-13.095,2.95-17.993,23.738" transform="translate(24.423 -43.545) rotate(180)" fill="#ffd7b5"/>
        <path id="Fill_55" data-name="Fill 55" d="M-38.317,17.578S-11.12,9.343-9.281,2.012C-7.544-4.9-1.128,7.847-.054,12.4c1.568,6.642-31.492,10.933-31.492,10.933Z" transform="translate(35.393 -73.774) rotate(180)" fill="#ffd7b5"/>
        <path id="Fill_57" data-name="Fill 57" d="M-4.045.232A5.463,5.463,0,0,1-.21,6.938a5.465,5.465,0,0,1-6.842,3.59A5.465,5.465,0,0,1-10.887,3.82,5.466,5.466,0,0,1-4.045.232" transform="translate(66.069 -89.392) rotate(180)" fill="#ffd7b5"/>
        <path id="Fill_59" data-name="Fill 59" d="M-2,2.554-11.147.4A8.606,8.606,0,0,1-13.06.322,8.705,8.705,0,0,1-14.382,0c-.1.424-.2.843-.31,1.282-.014.067-.029.129-.045.191,0,0,14.487,3.414,14.487,3.414.088-.314.169-.627.25-.934a9.156,9.156,0,0,1-2-1.4" transform="translate(27.725 -66.001) rotate(180)" fill="#12aa5d"/>
        <path id="Fill_61" data-name="Fill 61" d="M-3.318.262c-5.136-1.437-9.67,2.6-14.5,22.759l14.511,3.416c.574-2.182,1.032-4.164,1.377-5.7C-.145,12.722,1.88,1.716-3.318.262" transform="translate(24.423 -43.547) rotate(180)" fill="#12aa5d"/>
      </g>
    </g>
    <g id="tree" transform="translate(529 -38.943)">
      <path id="Fill_1-4" data-name="Fill 1" d="M-50.638.214a14.959,14.959,0,0,1,1.5.338h0C-38.105,3.614-27.49,12.23-27.084,24.432h0c.084,2.479-.214,5.023.514,7.394h0C-24.764,37.694-18,40.651-14.979,45.8h0c3.706,6.3,6.864,14.34,9.506,21.235h0a23.763,23.763,0,0,1,2.04,9.127h0C-3.6,81.382-6.826,86.177-6.809,91.4h0c.019,4.783,2.724,9.07,4.51,13.507h0c3.9,9.7,1.781,19,1.207,28.982h0a189.656,189.656,0,0,1-3.175,27.545h0c-2.546,12.312-6.816,24.71-14.532,34.8h0c-7.486,9.785-18.859,17.563-31.483,18.163h0a16.919,16.919,0,0,1-2.064.019h0s-52.1,4.464-52.838-91.322h0c-.053-6.864-.5-13.442-.518-20.028h0v-.794a82.17,82.17,0,0,1,1.884-18.5h0a12.238,12.238,0,0,1,1.61-4.286h0c1.274-1.853,3.444-2.969,4.591-4.9h0c1.015-1.709,1.082-3.8,1.118-5.786h0c.23-11.861,1.039-23.681,13.3-30.007h0c2.088-1.078,4.38-1.848,6.168-3.377h0c4.226-3.612,4.258-9.958,5.417-15.4h0C-69.605,10.622-62.854,0-53.06,0h0a14.087,14.087,0,0,1,2.422.214" transform="translate(0 0) rotate(180)" fill="#fbc234"/>
      <path id="Fill_4" data-name="Fill 4" d="M-12.545,157.4H0L-4.114,3.83-5.974,0Z" transform="translate(47.667 -155.316) rotate(180)" fill="#fff"/>
    </g>
    <path id="Fill_16-2" data-name="Fill 16" d="M-51.245,0s-6.9,29.842,8.454,54.294,33.11,11.88,33.11,11.88S9.375,55.68-5.983,31.229-51.245,0-51.245,0" transform="translate(964.207 -252.943) rotate(180)" fill="#a7e1d8"/>
    <path id="Fill_20" data-name="Fill 20" d="M-13.241,0S.189,18.608,0,43.319s-13.756,23.56-13.756,23.56-13.581.946-13.39-23.765S-13.241,0-13.241,0" transform="translate(953.11 -255.775) rotate(180)" fill="#2cb789"/>
  </g>
</svg>
