<?xml version="1.0" encoding="UTF-8"?>
<svg width="1440px" height="400px" viewBox="0 0 1440 400" version="1.1" xmlns="http://www.w3.org/2000/svg" xmlns:xlink="http://www.w3.org/1999/xlink">
    <!-- Generator: Sketch 58 (84663) - https://sketch.com -->
    <title>gradient-bg2x</title>
    <desc>Created with Sketch.</desc>
    <defs>
        <polygon id="path-1" points="0.437496443 400.774193 1510.4375 400.774193 1510.4375 0.774192803 2.21697659e-13 0.774192803"></polygon>
        <rect id="path-3" x="0" y="2.84217094e-14" width="1440" height="423.995272"></rect>
    </defs>
    <g id="Design" stroke="none" stroke-width="1" fill="none" fill-rule="evenodd">
        <g id="Help">
            <g id="gradient-bg" transform="translate(-0.340398, -0.994244)">
                <mask id="mask-2" fill="white">
                    <use xlink:href="#path-1"></use>
                </mask>
                <use id="gradient" fill="#12AA5D" xlink:href="#path-1"></use>
                <g mask="url(#mask-2)" id="Path-2">
                    <g transform="translate(0.340398, -23.005756)">
                        <g transform="translate(0.340398, 0.998945)">
                            <mask id="mask-4" fill="white">
                                <use xlink:href="#path-3"></use>
                            </mask>
                            <use id="Mask" fill="#12AA5D" fill-rule="nonzero" xlink:href="#path-3"></use>
                            <path d="M741.428059,160.672382 C744.687318,162.415453 747.245204,164.973339 748.988275,168.232598 C750.731346,171.491858 751.659602,174.72472 751.659602,183.639907 L751.659602,256.001055 L827.510228,256.00201 C836.055682,256.035715 839.229156,256.961591 842.428059,258.672382 C845.687318,260.415453 848.245204,262.973339 849.988275,266.232598 C851.731346,269.491858 852.659602,272.72472 852.659602,281.639907 L852.659602,442.362203 C852.659602,451.277391 851.731346,454.510253 849.988275,457.769512 C848.245204,461.028772 845.687318,463.586657 842.428059,465.329728 C839.1688,467.072799 835.935937,468.001055 827.02075,468.001055 L613.298454,468.001055 C604.383267,468.001055 601.150404,467.072799 597.891145,465.329728 C594.631886,463.586657 592.074,461.028772 590.330929,457.769512 C588.620137,454.57061 587.694261,451.397135 587.660556,442.851682 L587.659602,183.639907 C587.659602,174.72472 588.587858,171.491858 590.330929,168.232598 C592.074,164.973339 594.631886,162.415453 597.891145,160.672382 C601.090047,158.961591 604.263522,158.035715 612.808975,158.00201 L726.02075,158.001055 C734.935937,158.001055 738.1688,158.929311 741.428059,160.672382 Z M1202.42806,203.672382 C1205.68732,205.415453 1208.2452,207.973339 1209.98827,211.232598 C1211.73135,214.491858 1212.6596,217.72472 1212.6596,226.639907 L1212.6598,326.005669 C1231.00065,304.579732 1258.24439,291.001055 1288.6596,291.001055 L1290.6596,291.001055 C1345.88808,291.001055 1390.6596,335.77258 1390.6596,391.001055 L1390.6596,468.001055 L1188.6596,468.001055 L1188.6612,467.989721 C1188.13658,467.997267 1187.59026,468.001055 1187.02075,468.001055 L992.298454,468.001055 C991.164197,468.001055 990.121919,467.98603 989.159864,467.956212 C988.198,467.98602 987.155396,468.001055 986.02075,468.001055 L919.298454,468.001055 C910.383267,468.001055 907.150404,467.072799 903.891145,465.329728 C900.631886,463.586657 898.074,461.028772 896.330929,457.769512 C894.620137,454.57061 893.694261,451.397135 893.660556,442.851682 L893.659602,248.639907 C893.659602,239.72472 894.587858,236.491858 896.330929,233.232598 C898.074,229.973339 900.631886,227.415453 903.891145,225.672382 C907.090047,223.961591 910.263522,223.035715 918.808975,223.00201 L986.02075,223.001055 C994.935937,223.001055 998.1688,223.929311 1001.42806,225.672382 C1004.68732,227.415453 1007.2452,229.973339 1008.98827,233.232598 C1010.73135,236.491858 1011.6596,239.72472 1011.6596,248.639907 L1011.6596,351.001055 L1048.6596,351.001055 L1048.66056,226.150429 C1048.69426,217.604975 1049.62014,214.431501 1051.33093,211.232598 C1053.074,207.973339 1055.63189,205.415453 1058.89114,203.672382 C1062.09005,201.961591 1065.26352,201.035715 1073.80898,201.00201 L1187.02075,201.001055 C1195.93594,201.001055 1199.1688,201.929311 1202.42806,203.672382 Z" id="Combined-Shape" fill="#109C55" fill-rule="nonzero" opacity="0.39343843" mask="url(#mask-4)" transform="translate(989.159602, 313.001055) scale(-1, 1) translate(-989.159602, -313.001055) "></path>
                            <path d="M532.944758,437.028399 C631.174205,374.985 760.850707,351.38626 921.974265,366.232178 C1163.6596,388.501055 1391.97209,255.020127 1503.51506,261.433594 L1503.51506,437.028399 L532.944758,437.028399 Z" fill="#2CB789" fill-rule="nonzero" mask="url(#mask-4)"></path>
                            <g id="Group-10" mask="url(#mask-4)">
                                <g transform="translate(1321.659602, 291.001055) scale(-1, 1) rotate(-30.000000) translate(-1321.659602, -291.001055) translate(1303.659602, 271.001055)">
                                    <path d="M34.6739897,0.394014968 C34.6739897,0.394014968 38.5189536,17.1627982 29.9662566,30.9028914 C21.4135596,44.6423038 11.527185,37.5785381 11.527185,37.5785381 C11.527185,37.5785381 0.91519264,31.6818531 9.46788965,17.9424407 C18.019911,4.20302838 34.6739897,0.394014968 34.6739897,0.394014968" id="Fill-16" fill="#FBC234"></path>
                                    <path d="M7.45128143,2.19401486 C7.45128143,2.19401486 0.0314008319,12.7100183 0.136942616,26.6748952 C0.2424844,40.6400693 7.73683059,39.9892824 7.73683059,39.9892824 C7.73683059,39.9892824 15.2402651,40.5238786 15.1347233,26.5587045 C15.0291815,12.5935304 7.45128143,2.19401486 7.45128143,2.19401486" id="Fill-20" fill="#2CB789"></path>
                                </g>
                            </g>
                            <path d="M1318.56876,341.868947 C1324.05499,338.222272 1327.5422,330.894563 1326.30613,324.429035 C1325.06841,317.963506 1319.69351,312.484494 1313.24952,311.120058 C1309.52,310.329863 1305.63658,310.820668 1301.8514,310.362584 C1298.06621,309.9045 1294.0158,308.103248 1292.68312,304.533465 C1290.9608,299.924812 1294.48404,294.57341 1292.75025,289.968029 C1291.00337,285.331565 1284.71983,284.053838 1280.03255,285.665312 C1275.34527,287.278422 1271.64685,290.854749 1267.47529,293.531268 C1262.48185,296.734585 1256.6862,298.676534 1250.77102,299.129709 C1245.94131,299.502721 1241.02646,298.900667 1236.27206,299.83156 C1231.51765,300.762452 1226.68466,303.764538 1225.62376,308.489347 C1224.74295,312.409238 1226.57661,316.854289 1224.6218,320.363539 C1222.62279,323.948047 1217.7898,324.628629 1214.53343,327.128458 C1210.15394,330.488832 1209.34026,337.608766 1212.8504,341.868947 L1318.56876,341.868947 Z" id="Fill-24" fill="#2CB789" mask="url(#mask-4)"></path>
                            <path d="M1267.56876,360.868947 C1273.05499,357.222272 1276.5422,349.894563 1275.30613,343.429035 C1274.06841,336.963506 1268.69351,331.484494 1262.24952,330.120058 C1258.52,329.329863 1254.63658,329.820668 1250.8514,329.362584 C1247.06621,328.9045 1243.0158,327.103248 1241.68312,323.533465 C1239.9608,318.924812 1243.48404,313.57341 1241.75025,308.968029 C1240.00337,304.331565 1233.71983,303.053838 1229.03255,304.665312 C1224.34527,306.278422 1220.64685,309.854749 1216.47529,312.531268 C1211.48185,315.734585 1205.6862,317.676534 1199.77102,318.129709 C1194.94131,318.502721 1190.02646,317.900667 1185.27206,318.83156 C1180.51765,319.762452 1175.68466,322.764538 1174.62376,327.489347 C1173.74295,331.409238 1175.57661,335.854289 1173.6218,339.363539 C1171.62279,342.948047 1166.7898,343.628629 1163.53343,346.128458 C1159.15394,349.488832 1158.34026,356.608766 1161.8504,360.868947 L1267.56876,360.868947 Z" id="Fill-24-Copy" fill="#2CB789" mask="url(#mask-4)"></path>
                        </g>
                    </g>
                </g>
                <g id="Group-12" mask="url(#mask-2)">
                    <g transform="translate(1232.340398, 261.994244) rotate(1.000000) translate(-1232.340398, -261.994244) translate(1209.340398, 119.994244)">
                        <polygon id="Fill-44" fill="#FFFFFF" opacity="0.536528088" transform="translate(21.392954, 41.290849) rotate(-1.000000) translate(-21.392954, -41.290849) " points="32.3242189 58.3816982 10.4612031 58.3814748 6.99999988 24.1999996 35.7859087 24.2002937"></polygon>
                        <path d="M34.406528,57.2692996 C36.0438832,57.2692996 37.3706034,58.5950431 37.3706034,60.2311929 L37.3706034,60.8614838 C37.3706034,62.4976337 36.0438832,63.8233772 34.406528,63.8233772 L25.592,63.8232996 L25.592,208.6933 L30.0755397,208.6942 C31.0987385,208.6942 31.927494,209.52353 31.927494,210.545976 L31.927494,224.731075 C31.927494,225.403035 31.5687043,225.991904 31.0318105,226.316115 C31.6691527,226.732252 32.1086377,227.426888 32.177279,228.229152 L32.1860799,228.394108 L33.184,274.7793 L35.9917155,274.780201 C39.9481633,274.780201 43.1552928,277.986154 43.1552928,281.938505 L43.1552928,282.700304 L2.79999995,282.700304 L2.79999995,281.938505 C2.79999995,277.986154 6.00712946,274.780201 9.96357722,274.780201 L12.538,274.7793 L14.5379754,228.339609 C14.5689689,227.611482 14.9036612,226.96563 15.4165768,226.5215 C14.6180231,226.317796 14.0280359,225.592753 14.0280359,224.731075 L14.0280359,210.545976 C14.0280359,209.52353 14.8567913,208.6942 15.8799901,208.6942 L20.362,208.6933 L20.362,63.8232996 L11.4124172,63.8233772 C9.77506202,63.8233772 8.44834191,62.4976337 8.44834191,60.8614838 L8.44834191,60.2311929 C8.44834191,58.5950431 9.77506202,57.2692996 11.4124172,57.2692996 L34.406528,57.2692996 Z M23.2997821,0.399999976 C24.9703349,0.399999976 26.3255102,1.7541776 26.3255102,3.42350068 L26.324869,5.51899998 L30.3184753,5.51992878 C36.0747096,5.51992878 40.7413498,10.1831336 40.7413498,15.9351305 L40.741583,18.4659929 C41.7871669,18.9235266 42.5174238,19.9665392 42.5174238,21.1804066 L42.5174238,21.8106975 C42.5174238,23.4468474 41.1907037,24.7725908 39.5533484,24.7725908 L6.4019443,24.7725908 C4.76458908,24.7725908 3.43786896,23.4468474 3.43786896,21.8106975 L3.43786896,21.1804066 C3.43786896,19.8634243 4.29746227,18.747557 5.48674072,18.3623227 L5.48782346,15.9351305 C5.48782346,10.1831336 10.1544637,5.51992878 15.9095123,5.51992878 L19.629869,5.51899998 L19.6302568,3.42350068 C19.6302568,1.7541776 20.9842464,0.399999976 22.6559849,0.399999976 L23.2997821,0.399999976 Z" id="Combined-Shape" fill="#A3DFD2" transform="translate(22.977646, 141.550152) rotate(-1.000000) translate(-22.977646, -141.550152) "></path>
                    </g>
                </g>
                <g id="tingling-things" mask="url(#mask-2)">
                    <g transform="translate(978.340398, 274.994244) scale(-1, 1) translate(-978.340398, -274.994244) translate(691.340398, 214.994244)">
                        <ellipse id="Oval-Copy-5" stroke="none" fill="#FFFFFF" fill-rule="nonzero" opacity="0.609561012" cx="315.133398" cy="4.86623086" rx="4.866602" ry="4.86623086"></ellipse>
                        <ellipse id="Oval-Copy-6" stroke="none" fill="#FFFFFF" fill-rule="nonzero" cx="7.13339785" cy="86.8660785" rx="6.86660215" ry="6.86607849"></ellipse>
                        <path d="M558.601284,87.930509 L564.911382,100.061982 C565.946723,102.052475 565.172419,104.505399 563.181926,105.54074 C562.602775,105.841981 561.959558,105.999217 561.306748,105.999132 L548.690017,105.997497 C546.44636,105.997206 544.627752,104.178127 544.628043,101.93447 C544.628128,101.282249 544.785247,100.639636 545.086118,100.060957 L551.392751,87.9311204 C552.427754,85.9404512 554.880547,85.1657308 556.871216,86.2007341 C557.611945,86.5858592 558.216033,87.1898456 558.601284,87.930509 Z" id="Triangle-Copy" stroke="none" fill-opacity="0.531386582" fill="#FFFFFF" fill-rule="nonzero" opacity="0.507277716" transform="translate(555.000000, 93.500000) rotate(-136.000000) translate(-555.000000, -93.500000) "></path>
                        <path d="M368.101838,48 C370.755352,51.8581504 373.2618,57.1224964 378.408665,57.1292546 C383.556176,57.1360136 383.543725,48.0202763 388.691881,48.0270362 C393.839392,48.0337952 393.851843,57.1495325 399,57.1562924" id="Stroke-1-Copy-3" stroke="#FFFFFF" stroke-width="8" fill="none" opacity="0.6929641" stroke-linecap="round" transform="translate(383.550919, 52.578146) rotate(118.000000) translate(-383.550919, -52.578146) "></path>
                        <circle id="Oval-Copy" stroke="none" fill-opacity="0.122596154" fill="#000000" fill-rule="nonzero" cx="290.5" cy="111.5" r="8.5"></circle>
                    </g>
                </g>
            </g>
        </g>
    </g>
</svg>