<?xml version="1.0" encoding="UTF-8"?>
<svg width="1440px" height="400px" viewBox="0 0 1440 400" version="1.1" xmlns="http://www.w3.org/2000/svg" xmlns:xlink="http://www.w3.org/1999/xlink">
    <!-- Generator: Sketch 58 (84663) - https://sketch.com -->
    <title>gradient-bg2x</title>
    <desc>Created with Sketch.</desc>
    <defs>
        <polygon id="path-1" points="0.437496443 400.994244 1440.4375 400.994244 1440.4375 0.994243741 0.437496443 0.994243741"></polygon>
    </defs>
    <g id="Design" stroke="none" stroke-width="1" fill="none" fill-rule="evenodd">
        <g id="Spiir-Treats">
            <g id="gradient-bg" transform="translate(-0.340398, -0.994244)">
                <mask id="mask-2" fill="white">
                    <use xlink:href="#path-1"></use>
                </mask>
                <use id="gradient" fill="#12AA5D" xlink:href="#path-1"></use>
                <g id="Hero-Section" mask="url(#mask-2)">
                    <g transform="translate(136.340398, 118.994244)">
                        <path d="M670.768457,17.671327 C674.027716,19.414398 676.585602,21.9722837 678.328673,25.231543 C680.071744,28.4908022 681,31.7236646 681,40.638852 L681,113 L756.850626,113.000954 C765.39608,113.034659 768.569554,113.960535 771.768457,115.671327 C775.027716,117.414398 777.585602,119.972284 779.328673,123.231543 C781.071744,126.490802 782,129.723665 782,138.638852 L782,299.361148 C782,308.276335 781.071744,311.509198 779.328673,314.768457 C777.585602,318.027716 775.027716,320.585602 771.768457,322.328673 C768.509198,324.071744 765.276335,325 756.361148,325 L542.638852,325 C533.723665,325 530.490802,324.071744 527.231543,322.328673 C523.972284,320.585602 521.414398,318.027716 519.671327,314.768457 C517.960535,311.569554 517.034659,308.39608 517.000954,299.850626 L517,40.638852 C517,31.7236646 517.928256,28.4908022 519.671327,25.231543 C521.414398,21.9722837 523.972284,19.414398 527.231543,17.671327 C530.430446,15.9605352 533.60392,15.0346593 542.149374,15.0009543 L655.361148,15 C664.276335,15 667.509198,15.9282561 670.768457,17.671327 Z M1131.76846,60.671327 C1135.02772,62.414398 1137.5856,64.9722837 1139.32867,68.231543 C1141.07174,71.4908022 1142,74.7236646 1142,83.638852 L1142.00019,183.004614 C1160.34105,161.578677 1187.58479,148 1218,148 L1220,148 C1275.22847,148 1320,192.771525 1320,248 L1320,325 L1118,325 L1118.0016,324.988666 C1117.47698,324.996212 1116.93066,325 1116.36115,325 L921.638852,325 C912.723665,325 909.490802,324.071744 906.231543,322.328673 C902.972284,320.585602 900.414398,318.027716 898.671327,314.768457 C896.960535,311.569554 896.034659,308.39608 896.000954,299.850626 L896,233.638852 C896,224.723665 896.928256,221.490802 898.671327,218.231543 C900.414398,214.972284 902.972284,212.414398 906.231543,210.671327 C909.430446,208.960535 912.60392,208.034659 921.149374,208.000954 L978,208 L978.000954,83.1493736 C978.034659,74.6039199 978.960535,71.4304456 980.671327,68.231543 C982.414398,64.9722837 984.972284,62.414398 988.231543,60.671327 C991.430446,58.9605352 994.60392,58.0346593 1003.14937,58.0009543 L1116.36115,58 C1125.27634,58 1128.5092,58.9282561 1131.76846,60.671327 Z" id="Combined-Shape" fill="#109C55" fill-rule="nonzero" opacity="0.39343843"></path>
                        <g id="Group-10" stroke-width="1" fill="none" fill-rule="evenodd" transform="translate(28.500000, 269.000000) scale(-1, 1) translate(-28.500000, -269.000000) translate(0.000000, 236.000000)">
                            <path d="M55.5636074,0.656691653 C55.5636074,0.656691653 61.9718811,28.6046653 47.7173852,51.5048221 C33.4628893,74.4038441 16.9855974,62.6309006 16.9855974,62.6309006 C16.9855974,62.6309006 -0.70105763,52.8030916 13.5534382,29.9040696 C27.8068081,7.00504772 55.5636074,0.656691653 55.5636074,0.656691653" id="Fill-16" fill="#FBC234"></path>
                            <path d="M10.5275607,10 C10.5275607,10 0.634385961,23.9100583 0.775108349,42.3821188 C0.915830736,60.8545724 10.9082929,59.9937431 10.9082929,59.9937431 C10.9082929,59.9937431 20.9128729,60.7008809 20.7721505,42.2284273 C20.6314281,23.7559737 10.5275607,10 10.5275607,10" id="Fill-20" fill="#2CB789"></path>
                        </g>
                        <ellipse id="Oval" fill="#2CB789" fill-rule="nonzero" cx="963" cy="408" rx="434" ry="238"></ellipse>
                        <g id="Group-10" stroke-width="1" fill="none" fill-rule="evenodd" transform="translate(1119.000000, 160.000000)">
                            <path d="M34.6739897,0.394014968 C34.6739897,0.394014968 38.5189536,17.1627982 29.9662566,30.9028914 C21.4135596,44.6423038 11.527185,37.5785381 11.527185,37.5785381 C11.527185,37.5785381 0.91519264,31.6818531 9.46788965,17.9424407 C18.019911,4.20302838 34.6739897,0.394014968 34.6739897,0.394014968" id="Fill-16" fill="#FBC234"></path>
                            <path d="M7.45128143,2.19401486 C7.45128143,2.19401486 0.0314008319,12.7100183 0.136942616,26.6748952 C0.2424844,40.6400693 7.73683059,39.9892824 7.73683059,39.9892824 C7.73683059,39.9892824 15.2402651,40.5238786 15.1347233,26.5587045 C15.0291815,12.5935304 7.45128143,2.19401486 7.45128143,2.19401486" id="Fill-20" fill="#2CB789"></path>
                        </g>
                        <path d="M808.909157,223.867892 C814.395385,220.221216 817.882603,212.893508 816.646523,206.42798 C815.408807,199.962451 810.033907,194.483439 803.589922,193.119003 C799.860399,192.328808 795.976981,192.819612 792.191795,192.361528 C788.406608,191.903444 784.356197,190.102193 783.023523,186.532409 C781.301197,181.923757 784.824433,176.572354 783.090648,171.966974 C781.343764,167.330509 775.060224,166.052782 770.372945,167.664256 C765.685665,169.277366 761.98725,172.853694 757.815686,175.530213 C752.822252,178.733529 747.026595,180.675478 741.111422,181.128654 C736.281707,181.501665 731.366859,180.899612 726.612455,181.830504 C721.858051,182.761396 717.025062,185.763483 715.964162,190.488292 C715.083353,194.408182 716.917007,198.853233 714.9622,202.362484 C712.96319,205.946991 708.130201,206.627573 704.873827,209.127403 C700.49434,212.487777 699.680656,219.607711 703.190794,223.867892 L808.909157,223.867892 Z" id="Fill-24" fill="#2CB789" fill-rule="evenodd" transform="translate(758.947805, 195.433946) rotate(-19.000000) translate(-758.947805, -195.433946) "></path>
                        <g id="Group-12" stroke-width="1" fill="none" fill-rule="evenodd" transform="translate(844.000000, 143.000000) rotate(1.000000) translate(-844.000000, -143.000000) translate(821.000000, 1.000000)">
                            <polygon id="Fill-44" fill="#FBC234" transform="translate(21.384228, 40.790925) rotate(-1.000000) translate(-21.384228, -40.790925) " points="32.3154927 55.290925 10.4524769 55.2907355 6.99127368 26.290925 35.7771825 26.2911746"></polygon>
                            <path d="M34.406528,57.2692996 C36.0438832,57.2692996 37.3706034,58.5950431 37.3706034,60.2311929 L37.3706034,60.8614838 C37.3706034,62.4976337 36.0438832,63.8233772 34.406528,63.8233772 L25.592,63.8232996 L25.592,208.6933 L30.0755397,208.6942 C31.0987385,208.6942 31.927494,209.52353 31.927494,210.545976 L31.927494,224.731075 C31.927494,225.403035 31.5687043,225.991904 31.0318105,226.316115 C31.6691527,226.732252 32.1086377,227.426888 32.177279,228.229152 L32.1860799,228.394108 L33.184,274.7793 L35.9917155,274.780201 C39.9481633,274.780201 43.1552928,277.986154 43.1552928,281.938505 L43.1552928,282.700304 L2.79999995,282.700304 L2.79999995,281.938505 C2.79999995,277.986154 6.00712946,274.780201 9.96357722,274.780201 L12.538,274.7793 L14.5379754,228.339609 C14.5689689,227.611482 14.9036612,226.96563 15.4165768,226.5215 C14.6180231,226.317796 14.0280359,225.592753 14.0280359,224.731075 L14.0280359,210.545976 C14.0280359,209.52353 14.8567913,208.6942 15.8799901,208.6942 L20.362,208.6933 L20.362,63.8232996 L11.4124172,63.8233772 C9.77506202,63.8233772 8.44834191,62.4976337 8.44834191,60.8614838 L8.44834191,60.2311929 C8.44834191,58.5950431 9.77506202,57.2692996 11.4124172,57.2692996 L34.406528,57.2692996 Z M23.2997821,0.399999976 C24.9703349,0.399999976 26.3255102,1.7541776 26.3255102,3.42350068 L26.324869,5.51899998 L30.3184753,5.51992878 C36.0747096,5.51992878 40.7413498,10.1831336 40.7413498,15.9351305 L40.741583,18.4659929 C41.7871669,18.9235266 42.5174238,19.9665392 42.5174238,21.1804066 L42.5174238,21.8106975 C42.5174238,23.4468474 41.1907037,24.7725908 39.5533484,24.7725908 L6.4019443,24.7725908 C4.76458908,24.7725908 3.43786896,23.4468474 3.43786896,21.8106975 L3.43786896,21.1804066 C3.43786896,19.8634243 4.29746227,18.747557 5.48674072,18.3623227 L5.48782346,15.9351305 C5.48782346,10.1831336 10.1544637,5.51992878 15.9095123,5.51992878 L19.629869,5.51899998 L19.6302568,3.42350068 C19.6302568,1.7541776 20.9842464,0.399999976 22.6559849,0.399999976 L23.2997821,0.399999976 Z" id="Combined-Shape" fill="#A3DFD2" transform="translate(22.977646, 141.550152) rotate(-1.000000) translate(-22.977646, -141.550152) "></path>
                        </g>
                        <g id="tingling-things" stroke-width="1" fill="none" fill-rule="evenodd" transform="translate(595.000000, 48.000000)">
                            <ellipse id="Oval-Copy-5" fill-opacity="0.20703125" fill="#000000" fill-rule="nonzero" opacity="0.609561012" cx="6.86660215" cy="183.866078" rx="6.86660215" ry="6.86607849"></ellipse>
                            <ellipse id="Oval-Copy-6" fill="#FFFFFF" fill-rule="nonzero" cx="208.866602" cy="85.8660785" rx="6.86660215" ry="6.86607849"></ellipse>
                            <path d="M325.601284,92.930509 L331.911382,105.061982 C332.946723,107.052475 332.172419,109.505399 330.181926,110.54074 C329.602775,110.841981 328.959558,110.999217 328.306748,110.999132 L315.690017,110.997497 C313.44636,110.997206 311.627752,109.178127 311.628043,106.93447 C311.628128,106.282249 311.785247,105.639636 312.086118,105.060957 L318.392751,92.9311204 C319.427754,90.9404512 321.880547,90.1657308 323.871216,91.2007341 C324.611945,91.5858592 325.216033,92.1898456 325.601284,92.930509 Z" id="Triangle-Copy" fill-opacity="0.531386582" fill="#FFFFFF" fill-rule="nonzero" opacity="0.507277716" transform="translate(322.000000, 98.500000) rotate(-244.000000) translate(-322.000000, -98.500000) "></path>
                            <path d="M108.877889,9.617345 C110.938993,12.566907 112.885865,16.5915078 116.883668,16.5966745 C120.881972,16.6018418 120.872301,9.63284627 124.871107,9.63801422 C128.869412,9.64318152 128.879083,16.6121771 132.877889,16.617345" id="Stroke-1-Copy-3" stroke="#FFFFFF" stroke-width="8" opacity="0.6929641" stroke-linecap="round" transform="translate(120.877889, 13.117345) rotate(118.000000) translate(-120.877889, -13.117345) "></path>
                            <circle id="Oval-Copy" fill-opacity="0.122596154" fill="#000000" fill-rule="nonzero" cx="570.09868" cy="25.007648" r="8.5"></circle>
                        </g>
                        <g id="icecream-cart" stroke-width="1" fill="none" fill-rule="evenodd" transform="translate(920.000000, 79.000000)">
                            <path d="M54.3265052,177.578049 C54.5276309,178.427037 54.5119669,179.301088 54.3265052,180.097446 L53.129679,185.161797 C56.2504979,186.690394 58.3991447,189.897875 58.3991447,193.607081 C58.3991447,198.797503 54.1917948,203.00548 49.0007458,203.00548 C43.8103233,203.00548 39.6023469,198.797503 39.6023469,193.607081 C39.6023469,189.897875 41.7513136,186.690394 44.8720865,185.161797 L43.6749864,180.097446 C42.9795049,177.155747 44.800288,174.207783 47.7413603,173.511675 C50.6830592,172.816193 53.6310237,174.63635 54.3265052,177.578049 Z M52.298139,188.67361 L51.1310496,193.607331 C50.8528569,194.783384 49.6736712,195.512073 48.4969916,195.233254 C47.6642935,195.036514 47.0565303,194.386145 46.8710686,193.607331 L45.7037285,188.67361 C44.1143252,189.738274 43.0680378,191.550746 43.0680378,193.607081 C43.0680378,196.883989 45.7240253,199.540603 49.0009338,199.540603 C52.2778422,199.540603 54.9338297,196.883989 54.9338297,193.607081 C54.9338297,191.550746 53.8875423,189.738274 52.298139,188.67361 Z" id="Combined-Shape" fill="#FFFFFF" opacity="0.451939174"></path>
                            <path d="M0,101.920687 C0,104.701986 2.25561574,106.957602 5.03754183,106.957602 C7.81884135,106.957602 10.0744571,104.701986 10.0744571,101.920687 C10.0744571,99.1387605 7.81884135,96.8831448 5.03754183,96.8831448 C2.25561574,96.8831448 0,99.1387605 0,101.920687" id="Fill-7" fill="#70CC9D"></path>
                            <path d="M5.72343698,99.0509795 L34.0539707,103.383641 C36.9712338,103.830379 38.9743458,106.556541 38.5282352,109.475057 C38.0821245,112.39232 35.3553357,114.395432 32.4380727,113.949321 C32.1504817,113.905462 31.8434673,113.829649 31.5765528,113.743183 L4.35127074,104.790268 C2.79740211,104.279622 1.95217277,102.606081 2.46344567,101.052212 C2.92208754,99.658116 4.31868962,98.8341897 5.72343698,99.0509795" id="Fill-10" fill="#A6E0D7"></path>
                            <polygon id="Fill-14" fill-opacity="0.398410184" fill="#FFFFFF" points="175.728381 101.967804 180.496502 101.967804 180.496502 38.5712172 175.728381 38.5712172"></polygon>
                            <polygon id="Fill-16" fill-opacity="0.398410184" fill="#FFFFFF" points="159.880801 101.967804 164.648922 101.967804 164.648922 32.8582438 159.880801 32.8582438"></polygon>
                            <polygon id="Fill-17" fill-opacity="0.398410184" fill="#FFFFFF" points="25.0425979 101.967804 29.8100924 101.967804 29.8100924 38.5712172 25.0425979 38.5712172"></polygon>
                            <polygon id="Fill-18" fill-opacity="0.398410184" fill="#FFFFFF" points="40.8901781 101.967804 45.6576726 101.967804 45.6576726 32.8582438 40.8901781 32.8582438"></polygon>
                            <path d="M35.6047985,181.462006 L169.612182,181.462006 L169.612182,181.462006 C175.403476,181.462006 180.098916,176.767193 180.098916,170.975899 L180.098916,102.079996 L24.6399991,102.079996 L24.6399991,170.497207 C24.6399991,176.552898 29.549107,181.462006 35.6047985,181.462006 Z" id="Fill-19" fill="#A6E0D7"></path>
                            <circle id="Oval" fill-opacity="0.345962631" fill="#FFFFFF" fill-rule="nonzero" cx="102.959996" cy="145.199994" r="26.399999"></circle>
                            <path d="M92.9279261,143.087995 C93.2095261,143.299195 93.5263261,143.404795 93.8783261,143.404795 C94.0191261,143.404795 94.1599261,143.369595 94.2655261,143.334395 C94.758326,143.193595 95.180726,142.806395 95.356726,142.278395 C95.356726,142.243195 95.356726,142.243195 95.391926,142.207995 C95.462326,141.961595 95.708726,141.820795 95.955126,141.820795 L96.131126,141.820795 C96.377526,141.820795 96.623926,141.961595 96.694326,142.207995 C96.694326,142.243195 96.729526,142.243195 96.729526,142.278395 C96.905526,142.911995 97.539126,143.369595 98.207926,143.369595 C98.8767259,143.369595 99.5103259,142.911995 99.6863259,142.278395 C99.6863259,142.243195 99.6863259,142.243195 99.7215259,142.207995 C99.7919259,141.961595 100.038326,141.820795 100.284726,141.820795 L100.460726,141.820795 C100.707126,141.820795 100.953526,141.961595 101.023926,142.207995 C101.023926,142.243195 101.059126,142.243195 101.059126,142.278395 C101.235126,142.911995 101.868726,143.369595 102.537526,143.369595 C103.206326,143.369595 103.839926,142.911995 104.015926,142.278395 C104.015926,142.243195 104.015926,142.243195 104.051478,142.207995 C104.121526,141.961595 104.367926,141.820795 104.614326,141.820795 L104.790326,141.820795 C105.036726,141.820795 105.283478,141.961595 105.353526,142.207995 C105.353526,142.243195 105.388726,142.243195 105.388726,142.278395 C105.564726,142.911995 106.198326,143.369595 106.867478,143.369595 C107.535926,143.369595 108.169526,142.911995 108.345526,142.278395 C108.345526,142.243195 108.345526,142.243195 108.380726,142.207995 C108.451478,141.961595 108.697526,141.820795 108.943926,141.820795 L109.119926,141.820795 C109.366326,141.820795 109.612726,141.961595 109.683478,142.207995 C109.683478,142.243195 109.718326,142.243195 109.718326,142.278395 C109.859478,142.771195 110.281526,143.158395 110.774326,143.299195 C110.985526,143.369595 111.196726,143.369595 111.407926,143.369595 C112.111926,143.263995 112.639926,142.595195 112.639926,141.820795 L112.639926,139.427195 C112.604726,133.900795 108.063926,129.359995 102.502326,129.359995 C96.940726,129.359995 92.3999261,133.900795 92.3999261,139.462395 L92.3999261,141.926395 C92.3999261,142.419195 92.6111261,142.841595 92.9279261,143.087995 M109.190326,144.460795 C109.084726,144.355195 108.908726,144.355195 108.767926,144.460795 C108.275478,144.953595 107.571478,145.270395 106.796726,145.270395 C106.057526,145.270395 105.353526,144.953595 104.825526,144.460795 C104.719926,144.355195 104.543926,144.355195 104.403478,144.460795 C103.910326,144.953595 103.206326,145.270395 102.431926,145.270395 C101.692726,145.270395 100.988726,144.953595 100.460726,144.460795 C100.355126,144.355195 100.179126,144.355195 100.038326,144.460795 C99.5455259,144.953595 98.8415259,145.270395 98.067126,145.270395 C97.327926,145.270395 96.623926,144.953595 96.095926,144.460795 C95.990326,144.355195 95.814326,144.355195 95.673526,144.460795 C95.427126,144.707195 95.145526,144.883195 94.863926,145.023995 C94.723126,145.094395 94.652726,145.235195 94.723126,145.375995 L102.079926,160.863994 C102.185526,161.110394 102.502326,161.110394 102.607926,160.863994 L110.070326,145.375995 C110.140726,145.235195 110.070326,145.059195 109.929526,145.023995 C109.718326,144.883195 109.436726,144.707195 109.190326,144.460795" id="Fill-1" fill="#FFFFFF"></path>
                            <polygon id="Fill-20" fill-opacity="0.139067963" fill="#000000" points="25.0382119 112.160681 180.497129 112.160681 180.497129 101.967804 25.0382119 101.967804"></polygon>
                            <path d="M24.8989903,106.934983 L180.6361,106.934983 C182.007013,106.934983 183.11853,105.823466 183.11853,104.451299 C183.11853,103.080386 182.007013,101.967616 180.6361,101.967616 L24.8989903,101.967616 C23.5280772,101.967616 22.4153068,103.080386 22.4153068,104.451299 C22.4153068,105.823466 23.5280772,106.934983 24.8989903,106.934983" id="Fill-21" fill="#A6E0D7"></path>
                            <polygon id="Fill-22" fill="#89D5AE" points="175.273373 34.0190713 191.360926 34.0190713 179.936232 0 166.133744 0"></polygon>
                            <polygon id="Fill-23" fill="#FFFFFF" opacity="0.773763021" points="159.186572 34.0190713 175.273499 34.0190713 166.133869 0 152.332007 0"></polygon>
                            <polygon id="Fill-24" fill="#89D5AE" points="143.099772 34.0190713 159.186698 34.0190713 152.331506 0 138.529643 0"></polygon>
                            <polygon id="Fill-25" fill="#FFFFFF" opacity="0.773763021" points="127.012344 34.0190713 143.099897 34.0190713 138.529769 0 124.727907 0"></polygon>
                            <polygon id="Fill-26" fill="#89D5AE" points="110.925543 34.0190713 127.012469 34.0190713 124.727405 0 110.925543 0"></polygon>
                            <polygon id="Fill-27" fill="#FFFFFF" opacity="0.773763021" points="94.8387424 34.0190713 110.925669 34.0190713 110.925669 0 97.1231799 0"></polygon>
                            <polygon id="Fill-28" fill="#89D5AE" points="78.751315 34.0190713 94.8388677 34.0190713 97.1233052 0 83.3214431 0"></polygon>
                            <polygon id="Fill-29" fill="#FFFFFF" opacity="0.773763021" points="62.6645141 34.0190713 78.7514403 34.0190713 83.3215684 0 69.5190797 0"></polygon>
                            <polygon id="Fill-30" fill="#89D5AE" points="46.5777132 34.0190713 62.6646394 34.0190713 69.519205 0 55.7173429 0"></polygon>
                            <polygon id="Fill-31" fill="#89D5AE" points="14.4035476 34.0190713 30.4911003 34.0190713 41.9151675 0 28.1133054 0"></polygon>
                            <polygon id="Fill-32" fill="#FFFFFF" opacity="0.773763021" points="30.4909124 34.0190713 46.5778385 34.0190713 55.7174682 0 41.9149796 0"></polygon>
                            <path d="M175.273373,34.0190713 L191.360926,34.0190713 L191.360926,41.0735096 C191.360926,44.2614465 188.776366,46.8460062 185.587803,46.8460062 L181.046496,46.8460062 C177.85856,46.8460062 175.273373,44.2614465 175.273373,41.0735096 L175.273373,34.0190713 Z" id="Fill-33" fill="#7DC29E"></path>
                            <path d="M159.186572,34.0190713 L175.273499,34.0190713 L175.273499,41.0735096 C175.273499,44.2614465 172.688939,46.8460062 169.501002,46.8460062 L164.959696,46.8460062 C161.771132,46.8460062 159.186572,44.2614465 159.186572,41.0735096 L159.186572,34.0190713 Z" id="Fill-34" fill-opacity="0.88" fill="#C9EBDA"></path>
                            <path d="M143.099772,34.0190713 L159.186698,34.0190713 L159.186698,41.0735096 C159.186698,44.2614465 156.602138,46.8460062 153.413575,46.8460062 L148.872268,46.8460062 C145.684331,46.8460062 143.099772,44.2614465 143.099772,41.0735096 L143.099772,34.0190713 Z" id="Fill-35" fill="#7DC29E"></path>
                            <path d="M127.012344,34.0190713 L143.099897,34.0190713 L143.099897,41.0735096 C143.099897,44.2614465 140.515337,46.8460062 137.326774,46.8460062 L132.785467,46.8460062 C129.59753,46.8460062 127.012344,44.2614465 127.012344,41.0735096 L127.012344,34.0190713 Z" id="Fill-36" fill-opacity="0.88" fill="#C9EBDA"></path>
                            <path d="M110.925543,34.0190713 L127.012469,34.0190713 L127.012469,41.0735096 C127.012469,44.2614465 124.42791,46.8460062 121.239973,46.8460062 L116.698666,46.8460062 C113.510103,46.8460062 110.925543,44.2614465 110.925543,41.0735096 L110.925543,34.0190713 Z" id="Fill-37" fill="#7DC29E"></path>
                            <path d="M94.8387424,34.0190713 L110.925669,34.0190713 L110.925669,41.0735096 C110.925669,44.2614465 108.341109,46.8460062 105.152545,46.8460062 L100.611239,46.8460062 C97.4233021,46.8460062 94.8387424,44.2614465 94.8387424,41.0735096 L94.8387424,34.0190713 Z" id="Fill-38" fill-opacity="0.88" fill="#C9EBDA"></path>
                            <path d="M78.751315,34.0190713 L94.8388677,34.0190713 L94.8388677,41.0735096 C94.8388677,44.2614465 92.254308,46.8460062 89.0657445,46.8460062 L84.5244381,46.8460062 C81.3365012,46.8460062 78.751315,44.2614465 78.751315,41.0735096 L78.751315,34.0190713 Z" id="Fill-39" fill="#7DC29E"></path>
                            <path d="M62.6645141,34.0190713 L78.7514403,34.0190713 L78.7514403,41.0735096 C78.7514403,44.2614465 76.1668806,46.8460062 72.9789436,46.8460062 L68.4376373,46.8460062 C65.2490738,46.8460062 62.6645141,44.2614465 62.6645141,41.0735096 L62.6645141,34.0190713 Z" id="Fill-40" fill-opacity="0.88" fill="#C9EBDA"></path>
                            <path d="M46.5777132,34.0190713 L62.6646394,34.0190713 L62.6646394,41.0735096 C62.6646394,44.2614465 60.0800797,46.8460062 56.8915162,46.8460062 L52.3508364,46.8460062 C49.1622729,46.8460062 46.5777132,44.2614465 46.5777132,41.0735096 L46.5777132,34.0190713 Z" id="Fill-41" fill="#7DC29E"></path>
                            <path d="M14.4035476,34.0190713 L30.4911003,34.0190713 L30.4911003,41.0735096 C30.4911003,44.2614465 27.9059141,46.8460062 24.7179772,46.8460062 L20.1766708,46.8460062 C16.9881073,46.8460062 14.4035476,44.2614465 14.4035476,41.0735096 L14.4035476,34.0190713 Z" id="Fill-42" fill="#7DC29E"></path>
                            <path d="M30.4903485,34.0190713 L46.5779012,34.0190713 L46.5779012,41.0735096 C46.5779012,44.2614465 43.9933415,46.8460062 40.804778,46.8460062 L36.2634717,46.8460062 C33.0755347,46.8460062 30.4903485,44.2614465 30.4903485,41.0735096 L30.4903485,34.0190713 Z" id="Fill-43" fill-opacity="0.88" fill="#C9EBDA"></path>
                            <path d="M171.464453,140.98131 C188.603373,140.98131 202.496713,154.875276 202.496713,172.014196 C202.496713,189.153117 188.603373,203.047083 171.464453,203.047083 C154.325532,203.047083 140.431566,189.153117 140.431566,172.014196 C140.431566,154.875276 154.325532,140.98131 171.464453,140.98131 Z M171.464453,147.560189 C157.958954,147.560189 147.010445,158.508697 147.010445,172.014196 C147.010445,185.519696 157.958954,196.468204 171.464453,196.468204 C184.969952,196.468204 195.917834,185.519696 195.917834,172.014196 C195.917834,158.508697 184.969952,147.560189 171.464453,147.560189 Z" id="Combined-Shape" fill-opacity="0.573262675" fill="#FFFFFF"></path>
                            <path d="M162.047696,172.014008 C162.047696,177.215082 166.263817,181.430578 171.464265,181.430578 C176.664712,181.430578 180.880834,177.215082 180.880834,172.014008 C180.880834,166.813561 176.664712,162.598066 171.464265,162.598066 C166.263817,162.598066 162.047696,166.813561 162.047696,172.014008" id="Fill-46" fill="#A6E0D7"></path>
                            <path d="M166.8093,172.014008 C166.8093,174.58541 168.893239,176.669975 171.464641,176.669975 C174.035416,176.669975 176.119354,174.58541 176.119354,172.014008 C176.119354,169.442607 174.035416,167.358668 171.464641,167.358668 C168.893239,167.358668 166.8093,169.442607 166.8093,172.014008" id="Fill-47" fill="#FFFFFF"></path>
                        </g>
                    </g>
                </g>
            </g>
        </g>
    </g>
</svg>