<svg id="letter" xmlns="http://www.w3.org/2000/svg" xmlns:xlink="http://www.w3.org/1999/xlink" width="1440" height="343" viewBox="0 0 1440 343">
  <defs>
    <linearGradient id="linear-gradient" x1="0.5" x2="0.5" y2="0.5" gradientUnits="objectBoundingBox">
      <stop offset="0" stop-color="#0b9b52"/>
      <stop offset="1" stop-color="#12aa5d"/>
    </linearGradient>
    <clipPath id="clip-path">
      <rect id="Mask" width="1440" height="343" fill="url(#linear-gradient)"/>
    </clipPath>
  </defs>
  <rect id="Mask-2" data-name="Mask" width="1440" height="343" fill="url(#linear-gradient)"/>
  <g id="letter-2" data-name="letter" clip-path="url(#clip-path)">
    <g id="City_bg" data-name="City bg" transform="translate(756 73)">
      <path id="Fill_3" data-name="Fill 3" d="M186.083,7.465A7.411,7.411,0,0,0,178.726,0H109.838a6.809,6.809,0,0,0-4.8,2.021,7.487,7.487,0,0,0-2.334,5.444v11.6H92.342a5.915,5.915,0,0,0-5.915,5.915V73.89H5.915A5.915,5.915,0,0,0,0,79.805v196.05H202.361V24.976a5.915,5.915,0,0,0-5.915-5.915H186.083Z" transform="translate(335.047)" opacity="0.084"/>
      <path id="Fill_1" data-name="Fill 1" d="M15.875,18.291a16.8,16.8,0,0,1,14.648,8.56,7.827,7.827,0,0,1,11.89-1.2A16.825,16.825,0,0,1,62.945,11.737,20.088,20.088,0,0,1,100.74,24.8a9.385,9.385,0,0,1,10.293,2.774,3.739,3.739,0,0,1,.9-.109,3.791,3.791,0,0,1,1.628.365,4.817,4.817,0,1,1,9.4,1.734H0A16.813,16.813,0,0,1,15.875,18.291" transform="translate(146.277 42.893)" fill="#fff" opacity="0.2"/>
      <path id="Fill_1-2" data-name="Fill 1" d="M6.786,11.175a6.8,6.8,0,0,1,1.907.272A11.759,11.759,0,0,1,23.184,5.61,11.742,11.742,0,0,1,44.82,10.077a6.794,6.794,0,0,1,8.257,5.292,3.891,3.891,0,0,1,2.957-.05,5.817,5.817,0,0,1,10.891,2.838,5.885,5.885,0,0,1-.05.765H.07A6.714,6.714,0,0,1,0,17.953a6.782,6.782,0,0,1,6.786-6.778" transform="translate(332.256 23.988)" fill="#fff" opacity="0.581"/>
      <path id="Fill_6" data-name="Fill 6" d="M0,84.653C5.5,37.432,82.395,0,176.459,0s170.959,37.432,176.46,84.653Z" transform="translate(365.747 190.881)" fill="#2cb789"/>
      <path id="Fill_9" data-name="Fill 9" d="M0,84.653C5.028,37.432,75.311,0,161.289,0S317.551,37.432,322.578,84.653Z" transform="translate(0 214.533)" opacity="0.08"/>
      <path id="Fill_14" data-name="Fill 14" d="M28.823,0s2.052,17.117-7.06,33.373-17.6,10.621-17.6,10.621S-5.1,39.74,4.011,23.485,28.823,0,28.823,0" transform="translate(129.112 174.177)" fill="#6fcfe0"/>
      <path id="Fill_18" data-name="Fill 18" d="M14.672,0S1.571,15.727.121,37.782,10.746,59.689,10.746,59.689,22.7,61.414,24.15,39.36,14.672,0,14.672,0" transform="translate(117.859 158.212)" fill="#a5e0d4"/>
      <path id="Fill_16" data-name="Fill 16" d="M35.772,0s4.82,20.841-5.9,37.917-23.113,8.3-23.113,8.3-13.3-7.329-2.581-24.4S35.772,0,35.772,0" transform="translate(525.971 144.999)" fill="#a7e1d8"/>
      <path id="Fill_20" data-name="Fill 20" d="M9.243,0S-.132,13,0,30.253,9.6,46.706,9.6,46.706s9.48.661,9.347-16.6S9.243,0,9.243,0" transform="translate(518.225 146.977)" fill="#2cb789"/>
      <path id="Fill_22" data-name="Fill 22" d="M45.906,25.386a7.715,7.715,0,0,0,3.852-7.208A7.392,7.392,0,0,0,44.6,12.084c-1.568-.454-3.243-.366-4.845-.68s-3.276-1.211-3.734-2.777c-.59-2.023,1.082-4.2.486-6.219S33.262-.371,31.209.172,27.464,2.125,25.6,3.137a15.512,15.512,0,0,1-7.31,1.869c-2.076.008-4.156-.4-6.216-.155s-4.218,1.38-4.82,3.365c-.5,1.647.146,3.6-.8,5.041C5.484,14.725,3.4,14.863,1.929,15.83A4.6,4.6,0,0,0,.747,22.074Z" transform="translate(129.704 197.829)" fill="#109c55"/>
      <path id="Fill_24" data-name="Fill 24" d="M55.819,29.416a9.319,9.319,0,0,0,4-9.021,8.93,8.93,0,0,0-6.754-6.884c-1.929-.409-3.938-.155-5.9-.392S43.118,11.95,42.429,10.1c-.891-2.384.932-5.152.035-7.534C41.56.171,38.31-.49,35.885.344s-4.338,2.684-6.5,4.069a18.732,18.732,0,0,1-8.641,2.9c-2.5.193-5.041-.118-7.5.363S8.289,9.706,7.741,12.15c-.456,2.028.493,4.327-.518,6.142C6.188,20.146,3.688,20.5,2,21.791a5.55,5.55,0,0,0-.871,7.625Z" transform="translate(366.651 121.69)" fill="#2cb789"/>
    </g>
  </g>
</svg>
