<svg xmlns="http://www.w3.org/2000/svg" width="82.786" height="39.122" viewBox="0 0 82.786 39.122">
  <g id="Group" transform="translate(-0.221 -0.529)">
    <g id="Spiir" transform="translate(0.221 0.529)">
      <path id="Shape" d="M1.25,21.46A2.643,2.643,0,0,1,0,19.2a2.552,2.552,0,0,1,2.585-2.612,2.491,2.491,0,0,1,1.293.349,12.083,12.083,0,0,0,6.249,2.089c1.9,0,2.758-.7,2.758-1.741v-.087c0-1.437-2.242-1.915-4.783-2.7-3.232-.957-6.9-2.481-6.9-7.009V7.4C1.207,2.654,5,0,9.652,0a16.117,16.117,0,0,1,7.153,1.784,2.7,2.7,0,0,1,1.552,2.481,2.59,2.59,0,0,1-2.63,2.613,2.372,2.372,0,0,1-1.206-.306,12.236,12.236,0,0,0-5-1.48c-1.6,0-2.414.7-2.414,1.611v.086c0,1.306,2.2,1.916,4.7,2.787,3.232,1.088,6.982,2.655,6.982,6.921v.087c0,5.18-3.836,7.531-8.834,7.531a15.981,15.981,0,0,1-8.7-2.655" transform="translate(0 8.128)" fill="#fff"/>
      <path id="Shape-2" data-name="Shape" d="M3.274,30.994A3.3,3.3,0,0,1,0,27.686V3.482A3.3,3.3,0,0,1,3.274.175,3.3,3.3,0,0,1,6.55,3.482v.305A8.467,8.467,0,0,1,13.746,0a9.993,9.993,0,0,1,7.277,3.107,12.616,12.616,0,0,1,3.237,8.951v.087a12.655,12.655,0,0,1-3.205,8.95,10,10,0,0,1-7.31,3.107,8.794,8.794,0,0,1-7.2-3.482v6.965A3.3,3.3,0,0,1,3.274,30.994ZM12.065,5.615A5.268,5.268,0,0,0,8.117,7.383a6.916,6.916,0,0,0-1.653,4.674v.088a6.916,6.916,0,0,0,1.653,4.674,5.268,5.268,0,0,0,3.948,1.768,5.334,5.334,0,0,0,3.97-1.752,6.875,6.875,0,0,0,1.675-4.69v-.088a6.872,6.872,0,0,0-1.675-4.674A5.326,5.326,0,0,0,12.065,5.615Z" transform="translate(20.913 8.128)" fill="#fff"/>
      <path id="Shape-3" data-name="Shape" d="M3.664,32.256A3.3,3.3,0,0,1,.388,28.948V11.709A3.3,3.3,0,0,1,3.664,8.4a3.3,3.3,0,0,1,3.274,3.307V28.948A3.3,3.3,0,0,1,3.664,32.256Zm0-25.944C1.506,6.312,0,5.023,0,3.178V3.091A2.818,2.818,0,0,1,1.056.827,4.134,4.134,0,0,1,3.663,0,4.134,4.134,0,0,1,6.27.827,2.818,2.818,0,0,1,7.326,3.091v.087C7.326,5.023,5.82,6.312,3.663,6.312Z" transform="translate(47.696 0)" fill="#fff"/>
      <path id="Shape-4" data-name="Shape" d="M3.664,32.256A3.3,3.3,0,0,1,.388,28.948V11.709A3.3,3.3,0,0,1,3.664,8.4a3.3,3.3,0,0,1,3.274,3.307V28.948A3.3,3.3,0,0,1,3.664,32.256Zm0-25.944C1.506,6.312,0,5.023,0,3.178V3.091A2.818,2.818,0,0,1,1.056.827,4.134,4.134,0,0,1,3.663,0,4.134,4.134,0,0,1,6.27.827,2.818,2.818,0,0,1,7.326,3.091v.087C7.326,5.023,5.82,6.312,3.663,6.312Z" transform="translate(57.969 0)" fill="#fff"/>
      <path id="Shape-5" data-name="Shape" d="M0,3.308a3.275,3.275,0,1,1,6.55,0V4.353C7.5,2.09,9.049,0,10.989,0a3,3,0,0,1,3.189,3.221,3.036,3.036,0,0,1-2.457,3.091C8.4,7.1,6.55,9.664,6.55,14.365v6.181a3.275,3.275,0,1,1-6.55,0V3.308Z" transform="translate(68.609 8.128)" fill="#fff"/>
    </g>
  </g>
</svg>
