<svg xmlns="http://www.w3.org/2000/svg" xmlns:xlink="http://www.w3.org/1999/xlink" width="148.588" height="47.952" viewBox="0 0 148.588 47.952">
  <defs>
    <clipPath id="clip-path">
      <path id="Clip_2" data-name="Clip 2" d="M0,47.952H148.588V0H0V47.952Z" transform="translate(0.066 0.048)" fill="none"/>
    </clipPath>
  </defs>
  <g id="Download_on_the_App_Store_Badge_DK_135x40" transform="translate(-0.066 -0.048)">
    <g id="Group_3" data-name="Group 3">
      <path id="Clip_2-2" data-name="Clip 2" d="M0,47.952H148.588V0H0V47.952Z" transform="translate(0.066 0.048)" fill="none"/>
      <g id="Group_3-2" data-name="Group 3" clip-path="url(#clip-path)">
        <path id="Fill_1" data-name="Fill 1" d="M143.365,48H5.207A5.469,5.469,0,0,1,0,42.32V5.671A5.461,5.461,0,0,1,5.207,0H143.365a5.527,5.527,0,0,1,5.289,5.671V42.32A5.535,5.535,0,0,1,143.365,48" fill="#a9aaa9"/>
      </g>
    </g>
    <path id="Fill_4" data-name="Fill 4" d="M146.608,41.254a4.418,4.418,0,0,1-4.222,4.6H4.227A4.424,4.424,0,0,1,0,41.254V4.6A4.43,4.43,0,0,1,4.227,0H142.385a4.424,4.424,0,0,1,4.222,4.6V41.254h0" transform="translate(0.98 1.068)" fill="#0a0b09"/>
    <path id="Fill_5" data-name="Fill 5" d="M19.089,8.9a7.03,7.03,0,0,1,3.04-5.838A6.367,6.367,0,0,0,16.981.025c-2.166-.248-4.267,1.412-5.37,1.412C10.485,1.438,8.785.049,6.955.09a6.806,6.806,0,0,0-5.77,3.835C-1.31,8.633.551,15.551,2.941,19.356c1.2,1.864,2.593,3.944,4.421,3.871,1.789-.082,2.458-1.244,4.618-1.244,2.14,0,2.767,1.244,4.632,1.2,1.92-.035,3.129-1.872,4.283-3.752a16.08,16.08,0,0,0,1.959-4.349A6.658,6.658,0,0,1,19.089,8.9" transform="translate(14.086 14.845)" fill="#fffffe"/>
    <path id="Fill_6" data-name="Fill 6" d="M4.208,4.907A7.266,7.266,0,0,0,5.645,0,6.231,6.231,0,0,0,1.508,2.333,6.889,6.889,0,0,0,.033,7.058,5.128,5.128,0,0,0,4.208,4.907" transform="translate(25.443 7.46)" fill="#fffffe"/>
    <path id="Fill_7" data-name="Fill 7" d="M2.434,15.97H0L4.717,0H7.631L12.37,15.968h-2.5L8.5,11.279H3.74L2.435,15.97ZM6.065,2.132h0c-.142.671-.37,1.656-.7,3.01L4.153,9.311H8.087L6.848,5.142c-.129-.418-.371-1.4-.74-3.01Z" transform="translate(46.7 21.835)" fill="#fffffe"/>
    <path id="Fill_8" data-name="Fill 8" d="M2.435,16.442H.087V4.028C.087,2.815.058,1.54,0,.237H2.065L2.2,2.062H2.24A3.852,3.852,0,0,1,5.8,0a3.821,3.821,0,0,1,3.12,1.61,6.761,6.761,0,0,1,1.25,4.243,6.941,6.941,0,0,1-1.457,4.642,4.119,4.119,0,0,1-3.239,1.517,3.182,3.182,0,0,1-3-1.636H2.434v6.065ZM5.044,2.037a2.325,2.325,0,0,0-1.576.628,2.975,2.975,0,0,0-.924,1.648,3.634,3.634,0,0,0-.109.78v1.92a3.252,3.252,0,0,0,.707,2.12A2.268,2.268,0,0,0,4.978,10,2.355,2.355,0,0,0,7.044,8.885a5.26,5.26,0,0,0,.739-2.938,5.079,5.079,0,0,0-.7-2.772A2.358,2.358,0,0,0,5.044,2.037Z" transform="translate(61.027 26.053)" fill="#fffffe"/>
    <path id="Fill_9" data-name="Fill 9" d="M2.435,16.442H.087V4.028C.087,2.815.058,1.54,0,.237H2.066L2.2,2.062H2.24A3.852,3.852,0,0,1,5.8,0a3.821,3.821,0,0,1,3.12,1.61,6.771,6.771,0,0,1,1.25,4.243,6.937,6.937,0,0,1-1.458,4.642,4.115,4.115,0,0,1-3.238,1.517,3.178,3.178,0,0,1-3-1.636H2.434v6.065ZM5.044,2.037a2.329,2.329,0,0,0-1.577.628,2.985,2.985,0,0,0-.923,1.648,3.7,3.7,0,0,0-.109.78v1.92a3.264,3.264,0,0,0,.7,2.12A2.273,2.273,0,0,0,4.978,10,2.351,2.351,0,0,0,7.043,8.885a5.246,5.246,0,0,0,.741-2.938,5.093,5.093,0,0,0-.7-2.772A2.358,2.358,0,0,0,5.044,2.037Z" transform="translate(73.181 26.053)" fill="#fffffe"/>
    <path id="Fill_10" data-name="Fill 10" d="M9.091,11.729a4.442,4.442,0,0,1-1.3,3.316,5.463,5.463,0,0,1-3.992,1.4A6.54,6.54,0,0,1,0,15.448l.544-2.132a6.04,6.04,0,0,0,3.394,1.019A3.02,3.02,0,0,0,6,13.681a2.208,2.208,0,0,0,.738-1.745A2.326,2.326,0,0,0,6.133,10.3,5.568,5.568,0,0,0,4.113,9.065Q.264,7.5.264,4.484A4.22,4.22,0,0,1,1.613,1.258,5.038,5.038,0,0,1,5.2,0,6.617,6.617,0,0,1,8.525.757L7.938,2.843a5.391,5.391,0,0,0-2.8-.734A2.683,2.683,0,0,0,3.2,2.772a1.976,1.976,0,0,0-.587,1.446A2.018,2.018,0,0,0,3.287,5.78,7.409,7.409,0,0,0,5.418,7.014,7.207,7.207,0,0,1,8.2,8.956a4.3,4.3,0,0,1,.891,2.773" transform="translate(87.852 21.599)" fill="#fffffe"/>
    <path id="Fill_11" data-name="Fill 11" d="M6.435,4.787H3.847v5.591q0,2.133,1.37,2.132a3.909,3.909,0,0,0,1.044-.118l.064,1.943a4.913,4.913,0,0,1-1.826.283A2.7,2.7,0,0,1,2.325,13.7a4.838,4.838,0,0,1-.783-3.1v-5.8H0V2.867H1.542V.758L3.847,0V2.867H6.435v1.92" transform="translate(98.27 23.423)" fill="#fffffe"/>
    <path id="Fill_12" data-name="Fill 12" d="M5.086,12.012a4.565,4.565,0,0,1-3.705-1.683A6.488,6.488,0,0,1,0,6.089,6.63,6.63,0,0,1,1.424,1.706,4.754,4.754,0,0,1,5.26,0,4.665,4.665,0,0,1,9,1.682,6.442,6.442,0,0,1,10.348,5.9a6.7,6.7,0,0,1-1.391,4.36A4.8,4.8,0,0,1,5.086,12.012Zm.088-10.14A2.339,2.339,0,0,0,3.021,3.25a5.692,5.692,0,0,0-.63,2.78,5.58,5.58,0,0,0,.63,2.732,2.312,2.312,0,0,0,4.24-.024,5.578,5.578,0,0,0,.652-2.756A5.576,5.576,0,0,0,7.282,3.25,2.307,2.307,0,0,0,5.174,1.872Z" transform="translate(106.032 26.053)" fill="#fffffe"/>
    <path id="Fill_13" data-name="Fill 13" d="M5.654,2.486a3.744,3.744,0,0,0-.74-.07A2.163,2.163,0,0,0,3,3.436,4.079,4.079,0,0,0,2.414,5.71v6.042H.067L.088,3.863Q.088,1.87,0,.236H2.046l.086,2.2H2.2A3.945,3.945,0,0,1,3.371.617,2.685,2.685,0,0,1,5.067,0a3.465,3.465,0,0,1,.587.047v2.44" transform="translate(118.357 26.053)" fill="#fffffe"/>
    <path id="Fill_14" data-name="Fill 14" d="M5.262,11.989A4.922,4.922,0,0,1,1.4,10.412,6.156,6.156,0,0,1,0,6.184,7.011,7.011,0,0,1,1.306,1.848,4.376,4.376,0,0,1,5,0,3.855,3.855,0,0,1,8.459,1.848a6.669,6.669,0,0,1,.932,3.625,6.484,6.484,0,0,1-.085,1.161H2.263A3.505,3.505,0,0,0,3.283,9.241a3.321,3.321,0,0,0,2.3.806A7.243,7.243,0,0,0,8.437,9.5L8.8,11.278A8.241,8.241,0,0,1,5.262,11.989ZM4.827,1.778A2.184,2.184,0,0,0,2.957,2.82a4.033,4.033,0,0,0-.695,1.99H7.153A3.741,3.741,0,0,0,6.7,2.843,2.018,2.018,0,0,0,4.827,1.778Z" transform="translate(125.119 26.029)" fill="#fffffe"/>
    <path id="Fill_15" data-name="Fill 15" d="M5.426,7.844H4.272V4.306H1.154V7.844H0V0H1.154V3.2H4.272V0H5.426V7.844" transform="translate(48.093 8.275)" fill="#fffffe"/>
    <path id="Fill_16" data-name="Fill 16" d="M2.583,5.891A2.412,2.412,0,0,1,.688,5.116,3.02,3.02,0,0,1,0,3.038,3.449,3.449,0,0,1,.641.908,2.149,2.149,0,0,1,2.455,0a1.89,1.89,0,0,1,1.7.908,3.264,3.264,0,0,1,.46,1.781,3.165,3.165,0,0,1-.042.57H1.112a1.718,1.718,0,0,0,.5,1.281,1.63,1.63,0,0,0,1.132.4,3.561,3.561,0,0,0,1.4-.267l.182.872A4.052,4.052,0,0,1,2.583,5.891ZM2.371.874a1.075,1.075,0,0,0-.919.512,1.981,1.981,0,0,0-.34.976h2.4A1.841,1.841,0,0,0,3.289,1.4.994.994,0,0,0,2.371.874Z" transform="translate(55.272 10.334)" fill="#fffffe"/>
    <path id="Fill_17" data-name="Fill 17" d="M4.549,5.773H3.4V2.533q0-1.5-1.047-1.5a1.007,1.007,0,0,0-.832.413,1.533,1.533,0,0,0-.32.97V5.773H.042V1.734Q.042.989,0,.116H1.014L1.067,1H1.1A1.744,1.744,0,0,1,1.7.318,1.821,1.821,0,0,1,2.744,0,1.583,1.583,0,0,1,3.951.512a2.617,2.617,0,0,1,.6,1.873V5.773" transform="translate(61.52 10.346)" fill="#fffffe"/>
    <path id="Fill_18" data-name="Fill 18" d="M3.161,2.351H1.891V5.1q0,1.048.673,1.048a1.864,1.864,0,0,0,.513-.059l.031.955a2.42,2.42,0,0,1-.9.139,1.325,1.325,0,0,1-1.068-.454A2.371,2.371,0,0,1,.759,5.2V2.351H0V1.409H.759V.372L1.891,0V1.409H3.161v.942" transform="translate(67.555 9.054)" fill="#fffffe"/>
    <path id="Fill_19" data-name="Fill 19" d="M1.281,8.09H.128V2.434H1.281V8.089ZM.684,1.5A.639.639,0,0,1,.2,1.288.773.773,0,0,1,0,.746.743.743,0,0,1,.2.21.678.678,0,0,1,.7,0a.678.678,0,0,1,.5.21.749.749,0,0,1,.2.536.762.762,0,0,1-.2.546A.7.7,0,0,1,.684,1.5Z" transform="translate(75.308 8.029)" fill="#fffffe"/>
  </g>
</svg>
