<svg xmlns="http://www.w3.org/2000/svg" xmlns:xlink="http://www.w3.org/1999/xlink" width="163.241" height="47.863" viewBox="0 0 163.241 47.863">
  <defs>
    <clipPath id="clip-path">
      <path id="Clip_2" data-name="Clip 2" d="M163.241,23.931V0H0V47.862H163.241V23.931Z" fill="none"/>
    </clipPath>
    <clipPath id="clip-path-2">
      <path id="Clip_7" data-name="Clip 7" d="M0,47.863H163.241V0H0Z" transform="translate(0 0)" fill="none"/>
    </clipPath>
  </defs>
  <g id="playstore-button" transform="translate(0 0)">
    <g id="Group_3" data-name="Group 3" transform="translate(0 0)">
      <path id="Clip_2-2" data-name="Clip 2" d="M163.241,23.931V0H0V47.862H163.241V23.931Z" fill="none"/>
      <g id="Group_3-2" data-name="Group 3" clip-path="url(#clip-path)">
        <path id="Fill_1" data-name="Fill 1" d="M157.2,47.863H6.046A6.032,6.032,0,0,1,0,41.88V5.983A6.032,6.032,0,0,1,6.046,0H157.2a6.032,6.032,0,0,1,6.046,5.983v35.9a6.032,6.032,0,0,1-6.046,5.983" transform="translate(0 0)"/>
      </g>
    </g>
    <path id="Fill_4" data-name="Fill 4" d="M157.2,47.863H6.046A6.022,6.022,0,0,1,0,41.88V5.983A6.022,6.022,0,0,1,6.046,0H157.2a6.021,6.021,0,0,1,6.045,5.983v35.9A6.021,6.021,0,0,1,157.2,47.863ZM6.046.958A5.058,5.058,0,0,0,.967,5.983v35.9a5.058,5.058,0,0,0,5.079,5.026H157.2a5.058,5.058,0,0,0,5.079-5.026V5.983A5.058,5.058,0,0,0,157.2.958Z" transform="translate(0 0)" fill="#a6a6a6"/>
    <path id="Clip_7-2" data-name="Clip 7" d="M0,47.863H163.241V0H0Z" transform="translate(0 0)" fill="none"/>
    <g clip-path="url(#clip-path-2)">
      <path id="Fill_6" data-name="Fill 6" d="M43.838,20.376a4.806,4.806,0,0,1-3-1,5.028,5.028,0,0,1-1.556-2.01l1.967-.81a2.835,2.835,0,0,0,2.591,1.812c1.745,0,2.746-1.089,2.746-2.988v-.732h-.077A3.524,3.524,0,0,1,43.8,15.808a5.092,5.092,0,0,1,0-10.179,3.584,3.584,0,0,1,2.707,1.138h.077V5.937h2.144v9.139a5.391,5.391,0,0,1-1.451,4.059A4.842,4.842,0,0,1,43.838,20.376Zm.156-12.742a2.959,2.959,0,0,0-2.863,3.1A2.937,2.937,0,0,0,43.994,13.8a2.854,2.854,0,0,0,2.747-3.064A2.877,2.877,0,0,0,43.994,7.634Zm52.313,12.4H93.954l2.3-5.042L92.223,5.929h2.43l2.685,6.485h.077L100,5.929h2.509l-6.2,14.105ZM58.74,15.808a5.006,5.006,0,0,1-5.1-5.089A4.756,4.756,0,0,1,62.89,8.868l.233.578-6.876,2.816A2.606,2.606,0,0,0,58.74,13.8a2.932,2.932,0,0,0,2.534-1.408l1.753,1.157A5.141,5.141,0,0,1,58.74,15.808ZM58.565,7.6a2.771,2.771,0,0,0-1.9.851,2.83,2.83,0,0,0-.785,2.118l4.6-1.889A1.994,1.994,0,0,0,58.565,7.6Zm-25.8,8.212a5.2,5.2,0,0,1-3.647-1.446,5.149,5.149,0,0,1,0-7.294,5.342,5.342,0,0,1,7.295,0,5.148,5.148,0,0,1,0,7.294A5.2,5.2,0,0,1,32.762,15.808Zm0-8.174a2.828,2.828,0,0,0-2.036.855,3.153,3.153,0,0,0-.867,2.23,2.908,2.908,0,1,0,5.806,0,3.153,3.153,0,0,0-.867-2.23A2.827,2.827,0,0,0,32.762,7.634ZM21.5,15.808a5.2,5.2,0,0,1-3.647-1.446,5.149,5.149,0,0,1,0-7.294,5.342,5.342,0,0,1,7.3,0,5.146,5.146,0,0,1,0,7.294A5.2,5.2,0,0,1,21.5,15.808Zm0-8.174a2.826,2.826,0,0,0-2.035.855,3.153,3.153,0,0,0-.867,2.23,2.908,2.908,0,1,0,5.805,0,3.153,3.153,0,0,0-.867-2.23A2.828,2.828,0,0,0,21.5,7.634ZM8.1,15.808A8.152,8.152,0,0,1,2.4,13.49a7.7,7.7,0,0,1,0-11.171A8.152,8.152,0,0,1,8.1,0a7.635,7.635,0,0,1,5.475,2.179L12.038,3.7A5.611,5.611,0,0,0,8.1,2.16,5.7,5.7,0,0,0,2.376,7.9,5.7,5.7,0,0,0,8.1,13.648a5.338,5.338,0,0,0,4.033-1.58A4.527,4.527,0,0,0,13.325,9.35H8.1V7.191h7.344a6.886,6.886,0,0,1,.117,1.349,7.131,7.131,0,0,1-1.89,5.051A7.354,7.354,0,0,1,8.1,15.808Zm78.829-.026a4.1,4.1,0,0,1-2.62-.895,3.066,3.066,0,0,1-1.133-2.4,2.964,2.964,0,0,1,1.369-2.506,5.355,5.355,0,0,1,2.987-.861,5.057,5.057,0,0,1,2.354.576V9.546a2.172,2.172,0,0,0-2.372-1.924,2.12,2.12,0,0,0-2.062,1.1l-2-.828A4.274,4.274,0,0,1,87.478,5.6a4.945,4.945,0,0,1,3.265,1.073,3.882,3.882,0,0,1,1.325,3.064v5.735H89.889V14.319h-.077A3.211,3.211,0,0,1,86.933,15.782Zm.895-4.848c-1.19,0-2.391.493-2.391,1.6,0,.926,1.086,1.271,1.77,1.271a2.71,2.71,0,0,0,2.683-2.366A4.073,4.073,0,0,0,87.827,10.933ZM81.935,15.5H79.679V.541h2.256V15.5Zm-11.611,0H68.07V.541h5.406a4.77,4.77,0,0,1,4.958,4.645,4.771,4.771,0,0,1-4.958,4.647H70.324V15.5Zm0-12.877V7.75h3.209A2.564,2.564,0,0,0,75.488,6.9a2.637,2.637,0,0,0,.69-1.717,2.609,2.609,0,0,0-2.644-2.564ZM52.546,15.5h-2.26V.54h2.26V15.5Z" transform="translate(49.628 20.398)" fill="#fff"/>
      <path id="Fill_8" data-name="Fill 8" d="M.56.087A2.38,2.38,0,0,0,0,1.769V28.232a2.378,2.378,0,0,0,.56,1.681L.649,30,15.63,15.175v-.349L.649,0Z" transform="translate(12.058 8.932)" fill="#00d2ff"/>
      <path id="Fill_9" data-name="Fill 9" d="M4.993,10.235,0,5.292V4.942L4.994,0l.112.063L11.023,3.39c1.69.95,1.69,2.5,0,3.456L5.106,10.172Z" transform="translate(27.689 18.816)" fill="#ffbd00"/>
      <path id="Fill_10" data-name="Fill 10" d="M20.177,5.054,15.07,0,0,14.913a1.982,1.982,0,0,0,2.513.073L20.177,5.054" transform="translate(12.619 23.933)" fill="#ff3a44"/>
      <path id="Fill_11" data-name="Fill 11" d="M20.177,10.334,2.513.4A1.982,1.982,0,0,0,0,.476L15.07,15.388Z" transform="translate(12.619 8.544)" fill="#00f076"/>
      <path id="Fill_12" data-name="Fill 12" d="M4.66,4.323l.028,1.01L1.322,0H0V7.418H1.172V2.823L1.144,1.814l3.53,5.6H5.834V0H4.66Z" transform="translate(49.732 8.258)" fill="#fff"/>
      <path id="Fill_13" data-name="Fill 13" d="M4.438,4.671a1.942,1.942,0,0,1-.423,1.3,1.513,1.513,0,0,1-1.209.483,1.5,1.5,0,0,1-1.21-.483,1.948,1.948,0,0,1-.422-1.3V0H0V4.631A2.967,2.967,0,0,0,.778,6.758a2.683,2.683,0,0,0,2.028.82,2.672,2.672,0,0,0,2.05-.816,3.006,3.006,0,0,0,.757-2.131V0H4.438Z" transform="translate(56.825 8.258)" fill="#fff"/>
      <path id="Fill_14" data-name="Fill 14" d="M1.173,7.418H0V0H2.594A2.432,2.432,0,0,1,4.27.636a2.093,2.093,0,0,1,.714,1.619A2.1,2.1,0,0,1,4.27,3.874a2.432,2.432,0,0,1-1.676.636H1.173V7.417Zm0-6.3V3.388h1.44a1.084,1.084,0,0,0,.853-.35,1.143,1.143,0,0,0,.324-.783,1.135,1.135,0,0,0-.324-.782,1.08,1.08,0,0,0-.853-.352Z" transform="translate(66.127 8.257)" fill="#fff"/>
      <path id="Fill_15" data-name="Fill 15" d="M1.294,8.864H0L2.615,2a1.112,1.112,0,0,1-.352-.837A1.113,1.113,0,0,1,2.6.337,1.141,1.141,0,0,1,3.438,0a1.136,1.136,0,0,1,.829.341,1.113,1.113,0,0,1,.347.822A1.122,1.122,0,0,1,4.259,2L6.875,8.862H5.582l-.7-1.946H2L1.294,8.863ZM3.438,2.993,2.4,5.817H4.47Zm0-2.111a.272.272,0,0,0-.2.085.268.268,0,0,0-.086.2.276.276,0,0,0,.075.2.261.261,0,0,0,.178.086h.031a.275.275,0,0,0,.2-.086.269.269,0,0,0,0-.393A.275.275,0,0,0,3.438.881Z" transform="translate(70.672 6.813)" fill="#fff"/>
    </g>
  </g>
</svg>
