<svg xmlns="http://www.w3.org/2000/svg" width="96" height="96" viewBox="0 0 96 96">
  <g id="Group_6" data-name="Group 6" transform="translate(-730 -1870)">
    <g id="Group_5" data-name="Group 5">
      <rect id="Mask" width="96" height="96" rx="12" transform="translate(730 1870)" fill="#fff"/>
    </g>
    <g id="Group_6-2" data-name="Group 6" transform="translate(752 1889)">
      <g id="Group_2" data-name="Group 2" transform="translate(10.8)">
        <g id="Path_Copy" data-name="Path Copy" transform="translate(7.598 10.073) rotate(-30)" fill="none" stroke-linejoin="round" stroke-miterlimit="10">
          <path d="M12.489,0C5.634,0,1.624,8.088,0,11.631H12.433C20.559,11.631,20.645,0,12.489,0Z" stroke="none"/>
          <path d="M 12.48911762237549 3.000004768371582 C 11.42903804779053 3.000004768371582 10.4217472076416 3.293164253234863 9.409708023071289 3.896244525909424 C 8.455377578735352 4.464924335479736 7.504517555236816 5.31136417388916 6.583547592163086 6.412034511566162 C 5.995686531066895 7.114596843719482 5.461725234985352 7.870199203491211 4.981091499328613 8.630764007568359 L 12.43328762054443 8.630764007568359 C 15.41553688049316 8.630764007568359 15.56660747528076 6.253854274749756 15.56660747528076 5.777374267578125 C 15.56660747528076 5.034814357757568 15.30860710144043 4.332944393157959 14.85876750946045 3.851724624633789 C 14.33046722412109 3.286564826965332 13.5331974029541 3.000004768371582 12.48911762237549 3.000004768371582 M 12.48911762237549 4.76837158203125e-06 C 20.64461708068848 4.76837158203125e-06 20.55854797363281 11.63076400756836 12.43328762054443 11.63076400756836 L -1.9073486328125e-06 11.63076400756836 C 1.6236572265625 8.088034629821777 5.633947372436523 4.76837158203125e-06 12.48911762237549 4.76837158203125e-06 Z" stroke="none" fill="#2dad60"/>
        </g>
        <g id="Path_Copy_2" data-name="Path Copy 2" transform="translate(6.478 0.79) rotate(30)" fill="none" stroke-linejoin="round" stroke-miterlimit="10">
          <path d="M6.133,11.631H18.567C16.943,8.088,12.933,0,6.077,0-2.078,0-1.992,11.631,6.133,11.631Z" stroke="none"/>
          <path d="M 13.58551120758057 8.630764007568359 C 13.10487747192383 7.870199680328369 12.57091617584229 7.114596843719482 11.98305511474609 6.412034511566162 C 11.06208515167236 5.31136417388916 10.11122512817383 4.464924335479736 9.156894683837891 3.896244287490845 C 8.144855499267578 3.293164491653442 7.137565135955811 3.000004291534424 6.077485084533691 3.000004291534424 C 5.033405303955078 3.000004291534424 4.236135005950928 3.286564350128174 3.70783519744873 3.85172438621521 C 3.257995128631592 4.332944393157959 2.999995231628418 5.034814357757568 2.999995231628418 5.777374267578125 C 2.999995231628418 6.253854274749756 3.151065111160278 8.630764007568359 6.133315086364746 8.630764007568359 L 13.58551120758057 8.630764007568359 M 18.56660461425781 11.63076400756836 L 6.133315086364746 11.63076400756836 C -1.991944909095764 11.63076400756836 -2.078014850616455 4.387969966046512e-06 6.077485084533691 4.387969966046512e-06 C 12.93265533447266 4.387969966046512e-06 16.94294548034668 8.088034629821777 18.56660461425781 11.63076400756836 Z" stroke="none" fill="#2dad60"/>
        </g>
      </g>
      <g id="Rectangle" transform="translate(0 15.12)" fill="#ade2c2" stroke="#2dad60" stroke-miterlimit="10" stroke-width="3">
        <rect width="51.84" height="15.12" rx="4" stroke="none"/>
        <rect x="1.5" y="1.5" width="48.84" height="12.12" rx="2.5" fill="none"/>
      </g>
      <g id="Rectangle-2" data-name="Rectangle" transform="translate(2.16 25.92)" fill="#ade2c2" stroke="#2dad60" stroke-miterlimit="10" stroke-width="3">
        <path d="M0,0H47.52a0,0,0,0,1,0,0V24.08a4,4,0,0,1-4,4H4a4,4,0,0,1-4-4V0A0,0,0,0,1,0,0Z" stroke="none"/>
        <path d="M3,1.5H44.52A1.5,1.5,0,0,1,46.02,3V24.08a2.5,2.5,0,0,1-2.5,2.5H4a2.5,2.5,0,0,1-2.5-2.5V3A1.5,1.5,0,0,1,3,1.5Z" fill="none"/>
      </g>
      <g id="Rectangle-3" data-name="Rectangle" transform="translate(19.44 15.12)" fill="#d5efdf" stroke="#2dad60" stroke-miterlimit="10" stroke-width="3">
        <rect width="12.96" height="38.88" stroke="none"/>
        <rect x="1.5" y="1.5" width="9.96" height="35.88" fill="none"/>
      </g>
    </g>
  </g>
</svg>
