<svg id="Bath1.2." xmlns="http://www.w3.org/2000/svg" xmlns:xlink="http://www.w3.org/1999/xlink" width="96" height="96" viewBox="0 0 96 96">
  <defs>
    <clipPath id="clip-path">
      <rect id="Mask" width="96" height="96" rx="12" fill="#fff"/>
    </clipPath>
  </defs>
  <rect id="Mask-2" data-name="Mask" width="96" height="96" rx="12" fill="#fff"/>
  <g id="Bath1.2.-2" data-name="Bath1.2." clip-path="url(#clip-path)">
    <g id="Group_4" data-name="Group 4" transform="translate(57.192 6.281) rotate(45)">
      <g id="Group" transform="translate(0 0)">
        <path id="Shape" d="M40.311,60.68a2.639,2.639,0,0,1-1.719-.606c-1.3-1.13-3.667-2.964-5.957-4.736-2.309-1.788-4.7-3.637-6.005-4.777a5.53,5.53,0,0,0-1.215,3.262c-.211,1.462-.394,2.725-1.935,2.814-.086.006-.171.01-.252.01-1.658,0-2.083-1.311-2.576-2.83a7.574,7.574,0,0,0-1.7-3.256c-.512.408-1.322,1.043-2.259,1.779-2.5,1.963-5.923,4.647-7.25,5.808-.291.243-.57.516-.84.78a7.228,7.228,0,0,1-1.825,1.437,2.641,2.641,0,0,1-1.086.228,3.077,3.077,0,0,1-2.991-2.4c-.316-1.483-.643-2.989-.96-4.446C1.221,51.356.685,48.888.182,46.455A9.934,9.934,0,0,1,3.141,37.31c1.235-1.08,2.563-2.211,4.3-3.667.295-.162.266-.477.238-.782a2.177,2.177,0,0,1-.014-.322A40.906,40.906,0,0,1,9.4,18.986,50.4,50.4,0,0,1,15.04,6.6L18.68,2.53a5.556,5.556,0,0,1,8.271-.013l3.525,3.916A49.865,49.865,0,0,1,36.309,19.28a41.118,41.118,0,0,1,1.616,14.076c.641.559,1.3,1.118,1.936,1.659.973.826,1.978,1.68,2.941,2.551a9.576,9.576,0,0,1,2.467,4.022,10.1,10.1,0,0,1,.338,4.762c-.222,1.163-.444,2.334-.658,3.466-.532,2.813-1.081,5.721-1.66,8.57a2.808,2.808,0,0,1-1.109,1.674A3.184,3.184,0,0,1,40.311,60.68ZM22.792,15.34a5.087,5.087,0,0,0-4.087,2.149,5.51,5.51,0,0,0,.418,6.889,4.99,4.99,0,0,0,7.221.162,5.49,5.49,0,0,0,1.274-5.716,5.15,5.15,0,0,0-4.286-3.452A4.551,4.551,0,0,0,22.792,15.34Z" transform="translate(0 0.086)" fill="#d5efdf" stroke="#2dad60" stroke-miterlimit="10" stroke-width="3"/>
        <path id="Shape-2" data-name="Shape" d="M15.6,56.647c-1.658,0-2.083-1.311-2.576-2.83a7.574,7.574,0,0,0-1.7-3.256c-.474.378-1.205.952-2.052,1.616l0,0-.216.17a2.745,2.745,0,0,1-2.439.86A43.163,43.163,0,0,1,.578,38.785a23.618,23.618,0,0,1-.539-6.221l0-.026A40.906,40.906,0,0,1,1.77,18.986,50.4,50.4,0,0,1,7.412,6.6l3.64-4.072a5.556,5.556,0,0,1,8.271-.013l3.525,3.916A49.883,49.883,0,0,1,28.681,19.28,41.116,41.116,0,0,1,30.3,33.356a58.513,58.513,0,0,1-7.323,20,.759.759,0,0,0-.426-.212,2.4,2.4,0,0,1-1.035-.53c-1.121-.886-1.942-1.558-2.511-2.053a5.53,5.53,0,0,0-1.215,3.262c-.211,1.462-.394,2.725-1.935,2.814C15.766,56.643,15.681,56.647,15.6,56.647ZM15.164,15.34a5.087,5.087,0,0,0-4.087,2.149,5.51,5.51,0,0,0,.418,6.889,4.99,4.99,0,0,0,7.221.162,5.49,5.49,0,0,0,1.274-5.716,5.15,5.15,0,0,0-4.286-3.452A4.553,4.553,0,0,0,15.164,15.34Z" transform="translate(7.628 0.086)" fill="#8cd8aa" stroke="#2dad60" stroke-miterlimit="10" stroke-width="3"/>
        <ellipse id="Oval" cx="3.84" cy="16" rx="3.84" ry="16" transform="translate(18.95 39.227)" fill="#d5efdf" stroke="#2dad60" stroke-miterlimit="10" stroke-width="3"/>
      </g>
    </g>
  </g>
</svg>
