<svg xmlns="http://www.w3.org/2000/svg" width="60.253" height="60.253" viewBox="0 0 60.253 60.253">
  <g id="Group_4" data-name="Group 4" transform="translate(33.669 1.336) rotate(45)">
    <g id="Group" transform="translate(0 0)">
      <path id="Shape" d="M31.493,45.51a2.115,2.115,0,0,1-1.343-.455c-1.017-.849-2.869-2.226-4.66-3.557S21.826,38.774,20.8,37.92a4.051,4.051,0,0,0-.949,2.447c-.165,1.1-.308,2.044-1.512,2.111-.068,0-.134.007-.2.007-1.295,0-1.627-.983-2.012-2.122A5.605,5.605,0,0,0,14.8,37.92c-.405.31-1.044.791-1.784,1.349-1.946,1.466-4.611,3.474-5.646,4.342-.227.183-.446.388-.657.586a5.611,5.611,0,0,1-1.424,1.077,2.137,2.137,0,0,1-.848.171,2.384,2.384,0,0,1-2.338-1.8c-.243-1.092-.492-2.195-.733-3.261v0C.964,38.564.54,36.689.142,34.842a7.269,7.269,0,0,1,2.312-6.86c.97-.815,2.039-1.689,3.363-2.75.23-.121.207-.358.185-.587a1.573,1.573,0,0,1-.011-.241A29.533,29.533,0,0,1,7.343,14.24,37.078,37.078,0,0,1,11.75,4.951L15.225,1.22a3.556,3.556,0,0,1,5.2-.009l3.389,3.613a36.715,36.715,0,0,1,4.557,9.636,29.668,29.668,0,0,1,1.262,10.556c.5.422,1.021.844,1.522,1.252.758.618,1.539,1.255,2.288,1.906a7.145,7.145,0,0,1,1.928,3.017,7.285,7.285,0,0,1,.265,3.571q-.265,1.331-.527,2.663c-.411,2.088-.837,4.248-1.284,6.365A2.374,2.374,0,0,1,31.493,45.51Zm-13.685-34a4,4,0,0,0-2.866,6.779,4.012,4.012,0,0,0,5.641.122,4,4,0,0,0-2.353-6.876A3.71,3.71,0,0,0,17.807,11.5Z" transform="translate(0 0.065)" fill="#d5efdf" stroke="#2dad60" stroke-miterlimit="10" stroke-width="2"/>
      <path id="Shape-2" data-name="Shape" d="M12.186,42.484c-1.294,0-1.627-.983-2.012-2.122A5.608,5.608,0,0,0,8.845,37.92c-.455.348-1.188.9-1.776,1.343a3.913,3.913,0,0,1-.623.367,2.005,2.005,0,0,0-.526.331C3.274,36.54.688,29.707.032,24.4A29.533,29.533,0,0,1,1.383,14.24,37.077,37.077,0,0,1,5.791,4.951L9.265,1.219a3.556,3.556,0,0,1,5.2-.009L17.85,4.824a36.7,36.7,0,0,1,4.557,9.636,29.67,29.67,0,0,1,1.262,10.556c-.4,4.136-3.52,13.19-5.575,15.244a6.66,6.66,0,0,1-1.288-.8c-.891-.677-1.514-1.166-1.961-1.541a4.05,4.05,0,0,0-.949,2.447c-.165,1.1-.308,2.044-1.512,2.11C12.317,42.482,12.25,42.484,12.186,42.484ZM11.847,11.5a4,4,0,0,0-2.866,6.779,4.012,4.012,0,0,0,5.641.122,4,4,0,0,0-2.353-6.876A3.706,3.706,0,0,0,11.847,11.5Z" transform="translate(5.96 0.065)" fill="#8cd8aa" stroke="#2dad60" stroke-miterlimit="10" stroke-width="2"/>
      <ellipse id="Oval" cx="3" cy="12" rx="3" ry="12" transform="translate(14.805 29.42)" fill="#d5efdf" stroke="#2dad60" stroke-miterlimit="10" stroke-width="2"/>
    </g>
  </g>
</svg>
