<svg xmlns="http://www.w3.org/2000/svg" width="48" height="49.269" viewBox="0 0 48 49.269">
  <g id="Group_6" data-name="Group 6" transform="translate(0 -0.731)">
    <g id="Group_2" data-name="Group 2" transform="translate(9)">
      <g id="Path_Copy" data-name="Path Copy" transform="translate(9.035 9.327) rotate(-30)" fill="none" stroke-linejoin="round" stroke-miterlimit="10">
        <path d="M11.564,0C5.217,0,1.5,7.489,0,10.769H11.512C19.036,10.769,19.115,0,11.564,0Z" stroke="none"/>
        <path d="M 11.56400299072266 1.999995231628418 C 10.43832206726074 1.999995231628418 9.375422477722168 2.307305335998535 8.314542770385742 2.939485549926758 C 7.355562210083008 3.510935306549072 6.408402442932129 4.351545333862305 5.499372482299805 5.437945365905762 C 4.620405197143555 6.488417625427246 3.870222091674805 7.655365943908691 3.244466781616211 8.769235610961914 L 11.5123119354248 8.769235610961914 C 12.71072196960449 8.769235610961914 13.65041255950928 8.412845611572266 14.30527305603027 7.709975242614746 C 14.86835289001465 7.105605125427246 15.19130229949951 6.245225429534912 15.19130229949951 5.349425315856934 C 15.19130229949951 3.804305553436279 14.24132251739502 1.999995231628418 11.56400299072266 1.999995231628418 M 11.56400299072266 -4.76837158203125e-06 C 19.11538314819336 -4.76837158203125e-06 19.03569221496582 10.76923561096191 11.5123119354248 10.76923561096191 L 1.9073486328125e-06 10.76923561096191 C 1.503381729125977 7.488925457000732 5.216612815856934 -4.76837158203125e-06 11.56400299072266 -4.76837158203125e-06 Z" stroke="none" fill="#2dad60"/>
      </g>
      <g id="Path_Copy_2" data-name="Path Copy 2" transform="translate(5.998 0.731) rotate(30)" fill="none" stroke-linejoin="round" stroke-miterlimit="10">
        <path d="M5.679,10.769H17.191C15.688,7.489,11.975,0,5.627,0-1.924,0-1.844,10.769,5.679,10.769Z" stroke="none"/>
        <path d="M 13.94683265686035 8.769235610961914 C 13.32107830047607 7.655365467071533 12.57089424133301 6.488417625427246 11.69192695617676 5.437945365905762 C 10.78289699554443 4.351545333862305 9.835737228393555 3.510935306549072 8.876757621765137 2.939485311508179 C 7.815877437591553 2.307305335998535 6.75297737121582 1.999995470046997 5.627297401428223 1.999995470046997 C 2.949977397918701 1.999995470046997 1.99999737739563 3.8043053150177 1.99999737739563 5.349425315856934 C 1.99999737739563 6.245225429534912 2.32294750213623 7.105605602264404 2.886027336120605 7.709975242614746 C 3.540887355804443 8.412845611572266 4.48057746887207 8.769235610961914 5.678987503051758 8.769235610961914 L 13.94683265686035 8.769235610961914 M 17.19129753112793 10.76923561096191 L 5.678987503051758 10.76923561096191 C -1.844392657279968 10.76923561096191 -1.924082636833191 -4.578704647428822e-06 5.627297401428223 -4.578704647428822e-06 C 11.97468757629395 -4.578704647428822e-06 15.68791770935059 7.488925457000732 17.19129753112793 10.76923561096191 Z" stroke="none" fill="#2dad60"/>
      </g>
    </g>
    <g id="Rectangle" transform="translate(0 14)" fill="#ade2c2" stroke="#2dad60" stroke-miterlimit="10" stroke-width="2">
      <rect width="48" height="14" rx="4" stroke="none"/>
      <rect x="1" y="1" width="46" height="12" rx="3" fill="none"/>
    </g>
    <g id="Rectangle-2" data-name="Rectangle" transform="translate(2 24)" fill="#ade2c2" stroke="#2dad60" stroke-miterlimit="10" stroke-width="2">
      <path d="M0,0H44a0,0,0,0,1,0,0V22a4,4,0,0,1-4,4H4a4,4,0,0,1-4-4V0A0,0,0,0,1,0,0Z" stroke="none"/>
      <path d="M2,1H42a1,1,0,0,1,1,1V22a3,3,0,0,1-3,3H4a3,3,0,0,1-3-3V2A1,1,0,0,1,2,1Z" fill="none"/>
    </g>
    <g id="Rectangle-3" data-name="Rectangle" transform="translate(18 14)" fill="#d5efdf" stroke="#2dad60" stroke-miterlimit="10" stroke-width="2">
      <rect width="12" height="36" stroke="none"/>
      <rect x="1" y="1" width="10" height="34" fill="none"/>
    </g>
  </g>
</svg>
