<svg xmlns="http://www.w3.org/2000/svg" xmlns:xlink="http://www.w3.org/1999/xlink" width="190.397" height="146" viewBox="0 0 190.397 146">
  <defs>
    <clipPath id="clip-path">
      <path id="Mask" d="M90.939,144C137.134,144,174,122.414,174,84.443S118.641,0,72.446,0,0,45.591,0,83.562,44.744,144,90.939,144Z" transform="translate(0.176 0.308)" fill="#eef5f0" stroke="#e4ebe6" stroke-miterlimit="10" stroke-width="1"/>
    </clipPath>
  </defs>
  <g id="artwork-2" transform="translate(0.824 0.692)">
    <g id="Group_16" data-name="Group 16">
      <g id="Mask-2" data-name="Mask" transform="translate(0.176 0.308)" fill="#eef5f0" stroke-miterlimit="10">
        <path d="M 90.93932342529297 144.5 C 85.18069458007812 144.5 79.38332366943359 144.1490173339844 73.70821380615234 143.4568023681641 C 68.04962921142578 142.7665863037109 62.46826171875 141.7317657470703 57.1191291809082 140.3810577392578 C 51.73149871826172 139.0206451416016 46.53589248657227 137.3286895751953 41.67663192749023 135.3521728515625 C 36.73526000976562 133.34228515625 32.09537124633789 131.0190277099609 27.88582611083984 128.4469604492188 C 19.04584693908691 123.0456085205078 12.11836910247803 116.6037139892578 7.29584789276123 109.3002395629883 C 2.122913122177124 101.4660415649414 -0.5 92.80656433105469 -0.5 83.56232452392578 C -0.5 78.80104064941406 -0.08789130300283432 73.89762878417969 0.7248913049697876 68.98825836181641 C 1.540695667266846 64.06067657470703 2.75995659828186 59.12876129150391 4.348804473876953 54.32954406738281 C 5.965391159057617 49.4465217590332 7.967065334320068 44.69461059570312 10.2982177734375 40.20576095581055 C 12.69789123535156 35.58495712280273 15.45819568634033 31.22210884094238 18.5024356842041 27.23843383789062 C 21.66423988342285 23.1009349822998 25.15997886657715 19.3374137878418 28.89256477355957 16.05241394042969 C 32.79239273071289 12.62021732330322 37.00010681152344 9.667934417724609 41.3988037109375 7.277608871459961 C 50.89582443237305 2.116760969161987 61.34152221679688 -0.5 72.44569396972656 -0.5 C 78.11482238769531 -0.5 84.08248138427734 0.2009347826242447 90.18289184570312 1.583347797393799 C 96.02780151367188 2.907869577407837 102.021369934082 4.86289119720459 107.9970855712891 7.394108772277832 C 119.4952850341797 12.26452159881592 130.8612670898438 19.25102233886719 140.8663024902344 27.59830474853516 C 150.8542022705078 35.93128204345703 159.2185821533203 45.39599990844727 165.0552215576172 54.96921920776367 C 168.0824127197266 59.93441390991211 170.4210815429688 64.90975952148438 172.0062866210938 69.75706481933594 C 173.6609954833984 74.81689453125 174.5 79.75785064697266 174.5 84.44269561767578 C 174.5 93.75404357910156 172.2972106933594 102.3575668334961 167.9528198242188 110.0143051147461 C 163.8201904296875 117.2978057861328 157.8045501708984 123.6433258056641 150.072998046875 128.8745880126953 C 142.5913238525391 133.9367828369141 133.6620635986328 137.8539733886719 123.5332412719727 140.5174102783203 C 113.4833908081055 143.1600646972656 102.517219543457 144.5 90.93932342529297 144.5 Z" stroke="none"/>
        <path d="M 90.93930816650391 144 C 137.1343383789062 144 174 122.4137115478516 174 84.44271087646484 C 174 46.4716911315918 118.6407165527344 0 72.44569396972656 0 C 26.25069046020508 0 0 45.59130859375 0 83.56230926513672 C 0 121.533332824707 44.74430847167969 144 90.93930816650391 144 M 90.93930816650391 145 C 85.1605224609375 145 79.34278869628906 144.6477813720703 73.64766693115234 143.953125 C 67.96830749511719 143.2603759765625 62.36611938476562 142.2216644287109 56.9967155456543 140.8658599853516 C 51.58668899536133 139.4997863769531 46.36890411376953 137.8005523681641 41.48823928833008 135.8153381347656 C 36.52188110351562 133.7952575683594 31.857666015625 131.4597320556641 27.62514305114746 128.8736114501953 C 18.72202301025391 123.4336929321289 11.74188137054443 116.9409561157227 6.878595352172852 109.5757369995117 C 1.650738120079041 101.6584014892578 -1 92.90621185302734 -1 83.56230926513672 C -1 78.77376556396484 -0.5856190323829651 73.84285736083984 0.2316190451383591 68.90657043457031 C 1.051642894744873 63.95347595214844 2.277166604995728 58.99618911743164 3.87414288520813 54.17240524291992 C 5.499047756195068 49.26423645019531 7.51111888885498 44.48766708374023 9.854475975036621 39.97531127929688 C 12.26747608184814 35.32890319824219 15.0434045791626 30.94145202636719 18.10516738891602 26.93483352661133 C 21.28680992126465 22.7713565826416 24.8050708770752 18.98369026184082 28.56221389770508 15.6770715713501 C 32.49007034301758 12.22023773193359 36.72859573364258 9.246428489685059 41.16007232666016 6.83828592300415 C 50.7311897277832 1.637190461158752 61.2571907043457 -1 72.44569396972656 -1 C 78.15195465087891 -1 84.15678405761719 -0.2949047684669495 90.29338073730469 1.095714330673218 C 96.16714477539062 2.426785707473755 102.1891403198242 4.390952587127686 108.1921157836914 6.933690547943115 C 119.7350006103516 11.82304763793945 131.1443023681641 18.83600044250488 141.1865997314453 27.21438026428223 C 151.216064453125 35.58204650878906 159.6173400878906 45.08950042724609 165.4821472167969 54.70895385742188 C 168.5294036865234 59.70707321166992 170.8843383789062 64.71768951416016 172.4815216064453 69.60164642333984 C 174.1526641845703 74.71173858642578 175 79.70500183105469 175 84.44271087646484 C 175 93.84162139892578 172.7753143310547 102.5281677246094 168.3876953125 110.2610473632812 C 164.2167358398438 117.6120986938477 158.1490478515625 124.0139312744141 150.3531646728516 129.2887115478516 C 142.8246612548828 134.3825988769531 133.8439025878906 138.3231658935547 123.6603775024414 141.0009765625 C 113.5690460205078 143.6545257568359 102.5600967407227 145 90.93930816650391 145 Z" stroke="none" fill="#e4ebe6"/>
      </g>
      <g id="Group_16-2" data-name="Group 16" clip-path="url(#clip-path)">
        <g id="Group_16-3" data-name="Group 16" transform="translate(-101.365 25.353)">
          <path id="Fill_1" data-name="Fill 1" d="M32.731,6.184A8.207,8.207,0,0,0,31.505,2.6C29.323-.6,26.32-.013,23.069.143,16.618.449,9.6,6.533,4.078,9.744a11.217,11.217,0,0,0-2.909,2.143c-3.907,4.464,2.945,6.892,6.425,5.141,3.374-1.7,4.332-4.212,8.581-4.252,4.466-.041,9.89,1.46,14.118-.532,2.086-.983,2.716-3.618,2.437-6.061" transform="translate(184.383 24.09)" fill="#e3bfa1"/>
          <path id="Fill_7" data-name="Fill 7" d="M218.355,49.078q-.015-.418-.054-.835c-.307-3.3-3.165-6.662-3.276-9.675-.11-2.931,2.9-5.326,2.332-8.773a6.027,6.027,0,0,0-4.325-4.959,6.6,6.6,0,0,0-4.634.907c-1.826,1.049-2.9,2.8-4.54,3.942-1.737,1.213-3.952,2.076-5.813,3.126-3.792,2.137-7.688,3.98-12.137,3.973-6.908-.01-3.628-6.261-3.011-10.239.752-4.865-.107-11.822-1.068-16.759-.516-2.648-6.3-13.27-9.417-8.629-1.726,2.565-1.291,7.518-1.39,10.45-.128,3.722-.443,7.43-2.4,10.7-5.425,9.057-7.942,22.364-15.887,29.268-8.983,7.806-22.564,13.1-34.512,12.189-14.527-1.1-28.871-2.548-43.476-2.021C48.423,62.693,18.1,68.673,2.3,92.014c-3.215,4.749-2.727,9.243-.589,14.744,4.271,10.99,19.765,13.365,29.623,15.023,36.294,6.11,81.881-17.546,104.564-23.088,10.377-2.536,19.319-6.393,30.006-6.944,10.438-.532,21.11.036,31.321-2.584,2.986-.766,7.309-1.369,9.683-3.522,3.134-2.84,4.494-8.545,6.167-12.3,1.875-4.209,3.682-9.374,1.024-13.139a15.416,15.416,0,0,0,4.255-11.126" transform="translate(0 0)" fill="#ffd7b5"/>
        </g>
      </g>
    </g>
    <g id="Group_11" data-name="Group 11" transform="matrix(0.978, -0.208, 0.208, 0.978, 114.559, 67.814)">
      <path id="bubble" d="M-62.635,24.964C-62.635,11.174-48.614,0-31.323,0S0,11.174,0,24.964c0,11.978-10.59,21.985-24.719,24.4a50.011,50.011,0,0,0,2.9,13.269c-6.911-1.841-12.955-8.015-17.137-13.459C-52.56,46.457-62.635,36.648-62.635,24.964Z" transform="translate(65.949 3.4) rotate(3)" fill="#12aa5d"/>
      <path id="Fill_1-2" data-name="Fill 1" d="M19.233,23.227C14.6,25.141,9.61,24.541,4.74,24.279c-.317-2.535-1.9-4.821-2.991-7.085A17.5,17.5,0,0,1,.312,6.41C1.164,2.393,5.124-.768,9.288.164c4.428.994,4.624,6,4.035,9.54-.112.679.821,1.194,1.192.5C17.354,4.888,26.808,2.491,29.066,9.7c1.741,5.554-5.37,11.689-9.833,13.527" transform="matrix(0.966, -0.259, 0.259, 0.966, 17.272, 17.826)" fill="#fff"/>
    </g>
    <path id="Path_2_Copy" data-name="Path 2 Copy" d="M17.435,13.765l-.632-1.95A7.066,7.066,0,0,0,6.5,7.905h0c-1.649.971-4.624-.283-5.08-2.141L0,0" transform="translate(136.94 44.171) rotate(-74)" fill="none" stroke="#ffc435" stroke-linecap="round" stroke-linejoin="round" stroke-miterlimit="10" stroke-width="7.2"/>
    <path id="Path_6" data-name="Path 6" d="M9.6,7.459,0,0" transform="translate(17.071 41.601)" fill="none" stroke="#12aa5d" stroke-linecap="round" stroke-miterlimit="10" stroke-width="10.8"/>
    <circle id="Oval_Copy_9" data-name="Oval Copy 9" cx="8.55" cy="8.55" r="8.55" transform="translate(120.3 118.6)" fill="#ffc435"/>
  </g>
</svg>
