<svg xmlns="http://www.w3.org/2000/svg" width="24" height="24" viewBox="0 0 24 24">
  <path id="Fill_23" data-name="Fill 23" d="M21.147,24H2.853A2.853,2.853,0,0,1,0,21.154V2.846A2.853,2.853,0,0,1,2.853,0H21.147A2.853,2.853,0,0,1,24,2.846V21.154A2.853,2.853,0,0,1,21.147,24ZM2.25,9.75V21A.751.751,0,0,0,3,21.75H21A.751.751,0,0,0,21.75,21V9.75h-3a3.87,3.87,0,0,1,.58,2.278,7.3,7.3,0,0,1-14.6,0A4.556,4.556,0,0,1,5.25,9.75Zm9.778-2.326a4.6,4.6,0,1,0,4.615,4.6A4.615,4.615,0,0,0,12.028,7.423ZM18,3a.751.751,0,0,0-.75.751V6a.751.751,0,0,0,.75.75h2.25A.751.751,0,0,0,21,6V3.75A.751.751,0,0,0,20.25,3Z" fill="#fff" opacity="0.8"/>
</svg>
