<svg id="Group_2_Copy" data-name="Group 2 Copy" xmlns="http://www.w3.org/2000/svg" width="112" height="112" viewBox="0 0 112 112">
  <rect id="Mask" width="112" height="112" rx="24" fill="#0bc767"/>
  <g id="Group_3" data-name="Group 3" transform="translate(9.078 31.828)">
    <ellipse id="Oval" cx="19.591" cy="20.738" rx="19.591" ry="20.738" transform="matrix(0.985, -0.174, 0.174, 0.985, 0.105, 6.895)" fill="#fff"/>
    <ellipse id="Oval_Copy_3" data-name="Oval Copy 3" cx="8.798" cy="9.508" rx="8.798" ry="9.508" transform="matrix(0.985, -0.174, 0.174, 0.985, 13.979, 15.704)" fill="#37474f"/>
    <ellipse id="Oval_Copy_6" data-name="Oval Copy 6" cx="2.993" cy="3.26" rx="2.993" ry="3.26" transform="translate(21.32 16.882)" fill="rgba(255,255,255,0.44)"/>
  </g>
  <g id="Group_4" data-name="Group 4" transform="translate(57.313 31.828)">
    <ellipse id="Oval_Copy" data-name="Oval Copy" cx="19.591" cy="20.738" rx="19.591" ry="20.738" transform="matrix(0.985, 0.174, -0.174, 0.985, 7.307, 0.091)" fill="#fff"/>
    <ellipse id="Oval-2" data-name="Oval" cx="8.798" cy="9.508" rx="8.798" ry="9.508" transform="matrix(0.985, 0.174, -0.174, 0.985, 14.973, 12.648)" fill="#37474f"/>
    <ellipse id="Oval_Copy_7" data-name="Oval Copy 7" cx="2.993" cy="3.26" rx="2.993" ry="3.26" transform="translate(19.012 16.882)" fill="rgba(255,255,255,0.44)"/>
  </g>
  <path id="Boca_Cerrada" data-name="Boca Cerrada" d="M45.7.036c1.781-.337,2.64,1.753,1.35,3.1-5.838,6.1-14.957,8.649-23.217,8.61C15.618,11.708,6.4,9.27.613,3.142-.663,1.791.183-.3,1.964.041a75.455,75.455,0,0,0,8.57,3A58.927,58.927,0,0,0,23.744,4.7h.169A58.93,58.93,0,0,0,37.125,3.035a75.467,75.467,0,0,0,8.57-3" transform="translate(32.665 90.436) rotate(-8)" opacity="0.44"/>
  <g id="Group" transform="translate(15.491 15.422)">
    <path id="Fill_1_Copy" data-name="Fill 1 Copy" d="M24.575-.022C25.533.159,26-.965,25.3-1.69c-3.139-3.282-8.043-4.651-12.485-4.629C8.4-6.3,3.445-4.985.33-1.687-.357-.96.1.162,1.056-.02A40.591,40.591,0,0,1,5.665-1.633a31.69,31.69,0,0,1,7.1-.9h.091a31.681,31.681,0,0,1,7.1.894C22.34-1.062,22.176-.476,24.575-.022Z" transform="translate(0.893 14.51) rotate(-8)" stroke="#000" stroke-miterlimit="10" stroke-width="1.2" opacity="0.15"/>
    <path id="Fill_1_Copy_5" data-name="Fill 1 Copy 5" d="M24.576-.02c.958.181,1.42-.943.726-1.668C22.164-4.97,17.259-6.34,12.816-6.318,8.4-6.3,3.444-4.985.33-1.687-.357-.961.1.162,1.056-.02A40.583,40.583,0,0,1,5.665-1.632a31.688,31.688,0,0,1,7.105-.9h.091a31.684,31.684,0,0,1,7.105.9A40.573,40.573,0,0,1,24.576-.02" transform="translate(54.886 6.318)" stroke="#000" stroke-miterlimit="10" stroke-width="1.2" opacity="0.15"/>
  </g>
</svg>
