<svg xmlns="http://www.w3.org/2000/svg" xmlns:xlink="http://www.w3.org/1999/xlink" width="123.67" height="39.96" viewBox="0 0 123.67 39.96">
  <defs>
    <clipPath id="clip-path">
      <path id="Clip_2" data-name="Clip 2" d="M0,39.96H123.67V0H0V39.96Z" transform="translate(0.055 0.04)" fill="none"/>
    </clipPath>
  </defs>
  <g id="Download_on_the_App_Store_Badge_DK_135x40" transform="translate(-0.055 -0.04)">
    <g id="Group_3" data-name="Group 3">
      <path id="Clip_2-2" data-name="Clip 2" d="M0,39.96H123.67V0H0V39.96Z" transform="translate(0.055 0.04)" fill="none"/>
      <g id="Group_3-2" data-name="Group 3" clip-path="url(#clip-path)">
        <path id="Fill_1" data-name="Fill 1" d="M119.323,40H4.334A4.555,4.555,0,0,1,0,35.267V4.726A4.548,4.548,0,0,1,4.334,0H119.323a4.6,4.6,0,0,1,4.4,4.726V35.267a4.61,4.61,0,0,1-4.4,4.733" fill="#a9aaa9"/>
      </g>
    </g>
    <path id="Fill_4" data-name="Fill 4" d="M122.022,34.378a3.68,3.68,0,0,1-3.514,3.83H3.518A3.684,3.684,0,0,1,0,34.378V3.835A3.69,3.69,0,0,1,3.518,0H118.507a3.685,3.685,0,0,1,3.514,3.835V34.378h0" transform="translate(0.816 0.89)" fill="#0a0b09"/>
    <path id="Fill_5" data-name="Fill 5" d="M15.888,7.413a5.86,5.86,0,0,1,2.53-4.865A5.3,5.3,0,0,0,14.133.021C12.33-.186,10.582,1.2,9.663,1.2,8.727,1.2,7.312.041,5.789.075a5.664,5.664,0,0,0-4.8,3.2C-1.091,7.194.458,12.959,2.448,16.13c1,1.553,2.158,3.287,3.68,3.226,1.489-.068,2.046-1.037,3.844-1.037,1.781,0,2.3,1.037,3.856,1,1.6-.029,2.6-1.56,3.565-3.127a13.409,13.409,0,0,0,1.63-3.624,5.548,5.548,0,0,1-3.134-5.153" transform="translate(11.724 12.371)" fill="#fffffe"/>
    <path id="Fill_6" data-name="Fill 6" d="M3.5,4.089A6.06,6.06,0,0,0,4.7,0,5.185,5.185,0,0,0,1.255,1.944,5.745,5.745,0,0,0,.027,5.882,4.267,4.267,0,0,0,3.5,4.089" transform="translate(21.177 6.217)" fill="#fffffe"/>
    <path id="Fill_7" data-name="Fill 7" d="M2.026,13.309H0L3.926,0H6.351L10.3,13.307H8.214L7.074,9.4H3.112l-1.086,3.91ZM5.048,1.777c-.123.578-.318,1.422-.58,2.508L3.456,7.759H6.73L5.7,4.285c-.106-.347-.308-1.167-.616-2.508Z" transform="translate(38.869 18.196)" fill="#fffffe"/>
    <path id="Fill_8" data-name="Fill 8" d="M2.026,13.7H.072V3.356C.072,2.342.048,1.279,0,.2H1.718l.11,1.521h.036A3.208,3.208,0,0,1,4.831,0a3.178,3.178,0,0,1,2.6,1.342,5.642,5.642,0,0,1,1.04,3.535A5.791,5.791,0,0,1,7.256,8.746a3.428,3.428,0,0,1-2.7,1.264,2.646,2.646,0,0,1-2.5-1.363H2.026V13.7ZM4.2,1.7a1.931,1.931,0,0,0-1.311.524,2.478,2.478,0,0,0-.77,1.372,3.061,3.061,0,0,0-.091.651v1.6a2.716,2.716,0,0,0,.589,1.768,1.89,1.89,0,0,0,1.529.721A1.959,1.959,0,0,0,5.863,7.4a4.392,4.392,0,0,0,.615-2.449A4.239,4.239,0,0,0,5.9,2.645,1.965,1.965,0,0,0,4.2,1.7Z" transform="translate(50.793 21.711)" fill="#fffffe"/>
    <path id="Fill_9" data-name="Fill 9" d="M2.026,13.7H.072V3.356C.072,2.342.048,1.279,0,.2H1.719l.109,1.521h.036A3.208,3.208,0,0,1,4.831,0a3.178,3.178,0,0,1,2.6,1.342,5.647,5.647,0,0,1,1.04,3.535A5.787,5.787,0,0,1,7.255,8.746a3.424,3.424,0,0,1-2.7,1.264,2.644,2.644,0,0,1-2.5-1.363H2.026V13.7ZM4.2,1.7a1.935,1.935,0,0,0-1.312.524,2.488,2.488,0,0,0-.769,1.372,3.084,3.084,0,0,0-.091.651v1.6a2.724,2.724,0,0,0,.587,1.768,1.891,1.891,0,0,0,1.531.721A1.958,1.958,0,0,0,5.862,7.4a4.385,4.385,0,0,0,.616-2.449A4.246,4.246,0,0,0,5.9,2.645,1.965,1.965,0,0,0,4.2,1.7Z" transform="translate(60.908 21.711)" fill="#fffffe"/>
    <path id="Fill_10" data-name="Fill 10" d="M7.566,9.774a3.7,3.7,0,0,1-1.083,2.763A4.544,4.544,0,0,1,3.161,13.7,5.439,5.439,0,0,1,0,12.873L.453,11.1a5.023,5.023,0,0,0,2.825.849A2.512,2.512,0,0,0,5,11.4a1.841,1.841,0,0,0,.614-1.454A1.94,1.94,0,0,0,5.1,8.583,4.634,4.634,0,0,0,3.423,7.554Q.22,6.25.22,3.737A3.519,3.519,0,0,1,1.343,1.048,4.19,4.19,0,0,1,4.329,0,5.5,5.5,0,0,1,7.1.631L6.607,2.369a4.483,4.483,0,0,0-2.334-.612,2.231,2.231,0,0,0-1.609.553,1.648,1.648,0,0,0-.488,1.205,1.683,1.683,0,0,0,.561,1.3A6.165,6.165,0,0,0,4.509,5.845,6,6,0,0,1,6.825,7.463a3.584,3.584,0,0,1,.741,2.311" transform="translate(73.12 17.999)" fill="#fffffe"/>
    <path id="Fill_11" data-name="Fill 11" d="M5.356,3.989H3.2V8.648q0,1.778,1.14,1.777a3.25,3.25,0,0,0,.869-.1l.053,1.619a4.085,4.085,0,0,1-1.52.236,2.249,2.249,0,0,1-1.81-.769,4.036,4.036,0,0,1-.652-2.587V3.989H0v-1.6H1.283V.632L3.2,0V2.389H5.356v1.6" transform="translate(81.79 19.519)" fill="#fffffe"/>
    <path id="Fill_12" data-name="Fill 12" d="M4.234,10.01a3.8,3.8,0,0,1-3.084-1.4A5.41,5.41,0,0,1,0,5.074,5.528,5.528,0,0,1,1.185,1.422,3.953,3.953,0,0,1,4.378,0,3.88,3.88,0,0,1,7.492,1.4,5.369,5.369,0,0,1,8.613,4.916,5.591,5.591,0,0,1,7.456,8.549,4,4,0,0,1,4.234,10.01Zm.073-8.45A1.947,1.947,0,0,0,2.515,2.708a4.743,4.743,0,0,0-.524,2.317A4.65,4.65,0,0,0,2.515,7.3a1.923,1.923,0,0,0,3.529-.02,4.658,4.658,0,0,0,.543-2.3,4.653,4.653,0,0,0-.526-2.277A1.92,1.92,0,0,0,4.306,1.56Z" transform="translate(88.251 21.711)" fill="#fffffe"/>
    <path id="Fill_13" data-name="Fill 13" d="M4.706,2.072a3.112,3.112,0,0,0-.616-.058A1.8,1.8,0,0,0,2.5,2.863a3.4,3.4,0,0,0-.488,1.895V9.793H.056L.073,3.219Q.073,1.558,0,.2H1.7l.071,1.836h.053A3.288,3.288,0,0,1,2.805.514,2.233,2.233,0,0,1,4.218,0a2.881,2.881,0,0,1,.488.039V2.072" transform="translate(98.509 21.711)" fill="#fffffe"/>
    <path id="Fill_14" data-name="Fill 14" d="M4.38,9.991A4.1,4.1,0,0,1,1.166,8.677,5.139,5.139,0,0,1,0,5.153,5.846,5.846,0,0,1,1.087,1.54,3.64,3.64,0,0,1,4.162,0,3.208,3.208,0,0,1,7.041,1.54a5.567,5.567,0,0,1,.776,3.021,5.405,5.405,0,0,1-.071.967H1.884A2.92,2.92,0,0,0,2.733,7.7a2.759,2.759,0,0,0,1.917.671,6.034,6.034,0,0,0,2.372-.455L7.328,9.4A6.837,6.837,0,0,1,4.38,9.991Zm-.364-8.51a1.817,1.817,0,0,0-1.555.868,3.354,3.354,0,0,0-.578,1.658h4.07a3.123,3.123,0,0,0-.38-1.639A1.679,1.679,0,0,0,4.017,1.481Z" transform="translate(104.137 21.691)" fill="#fffffe"/>
    <path id="Fill_15" data-name="Fill 15" d="M4.516,6.537h-.96V3.588H.96V6.537H0V0H.96V2.667h2.6V0h.96V6.537" transform="translate(40.028 6.896)" fill="#fffffe"/>
    <path id="Fill_16" data-name="Fill 16" d="M2.15,4.909A2.009,2.009,0,0,1,.572,4.263,2.525,2.525,0,0,1,0,2.532,2.877,2.877,0,0,1,.534.757,1.787,1.787,0,0,1,2.044,0,1.571,1.571,0,0,1,3.457.757,2.722,2.722,0,0,1,3.84,2.241a2.727,2.727,0,0,1-.036.475H.924a1.435,1.435,0,0,0,.418,1.066,1.354,1.354,0,0,0,.942.33A2.946,2.946,0,0,0,3.449,3.89l.151.727A3.365,3.365,0,0,1,2.15,4.909ZM1.973.728a.9.9,0,0,0-.765.427,1.662,1.662,0,0,0-.284.814h2a1.525,1.525,0,0,0-.185-.805A.828.828,0,0,0,1.973.728Z" transform="translate(46.003 8.612)" fill="#fffffe"/>
    <path id="Fill_17" data-name="Fill 17" d="M3.786,4.811h-.96v-2.7q0-1.248-.872-1.248a.838.838,0,0,0-.693.344A1.279,1.279,0,0,0,1,2.015v2.8H.035V1.445Q.035.824,0,.1H.844L.888.834H.916a1.453,1.453,0,0,1,.5-.569A1.514,1.514,0,0,1,2.284,0a1.317,1.317,0,0,1,1,.427,2.183,2.183,0,0,1,.5,1.561V4.811" transform="translate(51.203 8.622)" fill="#fffffe"/>
    <path id="Fill_18" data-name="Fill 18" d="M2.631,1.959H1.574v2.29q0,.873.56.873a1.55,1.55,0,0,0,.427-.049l.026.8a2.012,2.012,0,0,1-.746.116,1.1,1.1,0,0,1-.889-.378,1.978,1.978,0,0,1-.32-1.271V1.959H0V1.174H.631V.31L1.574,0V1.174H2.631v.785" transform="translate(56.226 7.545)" fill="#fffffe"/>
    <path id="Fill_19" data-name="Fill 19" d="M1.066,6.742H.106V2.028h.959V6.741Zm-.5-5.49a.529.529,0,0,1-.4-.179A.644.644,0,0,1,0,.622.619.619,0,0,1,.169.175.559.559,0,0,1,.587,0a.565.565,0,0,1,.419.175.625.625,0,0,1,.168.447.636.636,0,0,1-.168.455A.573.573,0,0,1,.569,1.252Z" transform="translate(62.679 6.691)" fill="#fffffe"/>
  </g>
</svg>
