<svg xmlns="http://www.w3.org/2000/svg" width="29.533" height="24" viewBox="0 0 29.533 24">
  <path id="Fill_1" data-name="Fill 1" d="M29.533,2.841a12.127,12.127,0,0,1-3.48.954A6.076,6.076,0,0,0,28.717.443a12.151,12.151,0,0,1-3.848,1.47A6.065,6.065,0,0,0,14.545,7.439,17.2,17.2,0,0,1,2.056,1.108,6.066,6.066,0,0,0,3.931,9.2,6.028,6.028,0,0,1,1.187,8.44c0,.026,0,.051,0,.077a6.062,6.062,0,0,0,4.861,5.941,6.094,6.094,0,0,1-2.736.1,6.065,6.065,0,0,0,5.66,4.207,12.157,12.157,0,0,1-7.525,2.593A12.455,12.455,0,0,1,0,21.278,17.154,17.154,0,0,0,9.288,24c11.145,0,17.239-9.233,17.239-17.239q0-.395-.018-.784a12.288,12.288,0,0,0,3.023-3.136" fill="#fff" opacity="0.8"/>
</svg>
