<svg xmlns="http://www.w3.org/2000/svg" xmlns:xlink="http://www.w3.org/1999/xlink" width="135.866" height="39.886" viewBox="0 0 135.866 39.886">
  <defs>
    <clipPath id="clip-path">
      <path id="Clip_2" data-name="Clip 2" d="M135.866,19.943V0H0V39.885H135.866V19.943Z" fill="none"/>
    </clipPath>
    <clipPath id="clip-path-2">
      <path id="Clip_7" data-name="Clip 7" d="M0,39.886H135.866V0H0Z" transform="translate(0 0)" fill="none"/>
    </clipPath>
  </defs>
  <g id="playstore-button" transform="translate(0 0)">
    <g id="Group_3" data-name="Group 3" transform="translate(0 0)">
      <path id="Clip_2-2" data-name="Clip 2" d="M135.866,19.943V0H0V39.885H135.866V19.943Z" fill="none"/>
      <g id="Group_3-2" data-name="Group 3" clip-path="url(#clip-path)">
        <path id="Fill_1" data-name="Fill 1" d="M130.834,39.886H5.032A5.024,5.024,0,0,1,0,34.9V4.986A5.024,5.024,0,0,1,5.032,0h125.8a5.024,5.024,0,0,1,5.032,4.986V34.9a5.024,5.024,0,0,1-5.032,4.986" transform="translate(0 0)"/>
      </g>
    </g>
    <path id="Fill_4" data-name="Fill 4" d="M130.834,39.885H5.032A5.014,5.014,0,0,1,0,34.9V4.986A5.015,5.015,0,0,1,5.032,0h125.8a5.015,5.015,0,0,1,5.032,4.986V34.9A5.014,5.014,0,0,1,130.834,39.885ZM5.032.8A4.212,4.212,0,0,0,.805,4.986V34.9a4.212,4.212,0,0,0,4.226,4.188h125.8a4.212,4.212,0,0,0,4.227-4.188V4.986A4.213,4.213,0,0,0,130.834.8Z" transform="translate(0 0)" fill="#a6a6a6"/>
    <path id="Clip_7-2" data-name="Clip 7" d="M0,39.886H135.866V0H0Z" transform="translate(0 0)" fill="none"/>
    <g clip-path="url(#clip-path-2)">
      <path id="Fill_6" data-name="Fill 6" d="M36.487,16.98a4.1,4.1,0,0,1-3.794-2.506L34.33,13.8a2.365,2.365,0,0,0,2.157,1.509,2.178,2.178,0,0,0,2.285-2.489v-.61h-.064a2.936,2.936,0,0,1-2.254.964,4.244,4.244,0,0,1,0-8.483,2.985,2.985,0,0,1,2.254.948h.064v-.69h1.785v7.615a4.5,4.5,0,0,1-1.208,3.383A4.027,4.027,0,0,1,36.487,16.98Zm.13-10.618a2.465,2.465,0,0,0-2.383,2.587A2.446,2.446,0,0,0,36.617,11.5,2.377,2.377,0,0,0,38.9,8.949,2.4,2.4,0,0,0,36.617,6.362ZM80.156,16.7H78.2l1.911-4.2L76.757,4.941h2.023l2.234,5.4h.065l2.153-5.4H85.32L80.156,16.7ZM48.89,13.173a4.169,4.169,0,0,1-4.247-4.241,3.958,3.958,0,0,1,7.7-1.543l.194.482-5.723,2.346A2.169,2.169,0,0,0,48.89,11.5,2.44,2.44,0,0,0,51,10.329l1.459.964A4.275,4.275,0,0,1,48.89,13.173ZM48.744,6.33a2.305,2.305,0,0,0-1.583.708A2.36,2.36,0,0,0,46.507,8.8L50.333,7.23A1.657,1.657,0,0,0,48.744,6.33ZM27.268,13.173a4.326,4.326,0,0,1-3.036-1.205,4.185,4.185,0,0,1-1.26-3.036,4.187,4.187,0,0,1,1.26-3.043,4.443,4.443,0,0,1,6.072,0,4.187,4.187,0,0,1,1.26,3.043,4.185,4.185,0,0,1-1.26,3.036A4.325,4.325,0,0,1,27.268,13.173Zm0-6.811a2.353,2.353,0,0,0-1.695.713,2.628,2.628,0,0,0-.722,1.858,2.42,2.42,0,1,0,4.831,0,2.629,2.629,0,0,0-.721-1.858A2.35,2.35,0,0,0,27.268,6.362Zm-9.374,6.811a4.325,4.325,0,0,1-3.035-1.205A4.185,4.185,0,0,1,13.6,8.932a4.187,4.187,0,0,1,1.26-3.043,4.443,4.443,0,0,1,6.072,0,4.293,4.293,0,0,1,0,6.078A4.327,4.327,0,0,1,17.894,13.173Zm0-6.811a2.35,2.35,0,0,0-1.693.713,2.629,2.629,0,0,0-.721,1.858,2.42,2.42,0,1,0,4.831,0,2.628,2.628,0,0,0-.722-1.858A2.353,2.353,0,0,0,17.894,6.362ZM6.745,13.173A6.781,6.781,0,0,1,2,11.242a6.421,6.421,0,0,1,0-9.31A6.781,6.781,0,0,1,6.745,0,6.35,6.35,0,0,1,11.3,1.816L10.02,3.084A4.669,4.669,0,0,0,6.745,1.8,4.745,4.745,0,0,0,1.977,6.586a4.778,4.778,0,0,0,1.38,3.388,4.728,4.728,0,0,0,3.387,1.4A4.447,4.447,0,0,0,10.1,10.057a3.771,3.771,0,0,0,.988-2.265H6.745v-1.8h6.113a5.828,5.828,0,0,1,.1,1.123,5.948,5.948,0,0,1-1.573,4.209A6.119,6.119,0,0,1,6.745,13.173Zm65.61-.022a2.886,2.886,0,0,1-3.124-2.742A2.471,2.471,0,0,1,70.37,8.321,4.453,4.453,0,0,1,72.857,7.6a4.194,4.194,0,0,1,1.958.481V7.955a1.808,1.808,0,0,0-1.975-1.6,1.764,1.764,0,0,0-1.716.914l-1.668-.69a3.557,3.557,0,0,1,3.352-1.908,4.112,4.112,0,0,1,2.717.894,3.236,3.236,0,0,1,1.1,2.553V12.9H74.815v-.962H74.75A2.67,2.67,0,0,1,72.355,13.152ZM73.1,9.111c-.991,0-1.991.411-1.991,1.33,0,.772.9,1.059,1.473,1.059a2.257,2.257,0,0,0,2.234-1.973A3.389,3.389,0,0,0,73.1,9.111Zm-4.9,3.805H66.317V.451h1.878V12.915Zm-9.663,0H56.654V.451h4.5a3.973,3.973,0,0,1,4.127,3.871,3.973,3.973,0,0,1-4.127,3.872H58.531v4.721Zm0-10.732V6.458H61.2a2.179,2.179,0,0,0,2.2-2.137,2.173,2.173,0,0,0-2.2-2.138Zm-14.8,10.732H41.853V.45h1.881V12.915Z" transform="translate(41.305 16.998)" fill="#fff"/>
      <path id="Fill_8" data-name="Fill 8" d="M.466.073A1.985,1.985,0,0,0,0,1.474V23.527a1.984,1.984,0,0,0,.466,1.4L.54,25,13.009,12.646v-.291L.54,0Z" transform="translate(10.036 7.444)" fill="#00d2ff"/>
      <path id="Fill_9" data-name="Fill 9" d="M4.155,8.53,0,4.41V4.118L4.156,0,4.25.053,9.174,2.825c1.407.792,1.407,2.087,0,2.88L4.25,8.477Z" transform="translate(23.046 15.68)" fill="#ffbd00"/>
      <path id="Fill_10" data-name="Fill 10" d="M16.793,4.212,12.543,0,0,12.427a1.648,1.648,0,0,0,2.091.061l14.7-8.276" transform="translate(10.503 19.944)" fill="#ff3a44"/>
      <path id="Fill_11" data-name="Fill 11" d="M16.793,8.612,2.091.336A1.648,1.648,0,0,0,0,.4L12.543,12.824Z" transform="translate(10.503 7.12)" fill="#00f076"/>
      <path id="Fill_12" data-name="Fill 12" d="M3.879,3.6l.023.842L1.1,0H0V6.181H.975V2.352L.952,1.512,3.89,6.181h.966V0H3.879Z" transform="translate(41.392 6.881)" fill="#fff"/>
      <path id="Fill_13" data-name="Fill 13" d="M3.694,3.893a1.619,1.619,0,0,1-.352,1.085,1.259,1.259,0,0,1-1.006.4,1.246,1.246,0,0,1-1.007-.4A1.624,1.624,0,0,1,.976,3.893V0H0V3.859A2.475,2.475,0,0,0,.647,5.632a2.232,2.232,0,0,0,1.688.683,2.223,2.223,0,0,0,1.706-.68,2.507,2.507,0,0,0,.63-1.776V0H3.694Z" transform="translate(47.296 6.881)" fill="#fff"/>
      <path id="Fill_14" data-name="Fill 14" d="M.977,6.181H0V0H2.159A2.024,2.024,0,0,1,3.554.53a1.746,1.746,0,0,1,.593,1.349,1.745,1.745,0,0,1-.593,1.348,2.024,2.024,0,0,1-1.395.531H.977V6.18Zm0-5.247v1.89h1.2a.9.9,0,0,0,.709-.293.951.951,0,0,0,.27-.653.947.947,0,0,0-.27-.652A.9.9,0,0,0,2.175.934Z" transform="translate(55.037 6.881)" fill="#fff"/>
      <path id="Fill_15" data-name="Fill 15" d="M1.077,7.386H0l2.177-5.72a.925.925,0,0,1-.293-.7A.928.928,0,0,1,2.167.28.949.949,0,0,1,2.861,0a.944.944,0,0,1,.69.284.928.928,0,0,1,.288.685.936.936,0,0,1-.3.7L5.722,7.384H4.646L4.063,5.765h-2.4L1.077,7.385ZM2.861,2.494,2,4.847h1.72Zm0-1.76A.227.227,0,0,0,2.7.8a.222.222,0,0,0-.072.165.23.23,0,0,0,.063.163.216.216,0,0,0,.148.071h.026a.23.23,0,0,0,.166-.07.225.225,0,0,0,0-.329A.231.231,0,0,0,2.861.734Z" transform="translate(58.82 5.677)" fill="#fff"/>
    </g>
  </g>
</svg>
