<svg xmlns="http://www.w3.org/2000/svg" xmlns:xlink="http://www.w3.org/1999/xlink" width="187" height="153" viewBox="0 0 187 153">
  <defs>
    <clipPath id="clip-path">
      <path id="Mask" d="M78.751,151C112.024,151,185,115.167,185,73.306,185,22.128,131.147,0,60.247,0A60.184,60.184,0,0,0,0,60.121C0,92.18,32.98,151,78.751,151Z" fill="#fff" stroke="#e4ebe6" stroke-miterlimit="10" stroke-width="1"/>
    </clipPath>
  </defs>
  <g id="Group_25" data-name="Group 25" transform="translate(1 1)">
    <g id="Mask-2" data-name="Mask" fill="#fff" stroke-miterlimit="10">
      <path d="M 78.75083160400391 151.5 C 67.86373901367188 151.5 57.13733291625977 148.2133331298828 46.86957168579102 141.7312622070312 C 42.22859573364258 138.8014068603516 37.68761825561523 135.2106475830078 33.37278747558594 131.0586853027344 C 29.30580902099609 127.1452407836914 25.41576194763184 122.7118835449219 21.81068992614746 117.8817367553711 C 15.05885696411133 108.8355255126953 9.384428977966309 98.51064300537109 5.400880813598633 88.02333068847656 C 3.494166612625122 83.00354766845703 2.019333362579346 78.06137847900391 1.017380952835083 73.33412170410156 C 0.01052380912005901 68.58371734619141 -0.5 64.13816833496094 -0.5 60.12099838256836 C -0.5 51.93730926513672 1.106238126754761 43.99816513061523 4.274118900299072 36.52407073974609 C 5.796666622161865 32.93190383911133 7.681118965148926 29.46728515625 9.875143051147461 26.22647666931152 C 12.04823780059814 23.0165958404541 14.54385757446289 19.99818992614746 17.29266738891602 17.25511932373047 C 20.04147529602051 14.51204776763916 23.06616592407227 12.02166652679443 26.28271484375 9.853142738342285 C 29.53021430969238 7.663738250732422 33.00197601318359 5.783285617828369 36.60154724121094 4.263952255249023 C 44.09092712402344 1.102833390235901 52.04631042480469 -0.5 60.2467155456543 -0.5 C 78.29875946044922 -0.5 94.95223999023438 0.9353095293045044 109.744499206543 3.766071319580078 C 125.1448059082031 6.71319055557251 138.5025482177734 11.17254734039307 149.4466400146484 17.02028656005859 C 160.9637908935547 23.17423820495605 169.8620452880859 30.90061950683594 175.8941955566406 39.98478698730469 C 179.0309448242188 44.70859527587891 181.430908203125 49.86885833740234 183.0273742675781 55.32223892211914 C 184.6680908203125 60.92664337158203 185.5 66.97737884521484 185.5 73.30640411376953 C 185.5 83.25954437255859 181.4521179199219 93.39042663574219 173.4687805175781 103.417594909668 C 169.8917083740234 107.9104537963867 165.5215759277344 112.3677368164062 160.4797210693359 116.665641784668 C 155.7467346191406 120.7002105712891 150.4109344482422 124.6056671142578 144.6204833984375 128.2734985351562 C 133.7658843994141 135.1490936279297 121.6400680541992 141.0088500976562 109.553955078125 145.2192687988281 C 103.7693786621094 147.2344055175781 98.18964385986328 148.7985992431641 92.96968841552734 149.8683776855469 C 87.68690490722656 150.9510498046875 82.90299987792969 151.5 78.75083160400391 151.5 Z" stroke="none"/>
      <path d="M 78.75082397460938 151 C 112.0241775512695 151 185 115.1674728393555 185 73.306396484375 C 185 22.12797546386719 131.1471252441406 0 60.24672317504883 0 C 26.97337532043457 0 0 26.91707420349121 0 60.12099838256836 C 0 92.18015289306641 32.98007583618164 151 78.75082397460938 151 M 78.75082397460938 152 C 67.76777648925781 152 56.95157623291016 148.6873474121094 46.6026496887207 142.1540679931641 C 41.93307495117188 139.2061767578125 37.36527633666992 135.5943756103516 33.02610015869141 131.4190063476562 C 28.93952560424805 127.4866714477539 25.03129959106445 123.0327224731445 21.40999984741211 118.1808242797852 C 14.63074970245361 109.097900390625 8.93327522277832 98.73100280761719 4.933475017547607 88.20089721679688 C 3.01764988899231 83.15715026855469 1.535500049591064 78.19012451171875 0.528249979019165 73.43777465820312 C -0.4858250021934509 68.65335083007812 -1 64.17295074462891 -1 60.12099838256836 C -1 51.86989974975586 0.619575023651123 43.8651008605957 3.813775062561035 36.32894897460938 C 5.348925113677979 32.70700073242188 7.248974800109863 29.2137508392334 9.461125373840332 25.9461498260498 C 11.65205001831055 22.70992469787598 14.16812515258789 19.66674995422363 16.93950080871582 16.90117454528809 C 19.71080017089844 14.13564968109131 22.76027488708496 11.62485027313232 26.00320053100586 9.438549995422363 C 29.27745056152344 7.231124877929688 32.77782440185547 5.335175037384033 36.40712356567383 3.803299903869629 C 43.9583740234375 0.6160749793052673 51.97917556762695 -1 60.24672317504883 -1 C 78.33025360107422 -1 95.01532745361328 0.4383000135421753 109.8384780883789 3.274975061416626 C 125.2883224487305 6.231575012207031 138.6937255859375 10.70779991149902 149.6822814941406 16.57929992675781 C 161.273193359375 22.77264976501465 170.2322998046875 30.55434989929199 176.3107299804688 39.70819854736328 C 179.4753570556641 44.47397613525391 181.8966064453125 49.68002319335938 183.5072479248047 55.1817512512207 C 185.1613311767578 60.8317985534668 186 66.92980194091797 186 73.306396484375 C 186 78.48889923095703 184.8976287841797 83.78427124023438 182.7235260009766 89.04542541503906 C 180.6991424560547 93.94422149658203 177.7170257568359 98.88449859619141 173.8599548339844 103.7290267944336 C 170.2629547119141 108.2469482421875 165.8703002929688 112.7274780273438 160.8040771484375 117.0461502075195 C 156.05322265625 121.095947265625 150.6983032226562 125.0155029296875 144.8880310058594 128.6958770751953 C 134.0016021728516 135.5916442871094 121.8401489257812 141.4686279296875 109.7184219360352 145.6914215087891 C 103.9130020141602 147.7138519287109 98.31167602539062 149.2839813232422 93.07007598876953 150.3582000732422 C 87.75432586669922 151.4476318359375 82.93662261962891 152 78.75082397460938 152 Z" stroke="none" fill="#e4ebe6"/>
    </g>
    <g id="Group_25-2" data-name="Group 25" clip-path="url(#clip-path)">
      <g id="Group_25-3" data-name="Group 25" transform="translate(17 21)">
        <g id="Group_27" data-name="Group 27">
          <g id="Group_24" data-name="Group 24" transform="matrix(0.998, -0.07, 0.07, 0.998, 0.251, 7.079)">
            <rect id="Rectangle" width="99.825" height="153.065" rx="18.634" fill="#12aa5d"/>
            <path id="Combined_Shape" data-name="Combined Shape" d="M71.874,138.424H13.31A13.31,13.31,0,0,1,0,125.114V13.31A13.31,13.31,0,0,1,13.31,0h4.658A7.933,7.933,0,0,0,20.31,5.644a7.931,7.931,0,0,0,5.644,2.341H59.23A8,8,0,0,0,67.216,0h4.658a13.31,13.31,0,0,1,13.31,13.31v111.8a13.31,13.31,0,0,1-13.31,13.309Z" transform="translate(7.321 6.655)" fill="#81d4fa"/>
          </g>
          <path id="Combined_Shape-2" data-name="Combined Shape" d="M16.726,52.23.6,32.5a2.661,2.661,0,0,1,2.061-4.346H6.271V3.993A3.993,3.993,0,0,1,10.264,0H28.627A3.993,3.993,0,0,1,32.62,3.993V28.152h2.292A2.662,2.662,0,0,1,36.973,32.5L20.849,52.23a2.663,2.663,0,0,1-4.123,0Z" transform="matrix(0.998, -0.07, 0.07, 0.998, 32.828, 35.234)" fill="#fff"/>
        </g>
        <circle id="Oval" cx="10" cy="10" r="10" transform="translate(48 98)" fill="#fff" opacity="0.388"/>
      </g>
    </g>
    <g id="Group_26" data-name="Group 26" transform="matrix(0.996, 0.087, -0.087, 0.996, 31.397, 114.718)">
      <rect id="Rectangle-2" data-name="Rectangle" width="97" height="23" rx="11.5" transform="translate(0.444 0.245)" fill="#fbc234"/>
      <text id="Downlaod" transform="translate(49.114 15.389)" fill="#fff" font-size="16" font-family="Campton-SemiBold, Campton" font-weight="600" letter-spacing="-0.05em"><tspan x="-35.064" y="0">Downlaod</tspan></text>
    </g>
  </g>
</svg>
