<svg xmlns="http://www.w3.org/2000/svg" width="37.647" height="37.647" viewBox="0 0 37.647 37.647">
  <path id="Fill_23" data-name="Fill 23" d="M33.172,37.647H4.476A4.475,4.475,0,0,1,0,33.182V4.465A4.475,4.475,0,0,1,4.476,0h28.7a4.475,4.475,0,0,1,4.475,4.465V33.182A4.475,4.475,0,0,1,33.172,37.647ZM3.53,15.294V32.941a1.178,1.178,0,0,0,1.176,1.176H32.941a1.178,1.178,0,0,0,1.176-1.176V15.294H29.412a6.076,6.076,0,0,1,.908,3.573,11.453,11.453,0,0,1-22.9,0,7.148,7.148,0,0,1,.82-3.573Zm15.337-3.649a7.223,7.223,0,1,0,7.241,7.222A7.238,7.238,0,0,0,18.867,11.645Zm9.369-6.939a1.178,1.178,0,0,0-1.177,1.176v3.53a1.178,1.178,0,0,0,1.177,1.176h3.529a1.178,1.178,0,0,0,1.176-1.176V5.882a1.178,1.178,0,0,0-1.176-1.176Z" fill="#fff"/>
</svg>
