<svg xmlns="http://www.w3.org/2000/svg" width="46.333" height="37.653" viewBox="0 0 46.333 37.653">
  <path id="Fill_1" data-name="Fill 1" d="M46.333,4.457a19.025,19.025,0,0,1-5.46,1.5A9.533,9.533,0,0,0,45.053.695,19.063,19.063,0,0,1,39.017,3a9.515,9.515,0,0,0-16.2,8.67A26.987,26.987,0,0,1,3.226,1.739,9.516,9.516,0,0,0,6.167,14.43a9.457,9.457,0,0,1-4.3-1.189c0,.041,0,.08,0,.12a9.51,9.51,0,0,0,7.626,9.32,9.56,9.56,0,0,1-4.293.164,9.515,9.515,0,0,0,8.88,6.6A19.073,19.073,0,0,1,2.267,33.515,19.54,19.54,0,0,1,0,33.383a26.912,26.912,0,0,0,14.572,4.27c17.485,0,27.046-14.485,27.046-27.046q0-.619-.028-1.231a19.278,19.278,0,0,0,4.743-4.92" transform="translate(0 0)" fill="#fff"/>
</svg>
