<svg xmlns="http://www.w3.org/2000/svg" xmlns:xlink="http://www.w3.org/1999/xlink" width="180.5" height="167.795" viewBox="0 0 180.5 167.795">
  <defs>
    <clipPath id="clip-path">
      <path id="Mask" d="M86.853,146C135.958,146,177,111,177,70.681c0-19.978-18.968-40.415-34.805-53.6C126.072,3.666,111.625,0,86.853,0,37.749,0,0,36.386,0,76.7S37.749,146,86.853,146Z" transform="translate(0 0.999)" fill="#eef5f0" stroke="#e4ebe6" stroke-miterlimit="10" stroke-width="1"/>
    </clipPath>
  </defs>
  <g id="artwork-3" transform="translate(-0.9 -10.704)">
    <g id="Group_19_Group_9_Mask" data-name="Group 19 + Group 9 Mask" transform="translate(3.4 30.5)">
      <g id="Mask-2" data-name="Mask" transform="translate(0 0.999)" fill="#eef5f0" stroke-miterlimit="10">
        <path d="M 86.85347747802734 146.5 C 74.73147583007812 146.5 63.14438629150391 144.7564849853516 52.41406631469727 141.3178863525391 C 41.92634201049805 137.9570465087891 32.60297775268555 133.0935211181641 24.70290946960449 126.8624114990234 C 20.77827262878418 123.7669143676758 17.22788619995117 120.3366851806641 14.15038681030273 116.6670303344727 C 11.03684043884277 112.9544143676758 8.368931770324707 108.9506378173828 6.220749855041504 104.7669830322266 C 1.761181831359863 96.08187103271484 -0.5 86.63954925537109 -0.5 76.70232391357422 C -0.5 71.70082092285156 0.08236363530158997 66.65941619873047 1.230909109115601 61.7181396484375 C 2.354977369308472 56.88220977783203 4.031454563140869 52.09686660766602 6.213749885559082 47.49502563476562 C 8.368818283081055 42.95061874389648 11.03340911865234 38.55034637451172 14.13347721099854 34.41643524169922 C 17.2260684967041 30.29250335693359 20.77325057983398 26.40532302856445 24.67652320861816 22.86282157897949 C 28.61090850830078 19.29207229614258 32.93579483032227 16.04570770263672 37.53104400634766 13.21391296386719 C 42.20781707763672 10.33186721801758 47.20581817626953 7.854254245758057 52.38622665405273 5.849913120269775 C 63.27429580688477 1.63718581199646 74.87075042724609 -0.498836874961853 86.85347747802734 -0.498836874961853 C 100.1190872192383 -0.498836874961853 109.6972045898438 0.5899813175201416 117.9097518920898 3.031572103500366 C 122.3357696533203 4.347413063049316 126.4450225830078 6.076390266418457 130.4723358154297 8.317299842834473 C 134.4717102050781 10.54266357421875 138.4106750488281 13.28470897674561 142.5143585205078 16.70013999938965 C 149.1442565917969 22.21811676025391 158.5903167724609 30.9200267791748 165.9408416748047 41.03995895385742 C 173.6109313964844 51.59984588623047 177.5 61.57252502441406 177.5 70.68098449707031 C 177.5 75.67307281494141 176.8692474365234 80.69766235351562 175.6252899169922 85.61521148681641 C 174.41455078125 90.40148162841797 172.6108703613281 95.13597869873047 170.2643432617188 99.68723297119141 C 167.9618225097656 104.1531143188477 165.1182250976562 108.4790954589844 161.8125152587891 112.5450057983398 C 158.5367279052734 116.5741424560547 154.7854156494141 120.3749389648438 150.6627502441406 123.8418426513672 C 146.5335235595703 127.3142776489258 142.0055694580078 130.4737243652344 137.2046661376953 133.2324371337891 C 132.3453369140625 136.0247039794922 127.1711349487305 138.4263916015625 121.8257751464844 140.3708038330078 C 116.3643188476562 142.3574066162109 110.6740264892578 143.8844604492188 104.9129333496094 144.9095001220703 C 98.98147583007812 145.9648895263672 92.90538787841797 146.5 86.85347747802734 146.5 Z" stroke="none"/>
        <path d="M 86.85347747802734 146 C 135.9580230712891 146 177 110.9974517822266 177 70.68099975585938 C 177 50.70257186889648 158.031982421875 30.26576232910156 142.1945037841797 17.08445358276367 C 126.0719299316406 3.665858030319214 111.6247634887695 0.001143633155152202 86.85347747802734 0.001143633155152202 C 37.74895095825195 0.001143633155152202 0 36.38585662841797 0 76.70233154296875 C 0 117.0188140869141 37.74895095825195 146 86.85347747802734 146 M 86.85347747802734 147 C 74.67961883544922 147 63.04119110107422 145.2484588623047 52.261474609375 141.7940521240234 C 41.71664428710938 138.4148864746094 32.34042739868164 133.5232696533203 24.39326095581055 127.254997253418 C 20.44180870056152 124.1383590698242 16.86671447753906 120.6841430664062 13.76728534698486 116.9883346557617 C 10.62980937957764 113.2471694946289 7.941143035888672 109.2121658325195 5.775952339172363 104.9953842163086 C 1.279761910438538 96.23892974853516 -1 86.71976470947266 -1 76.70233154296875 C -1 71.66276550292969 -0.413261890411377 66.58325958251953 0.7439047694206238 61.60493087768555 C 1.876047611236572 56.73423767089844 3.564380884170532 51.91488265991211 5.76197624206543 47.28078460693359 C 7.931356906890869 42.70619201660156 10.61335754394531 38.27707290649414 13.73347663879395 34.11642837524414 C 16.84504699707031 29.96719169616699 20.41376113891602 26.05633354187012 24.34047698974609 22.49257278442383 C 28.2976188659668 18.90116691589355 32.64730834960938 15.63614368438721 37.26873779296875 12.78823852539062 C 41.97142791748047 9.890214920043945 46.99700164794922 7.398929119110107 52.205810546875 5.383572101593018 C 63.15164184570312 1.148500800132751 74.80880737304688 -0.9988563656806946 86.85347747802734 -0.9988563656806946 C 100.1693801879883 -0.9988563656806946 109.7914276123047 0.09635791927576065 118.0522384643555 2.552286386489868 C 122.5136642456055 3.87866735458374 126.6558609008789 5.621500968933105 130.7154541015625 7.88038158416748 C 134.7422790527344 10.1210241317749 138.7063598632812 12.88028621673584 142.8342132568359 16.31583404541016 C 149.4859924316406 21.85202407836914 158.9645538330078 30.58442878723145 166.3453979492188 40.74612045288086 C 174.0788269042969 51.39321517944336 178 61.46476364135742 178 70.68099975585938 C 178 75.71437835693359 177.3641204833984 80.78023529052734 176.1100311279297 85.73783111572266 C 174.8899536132812 90.56097412109375 173.0726928710938 95.33131408691406 170.7087554931641 99.91635894775391 C 168.3904724121094 104.4128112792969 165.5278778076172 108.7678375244141 162.2004699707031 112.8604278564453 C 158.9048614501953 116.9139556884766 155.1312866210938 120.7373809814453 150.9845428466797 124.2245254516602 C 146.8327178955078 127.7159805297852 142.2803039550781 130.8925170898438 137.4537658691406 133.6659545898438 C 132.5695648193359 136.4725494384766 127.3690490722656 138.8864593505859 121.9966888427734 140.8406677246094 C 116.5082397460938 142.8370971679688 110.7899017333984 144.3716888427734 105.0005264282227 145.4017791748047 C 99.04023742675781 146.4622802734375 92.9346923828125 147 86.85347747802734 147 Z" stroke="none" fill="#e4ebe6"/>
      </g>
      <g id="Group_19_Group_9_Mask-2" data-name="Group 19 + Group 9 Mask" clip-path="url(#clip-path)">
        <g id="Group_21" data-name="Group 21" transform="translate(23.6 98.5)">
          <path id="Fill_1" data-name="Fill 1" d="M52.619,0,0,11.161l65.425,9.383L110.868,9.363Z" transform="matrix(0.996, 0.087, -0.087, 0.996, 7.823, 0.06)" fill="#ffa100"/>
          <path id="Fill_2" data-name="Fill 2" d="M0,0,1.539,43.745l51.539,7.931L58.249,9.363Z" transform="matrix(0.996, 0.087, -0.087, 0.996, 60.242, 4.646)" fill="#e69203"/>
          <path id="Fill_3" data-name="Fill 3" d="M7.426,40.934a3.9,3.9,0,0,0,2.964,3.1L67.264,57.07l0-47.354L2.143.31A1.559,1.559,0,0,0,.387,2.131Z" transform="matrix(0.996, 0.087, -0.087, 0.996, 5.045, 10.685)" fill="#e3c774"/>
          <path id="Fill_6" data-name="Fill 6" d="M7.636,45.016,0,0,12.906,1.875l5.31,45.565Z" transform="matrix(0.996, 0.087, -0.087, 0.996, 23.61, 15.035)" fill="#d4a839" opacity="0.615"/>
          <g id="topper" transform="matrix(0.996, 0.087, -0.087, 0.996, 72.225, 14.6)">
            <path id="Fill_4" data-name="Fill 4" d="M0,11.671V59.024L39.446,44.35a3.118,3.118,0,0,0,2-2.476L47.161,2.288A1.559,1.559,0,0,0,45.246.552Z" transform="translate(0 0)" fill="#ffe082"/>
            <path id="Fill_5" data-name="Fill 5" d="M0,49.789l10.116-3.763L18.141,0,7.713,2.628Z" transform="translate(16.532 3.085)" fill="#fbc234"/>
          </g>
        </g>
        <g id="Group_9" data-name="Group 9" transform="translate(69.6 37.5)">
          <path id="_" data-name="?" d="M15.95,52.4a6.321,6.321,0,0,1-6.5-6.424v-.151a6.321,6.321,0,0,1,6.5-6.425,6.321,6.321,0,0,1,6.5,6.425v.151A6.321,6.321,0,0,1,15.95,52.4ZM16.323,35h-.588a3.824,3.824,0,0,1-2.675-1.055,4.382,4.382,0,0,1-1.3-2.541l-.735-4.99a3.827,3.827,0,0,1,.636-2.953,3.936,3.936,0,0,1,2.747-1.449c3.235-.408,5.547-1.11,7.068-2.146a4.825,4.825,0,0,0,2.27-4.238v-.147a4.644,4.644,0,0,0-1.783-3.843,8.16,8.16,0,0,0-4.981-1.367,13.643,13.643,0,0,0-8.53,2.935,5.679,5.679,0,0,1-3.308,1.175A5.211,5.211,0,0,1,0,9.246,5.1,5.1,0,0,1,1.912,5.283,22.494,22.494,0,0,1,8.594,1.431,25.19,25.19,0,0,1,17.206,0c5.3,0,9.746,1.361,12.867,3.935A13.008,13.008,0,0,1,33.709,8.7,15.808,15.808,0,0,1,35,15.188v.147a15.087,15.087,0,0,1-1.136,6.009,12.034,12.034,0,0,1-3.1,4.255c-2.38,2.109-5.732,3.576-10.248,4.486l-.22,1.32A4.109,4.109,0,0,1,16.323,35Z" transform="matrix(0.978, 0.208, -0.208, 0.978, 11.769, 0.869)" fill="#12aa5d"/>
        </g>
      </g>
    </g>
    <g id="Group_23" data-name="Group 23" transform="translate(11.345 0.479) rotate(8)">
      <g id="la-tapa" transform="translate(0.558 41.864) rotate(-19)">
        <path id="shape-1" d="M0,16.449l.868,15.5L42.6,14.986a1.832,1.832,0,0,0,1.14-1.609L44.25,2.77A1.832,1.832,0,0,0,41.784.964Z" transform="translate(76.509 4.029)" fill="#ffe082"/>
        <path id="shape-2" d="M0,18.041l74.754,2.4L117.22,4.778,72.625,1,57.063,0Z" transform="translate(1.755 0.035)" fill="#ffe082"/>
        <path id="shape-3" d="M3.093,12.44a1.832,1.832,0,0,0,1.673,1.387L77.378,18l-.869-15.5L2.423.079A1.832,1.832,0,0,0,.585,2.353Z" transform="translate(0 17.971)" fill="#e3c774"/>
        <path id="shape-4" d="M0,0,15.446.674l3.306,14.472L5.044,14.411Z" transform="translate(18.392 18.546)" fill="#ebb02a"/>
        <path id="shape-5" d="M0,17.509,55.988,0l12.79,1.06L15.446,18.183Z" transform="translate(18.392 1.036)" fill="#ffc435"/>
        <path id="shape-6" d="M.893,3.779,0,19.051l9.574-3.913L10.6,0Z" transform="translate(97.43 8.796)" fill="#ebb02a"/>
        <path id="shape-7" d="M78.275,2.863,10.431,0,0,3.258,68.568,6.642Z" transform="translate(29.755 5.933)" fill="#ffc435"/>
      </g>
      <path id="Fill_1-2" data-name="Fill 1" d="M17.263,23.378c-2.048-.6-4.051-1.366-6.042-2.131C7.709,19.9,2.436,17.94.458,14.514A3.686,3.686,0,0,1,1.442,9.84c1.566-1.266,4.012-.808,5.34-2.469A5.107,5.107,0,0,0,7.79,4.266c.193-2.174.929-5.485,3.893-3.809,4.371,2.47,14.505,19.2,8.3,23.624C19.611,24.347,17.648,23.491,17.263,23.378Z" transform="translate(25.133 33.992) rotate(-50)" fill="#ffc435"/>
      <path id="Oval" d="M7.554,15.2c4.172,0,8.716-3.4,8.716-7.6S11.726,0,7.554,0,0,5.741,0,9.938,3.382,15.2,7.554,15.2Z" transform="translate(45.752 22.487) rotate(-25)" fill="#ffc435"/>
      <path id="Fill_1_Copy" data-name="Fill 1 Copy" d="M-18.414,24.937c2.185-.639,4.321-1.458,6.444-2.273C-8.223,21.225-2.6,19.136-.489,15.482A3.932,3.932,0,0,0-1.538,10.5c-1.67-1.35-4.279-.862-5.7-2.633A5.448,5.448,0,0,1-8.309,4.551C-8.515,2.232-9.3-1.3-12.462.488c-4.662,2.635-15.472,20.478-8.854,25.2C-20.918,25.97-18.825,25.057-18.414,24.937Z" transform="translate(87.565 18.062) rotate(50)" fill="#ffc435"/>
    </g>
    <path id="Path_6_Copy" data-name="Path 6 Copy" d="M.366,6.036,4.751,0" transform="translate(139.892 114.168)" fill="none" stroke="#12aa5d" stroke-linecap="round" stroke-miterlimit="10" stroke-width="9"/>
    <path id="Path_6_Copy-2" data-name="Path 6 Copy" d="M-.366,6.036-4.751,0" transform="translate(39.892 116.868)" fill="none" stroke="#fbc234" stroke-linecap="round" stroke-miterlimit="10" stroke-width="9"/>
    <path id="Path_2_Copy" data-name="Path 2 Copy" d="M12.6,9.9h0A6.469,6.469,0,0,0,3.439,6.422h0a1.619,1.619,0,0,1-2.069-.873L0,0" transform="matrix(0.035, -0.999, 0.999, 0.035, 155.933, 75.873)" fill="none" stroke="#fbc234" stroke-linecap="round" stroke-linejoin="round" stroke-miterlimit="10" stroke-width="7.2"/>
    <circle id="Oval-2" data-name="Oval" cx="10.8" cy="10.8" r="10.8" transform="translate(0.9 81)" fill="#12aa5d"/>
  </g>
</svg>
