<?xml version="1.0" encoding="UTF-8"?>
<svg width="40px" height="40px" viewBox="0 0 40 40" version="1.1" xmlns="http://www.w3.org/2000/svg" xmlns:xlink="http://www.w3.org/1999/xlink">
    <!-- Generator: Sketch 58 (84663) - https://sketch.com -->
    <title>Group 5 Copy</title>
    <desc>Created with Sketch.</desc>
    <g id="Design" stroke="none" stroke-width="1" fill="none" fill-rule="evenodd" opacity="0.900000036">
        <g id="Blog" transform="translate(-1329.000000, -299.000000)" fill="#FFFFFF">
            <g id="Group-5-Copy" transform="translate(1329.000000, 299.000000)">
                <path d="M20,0 C31.045695,0 40,8.954305 40,20 C40,31.045695 31.045695,40 20,40 C8.954305,40 0,31.045695 0,20 C0,8.954305 8.954305,0 20,0 Z M16.5136246,12.9407952 C16.0338465,13.4987113 16.09719,14.3399287 16.6551061,14.8197067 L23.4765382,20.6857739 L16.6583761,26.5107966 C16.098912,26.9887687 16.0328497,27.8297769 16.5108217,28.389241 C16.9887938,28.9487051 17.829802,29.0147674 18.3892661,28.5367953 L26.3892661,21.7020822 C27.0104863,21.1713494 27.0120375,20.2116244 26.3925361,19.6788863 L18.3925361,12.7993137 C17.83462,12.3195357 16.9934027,12.3828791 16.5136246,12.9407952 Z" id="Combined-Shape"></path>
            </g>
        </g>
    </g>
</svg>