<svg xmlns="http://www.w3.org/2000/svg" xmlns:xlink="http://www.w3.org/1999/xlink" width="310" height="197" viewBox="0 0 310 197">
  <defs>
    <filter id="Oval" x="278" y="33" width="32" height="32" filterUnits="userSpaceOnUse">
      <feOffset dx="1" dy="1" input="SourceAlpha"/>
      <feGaussianBlur stdDeviation="2" result="blur"/>
      <feFlood flood-opacity="0.322"/>
      <feComposite operator="in" in2="blur"/>
      <feComposite in="SourceGraphic"/>
    </filter>
    <filter id="Oval_Copy_7" x="278" y="78" width="32" height="32" filterUnits="userSpaceOnUse">
      <feOffset dx="1" dy="1" input="SourceAlpha"/>
      <feGaussianBlur stdDeviation="2" result="blur-2"/>
      <feFlood flood-opacity="0.322"/>
      <feComposite operator="in" in2="blur-2"/>
      <feComposite in="SourceGraphic"/>
    </filter>
    <filter id="Oval_Copy_8" x="254" y="123" width="32" height="32" filterUnits="userSpaceOnUse">
      <feOffset dx="1" dy="1" input="SourceAlpha"/>
      <feGaussianBlur stdDeviation="2" result="blur-3"/>
      <feFlood flood-opacity="0.322"/>
      <feComposite operator="in" in2="blur-3"/>
      <feComposite in="SourceGraphic"/>
    </filter>
  </defs>
  <g id="Group_10" data-name="Group 10" transform="translate(0 -10)">
    <g id="Group_7" data-name="Group 7">
      <text id="Giv_mig_besked_ved_L" data-name="Giv mig besked ved L" transform="translate(0 10)" fill="#fff" font-size="12" font-family="Campton-Bold, Campton" font-weight="700"><tspan x="0" y="11">GIV MIG BESKED VED</tspan><tspan y="11" font-family="Campton-Book, Campton" font-weight="400"></tspan><tspan fill="#c2e8d5" font-size="16" font-family="Campton-Book, Campton" font-weight="400"><tspan x="0" y="49">Løn udbetaling</tspan><tspan x="0" y="87">Nye Spiir Treats</tspan><tspan x="0" y="125">Forbrugsmål</tspan></tspan></text>
      <rect id="Rectangle" width="305" height="1" transform="translate(0 35)" fill="#fff" opacity="0.3"/>
      <rect id="Rectangle-2" data-name="Rectangle" width="305" height="1" transform="translate(0 80)" fill="#fff" opacity="0.3"/>
      <rect id="Rectangle-3" data-name="Rectangle" width="305" height="1" transform="translate(0 125)" fill="#fff" opacity="0.3"/>
      <g id="Group_6" data-name="Group 6" transform="translate(257 46)">
        <rect id="Rectangle-4" data-name="Rectangle" width="48" height="24" rx="12" fill="#fbc234"/>
        <rect id="Rectangle_Copy" data-name="Rectangle Copy" width="48" height="24" rx="12" transform="translate(0 45)" fill="#fbc234"/>
        <rect id="Rectangle_Copy_3" data-name="Rectangle Copy 3" width="48" height="24" rx="12" transform="translate(0 90)" fill="#0f9752"/>
        <g transform="matrix(1, 0, 0, 1, -257, -36)" filter="url(#Oval)">
          <circle id="Oval-2" data-name="Oval" cx="10" cy="10" r="10" transform="translate(283 38)" fill="#fff"/>
        </g>
        <g transform="matrix(1, 0, 0, 1, -257, -36)" filter="url(#Oval_Copy_7)">
          <circle id="Oval_Copy_7-2" data-name="Oval Copy 7" cx="10" cy="10" r="10" transform="translate(283 83)" fill="#fff"/>
        </g>
        <g transform="matrix(1, 0, 0, 1, -257, -36)" filter="url(#Oval_Copy_8)">
          <circle id="Oval_Copy_8-2" data-name="Oval Copy 8" cx="10" cy="10" r="10" transform="translate(259 128)" fill="#fff"/>
        </g>
      </g>
    </g>
  </g>
</svg>
