<?xml version="1.0" encoding="UTF-8"?>
<svg width="40px" height="40px" viewBox="0 0 40 40" version="1.1" xmlns="http://www.w3.org/2000/svg" xmlns:xlink="http://www.w3.org/1999/xlink">
    <!-- Generator: Sketch 58 (84663) - https://sketch.com -->
    <title>Group 5</title>
    <desc>Created with Sketch.</desc>
    <g id="Design" stroke="none" stroke-width="1" fill="none" fill-rule="evenodd" opacity="0.900000036">
        <g id="Blog" transform="translate(-71.000000, -299.000000)" fill="#FFFFFF">
            <g id="Group-5" transform="translate(71.000000, 299.000000)">
                <path d="M20,0 C31.045695,0 40,8.954305 40,20 C40,31.045695 31.045695,40 20,40 C8.954305,40 0,31.045695 0,20 C0,8.954305 8.954305,0 20,0 Z M23.8673258,12.9407952 C23.3875477,12.3828791 22.5463304,12.3195357 21.9884143,12.7993137 L21.9884143,12.7993137 L13.9884143,19.6788863 C13.3689129,20.2116244 13.3704641,21.1713494 13.9916843,21.7020822 L13.9916843,21.7020822 L21.9916843,28.5367953 C22.5511484,29.0147674 23.3921566,28.9487051 23.8701286,28.389241 C24.3481007,27.8297769 24.2820384,26.9887687 23.7225743,26.5107966 L23.7225743,26.5107966 L16.9044122,20.6857739 L23.7258443,14.8197067 C24.2837604,14.3399287 24.3471038,13.4987113 23.8673258,12.9407952 Z" id="Combined-Shape"></path>
            </g>
        </g>
    </g>
</svg>