<svg xmlns="http://www.w3.org/2000/svg" xmlns:xlink="http://www.w3.org/1999/xlink" width="187" height="153" viewBox="0 0 187 153">
  <defs>
    <clipPath id="clip-path">
      <path id="Mask" d="M-78.751,151C-112.024,151-185,115.167-185,73.306-185,22.128-131.147,0-60.247,0A60.184,60.184,0,0,1,0,60.121C0,92.18-32.98,151-78.751,151Z" transform="translate(185)" fill="#fff" stroke="#e4ebe6" stroke-miterlimit="10" stroke-width="1"/>
    </clipPath>
  </defs>
  <g id="Group_30" data-name="Group 30" transform="translate(1 1)">
    <g id="Rectangle">
      <g id="Mask-2" data-name="Mask" transform="translate(185)" fill="#fff" stroke-miterlimit="10">
        <path d="M -78.75083160400391 151.5 C -82.90299987792969 151.5 -87.68690490722656 150.9510498046875 -92.96968841552734 149.8683776855469 C -98.18964385986328 148.7985992431641 -103.7693786621094 147.2344055175781 -109.553955078125 145.2192687988281 C -121.6400680541992 141.0088500976562 -133.7658843994141 135.1490936279297 -144.6204833984375 128.2734985351562 C -150.4109344482422 124.6056671142578 -155.7467346191406 120.7002105712891 -160.4797210693359 116.665641784668 C -165.5215759277344 112.3677368164062 -169.8917083740234 107.9104537963867 -173.4687805175781 103.417594909668 C -181.4521179199219 93.39042663574219 -185.5 83.25954437255859 -185.5 73.30640411376953 C -185.5 66.97737884521484 -184.6680908203125 60.92664337158203 -183.0273742675781 55.32223892211914 C -181.430908203125 49.86885833740234 -179.0309448242188 44.70859527587891 -175.8941955566406 39.98478698730469 C -169.8620452880859 30.90061950683594 -160.9637908935547 23.17423820495605 -149.4466400146484 17.02028656005859 C -138.5025482177734 11.17254734039307 -125.1448059082031 6.71319055557251 -109.744499206543 3.766071319580078 C -94.95223999023438 0.9353095293045044 -78.29875946044922 -0.5 -60.2467155456543 -0.5 C -52.04631042480469 -0.5 -44.09092712402344 1.102833390235901 -36.60154724121094 4.263952255249023 C -33.00197601318359 5.783285617828369 -29.53021430969238 7.663738250732422 -26.28271484375 9.853142738342285 C -23.06616592407227 12.02166652679443 -20.04147529602051 14.51204776763916 -17.29266738891602 17.25511932373047 C -14.54385757446289 19.99818992614746 -12.04823780059814 23.0165958404541 -9.875143051147461 26.22647666931152 C -7.681118965148926 29.46728515625 -5.796666622161865 32.93190383911133 -4.274118900299072 36.52407073974609 C -1.106238126754761 43.99816513061523 0.5 51.93730926513672 0.5 60.12099838256836 C 0.5 64.13816833496094 -0.01052380912005901 68.58371734619141 -1.017380952835083 73.33412170410156 C -2.019333362579346 78.06137847900391 -3.494142770767212 83.00354766845703 -5.400880813598633 88.02333068847656 C -9.384428977966309 98.51064300537109 -15.05883312225342 108.8355255126953 -21.81068992614746 117.8817367553711 C -25.41576194763184 122.7118835449219 -29.30580902099609 127.1452407836914 -33.37278747558594 131.0586853027344 C -37.68759536743164 135.2106475830078 -42.22857284545898 138.8014068603516 -46.86957168579102 141.7312622070312 C -57.13733291625977 148.2133331298828 -67.86373901367188 151.5 -78.75083160400391 151.5 Z" stroke="none"/>
        <path d="M -78.75082397460938 151 C -32.98007583618164 151 0 92.18015289306641 0 60.12099838256836 C 0 26.91707420349121 -26.97337532043457 0 -60.24670028686523 0 C -131.1471252441406 0 -185 22.12797546386719 -185 73.306396484375 C -185 115.1674728393555 -112.0241775512695 151 -78.75082397460938 151 M -78.75082397460938 152 C -82.93662261962891 152 -87.75432586669922 151.4476318359375 -93.07007598876953 150.3582000732422 C -98.31167602539062 149.2839813232422 -103.9130020141602 147.7138519287109 -109.7184219360352 145.6914215087891 C -121.8401489257812 141.4686279296875 -134.0016021728516 135.5916442871094 -144.8880310058594 128.6958770751953 C -150.6983032226562 125.0155029296875 -156.05322265625 121.095947265625 -160.8040771484375 117.0461502075195 C -165.8703002929688 112.7274780273438 -170.2629547119141 108.2469482421875 -173.8599548339844 103.7290267944336 C -177.7170257568359 98.88449859619141 -180.6991424560547 93.94422149658203 -182.7235260009766 89.04542541503906 C -184.8976287841797 83.78427124023438 -186 78.48889923095703 -186 73.306396484375 C -186 66.92980194091797 -185.1613311767578 60.8317985534668 -183.5072479248047 55.1817512512207 C -181.8966064453125 49.68002319335938 -179.4753570556641 44.47397613525391 -176.3107299804688 39.70819854736328 C -170.2322998046875 30.55434989929199 -161.273193359375 22.77264976501465 -149.6822814941406 16.57929992675781 C -138.6936950683594 10.70779991149902 -125.2883224487305 6.231575012207031 -109.8384780883789 3.274975061416626 C -95.01529693603516 0.4383000135421753 -78.33022308349609 -1 -60.24670028686523 -1 C -51.97914886474609 -1 -43.95835113525391 0.6160749793052673 -36.40710067749023 3.803299903869629 C -32.77782440185547 5.335175037384033 -29.27745056152344 7.231124877929688 -26.00320053100586 9.438549995422363 C -22.76027488708496 11.62485027313232 -19.71080017089844 14.13564968109131 -16.93947410583496 16.90117454528809 C -14.16812515258789 19.66674995422363 -11.65205001831055 22.70992469787598 -9.461099624633789 25.9461498260498 C -7.248974800109863 29.2137508392334 -5.348925113677979 32.70700073242188 -3.813775062561035 36.32894897460938 C -0.619575023651123 43.8651008605957 1 51.86989974975586 1 60.12099838256836 C 1 64.17295074462891 0.4858250021934509 68.65335083007812 -0.528249979019165 73.43777465820312 C -1.535500049591064 78.19012451171875 -3.01764988899231 83.15715026855469 -4.933475017547607 88.20089721679688 C -8.93327522277832 98.73100280761719 -14.63074970245361 109.097900390625 -21.40999984741211 118.1808242797852 C -25.03129959106445 123.0327224731445 -28.93952560424805 127.4866714477539 -33.02610015869141 131.4190063476562 C -37.36527633666992 135.5943756103516 -41.93307495117188 139.2061767578125 -46.6026496887207 142.1540679931641 C -56.95157623291016 148.6873474121094 -67.76777648925781 152 -78.75082397460938 152 Z" stroke="none" fill="#e4ebe6"/>
      </g>
      <g id="Rectangle-2" data-name="Rectangle" clip-path="url(#clip-path)">
        <path id="Rectangle-3" data-name="Rectangle" d="M0,0,78,3V17L33.838,19,0,17Z" transform="translate(-23 73)" fill="#15c46b"/>
        <path id="Rectangle_Copy_6" data-name="Rectangle Copy 6" d="M0,0,78,3V17L33.838,19,0,17Z" transform="translate(125 73)" fill="#15c46b"/>
      </g>
    </g>
    <g id="Group_28" data-name="Group 28" transform="translate(40.368 21.978) rotate(-3)">
      <g id="Group_29" data-name="Group 29">
        <path id="Rectangle-4" data-name="Rectangle" d="M58,67H1L0,29.5A27.875,27.875,0,0,1,2.4,18.25,31.156,31.156,0,0,1,18.25,2.4,27.875,27.875,0,0,1,29.5,0,29.418,29.418,0,0,1,40.75,2.24a30.258,30.258,0,0,1,9.4,6.108A28.876,28.876,0,0,1,56.6,17.407,26.842,26.842,0,0,1,59,28.5L58,67ZM29.5,11a18,18,0,0,0-6.656,1.219,15.157,15.157,0,0,0-8.626,8.626A18,18,0,0,0,13,27.5L12,56H47L46,28.5a18.138,18.138,0,0,0-4.625-12.375A15.934,15.934,0,0,0,29.5,11Z" transform="translate(16)" fill="#12aa5d"/>
        <path id="Rectangle-5" data-name="Rectangle" d="M2.474,13.29A14,14,0,0,1,16.456,0H75.373A14,14,0,0,1,89.352,13.241l1.846,34A14,14,0,0,1,77.219,62H14.729A14,14,0,0,1,.747,47.29Z" transform="translate(0 40.5)" fill="#12aa5d"/>
        <circle id="Oval" cx="8.5" cy="8.5" r="8.5" transform="translate(37 62.5)" fill="#fbc234"/>
      </g>
    </g>
    <rect id="Rectangle-6" data-name="Rectangle" width="8" height="20" rx="4" transform="translate(143 39)" fill="#077d40"/>
    <rect id="Rectangle_Copy_7" data-name="Rectangle Copy 7" width="7" height="17" rx="3.5" transform="translate(28 84)" fill="#077d40"/>
    <circle id="Oval-2" data-name="Oval" cx="7.5" cy="7.5" r="7.5" transform="translate(27 39)" fill="#077d40"/>
    <circle id="Oval_Copy_4" data-name="Oval Copy 4" cx="8.5" cy="8.5" r="8.5" transform="translate(126 86)" fill="#077d40" opacity="0.534"/>
  </g>
</svg>
