<svg xmlns="http://www.w3.org/2000/svg" width="186.666" height="40" viewBox="0 0 186.666 40">
  <g id="berlingske-grey_2" data-name="berlingske-grey 2" transform="translate(0)">
    <path id="Fill-2" d="M12.632,28.444H.031c-.017,0-.027-.085-.03-.247a6.6,6.6,0,0,1,.105-1.435c.96-.148,1.745-.287,2.332-.413.077-1.543.077-4.4.077-5.776V2.09L1.984,2C1.3,1.893.713,1.8.035,1.679.008,1.679,0,1.459,0,1.328A6.018,6.018,0,0,1,.109,0H12.056c4.318,0,7.163.516,8.953,1.624,1.656,1.026,2.428,2.594,2.428,4.937,0,3.511-2.363,5.678-7.436,6.821v.193c5.98.663,8.888,2.914,8.888,6.883a6.541,6.541,0,0,1-1.315,4.319,9.581,9.581,0,0,1-4.008,2.647A20.769,20.769,0,0,1,12.632,28.444ZM10.1,1.913h0V26.528h1.846c3.429,0,4.828-1.715,4.828-5.918,0-2.115-.387-3.485-1.254-4.442-.832-.918-2.114-1.49-4.285-1.912-.02,0-.036-.05-.046-.148s-.013-.2-.013-.353a4.526,4.526,0,0,1,.059-.9,7.211,7.211,0,0,0,2.529-.975c1.077-.637,2.073-1.621,2.073-4.483,0-2.171-.282-3.5-.916-4.32S13.284,1.92,11.641,1.915C11.626,1.914,10.557,1.913,10.1,1.913Z" transform="translate(0 1.778)" fill="#505050"/>
    <path id="Fill-4" d="M9.909,22.222c-3.262,0-5.79-1-7.511-2.977A11.2,11.2,0,0,1,0,11.757a12.6,12.6,0,0,1,3-8.71A9.337,9.337,0,0,1,9.961,0c2.957,0,5.21.825,6.7,2.451a7.4,7.4,0,0,1,1.676,3.225,13.011,13.011,0,0,1,.265,4.337H7.091c.141,4.876,2.212,7.349,6.158,7.349a8.261,8.261,0,0,0,5.275-2.06.036.036,0,0,1,.023-.011c.01,0,.02.007.029.021a3.964,3.964,0,0,1-.048,1.626,8.608,8.608,0,0,1-2.229,3.1A9.368,9.368,0,0,1,9.909,22.222ZM9.887,1.728A2.081,2.081,0,0,0,7.954,3.137,13.442,13.442,0,0,0,7.1,8.172l4.674-.494C11.773,3.23,11.3,1.728,9.887,1.728Z" transform="translate(26.667 9.778)" fill="#505050"/>
    <path id="Fill-6" d="M15.946.39A3.218,3.218,0,0,0,14.234.008c-2.2,0-4.193,2.466-5.143,5.287H8.943L9.05.271C9.05.193,8.827-.035,8.72,0,5.509.687,4.069.952.073,1.747A4.984,4.984,0,0,0,.036,3.212a12.866,12.866,0,0,1,1.806.534c.037,1.7.109,2.716.109,4.374v6.6c0,1.61-.035,3.466-.071,4.694-.645.114-.918.153-1.735.306a3.5,3.5,0,0,0-.039,1.616H11.277a6.026,6.026,0,0,0,.038-1.616c-.685-.116-1.441-.224-2.156-.336V7.091A6.656,6.656,0,0,1,13.1,5.843a4.131,4.131,0,0,1,2.21.645h.46a42.777,42.777,0,0,0,.178-6.1" transform="translate(46.222 9.778)" fill="#505050"/>
    <path id="Fill-8" d="M11.5,29.451c-.742-.118-.854-.159-1.626-.275V6.345c0-2.639.117-4.593.117-6.062A.346.346,0,0,0,9.638.006C8,.369,3.661,1.132.078,1.8A4.9,4.9,0,0,0,.039,3.3a14.412,14.412,0,0,1,1.945.551C2.024,5.6,2.1,6.641,2.1,8.346V24.318c0,1.661-.038,3.554-.077,4.82-.695.116-1,.161-1.867.314a3.436,3.436,0,0,0-.042,1.66H11.463a5.792,5.792,0,0,0,.042-1.66" transform="translate(61.333)" fill="#505050"/>
    <path id="Fill-10" d="M11.5,19.717c-.743-.115-.719-.155-1.495-.268V6.175c0-2.57.115-4.471.115-5.9A.342.342,0,0,0,9.765.006C8.106.357,3.708,1.1.08,1.749A4.523,4.523,0,0,0,.04,3.211a14.97,14.97,0,0,1,1.972.537c.04,1.7.119,2.716.119,4.374v6.6c0,1.61-.039,3.464-.079,4.693-.7.113-.56.153-1.452.306-.119,0-.2,1.616-.042,1.616h10.9a5.426,5.426,0,0,0,.042-1.616" transform="translate(72.889 9.778)" fill="#505050"/>
    <path id="Fill-12" d="M3.555,7.111A3.482,3.482,0,0,0,7.111,3.554,3.46,3.46,0,0,0,3.555,0,3.459,3.459,0,0,0,0,3.554,3.48,3.48,0,0,0,3.555,7.111" transform="translate(76.444 0.889)" fill="#505050"/>
    <path id="Fill-14" d="M23.05,19.717c-.681-.151-1.051-.227-1.765-.341V6.473c0-5.119-2.068-6.355-5.587-6.355a8.208,8.208,0,0,0-6.6,3.535H8.947L9.019.271c0-.078-.223-.306-.33-.266C5.5.682,4.047.952.072,1.747A5.047,5.047,0,0,0,.035,3.211a12.609,12.609,0,0,1,1.8.536c.043,1.675.108,2.716.108,4.374v6.6c0,1.606-.036,3.466-.071,4.692-.643.113-.511.153-1.326.306a3.524,3.524,0,0,0-.039,1.617H10.855a5.816,5.816,0,0,0,.038-1.617c-.679-.115-1.056-.155-1.764-.268V5.3a4.158,4.158,0,0,1,2.809-1.038c1.471,0,2.161.762,2.161,2.8v7.653c0,1.606,0,2.952-.071,4.692-.641.113-.871.153-1.693.306a4.162,4.162,0,0,0-.074,1.617H22.977a4.041,4.041,0,0,0,.073-1.617" transform="translate(85.333 9.778)" fill="#505050"/>
    <path id="Fill-16" d="M9.716,31.111C3.269,31.111,0,29.571,0,26.532a4.211,4.211,0,0,1,1.012-2.809c.037-.047.227-.071.55-.071a10.878,10.878,0,0,1,3.467.5.039.039,0,0,1,0,.041c-.038.067-.078.133-.117.2a3.716,3.716,0,0,0-.635,2.173,2.247,2.247,0,0,0,1.282,2.117,8.928,8.928,0,0,0,4.127.72,12.958,12.958,0,0,0,5.364-.969c1.312-.615,2.035-1.479,2.035-2.433,0-1.3-.329-1.692-2.51-1.812-.674-.037-1.5-.066-2.464-.1-1.085-.037-2.315-.079-3.6-.144-3.205-.179-4.764-1.622-4.764-4.412a4.262,4.262,0,0,1,2.7-4.218v-.158a7.6,7.6,0,0,1-5.05-7.3A7.219,7.219,0,0,1,4.255,1.9,9.9,9.9,0,0,1,10.172,0a9.241,9.241,0,0,1,5.9,2.1h.088L21.217.184h0a.011.011,0,0,1,.008,0,14.036,14.036,0,0,1,.108,2.371,12.38,12.38,0,0,1-.114,2.375l-3.361-1a8.316,8.316,0,0,1,1.02,4.077,7.24,7.24,0,0,1-2.847,5.968,9.823,9.823,0,0,1-5.892,1.9,9.934,9.934,0,0,1-2.279-.268,1.452,1.452,0,0,0-.124.628c0,.935.614,1.312,2.264,1.39l2.423.112c1.443.066,2.581.118,3.582.172a6.267,6.267,0,0,1,3.719,1.127c1.036.843,1.54,2.194,1.54,4.131a6.9,6.9,0,0,1-2.861,5.55C16.347,30.284,13.344,31.111,9.716,31.111Zm.421-29.08C8.6,2.031,8,3.665,8,7.859c0,4.339.58,5.952,2.141,5.952a1.5,1.5,0,0,0,1.122-.451c.739-.745,1.073-2.444,1.051-5.35a14.3,14.3,0,0,0-.518-4.664A1.692,1.692,0,0,0,10.138,2.031Z" transform="translate(107.556 8.889)" fill="#505050"/>
    <path id="Fill-18" d="M9.924,7.7C7.211,6.457,5.732,5.975,5.732,4.157c0-1.569,1.612-2.422,3.13-2.422,2.505,0,3.869,1.974,4.992,4.188h.863c.152,0,.265-4.821,0-4.975A13.219,13.219,0,0,0,9.158,0C4.505,0,0,2.481,0,7.477c0,3.953,2.583,5.746,4.974,6.793,3.785,1.66,4.834,2.425,4.834,4.048,0,1.541-1,2.2-2.915,2.2-3.476,0-5.025-3.9-5.668-5.017h-.9c-.152,0-.271,5.2,0,5.352a15.186,15.186,0,0,0,6.684,1.368c5.66,0,8.993-3,8.993-7.493C16,11.3,13.854,9.506,9.924,7.7" transform="translate(128.889 9.778)" fill="#505050"/>
    <path id="Fill-20" d="M11.507,29.451c-.711-.118-1.31-.159-2.046-.275V6.345c0-2.639.11-4.593.11-6.062A.337.337,0,0,0,9.227.006C7.662.369,3.506,1.132.075,1.8A5.086,5.086,0,0,0,.038,3.3,13.742,13.742,0,0,1,1.9,3.854c.039,1.743.113,2.789.113,4.493V24.318c0,1.661-.038,3.554-.075,4.82-.668.116-.937.157-1.787.314a3.584,3.584,0,0,0-.042,1.66H11.466a6.013,6.013,0,0,0,.04-1.66" transform="translate(144.889)" fill="#505050"/>
    <path id="Fill-22" d="M12.033,17.165A83.38,83.38,0,0,1,5.6,6.823V6.717A68.086,68.086,0,0,1,12.56.841V.066c-1.125-.073-4.525-.1-5.685,0A85.091,85.091,0,0,1,0,10.277v.662a30.629,30.629,0,0,0,2.668,5.394,20.805,20.805,0,0,0,2.7,3.855c2.409.184,6.347.257,8.729.257a6.9,6.9,0,0,0,.116-1.584c-.83-.189-1.3-.444-2.177-1.7" transform="translate(154.667 10.667)" fill="#505050"/>
    <path id="Fill-24" d="M9.911,22.222c-3.263,0-5.791-1-7.513-2.977A11.2,11.2,0,0,1,0,11.757a12.6,12.6,0,0,1,3-8.71A9.336,9.336,0,0,1,9.96,0c2.957,0,5.21.825,6.7,2.451a7.4,7.4,0,0,1,1.676,3.226,13.013,13.013,0,0,1,.266,4.337H7.088c.141,4.876,2.213,7.349,6.161,7.349a8.267,8.267,0,0,0,5.274-2.06.036.036,0,0,1,.023-.011.037.037,0,0,1,.029.021,3.841,3.841,0,0,1-.048,1.626,8.6,8.6,0,0,1-2.228,3.1A9.364,9.364,0,0,1,9.911,22.222ZM9.887,1.728A2.081,2.081,0,0,0,7.952,3.137,13.451,13.451,0,0,0,7.1,8.172l4.676-.494C11.775,3.23,11.3,1.728,9.887,1.728Z" transform="translate(168 9.778)" fill="#505050"/>
  </g>
</svg>
