<svg xmlns="http://www.w3.org/2000/svg" xmlns:xlink="http://www.w3.org/1999/xlink" width="193.188" height="147.364" viewBox="0 0 193.188 147.364">
  <defs>
    <clipPath id="clip-path">
      <path id="Mask" d="M73.733,145.364c47.22,0,125.659-14.8,107.55-63.818s-47.623-95-96.3-77.9S0,47.553,0,81.546,26.513,145.364,73.733,145.364Z" transform="translate(0 0)" fill="#eef5f0" stroke="#e4ebe6" stroke-miterlimit="10" stroke-width="1"/>
    </clipPath>
  </defs>
  <g id="artwork-1" transform="translate(4.643 1)">
    <g id="Group_20" data-name="Group 20" transform="translate(3.6)">
      <g id="Mask-2" data-name="Mask" transform="translate(0 0)" fill="#eef5f0" stroke-miterlimit="10">
        <path d="M 73.73319244384766 145.8644256591797 C 62.25936508178711 145.8644256591797 51.62316513061523 144.1076507568359 42.12004089355469 140.6429290771484 C 33.15744018554688 137.375244140625 25.31739044189453 132.6398468017578 18.81766510009766 126.5682754516602 C 6.360465526580811 114.9316253662109 -0.500009298324585 98.94247436523438 -0.500009298324585 81.54617309570312 C -0.500009298324585 73.21437835693359 1.685365676879883 65.0218505859375 5.995390892028809 57.19617462158203 C 10.0701904296875 49.79762649536133 16.09781646728516 42.62610244750977 23.91084098815918 35.88080215454102 C 31.32474136352539 29.48007583618164 40.41669082641602 23.39925003051758 50.93408966064453 17.80722618103027 C 60.98826599121094 12.46147632598877 72.38826751708984 7.537075996398926 84.81746673583984 3.170775890350342 C 91.75116729736328 0.735025942325592 98.55963897705078 -0.4999990463256836 105.0537643432617 -0.4999990463256836 C 109.6063385009766 -0.4999990463256836 114.1099624633789 0.1070509552955627 118.439567565918 1.304300904273987 C 122.5891647338867 2.451776027679443 126.6903381347656 4.172225952148438 130.6291656494141 6.41787576675415 C 134.3891906738281 8.561600685119629 138.1027679443359 11.24182605743408 141.666748046875 14.38415050506592 C 145.0562896728516 17.37265014648438 148.4024658203125 20.86020088195801 151.6123199462891 24.74992561340332 C 157.5184631347656 31.9069766998291 163.1957702636719 40.707275390625 168.4865875244141 50.90632629394531 C 173.1207427978516 59.83957672119141 177.5839691162109 70.09000396728516 181.7522430419922 81.37290191650391 C 184.0109100341797 87.48680114746094 184.8550872802734 93.32955169677734 184.2613372802734 98.73889923095703 C 183.7041931152344 103.8147735595703 181.8707733154297 108.6147994995117 178.81201171875 113.0056228637695 C 174.7392425537109 118.85205078125 168.4256591796875 124.0888748168945 160.0466918945312 128.5705718994141 C 152.5952453613281 132.5561828613281 143.4943389892578 135.9607543945312 132.9967956542969 138.6897277832031 C 123.6948394775391 141.1078948974609 113.4631195068359 142.9607696533203 102.5858154296875 144.1968994140625 C 92.98634338378906 145.2877960205078 83.00926208496094 145.8644256591797 73.73319244384766 145.8644256591797 Z" stroke="none"/>
        <path d="M 73.73320007324219 145.3644256591797 C 120.9535369873047 145.3644256591797 199.3921813964844 130.5644989013672 181.283203125 81.54617309570312 C 165.8114166259766 39.6663932800293 142.0140686035156 -1.695421019576315e-06 105.0537719726562 -1.695421019576315e-06 C 98.75377655029297 -1.695421019576315e-06 92.07207489013672 1.152260541915894 84.98320007324219 3.642531394958496 C 36.30587005615234 20.74253082275391 7.364908924500924e-06 47.55264282226562 7.364908924500924e-06 81.54617309570312 C 7.364908924500924e-06 115.5397262573242 26.51286888122559 145.3644256591797 73.73320007324219 145.3644256591797 M 73.73320007324219 146.3644256591797 C 62.20078659057617 146.3644256591797 51.50698089599609 144.5974731445312 41.94878387451172 141.1126708984375 C 32.92270278930664 137.8218688964844 25.02545166015625 133.0513610839844 18.47634124755859 126.9336395263672 C 5.916840553283691 115.2014236450195 -0.9999926090240479 99.08250427246094 -0.9999926090240479 81.54617309570312 C -0.9999926090240479 73.1290283203125 1.206257343292236 64.85536193847656 5.557451725006104 56.95497512817383 C 9.660979270935059 49.50425338745117 15.72600746154785 42.28656005859375 23.5841178894043 35.50233840942383 C 31.02620124816895 29.0772819519043 40.14908981323242 22.97525405883789 50.69936752319336 17.36575317382812 C 60.77567291259766 12.0082540512085 72.19889831542969 7.073642730712891 84.65175628662109 2.699059247970581 C 91.63880920410156 0.244531512260437 98.50303649902344 -0.9999962449073792 105.0537567138672 -0.9999962449073792 C 109.6513671875 -0.9999962449073792 114.1998443603516 -0.3868573904037476 118.5728378295898 0.8223926424980164 C 122.7623672485352 1.980892658233643 126.9020080566406 3.71736478805542 130.8768157958984 5.983531475067139 C 134.6663970947266 8.144086837768555 138.4078979492188 10.84428119659424 141.9974212646484 14.00911521911621 C 145.4066772460938 17.0150032043457 148.7713623046875 20.52167129516602 151.9979858398438 24.43169784545898 C 157.926513671875 31.61589241027832 163.6233978271484 40.44578170776367 168.9303894042969 50.67605972290039 C 173.5740966796875 59.6276969909668 178.0457916259766 69.89730834960938 182.2212371826172 81.19964599609375 C 186.6723480224609 93.24808502197266 185.6633453369141 104.0453338623047 179.2222595214844 113.2914199829102 C 175.1039581298828 119.2032241821289 168.7317047119141 124.4921951293945 160.2824859619141 129.011474609375 C 152.7962646484375 133.0157012939453 143.6583404541016 136.4347229003906 133.1225891113281 139.1736450195312 C 123.7979202270508 141.5977020263672 113.5428695678711 143.4549255371094 102.6422882080078 144.6936950683594 C 93.02439880371094 145.7866973876953 83.02778625488281 146.3644256591797 73.73320007324219 146.3644256591797 Z" stroke="none" fill="#e4ebe6"/>
      </g>
      <g id="Group_20-2" data-name="Group 20" clip-path="url(#clip-path)">
        <g id="Group_25" data-name="Group 25" transform="translate(72.9 31.543)">
          <path id="Fill_1" data-name="Fill 1" d="M34.443,27.053s2.145-4.291,3.839-7,2.823-6.774.791-8.92-5.532.113-7.451-4.854S24.96-.835,22.363.294s-3.726,4.855-7,3.839S7.8,3.456,5.427,6.279a12.419,12.419,0,0,0-2.6,10.161S-2.7,20.053,1.7,25.81L13.557,37.1Z" transform="translate(34.272 0.81)" fill="#444"/>
          <path id="Fill_4" data-name="Fill 4" d="M3.274,0l-.9,6.1L0,7.9,6.661,18.516l12.758-6.209-.9-3.726a26.8,26.8,0,0,0-4.741.226l.9-5.532Z" transform="translate(44.216 40.846)" fill="#b08173"/>
          <path id="Fill_6" data-name="Fill 6" d="M28.1,8.239a74.016,74.016,0,0,1-.514,9.628c-.6,4.255,1.461,12.736-4.338,16.646s-18.572.544-21.065-8.4A54.99,54.99,0,0,1,.071,8.413S4.064-.269,14,.006A16.836,16.836,0,0,1,28.1,8.239" transform="translate(41.127 9.882)" fill="#c08f80"/>
          <path id="Fill_58" data-name="Fill 58" d="M.008,1.127c-.129-1.484,1.357,0,3.02-.147S5.9-.883,6.027.6A2.875,2.875,0,0,1,3.251,3.549,2.87,2.87,0,0,1,.008,1.127" transform="translate(56.081 36.952)" fill="#fff"/>
          <path id="Fill_8" data-name="Fill 8" d="M8.386,3.215l-1.3-.032S4.682-.886,1.835.177s-2.077,4.79.236,7.312,5.557,2.654,5.963.52a27.3,27.3,0,0,0,.352-4.794" transform="translate(34.991 25.936)" fill="#c08f80"/>
          <path id="Fill_10" data-name="Fill 10" d="M.181,17.274S3.794,21.9,4.923,21.9s.339-4.291,1.017-8.694,2.823-6.887,6.323-6.661,9.6,1.92,13.322-.226a13.908,13.908,0,0,1,3.839,5.533c1.015,3.161.677,5.419.677,8.016a34.99,34.99,0,0,0,2.6-7.565c.451-3.048-1.469-8.694-5.42-9.935S10.681,0,10.681,0-1.625,4.177.181,17.274" transform="translate(38.615 7.991)" fill="#444"/>
          <path id="Fill_12" data-name="Fill 12" d="M11.767,97.849S6.2,96.494,4.994,89.118A125.081,125.081,0,0,0,15.23,77.827C18.693,73.161,29.305,56,20.95,46.064S3.112,31.161.853,23.484,1.531,0,1.531,0A56.815,56.815,0,0,0,20.95,5.871C31.79,7,36.079,4.742,36.079,4.742l-.452,7.677S62.5,26.871,59.789,47.645,34.273,77.9,34.273,77.9,23.886,90.547,11.767,97.849" transform="translate(26.652 86.346)" fill="#42a5f5"/>
          <path id="Fill_16" data-name="Fill 16" d="M1.181,15.236c-4.516,10.387,5.194,25.742,7.678,14S21.73,12.526,23.537,11.623,35.5-1.248,17.891.107C17.891.107,5.7,4.849,1.181,15.236Z" transform="translate(0.809 45.594)" fill="#c08f80"/>
        </g>
        <g id="Group_20-3" data-name="Group 20" transform="translate(18 34.243)">
          <path id="Fill_1-2" data-name="Fill 1" d="M51.587,5.04S51.464,2.351,45.6.761,31.661-.095,26.282,4.551,18.7,15.064,16.625,21.3,8.393,45.34,3.83,52.186-3.18,74.843,8.068,81.524s37,11.41,49.875-3.259,2.119-25.916,2.444-35.044,0-22.819-.325-27.382-3.1-12.225-8.476-10.8" transform="translate(8.48 0.882)" fill="#404040"/>
          <path id="Fill_5" data-name="Fill 5" d="M2.139.331C-.167-.478-.386,2.388.437,3.863a6.007,6.007,0,0,0,7.244,2.48C9.469,5.6,11.643,3.092,10.2,1.118A3.216,3.216,0,0,0,7.461.005,8.4,8.4,0,0,0,5.788.4,6.7,6.7,0,0,1,3.309.419c-.51-.054-.514.664-.112.824a4.1,4.1,0,0,0,2.554.246C7.306,1.137,10.116.434,9.532,3.234c-.465,2.228-3.475,3.046-5.408,2.5a5.559,5.559,0,0,1-2.219-1.3c-.76-.729-2.6-3.764.2-3.877A.117.117,0,0,0,2.139.331" transform="translate(35.578 27.548)"/>
          <path id="Fill_7" data-name="Fill 7" d="M22.819,5.868c0,.489-1.3,7.987-1.3,7.987s4.889,1.467,7.5,1.956,3.748,3.424,3.748,3.424L18.092,30.643,1.63,22.819s-1.3-15-.978-15.81S0,0,0,0,3.911,6.845,6.193,8.476s4.4,4.237,4.4,3.586,1.63-7.5,1.63-7.5Z" transform="translate(24.045 30.412)" fill="#e3bfa1"/>
          <path id="Fill_9" data-name="Fill 9" d="M9.225,5.432s-3.912,5.99-6.235,9.412-5.705,10.922.734,16.5c7.195,6.239,17.113,3.668,24.082-4.767S32.7,7.265,29.272,4.087,17.782-3.859,9.225,5.432" transform="translate(28.227 4.158)" fill="#ffd7b5"/>
          <path id="Fill_58-2" data-name="Fill 58" d="M.008,1.127c-.129-1.484,1.357,0,3.02-.147S5.9-.883,6.027.6A2.875,2.875,0,0,1,3.251,3.549,2.87,2.87,0,0,1,.008,1.127" transform="translate(38 29)" fill="#fff"/>
          <path id="Fill_11" data-name="Fill 11" d="M3.182.622C3.794.5,6.8-.98,8.561,1.111c1.956,2.323-.245,7.335-4.035,7.213S-.608,6.123.248,4.29A13.99,13.99,0,0,1,3.182.622" transform="translate(52.973 28.894)" fill="#ffd7b5"/>
          <path id="Fill_72" data-name="Fill 72" d="M0,2.532C0,1.833.568,0,1.267,0S2.534,1.833,2.534,2.532A1.267,1.267,0,1,1,0,2.532" transform="translate(57 34)" fill="#fff"/>
          <path id="Fill_13" data-name="Fill 13" d="M19.355,27.236S23.594,16.153,17.074,6.7c0,0-6.276-5.134-17.074.366C0,7.065.774.342,8.6.016S21.963,4.579,23.1,6.536s3.749,14.832-3.748,20.7" transform="translate(37.452 2.524)" fill="#12aa5d"/>
          <path id="Fill_15" data-name="Fill 15" d="M14.344,0S5.216,28.361,0,128.766c0,0,3.912,6.52,11.737,1.957l18.906-100.4,4.565,1.3a938.475,938.475,0,0,0,41.073,99.1s6.52,1.955,10.432-3.912c0,0-18.907-77.911-37.163-121.756A213.391,213.391,0,0,1,14.344,0" transform="translate(0.899 92.676)" fill="#444"/>
        </g>
      </g>
    </g>
    <path id="Fill_3" data-name="Fill 3" d="M26.145,5.988a2.076,2.076,0,0,0,.3-2.275c-.609-1.016-2.366-.475-2.366-.475.455-1.062.545-1.649-.516-2.255S21,1.239,21,1.239c.455-1.365-1.871-1.888-4.451-.067s-2.812,2.445-2.812,2.445a14.306,14.306,0,0,0-3.517,7.528c-.151.3-.333.654-.529,1.027C1.561,21.911,0,39.177,0,39.177c.489,14.343,14.017,7.987,13.366,0-.627-7.677.1-16.831,3.352-22.563l1.985.925c2.276,1.063,3.649-3.815,3.649-3.815l3.641-2.882a5.215,5.215,0,0,0,1.669-3.186c0-2.543-1.517-1.669-1.517-1.669" transform="translate(25.923 1.843)" fill="#ffd7b5"/>
    <path id="Fill_18" data-name="Fill 18" d="M57.218,101.853s6.031.978,10.106-2.119c0,0-1.63-20.048-2.608-27.872S62.923,42.686,49.069,40.241c0,0-4.238,9.129-16.789,6.032s-7.5-15-7.5-15-3.1-5.542-5.379-9.128S14.025,6.175,13.7.8C13.7.8,4.571-1,.334.8A65.729,65.729,0,0,0,3.268,27.854c4.727,13.528,7.987,15.81,7.823,25.59s-.163,23.308.164,33.25c0,0,5.541,4.4,16.951,5.542a68.127,68.127,0,0,0,18.255-.489c0,.515,4.238-25.265,4.238-25.265s1.957,11.247,3.26,18.418,3.26,16.951,3.26,16.951" transform="translate(25.59 40.223)" fill="#12aa5d"/>
    <path id="Combined_Shape" data-name="Combined Shape" d="M1.079,55.791C-3.662,39.533,8.757,42.468,8.757,42.468s10.961,2.9,16.032-3.388c5.626-6.975,3.179-19.11,3.163-19.193h0a5.141,5.141,0,0,1-5.193-2.258c-1.807-2.935-.679-6.1.677-4.515s2.145,2.032,2.823,1.354-.679-3.952-1.92-6.323-2.372-4.4-1.467-5.532S25.016,3.63,25.016,3.63,24,1.146,25.354.581s2.371,1.468,2.371,1.468S27.273.243,28.4.017,30.66,1.936,30.66,1.936s-.338-2.6,1.694-.113S37.773,11.984,36.305,15.6c4.742,14.225,2.71,32.741-10.84,39.515a26.816,26.816,0,0,1-11.935,2.479A45.943,45.943,0,0,1,1.079,55.791Z" transform="translate(146.959 44.033)" fill="#c08f80"/>
    <path id="Fill_23" data-name="Fill 23" d="M39.291,8.5A9.579,9.579,0,0,1,28,4.32S22.806.481,18.291.029,0,4.546,0,4.546L5.646,16.061a48,48,0,0,1,6.774.451S10.613,31.191,9.484,45.19a51.609,51.609,0,0,0,21.452,6.1c11.742.452,13.1-1.355,13.1-1.355s3.387-16.483,4.29-24.612a21.258,21.258,0,0,0,4.517,1.806L60.516,13.8S48.322,5.674,39.291,8.5" transform="translate(95.199 72.698)" fill="#3c3c3b"/>
    <circle id="Oval" cx="8.1" cy="8.1" r="8.1" transform="translate(139.5 9.943)" fill="#12aa5d"/>
    <path id="Path_2_Copy_2" data-name="Path 2 Copy 2" d="M17.435,13.765l-.632-1.95A7.066,7.066,0,0,0,6.5,7.905h0c-1.649.971-4.624-.283-5.08-2.141L0,0" transform="matrix(0.978, 0.208, -0.208, 0.978, 3.421, 64.08)" fill="none" stroke="#fbc234" stroke-linecap="round" stroke-linejoin="round" stroke-miterlimit="10" stroke-width="7.2"/>
  </g>
</svg>
